%TF.GenerationSoftware,KiCad,Pcbnew,9.0.7+1*%
%TF.CreationDate,2026-03-17T20:23:58+00:00*%
%TF.ProjectId,BeeLight,4265654c-6967-4687-942e-6b696361645f,rev?*%
%TF.SameCoordinates,Original*%
%TF.FileFunction,Copper,L2,Bot*%
%TF.FilePolarity,Positive*%
%FSLAX46Y46*%
G04 Gerber Fmt 4.6, Leading zero omitted, Abs format (unit mm)*
G04 Created by KiCad (PCBNEW 9.0.7+1) date 2026-03-17 20:23:58*
%MOMM*%
%LPD*%
G01*
G04 APERTURE LIST*
%TA.AperFunction,NonConductor*%
%ADD10C,0.200000*%
%TD*%
%ADD11C,0.120000*%
%TA.AperFunction,NonConductor*%
%ADD12C,0.120000*%
%TD*%
%TA.AperFunction,ComponentPad*%
%ADD13R,1.000000X1.000000*%
%TD*%
%TA.AperFunction,ComponentPad*%
%ADD14C,1.000000*%
%TD*%
%TA.AperFunction,ComponentPad*%
%ADD15C,2.775000*%
%TD*%
%TA.AperFunction,SMDPad,CuDef*%
%ADD16R,3.960000X3.960000*%
%TD*%
%TA.AperFunction,ViaPad*%
%ADD17C,0.800000*%
%TD*%
%TA.AperFunction,ViaPad*%
%ADD18C,0.450000*%
%TD*%
%TA.AperFunction,Conductor*%
%ADD19C,0.400000*%
%TD*%
%TA.AperFunction,Conductor*%
%ADD20C,0.200000*%
%TD*%
G04 APERTURE END LIST*
D10*
X122700000Y-85300000D02*
X124400000Y-85300000D01*
X124400000Y-87000000D01*
X122700000Y-87000000D01*
X122700000Y-85300000D01*
D11*
D12*
X123668672Y-85772045D02*
X123630576Y-85733950D01*
X123630576Y-85733950D02*
X123554386Y-85695855D01*
X123554386Y-85695855D02*
X123363910Y-85695855D01*
X123363910Y-85695855D02*
X123287719Y-85733950D01*
X123287719Y-85733950D02*
X123249624Y-85772045D01*
X123249624Y-85772045D02*
X123211529Y-85848236D01*
X123211529Y-85848236D02*
X123211529Y-85924426D01*
X123211529Y-85924426D02*
X123249624Y-86038712D01*
X123249624Y-86038712D02*
X123706767Y-86495855D01*
X123706767Y-86495855D02*
X123211529Y-86495855D01*
D13*
%TO.P,X102,1,VTref*%
%TO.N,+BATT*%
X150700000Y-84460000D03*
D14*
%TO.P,X102,2,SWDIO/TMS*%
%TO.N,SWDIO*%
X151970000Y-84460000D03*
%TO.P,X102,3,GND*%
%TO.N,GND*%
X150700000Y-85730000D03*
%TO.P,X102,4,SWCLK/TCK*%
%TO.N,SWDCLK*%
X151970000Y-85730000D03*
%TO.P,X102,5,GND*%
%TO.N,GND*%
X150700000Y-87000000D03*
%TO.P,X102,6,SWO/TDO*%
%TO.N,unconnected-(X102-SWO{slash}TDO-Pad6)*%
X151970000Y-87000000D03*
%TO.P,X102,7,KEY*%
%TO.N,unconnected-(X102-KEY-Pad7)*%
X150700000Y-88270000D03*
%TO.P,X102,8,NC/TDI*%
%TO.N,unconnected-(X102-NC{slash}TDI-Pad8)*%
X151970000Y-88270000D03*
%TO.P,X102,9,GNDDetect*%
%TO.N,unconnected-(X102-GNDDetect-Pad9)*%
X150700000Y-89540000D03*
%TO.P,X102,10,~{RESET}*%
%TO.N,~{RESET}*%
X151970000Y-89540000D03*
%TD*%
D15*
%TO.P,BT101,1,+*%
%TO.N,Net-(BT101-+)*%
X150700000Y-98700000D03*
X125300000Y-98700000D03*
D16*
%TO.P,BT101,2,-*%
%TO.N,GND*%
X138000000Y-98700000D03*
%TD*%
D17*
%TO.N,Net-(BT101-+)*%
X143900000Y-102300000D03*
D18*
%TO.N,GND*%
X129000000Y-97300000D03*
X132800000Y-85500000D03*
X143300000Y-82500000D03*
X132532500Y-96332500D03*
X126812500Y-89187500D03*
X137800000Y-109250000D03*
X142600000Y-94962500D03*
X123150000Y-89157880D03*
X131900000Y-93200000D03*
X145600000Y-88300000D03*
X143200000Y-93750000D03*
X133765000Y-95700000D03*
%TO.N,~{RESET}*%
X148332500Y-90400000D03*
%TO.N,INT*%
X125900000Y-90600000D03*
X127950000Y-90750000D03*
%TO.N,SDA*%
X129100000Y-91500000D03*
X129100000Y-86190380D03*
%TO.N,SWDIO*%
X147800000Y-85500000D03*
%TO.N,SWDCLK*%
X145700000Y-86250000D03*
%TD*%
D19*
%TO.N,Net-(BT101-+)*%
X128900000Y-102300000D02*
X125300000Y-98700000D01*
X143900000Y-102300000D02*
X128900000Y-102300000D01*
D20*
%TO.N,~{RESET}*%
X148332500Y-90400000D02*
X151110000Y-90400000D01*
X151110000Y-90400000D02*
X151970000Y-89540000D01*
%TO.N,INT*%
X126800000Y-90600000D02*
X125900000Y-90600000D01*
X127950000Y-90750000D02*
X126950000Y-90750000D01*
X126950000Y-90750000D02*
X126800000Y-90600000D01*
%TO.N,SDA*%
X129100000Y-86190380D02*
X129100000Y-91500000D01*
%TO.N,SWDIO*%
X151617106Y-83400000D02*
X151970000Y-83752894D01*
X148600000Y-83400000D02*
X151617106Y-83400000D01*
X147800000Y-84200000D02*
X148600000Y-83400000D01*
X147800000Y-85500000D02*
X147800000Y-84200000D01*
X151970000Y-83752894D02*
X151970000Y-84460000D01*
%TO.N,SWDCLK*%
X145700000Y-84465380D02*
X147090380Y-83075000D01*
X151775000Y-83075000D02*
X152695000Y-83995000D01*
X147090380Y-83075000D02*
X151775000Y-83075000D01*
X145700000Y-86250000D02*
X145700000Y-84465380D01*
X152695000Y-83995000D02*
X152695000Y-85005000D01*
X152695000Y-85005000D02*
X151970000Y-85730000D01*
%TD*%
%TA.AperFunction,Conductor*%
%TO.N,GND*%
G36*
X151188011Y-87398208D02*
G01*
X151255638Y-87296998D01*
X151255639Y-87296996D01*
X151278068Y-87242847D01*
X151311893Y-87209022D01*
X151359728Y-87209021D01*
X151393553Y-87242846D01*
X151415687Y-87296283D01*
X151415688Y-87296285D01*
X151415689Y-87296286D01*
X151484142Y-87398733D01*
X151571267Y-87485858D01*
X151673714Y-87554311D01*
X151673715Y-87554311D01*
X151673716Y-87554312D01*
X151729112Y-87577258D01*
X151762937Y-87611083D01*
X151762936Y-87658918D01*
X151729112Y-87692742D01*
X151673716Y-87715687D01*
X151673712Y-87715690D01*
X151571267Y-87784141D01*
X151484141Y-87871267D01*
X151415690Y-87973712D01*
X151415687Y-87973716D01*
X151392742Y-88029112D01*
X151358917Y-88062937D01*
X151311082Y-88062936D01*
X151277258Y-88029112D01*
X151254312Y-87973716D01*
X151254311Y-87973715D01*
X151254311Y-87973714D01*
X151185858Y-87871267D01*
X151098733Y-87784142D01*
X150996286Y-87715689D01*
X150996285Y-87715688D01*
X150996283Y-87715687D01*
X150942846Y-87693553D01*
X150909021Y-87659728D01*
X150909022Y-87611893D01*
X150942847Y-87578068D01*
X150996996Y-87555639D01*
X150996998Y-87555638D01*
X151098208Y-87488011D01*
X150880983Y-87270785D01*
X150899554Y-87260064D01*
X150960064Y-87199554D01*
X150970786Y-87180983D01*
X151188011Y-87398208D01*
G37*
%TD.AperFunction*%
%TA.AperFunction,Conductor*%
G36*
X151188011Y-86128208D02*
G01*
X151255638Y-86026998D01*
X151255639Y-86026996D01*
X151278068Y-85972847D01*
X151311893Y-85939022D01*
X151359728Y-85939021D01*
X151393553Y-85972846D01*
X151415687Y-86026283D01*
X151415688Y-86026285D01*
X151415689Y-86026286D01*
X151484142Y-86128733D01*
X151571267Y-86215858D01*
X151673714Y-86284311D01*
X151673715Y-86284311D01*
X151673716Y-86284312D01*
X151729112Y-86307258D01*
X151762937Y-86341083D01*
X151762936Y-86388918D01*
X151729112Y-86422742D01*
X151673716Y-86445687D01*
X151673712Y-86445690D01*
X151571267Y-86514141D01*
X151484141Y-86601267D01*
X151415690Y-86703712D01*
X151415687Y-86703716D01*
X151393553Y-86757153D01*
X151359728Y-86790978D01*
X151311893Y-86790977D01*
X151278068Y-86757152D01*
X151255638Y-86703001D01*
X151188011Y-86601790D01*
X150970785Y-86819015D01*
X150960064Y-86800446D01*
X150899554Y-86739936D01*
X150880981Y-86729213D01*
X151098208Y-86511987D01*
X150996997Y-86444361D01*
X150996998Y-86444361D01*
X150944806Y-86422743D01*
X150910981Y-86388918D01*
X150910980Y-86341083D01*
X150944806Y-86307257D01*
X150996995Y-86285639D01*
X150996998Y-86285638D01*
X151098208Y-86218011D01*
X150880983Y-86000785D01*
X150899554Y-85990064D01*
X150960064Y-85929554D01*
X150970786Y-85910983D01*
X151188011Y-86128208D01*
G37*
%TD.AperFunction*%
%TA.AperFunction,Conductor*%
G36*
X151432193Y-84783149D02*
G01*
X151439965Y-84792618D01*
X151484142Y-84858733D01*
X151571267Y-84945858D01*
X151673714Y-85014311D01*
X151673715Y-85014311D01*
X151673716Y-85014312D01*
X151729112Y-85037258D01*
X151762937Y-85071083D01*
X151762936Y-85118918D01*
X151729112Y-85152742D01*
X151673716Y-85175687D01*
X151673712Y-85175690D01*
X151571267Y-85244141D01*
X151484141Y-85331267D01*
X151415690Y-85433712D01*
X151415687Y-85433716D01*
X151393553Y-85487153D01*
X151359728Y-85520978D01*
X151311893Y-85520977D01*
X151278068Y-85487152D01*
X151255638Y-85433001D01*
X151188011Y-85331790D01*
X150970785Y-85549015D01*
X150960064Y-85530446D01*
X150899554Y-85469936D01*
X150880981Y-85459213D01*
X151098208Y-85241987D01*
X151035318Y-85199966D01*
X151008742Y-85160192D01*
X151018074Y-85113276D01*
X151057848Y-85086700D01*
X151070039Y-85085499D01*
X151212362Y-85085499D01*
X151248968Y-85078219D01*
X151290481Y-85050481D01*
X151318219Y-85008968D01*
X151325500Y-84972363D01*
X151325499Y-84827340D01*
X151343805Y-84783149D01*
X151387999Y-84764843D01*
X151432193Y-84783149D01*
G37*
%TD.AperFunction*%
%TA.AperFunction,Conductor*%
G36*
X153003056Y-82125801D02*
G01*
X153164482Y-82141699D01*
X153176491Y-82144088D01*
X153321250Y-82188000D01*
X153328766Y-82190280D01*
X153340085Y-82194969D01*
X153480420Y-82269980D01*
X153490607Y-82276787D01*
X153613606Y-82377729D01*
X153622270Y-82386393D01*
X153723212Y-82509392D01*
X153730019Y-82519579D01*
X153805030Y-82659914D01*
X153809719Y-82671233D01*
X153855910Y-82823504D01*
X153858300Y-82835521D01*
X153874199Y-82996943D01*
X153874500Y-83003069D01*
X153874500Y-109996930D01*
X153874199Y-110003056D01*
X153858300Y-110164478D01*
X153855910Y-110176495D01*
X153809719Y-110328766D01*
X153805030Y-110340085D01*
X153730019Y-110480420D01*
X153723212Y-110490607D01*
X153622270Y-110613606D01*
X153613606Y-110622270D01*
X153490607Y-110723212D01*
X153480420Y-110730019D01*
X153340085Y-110805030D01*
X153328766Y-110809719D01*
X153176495Y-110855910D01*
X153164478Y-110858300D01*
X153003056Y-110874199D01*
X152996930Y-110874500D01*
X123003070Y-110874500D01*
X122996944Y-110874199D01*
X122835521Y-110858300D01*
X122823504Y-110855910D01*
X122671233Y-110809719D01*
X122659914Y-110805030D01*
X122519579Y-110730019D01*
X122509392Y-110723212D01*
X122386393Y-110622270D01*
X122377729Y-110613606D01*
X122276787Y-110490607D01*
X122269980Y-110480420D01*
X122194969Y-110340085D01*
X122190280Y-110328766D01*
X122189867Y-110327405D01*
X122144088Y-110176491D01*
X122141699Y-110164478D01*
X122125801Y-110003056D01*
X122125500Y-109996930D01*
X122125500Y-107907488D01*
X123824500Y-107907488D01*
X123824500Y-108092511D01*
X123824501Y-108092527D01*
X123853444Y-108275261D01*
X123853444Y-108275262D01*
X123910620Y-108451233D01*
X123910621Y-108451236D01*
X123939710Y-108508325D01*
X123994622Y-108616096D01*
X123994625Y-108616100D01*
X124103378Y-108765786D01*
X124103385Y-108765794D01*
X124234205Y-108896614D01*
X124234213Y-108896621D01*
X124383904Y-109005378D01*
X124548765Y-109089379D01*
X124724736Y-109146555D01*
X124801755Y-109158753D01*
X124907472Y-109175498D01*
X124907478Y-109175498D01*
X124907486Y-109175500D01*
X124907488Y-109175500D01*
X125092512Y-109175500D01*
X125092514Y-109175500D01*
X125275264Y-109146555D01*
X125451235Y-109089379D01*
X125616096Y-109005378D01*
X125765787Y-108896621D01*
X125896621Y-108765787D01*
X126005378Y-108616096D01*
X126089379Y-108451235D01*
X126146555Y-108275264D01*
X126175500Y-108092514D01*
X126175500Y-107907488D01*
X149824500Y-107907488D01*
X149824500Y-108092511D01*
X149824501Y-108092527D01*
X149853444Y-108275261D01*
X149853444Y-108275262D01*
X149910620Y-108451233D01*
X149910621Y-108451236D01*
X149939710Y-108508325D01*
X149994622Y-108616096D01*
X149994625Y-108616100D01*
X150103378Y-108765786D01*
X150103385Y-108765794D01*
X150234205Y-108896614D01*
X150234213Y-108896621D01*
X150383904Y-109005378D01*
X150548765Y-109089379D01*
X150724736Y-109146555D01*
X150801755Y-109158753D01*
X150907472Y-109175498D01*
X150907478Y-109175498D01*
X150907486Y-109175500D01*
X150907488Y-109175500D01*
X151092512Y-109175500D01*
X151092514Y-109175500D01*
X151275264Y-109146555D01*
X151451235Y-109089379D01*
X151616096Y-109005378D01*
X151765787Y-108896621D01*
X151896621Y-108765787D01*
X152005378Y-108616096D01*
X152089379Y-108451235D01*
X152146555Y-108275264D01*
X152175500Y-108092514D01*
X152175500Y-107907486D01*
X152146555Y-107724736D01*
X152089379Y-107548765D01*
X152005378Y-107383904D01*
X151896621Y-107234213D01*
X151896614Y-107234205D01*
X151765794Y-107103385D01*
X151765786Y-107103378D01*
X151616100Y-106994625D01*
X151616096Y-106994622D01*
X151508325Y-106939710D01*
X151451236Y-106910621D01*
X151451233Y-106910620D01*
X151275262Y-106853444D01*
X151092527Y-106824501D01*
X151092515Y-106824500D01*
X151092514Y-106824500D01*
X150907486Y-106824500D01*
X150907484Y-106824500D01*
X150907472Y-106824501D01*
X150724738Y-106853444D01*
X150724737Y-106853444D01*
X150548766Y-106910620D01*
X150548763Y-106910621D01*
X150434584Y-106968799D01*
X150383904Y-106994622D01*
X150383901Y-106994623D01*
X150383899Y-106994625D01*
X150234213Y-107103378D01*
X150234205Y-107103385D01*
X150103385Y-107234205D01*
X150103378Y-107234213D01*
X149994625Y-107383899D01*
X149910621Y-107548763D01*
X149910620Y-107548766D01*
X149853444Y-107724737D01*
X149853444Y-107724738D01*
X149824501Y-107907472D01*
X149824500Y-107907488D01*
X126175500Y-107907488D01*
X126175500Y-107907486D01*
X126146555Y-107724736D01*
X126089379Y-107548765D01*
X126005378Y-107383904D01*
X125896621Y-107234213D01*
X125896614Y-107234205D01*
X125765794Y-107103385D01*
X125765786Y-107103378D01*
X125616100Y-106994625D01*
X125616096Y-106994622D01*
X125508325Y-106939710D01*
X125451236Y-106910621D01*
X125451233Y-106910620D01*
X125275262Y-106853444D01*
X125092527Y-106824501D01*
X125092515Y-106824500D01*
X125092514Y-106824500D01*
X124907486Y-106824500D01*
X124907484Y-106824500D01*
X124907472Y-106824501D01*
X124724738Y-106853444D01*
X124724737Y-106853444D01*
X124548766Y-106910620D01*
X124548763Y-106910621D01*
X124434584Y-106968799D01*
X124383904Y-106994622D01*
X124383901Y-106994623D01*
X124383899Y-106994625D01*
X124234213Y-107103378D01*
X124234205Y-107103385D01*
X124103385Y-107234205D01*
X124103378Y-107234213D01*
X123994625Y-107383899D01*
X123910621Y-107548763D01*
X123910620Y-107548766D01*
X123853444Y-107724737D01*
X123853444Y-107724738D01*
X123824501Y-107907472D01*
X123824500Y-107907488D01*
X122125500Y-107907488D01*
X122125500Y-98580926D01*
X123787000Y-98580926D01*
X123787000Y-98819073D01*
X123787001Y-98819087D01*
X123824255Y-99054294D01*
X123824256Y-99054297D01*
X123897846Y-99280784D01*
X123897848Y-99280791D01*
X123897851Y-99280796D01*
X124005967Y-99492985D01*
X124005970Y-99492989D01*
X124145948Y-99685652D01*
X124145955Y-99685660D01*
X124314339Y-99854044D01*
X124314347Y-99854051D01*
X124507015Y-99994033D01*
X124719210Y-100102152D01*
X124945705Y-100175744D01*
X125180924Y-100213000D01*
X125180926Y-100213000D01*
X125419074Y-100213000D01*
X125419076Y-100213000D01*
X125654295Y-100175744D01*
X125880790Y-100102152D01*
X126079502Y-100000903D01*
X126127189Y-99997150D01*
X126152070Y-100012397D01*
X128637347Y-102497673D01*
X128637352Y-102497679D01*
X128639535Y-102499862D01*
X128700138Y-102560465D01*
X128737248Y-102581890D01*
X128737249Y-102581891D01*
X128737250Y-102581891D01*
X128774361Y-102603318D01*
X128857147Y-102625500D01*
X143456442Y-102625500D01*
X143500636Y-102643806D01*
X143577335Y-102720505D01*
X143697164Y-102789688D01*
X143697167Y-102789689D01*
X143778955Y-102811603D01*
X143830817Y-102825500D01*
X143830818Y-102825500D01*
X143969182Y-102825500D01*
X143969183Y-102825500D01*
X144102836Y-102789688D01*
X144222665Y-102720505D01*
X144320505Y-102622665D01*
X144389688Y-102502836D01*
X144425500Y-102369183D01*
X144425500Y-102230817D01*
X144389688Y-102097164D01*
X144320505Y-101977335D01*
X144320503Y-101977333D01*
X144320500Y-101977329D01*
X144222670Y-101879499D01*
X144222666Y-101879496D01*
X144222665Y-101879495D01*
X144162750Y-101844903D01*
X144102835Y-101810311D01*
X144102832Y-101810310D01*
X143969189Y-101774501D01*
X143969184Y-101774500D01*
X143969183Y-101774500D01*
X143830817Y-101774500D01*
X143830816Y-101774500D01*
X143830810Y-101774501D01*
X143697167Y-101810310D01*
X143697164Y-101810311D01*
X143577333Y-101879496D01*
X143577330Y-101879499D01*
X143500636Y-101956194D01*
X143456442Y-101974500D01*
X129060714Y-101974500D01*
X129016520Y-101956194D01*
X127752834Y-100692507D01*
X135892999Y-100692507D01*
X135900369Y-100729553D01*
X135900369Y-100729554D01*
X135928438Y-100771561D01*
X135970446Y-100799630D01*
X136007493Y-100807000D01*
X137936500Y-100807000D01*
X138063500Y-100807000D01*
X139992507Y-100807000D01*
X140029553Y-100799630D01*
X140029554Y-100799630D01*
X140071561Y-100771561D01*
X140099630Y-100729554D01*
X140099630Y-100729553D01*
X140107000Y-100692507D01*
X140107000Y-98763500D01*
X138063500Y-98763500D01*
X138063500Y-100807000D01*
X137936500Y-100807000D01*
X137936500Y-98763500D01*
X135893000Y-98763500D01*
X135893000Y-100692507D01*
X135892999Y-100692507D01*
X127752834Y-100692507D01*
X126612397Y-99552070D01*
X126594091Y-99507876D01*
X126600903Y-99479502D01*
X126606258Y-99468991D01*
X126702152Y-99280790D01*
X126775744Y-99054295D01*
X126813000Y-98819076D01*
X126813000Y-98580924D01*
X126775744Y-98345705D01*
X126702152Y-98119210D01*
X126594033Y-97907015D01*
X126454051Y-97714347D01*
X126454044Y-97714339D01*
X126285660Y-97545955D01*
X126285652Y-97545948D01*
X126092989Y-97405970D01*
X126092985Y-97405967D01*
X125954271Y-97335288D01*
X125880791Y-97297848D01*
X125880784Y-97297846D01*
X125654297Y-97224256D01*
X125654294Y-97224255D01*
X125419087Y-97187001D01*
X125419077Y-97187000D01*
X125419076Y-97187000D01*
X125180924Y-97187000D01*
X125180922Y-97187000D01*
X125180912Y-97187001D01*
X124945705Y-97224255D01*
X124945702Y-97224256D01*
X124719215Y-97297846D01*
X124719208Y-97297848D01*
X124572247Y-97372729D01*
X124507015Y-97405967D01*
X124507012Y-97405968D01*
X124507010Y-97405970D01*
X124314347Y-97545948D01*
X124314339Y-97545955D01*
X124145955Y-97714339D01*
X124145948Y-97714347D01*
X124005970Y-97907010D01*
X123897848Y-98119208D01*
X123897846Y-98119215D01*
X123824256Y-98345702D01*
X123824255Y-98345705D01*
X123787001Y-98580912D01*
X123787000Y-98580926D01*
X122125500Y-98580926D01*
X122125500Y-96707492D01*
X135893000Y-96707492D01*
X135893000Y-98636500D01*
X137936500Y-98636500D01*
X138063500Y-98636500D01*
X140107000Y-98636500D01*
X140107000Y-98580926D01*
X149187000Y-98580926D01*
X149187000Y-98819073D01*
X149187001Y-98819087D01*
X149224255Y-99054294D01*
X149224256Y-99054297D01*
X149297846Y-99280784D01*
X149297848Y-99280791D01*
X149297851Y-99280796D01*
X149405967Y-99492985D01*
X149405970Y-99492989D01*
X149545948Y-99685652D01*
X149545955Y-99685660D01*
X149714339Y-99854044D01*
X149714347Y-99854051D01*
X149907015Y-99994033D01*
X150119210Y-100102152D01*
X150345705Y-100175744D01*
X150580924Y-100213000D01*
X150580926Y-100213000D01*
X150819074Y-100213000D01*
X150819076Y-100213000D01*
X151054295Y-100175744D01*
X151280790Y-100102152D01*
X151492985Y-99994033D01*
X151685653Y-99854051D01*
X151854051Y-99685653D01*
X151994033Y-99492985D01*
X152102152Y-99280790D01*
X152175744Y-99054295D01*
X152213000Y-98819076D01*
X152213000Y-98580924D01*
X152175744Y-98345705D01*
X152102152Y-98119210D01*
X151994033Y-97907015D01*
X151854051Y-97714347D01*
X151854044Y-97714339D01*
X151685660Y-97545955D01*
X151685652Y-97545948D01*
X151492989Y-97405970D01*
X151492985Y-97405967D01*
X151354271Y-97335288D01*
X151280791Y-97297848D01*
X151280784Y-97297846D01*
X151054297Y-97224256D01*
X151054294Y-97224255D01*
X150819087Y-97187001D01*
X150819077Y-97187000D01*
X150819076Y-97187000D01*
X150580924Y-97187000D01*
X150580922Y-97187000D01*
X150580912Y-97187001D01*
X150345705Y-97224255D01*
X150345702Y-97224256D01*
X150119215Y-97297846D01*
X150119208Y-97297848D01*
X149972247Y-97372729D01*
X149907015Y-97405967D01*
X149907012Y-97405968D01*
X149907010Y-97405970D01*
X149714347Y-97545948D01*
X149714339Y-97545955D01*
X149545955Y-97714339D01*
X149545948Y-97714347D01*
X149405970Y-97907010D01*
X149297848Y-98119208D01*
X149297846Y-98119215D01*
X149224256Y-98345702D01*
X149224255Y-98345705D01*
X149187001Y-98580912D01*
X149187000Y-98580926D01*
X140107000Y-98580926D01*
X140107000Y-96707492D01*
X140099630Y-96670446D01*
X140099630Y-96670445D01*
X140071561Y-96628438D01*
X140029553Y-96600369D01*
X139992507Y-96593000D01*
X138063500Y-96593000D01*
X138063500Y-98636500D01*
X137936500Y-98636500D01*
X137936500Y-96593000D01*
X136007493Y-96593000D01*
X135970446Y-96600369D01*
X135970445Y-96600369D01*
X135928438Y-96628438D01*
X135900369Y-96670445D01*
X135900369Y-96670446D01*
X135893000Y-96707492D01*
X122125500Y-96707492D01*
X122125500Y-90553857D01*
X125549500Y-90553857D01*
X125549500Y-90646142D01*
X125549501Y-90646150D01*
X125573385Y-90735287D01*
X125573386Y-90735290D01*
X125619530Y-90815211D01*
X125619535Y-90815217D01*
X125684782Y-90880464D01*
X125684788Y-90880469D01*
X125764709Y-90926613D01*
X125764712Y-90926614D01*
X125853856Y-90950500D01*
X125853857Y-90950500D01*
X125946143Y-90950500D01*
X125946144Y-90950500D01*
X126035288Y-90926614D01*
X126115212Y-90880469D01*
X126151875Y-90843805D01*
X126196068Y-90825500D01*
X126680707Y-90825500D01*
X126724901Y-90843806D01*
X126755261Y-90874166D01*
X126755274Y-90874181D01*
X126807707Y-90926613D01*
X126822264Y-90941170D01*
X126844789Y-90950500D01*
X126905145Y-90975501D01*
X127002128Y-90975501D01*
X127002136Y-90975500D01*
X127653931Y-90975500D01*
X127698125Y-90993806D01*
X127734783Y-91030464D01*
X127734787Y-91030468D01*
X127734788Y-91030469D01*
X127814709Y-91076613D01*
X127814712Y-91076614D01*
X127903856Y-91100500D01*
X127903857Y-91100500D01*
X127996143Y-91100500D01*
X127996144Y-91100500D01*
X128085288Y-91076614D01*
X128165212Y-91030469D01*
X128230469Y-90965212D01*
X128276614Y-90885288D01*
X128300500Y-90796144D01*
X128300500Y-90703856D01*
X128276614Y-90614712D01*
X128276613Y-90614709D01*
X128230469Y-90534788D01*
X128230464Y-90534782D01*
X128165217Y-90469535D01*
X128165211Y-90469530D01*
X128085290Y-90423386D01*
X128085287Y-90423385D01*
X127996150Y-90399501D01*
X127996145Y-90399500D01*
X127996144Y-90399500D01*
X127903856Y-90399500D01*
X127903855Y-90399500D01*
X127903849Y-90399501D01*
X127814712Y-90423385D01*
X127814709Y-90423386D01*
X127734788Y-90469530D01*
X127734787Y-90469531D01*
X127723264Y-90481055D01*
X127698124Y-90506194D01*
X127653932Y-90524500D01*
X127069293Y-90524500D01*
X127025099Y-90506194D01*
X126999961Y-90481056D01*
X126999961Y-90481055D01*
X126927738Y-90408831D01*
X126927736Y-90408830D01*
X126903460Y-90398774D01*
X126903459Y-90398773D01*
X126844857Y-90374499D01*
X126844855Y-90374499D01*
X126755145Y-90374499D01*
X126747872Y-90374499D01*
X126747864Y-90374500D01*
X126196069Y-90374500D01*
X126151875Y-90356194D01*
X126115212Y-90319531D01*
X126115211Y-90319530D01*
X126035290Y-90273386D01*
X126035287Y-90273385D01*
X125946150Y-90249501D01*
X125946145Y-90249500D01*
X125946144Y-90249500D01*
X125853856Y-90249500D01*
X125853855Y-90249500D01*
X125853849Y-90249501D01*
X125764712Y-90273385D01*
X125764709Y-90273386D01*
X125684788Y-90319530D01*
X125684782Y-90319535D01*
X125619535Y-90384782D01*
X125619530Y-90384788D01*
X125573386Y-90464709D01*
X125573385Y-90464712D01*
X125549501Y-90553849D01*
X125549500Y-90553857D01*
X122125500Y-90553857D01*
X122125500Y-85255145D01*
X122474500Y-85255145D01*
X122474500Y-87044855D01*
X122508830Y-87127736D01*
X122572264Y-87191170D01*
X122655145Y-87225500D01*
X122655147Y-87225500D01*
X124444853Y-87225500D01*
X124444855Y-87225500D01*
X124527736Y-87191170D01*
X124591170Y-87127736D01*
X124625500Y-87044855D01*
X124625500Y-86144237D01*
X128749500Y-86144237D01*
X128749500Y-86236522D01*
X128749501Y-86236530D01*
X128773385Y-86325667D01*
X128773386Y-86325670D01*
X128819530Y-86405591D01*
X128819531Y-86405592D01*
X128856194Y-86442255D01*
X128874500Y-86486448D01*
X128874500Y-91203930D01*
X128856194Y-91248124D01*
X128819535Y-91284782D01*
X128819530Y-91284788D01*
X128773386Y-91364709D01*
X128773385Y-91364712D01*
X128749501Y-91453849D01*
X128749500Y-91453857D01*
X128749500Y-91546142D01*
X128749501Y-91546150D01*
X128773385Y-91635287D01*
X128773386Y-91635290D01*
X128819530Y-91715211D01*
X128819535Y-91715217D01*
X128884782Y-91780464D01*
X128884788Y-91780469D01*
X128964709Y-91826613D01*
X128964712Y-91826614D01*
X129053856Y-91850500D01*
X129053857Y-91850500D01*
X129146143Y-91850500D01*
X129146144Y-91850500D01*
X129235288Y-91826614D01*
X129315212Y-91780469D01*
X129380469Y-91715212D01*
X129426614Y-91635288D01*
X129450500Y-91546144D01*
X129450500Y-91453856D01*
X129426614Y-91364712D01*
X129426613Y-91364709D01*
X129380469Y-91284788D01*
X129380464Y-91284782D01*
X129343806Y-91248124D01*
X129325500Y-91203930D01*
X129325500Y-86486449D01*
X129343806Y-86442255D01*
X129380469Y-86405592D01*
X129426614Y-86325668D01*
X129450500Y-86236524D01*
X129450500Y-86203857D01*
X145349500Y-86203857D01*
X145349500Y-86296142D01*
X145349501Y-86296150D01*
X145373385Y-86385287D01*
X145373386Y-86385290D01*
X145419530Y-86465211D01*
X145419535Y-86465217D01*
X145484782Y-86530464D01*
X145484788Y-86530469D01*
X145564709Y-86576613D01*
X145564712Y-86576614D01*
X145653856Y-86600500D01*
X145653857Y-86600500D01*
X145746143Y-86600500D01*
X145746144Y-86600500D01*
X145835288Y-86576614D01*
X145915212Y-86530469D01*
X145980469Y-86465212D01*
X146026614Y-86385288D01*
X146050500Y-86296144D01*
X146050500Y-86203856D01*
X146050500Y-86203853D01*
X146026614Y-86114712D01*
X146026613Y-86114709D01*
X145980469Y-86034788D01*
X145980464Y-86034782D01*
X145943806Y-85998124D01*
X145925500Y-85953930D01*
X145925500Y-84584673D01*
X145943806Y-84540479D01*
X147165479Y-83318806D01*
X147209673Y-83300500D01*
X148229707Y-83300500D01*
X148273901Y-83318806D01*
X148292207Y-83363000D01*
X148273901Y-83407194D01*
X147672265Y-84008829D01*
X147608829Y-84072264D01*
X147604072Y-84083750D01*
X147604072Y-84083751D01*
X147574499Y-84155143D01*
X147574499Y-84252127D01*
X147574500Y-84252136D01*
X147574500Y-85203930D01*
X147556194Y-85248124D01*
X147519535Y-85284782D01*
X147519530Y-85284788D01*
X147473386Y-85364709D01*
X147473385Y-85364712D01*
X147449501Y-85453849D01*
X147449500Y-85453857D01*
X147449500Y-85546142D01*
X147449501Y-85546150D01*
X147473385Y-85635287D01*
X147473386Y-85635290D01*
X147519530Y-85715211D01*
X147519535Y-85715217D01*
X147584782Y-85780464D01*
X147584788Y-85780469D01*
X147664709Y-85826613D01*
X147664712Y-85826614D01*
X147753856Y-85850500D01*
X147753857Y-85850500D01*
X147846143Y-85850500D01*
X147846144Y-85850500D01*
X147935288Y-85826614D01*
X148015212Y-85780469D01*
X148080469Y-85715212D01*
X148126614Y-85635288D01*
X148150500Y-85546144D01*
X148150500Y-85453856D01*
X148126614Y-85364712D01*
X148126613Y-85364709D01*
X148080469Y-85284788D01*
X148080464Y-85284782D01*
X148043806Y-85248124D01*
X148025500Y-85203930D01*
X148025500Y-84319293D01*
X148043806Y-84275099D01*
X148675099Y-83643806D01*
X148719293Y-83625500D01*
X151497813Y-83625500D01*
X151542007Y-83643806D01*
X151699621Y-83801420D01*
X151717927Y-83845614D01*
X151699621Y-83889808D01*
X151679347Y-83903355D01*
X151673718Y-83905686D01*
X151673712Y-83905690D01*
X151571267Y-83974141D01*
X151484144Y-84061264D01*
X151439966Y-84127381D01*
X151400192Y-84153956D01*
X151353275Y-84144624D01*
X151326700Y-84104850D01*
X151325499Y-84092657D01*
X151325499Y-83947641D01*
X151325499Y-83947638D01*
X151318219Y-83911032D01*
X151290481Y-83869519D01*
X151254705Y-83845614D01*
X151248970Y-83841782D01*
X151248966Y-83841780D01*
X151221450Y-83836307D01*
X151212363Y-83834500D01*
X151212362Y-83834500D01*
X150187641Y-83834500D01*
X150187640Y-83834500D01*
X150187638Y-83834501D01*
X150177222Y-83836572D01*
X150151032Y-83841780D01*
X150109519Y-83869519D01*
X150081782Y-83911029D01*
X150081780Y-83911033D01*
X150074500Y-83947636D01*
X150074500Y-84972358D01*
X150074501Y-84972362D01*
X150077608Y-84987984D01*
X150081780Y-85008967D01*
X150081781Y-85008968D01*
X150109519Y-85050481D01*
X150151032Y-85078219D01*
X150187637Y-85085500D01*
X150329959Y-85085499D01*
X150374151Y-85103805D01*
X150392457Y-85147999D01*
X150374151Y-85192193D01*
X150364680Y-85199966D01*
X150301790Y-85241987D01*
X150519016Y-85459213D01*
X150500446Y-85469936D01*
X150439936Y-85530446D01*
X150429213Y-85549016D01*
X150211987Y-85331790D01*
X150144361Y-85433000D01*
X150144360Y-85433003D01*
X150097094Y-85547112D01*
X150073000Y-85668245D01*
X150073000Y-85791754D01*
X150097094Y-85912887D01*
X150097094Y-85912888D01*
X150144358Y-86026993D01*
X150144361Y-86026997D01*
X150211987Y-86128208D01*
X150429213Y-85910981D01*
X150439936Y-85929554D01*
X150500446Y-85990064D01*
X150519016Y-86000785D01*
X150301790Y-86218011D01*
X150403002Y-86285638D01*
X150403006Y-86285641D01*
X150455194Y-86307258D01*
X150489018Y-86341082D01*
X150489018Y-86388918D01*
X150455194Y-86422742D01*
X150403003Y-86444360D01*
X150403000Y-86444361D01*
X150301790Y-86511987D01*
X150519016Y-86729213D01*
X150500446Y-86739936D01*
X150439936Y-86800446D01*
X150429213Y-86819016D01*
X150211987Y-86601790D01*
X150144361Y-86703000D01*
X150144360Y-86703003D01*
X150097094Y-86817112D01*
X150073000Y-86938245D01*
X150073000Y-87061754D01*
X150097094Y-87182887D01*
X150097094Y-87182888D01*
X150144358Y-87296993D01*
X150144361Y-87296997D01*
X150211987Y-87398208D01*
X150429213Y-87180981D01*
X150439936Y-87199554D01*
X150500446Y-87260064D01*
X150519016Y-87270785D01*
X150301790Y-87488011D01*
X150403002Y-87555638D01*
X150403001Y-87555638D01*
X150457152Y-87578068D01*
X150490977Y-87611893D01*
X150490978Y-87659728D01*
X150457153Y-87693553D01*
X150403716Y-87715687D01*
X150403712Y-87715690D01*
X150301267Y-87784141D01*
X150214141Y-87871267D01*
X150145690Y-87973712D01*
X150145687Y-87973716D01*
X150098537Y-88087546D01*
X150098536Y-88087549D01*
X150074500Y-88208393D01*
X150074500Y-88331606D01*
X150098536Y-88452450D01*
X150098537Y-88452453D01*
X150145687Y-88566283D01*
X150145688Y-88566285D01*
X150145689Y-88566286D01*
X150214142Y-88668733D01*
X150301267Y-88755858D01*
X150403714Y-88824311D01*
X150403715Y-88824311D01*
X150403716Y-88824312D01*
X150459112Y-88847258D01*
X150492937Y-88881083D01*
X150492936Y-88928918D01*
X150459112Y-88962742D01*
X150403716Y-88985687D01*
X150403712Y-88985690D01*
X150301267Y-89054141D01*
X150214141Y-89141267D01*
X150145690Y-89243712D01*
X150145687Y-89243716D01*
X150098537Y-89357546D01*
X150098536Y-89357549D01*
X150074500Y-89478393D01*
X150074500Y-89601606D01*
X150098536Y-89722450D01*
X150098537Y-89722453D01*
X150145687Y-89836283D01*
X150145690Y-89836287D01*
X150214141Y-89938732D01*
X150301267Y-90025858D01*
X150352413Y-90060033D01*
X150378989Y-90099807D01*
X150369657Y-90146723D01*
X150329883Y-90173299D01*
X150317690Y-90174500D01*
X148628569Y-90174500D01*
X148584375Y-90156194D01*
X148547712Y-90119531D01*
X148547711Y-90119530D01*
X148467790Y-90073386D01*
X148467787Y-90073385D01*
X148378650Y-90049501D01*
X148378645Y-90049500D01*
X148378644Y-90049500D01*
X148286356Y-90049500D01*
X148286355Y-90049500D01*
X148286349Y-90049501D01*
X148197212Y-90073385D01*
X148197209Y-90073386D01*
X148117288Y-90119530D01*
X148117282Y-90119535D01*
X148052035Y-90184782D01*
X148052030Y-90184788D01*
X148005886Y-90264709D01*
X148005885Y-90264712D01*
X147982001Y-90353849D01*
X147982000Y-90353857D01*
X147982000Y-90446142D01*
X147982001Y-90446150D01*
X148005885Y-90535287D01*
X148005886Y-90535290D01*
X148052030Y-90615211D01*
X148052035Y-90615217D01*
X148117282Y-90680464D01*
X148117288Y-90680469D01*
X148197209Y-90726613D01*
X148197212Y-90726614D01*
X148286356Y-90750500D01*
X148286357Y-90750500D01*
X148378643Y-90750500D01*
X148378644Y-90750500D01*
X148467788Y-90726614D01*
X148547712Y-90680469D01*
X148584375Y-90643805D01*
X148628568Y-90625500D01*
X151057864Y-90625500D01*
X151057872Y-90625501D01*
X151065145Y-90625501D01*
X151154855Y-90625501D01*
X151184157Y-90613363D01*
X151213459Y-90601226D01*
X151213459Y-90601225D01*
X151213460Y-90601225D01*
X151237736Y-90591170D01*
X151301170Y-90527736D01*
X151301170Y-90527735D01*
X151309958Y-90518947D01*
X151309960Y-90518944D01*
X151687233Y-90141670D01*
X151731426Y-90123365D01*
X151755341Y-90128122D01*
X151787548Y-90141463D01*
X151908394Y-90165500D01*
X151908395Y-90165500D01*
X152031605Y-90165500D01*
X152031606Y-90165500D01*
X152152452Y-90141463D01*
X152266286Y-90094311D01*
X152368733Y-90025858D01*
X152455858Y-89938733D01*
X152524311Y-89836286D01*
X152571463Y-89722452D01*
X152595500Y-89601606D01*
X152595500Y-89478394D01*
X152571463Y-89357548D01*
X152524311Y-89243714D01*
X152455858Y-89141267D01*
X152368733Y-89054142D01*
X152266286Y-88985689D01*
X152210884Y-88962740D01*
X152177063Y-88928918D01*
X152177062Y-88881082D01*
X152210886Y-88847258D01*
X152266286Y-88824311D01*
X152368733Y-88755858D01*
X152455858Y-88668733D01*
X152524311Y-88566286D01*
X152571463Y-88452452D01*
X152595500Y-88331606D01*
X152595500Y-88208394D01*
X152571463Y-88087548D01*
X152524311Y-87973714D01*
X152455858Y-87871267D01*
X152368733Y-87784142D01*
X152266286Y-87715689D01*
X152210884Y-87692740D01*
X152177063Y-87658918D01*
X152177062Y-87611082D01*
X152210886Y-87577258D01*
X152266286Y-87554311D01*
X152368733Y-87485858D01*
X152455858Y-87398733D01*
X152524311Y-87296286D01*
X152571463Y-87182452D01*
X152595500Y-87061606D01*
X152595500Y-86938394D01*
X152571463Y-86817548D01*
X152524311Y-86703714D01*
X152455858Y-86601267D01*
X152368733Y-86514142D01*
X152288543Y-86460561D01*
X152266289Y-86445691D01*
X152266288Y-86445690D01*
X152266286Y-86445689D01*
X152210884Y-86422740D01*
X152177063Y-86388918D01*
X152177062Y-86341082D01*
X152210886Y-86307258D01*
X152266286Y-86284311D01*
X152368733Y-86215858D01*
X152455858Y-86128733D01*
X152524311Y-86026286D01*
X152571463Y-85912452D01*
X152595500Y-85791606D01*
X152595500Y-85668394D01*
X152571463Y-85547548D01*
X152558122Y-85515342D01*
X152558122Y-85467509D01*
X152571668Y-85447235D01*
X152813944Y-85204960D01*
X152813947Y-85204958D01*
X152822735Y-85196170D01*
X152822736Y-85196170D01*
X152886170Y-85132736D01*
X152905736Y-85085499D01*
X152920501Y-85049854D01*
X152920501Y-84960145D01*
X152920501Y-84955114D01*
X152920500Y-84955100D01*
X152920500Y-83950147D01*
X152920500Y-83950145D01*
X152886170Y-83867264D01*
X152822736Y-83803830D01*
X152822735Y-83803829D01*
X151974961Y-82956055D01*
X151902738Y-82883831D01*
X151902736Y-82883830D01*
X151878460Y-82873774D01*
X151878459Y-82873773D01*
X151819857Y-82849499D01*
X151819855Y-82849499D01*
X151730145Y-82849499D01*
X151722872Y-82849499D01*
X151722864Y-82849500D01*
X147045525Y-82849500D01*
X146962645Y-82883829D01*
X146962642Y-82883831D01*
X145508829Y-84337644D01*
X145504072Y-84349130D01*
X145504072Y-84349131D01*
X145474499Y-84420523D01*
X145474499Y-84517507D01*
X145474500Y-84517516D01*
X145474500Y-85953930D01*
X145456194Y-85998124D01*
X145419535Y-86034782D01*
X145419530Y-86034788D01*
X145373386Y-86114709D01*
X145373385Y-86114712D01*
X145349501Y-86203849D01*
X145349500Y-86203857D01*
X129450500Y-86203857D01*
X129450500Y-86144236D01*
X129426614Y-86055092D01*
X129426613Y-86055089D01*
X129380469Y-85975168D01*
X129380464Y-85975162D01*
X129315217Y-85909915D01*
X129315211Y-85909910D01*
X129235290Y-85863766D01*
X129235287Y-85863765D01*
X129146150Y-85839881D01*
X129146145Y-85839880D01*
X129146144Y-85839880D01*
X129053856Y-85839880D01*
X129053855Y-85839880D01*
X129053849Y-85839881D01*
X128964712Y-85863765D01*
X128964709Y-85863766D01*
X128884788Y-85909910D01*
X128884782Y-85909915D01*
X128819535Y-85975162D01*
X128819530Y-85975168D01*
X128773386Y-86055089D01*
X128773385Y-86055092D01*
X128749501Y-86144229D01*
X128749500Y-86144237D01*
X124625500Y-86144237D01*
X124625500Y-85255145D01*
X124591170Y-85172264D01*
X124527736Y-85108830D01*
X124517282Y-85104500D01*
X124503457Y-85098773D01*
X124444855Y-85074500D01*
X122744855Y-85074500D01*
X122655145Y-85074500D01*
X122572265Y-85108829D01*
X122572262Y-85108831D01*
X122508831Y-85172262D01*
X122508829Y-85172265D01*
X122477408Y-85248124D01*
X122474500Y-85255145D01*
X122125500Y-85255145D01*
X122125500Y-84862500D01*
X122143806Y-84818306D01*
X122188000Y-84800000D01*
X141500000Y-84800000D01*
X141500000Y-82188000D01*
X141518306Y-82143806D01*
X141562500Y-82125500D01*
X152971356Y-82125500D01*
X152996930Y-82125500D01*
X153003056Y-82125801D01*
G37*
%TD.AperFunction*%
%TD*%
M02*
