%TF.GenerationSoftware,KiCad,Pcbnew,9.0.7+1*%
%TF.CreationDate,2026-03-17T20:23:58+00:00*%
%TF.ProjectId,BeeLight,4265654c-6967-4687-942e-6b696361645f,rev?*%
%TF.SameCoordinates,Original*%
%TF.FileFunction,Copper,L1,Top*%
%TF.FilePolarity,Positive*%
%FSLAX46Y46*%
G04 Gerber Fmt 4.6, Leading zero omitted, Abs format (unit mm)*
G04 Created by KiCad (PCBNEW 9.0.7+1) date 2026-03-17 20:23:58*
%MOMM*%
%LPD*%
G01*
G04 APERTURE LIST*
G04 Aperture macros list*
%AMRoundRect*
0 Rectangle with rounded corners*
0 $1 Rounding radius*
0 $2 $3 $4 $5 $6 $7 $8 $9 X,Y pos of 4 corners*
0 Add a 4 corners polygon primitive as box body*
4,1,4,$2,$3,$4,$5,$6,$7,$8,$9,$2,$3,0*
0 Add four circle primitives for the rounded corners*
1,1,$1+$1,$2,$3*
1,1,$1+$1,$4,$5*
1,1,$1+$1,$6,$7*
1,1,$1+$1,$8,$9*
0 Add four rect primitives between the rounded corners*
20,1,$1+$1,$2,$3,$4,$5,0*
20,1,$1+$1,$4,$5,$6,$7,0*
20,1,$1+$1,$6,$7,$8,$9,0*
20,1,$1+$1,$8,$9,$2,$3,0*%
G04 Aperture macros list end*
%TA.AperFunction,SMDPad,CuDef*%
%ADD10R,1.500000X1.300000*%
%TD*%
%TA.AperFunction,SMDPad,CuDef*%
%ADD11R,0.600000X0.400000*%
%TD*%
%TA.AperFunction,SMDPad,CuDef*%
%ADD12R,0.400000X0.600000*%
%TD*%
%TA.AperFunction,SMDPad,CuDef*%
%ADD13RoundRect,0.160000X-0.197500X-0.160000X0.197500X-0.160000X0.197500X0.160000X-0.197500X0.160000X0*%
%TD*%
%TA.AperFunction,SMDPad,CuDef*%
%ADD14RoundRect,0.150000X-0.150000X0.512500X-0.150000X-0.512500X0.150000X-0.512500X0.150000X0.512500X0*%
%TD*%
%TA.AperFunction,SMDPad,CuDef*%
%ADD15RoundRect,0.250000X-0.450000X0.325000X-0.450000X-0.325000X0.450000X-0.325000X0.450000X0.325000X0*%
%TD*%
%TA.AperFunction,SMDPad,CuDef*%
%ADD16RoundRect,0.155000X0.212500X0.155000X-0.212500X0.155000X-0.212500X-0.155000X0.212500X-0.155000X0*%
%TD*%
%TA.AperFunction,SMDPad,CuDef*%
%ADD17RoundRect,0.160000X0.197500X0.160000X-0.197500X0.160000X-0.197500X-0.160000X0.197500X-0.160000X0*%
%TD*%
%TA.AperFunction,SMDPad,CuDef*%
%ADD18RoundRect,0.075000X-0.075000X0.512500X-0.075000X-0.512500X0.075000X-0.512500X0.075000X0.512500X0*%
%TD*%
%TA.AperFunction,SMDPad,CuDef*%
%ADD19RoundRect,0.155000X-0.212500X-0.155000X0.212500X-0.155000X0.212500X0.155000X-0.212500X0.155000X0*%
%TD*%
%TA.AperFunction,SMDPad,CuDef*%
%ADD20RoundRect,0.155000X-0.155000X0.212500X-0.155000X-0.212500X0.155000X-0.212500X0.155000X0.212500X0*%
%TD*%
%TA.AperFunction,SMDPad,CuDef*%
%ADD21RoundRect,0.155000X0.155000X-0.212500X0.155000X0.212500X-0.155000X0.212500X-0.155000X-0.212500X0*%
%TD*%
%TA.AperFunction,SMDPad,CuDef*%
%ADD22R,0.525000X0.500000*%
%TD*%
%TA.AperFunction,SMDPad,CuDef*%
%ADD23RoundRect,0.250000X-0.350000X-0.450000X0.350000X-0.450000X0.350000X0.450000X-0.350000X0.450000X0*%
%TD*%
%TA.AperFunction,SMDPad,CuDef*%
%ADD24RoundRect,0.160000X0.160000X-0.197500X0.160000X0.197500X-0.160000X0.197500X-0.160000X-0.197500X0*%
%TD*%
%TA.AperFunction,ComponentPad*%
%ADD25R,1.000000X1.000000*%
%TD*%
%TA.AperFunction,ComponentPad*%
%ADD26C,1.000000*%
%TD*%
%TA.AperFunction,ComponentPad*%
%ADD27C,2.775000*%
%TD*%
%TA.AperFunction,ViaPad*%
%ADD28C,0.800000*%
%TD*%
%TA.AperFunction,ViaPad*%
%ADD29C,0.450000*%
%TD*%
%TA.AperFunction,Conductor*%
%ADD30C,0.400000*%
%TD*%
%TA.AperFunction,Conductor*%
%ADD31C,0.200000*%
%TD*%
G04 APERTURE END LIST*
D10*
%TO.P,SW101,1,1*%
%TO.N,GND*%
X138975000Y-109250000D03*
%TO.P,SW101,2,2*%
%TO.N,Net-(M101-P1.00{slash}32K)*%
X138975000Y-104750000D03*
%TO.P,SW101,3*%
%TO.N,N/C*%
X131025000Y-109250000D03*
%TO.P,SW101,4*%
X131025000Y-104750000D03*
%TD*%
D11*
%TO.P,M101,1,GND*%
%TO.N,GND*%
X142500000Y-82500000D03*
%TO.P,M101,2,P2.09*%
%TO.N,unconnected-(M101-P2.09-Pad2)*%
X142500000Y-83250000D03*
%TO.P,M101,3,P2.08*%
%TO.N,unconnected-(M101-P2.08-Pad3)*%
X142500000Y-84000000D03*
%TO.P,M101,4,P2.07*%
%TO.N,unconnected-(M101-P2.07-Pad4)*%
X142500000Y-84750000D03*
%TO.P,M101,5,SWDIO*%
%TO.N,SWDIO*%
X142500000Y-85500000D03*
%TO.P,M101,6,SWDCLK*%
%TO.N,SWDCLK*%
X142500000Y-86250000D03*
%TO.P,M101,7,~{RESET}*%
%TO.N,~{RESET}*%
X142500000Y-87000000D03*
%TO.P,M101,8,P2.02*%
%TO.N,unconnected-(M101-P2.02-Pad8)*%
X142500000Y-87750000D03*
%TO.P,M101,9,P2.00*%
%TO.N,unconnected-(M101-P2.00-Pad9)*%
X142500000Y-88500000D03*
%TO.P,M101,10,P2.01*%
%TO.N,unconnected-(M101-P2.01-Pad10)*%
X142500000Y-89250000D03*
%TO.P,M101,11,P2.04*%
%TO.N,Enable-Battery*%
X142500000Y-90000000D03*
%TO.P,M101,12,P2.05*%
%TO.N,unconnected-(M101-P2.05-Pad12)*%
X142500000Y-90750000D03*
%TO.P,M101,13,P2.03*%
%TO.N,unconnected-(M101-P2.03-Pad13)*%
X142500000Y-91500000D03*
%TO.P,M101,14,P1.03/NFC2*%
%TO.N,unconnected-(M101-P1.03{slash}NFC2-Pad14)*%
X142500000Y-92250000D03*
%TO.P,M101,15,P1.02/NFC1*%
%TO.N,unconnected-(M101-P1.02{slash}NFC1-Pad15)*%
X142500000Y-93000000D03*
%TO.P,M101,16,GND*%
%TO.N,GND*%
X142500000Y-93750000D03*
D12*
%TO.P,M101,17,P0.00*%
%TO.N,unconnected-(M101-P0.00-Pad17)*%
X141750000Y-93800000D03*
%TO.P,M101,18,P0.01*%
%TO.N,unconnected-(M101-P0.01-Pad18)*%
X141000000Y-93800000D03*
%TO.P,M101,19,P0.02*%
%TO.N,unconnected-(M101-P0.02-Pad19)*%
X140250000Y-93800000D03*
%TO.P,M101,20,P1.07/AIN3*%
%TO.N,unconnected-(M101-P1.07{slash}AIN3-Pad20)*%
X139500000Y-93800000D03*
%TO.P,M101,21,O1.06/AIN2*%
%TO.N,unconnected-(M101-O1.06{slash}AIN2-Pad21)*%
X138750000Y-93800000D03*
%TO.P,M101,22,P1.05/AIN1*%
%TO.N,unconnected-(M101-P1.05{slash}AIN1-Pad22)*%
X138000000Y-93800000D03*
%TO.P,M101,23,P1.04/AIN0*%
%TO.N,V_{BAT}*%
X137250000Y-93800000D03*
%TO.P,M101,24,P1.01/32K*%
%TO.N,Net-(D101-K)*%
X136500000Y-93800000D03*
%TO.P,M101,25,P1.00/32K*%
%TO.N,Net-(M101-P1.00{slash}32K)*%
X135750000Y-93800000D03*
%TO.P,M101,26,VDD*%
%TO.N,+BATT*%
X135000000Y-93800000D03*
%TO.P,M101,27,GND*%
%TO.N,GND*%
X134250000Y-93800000D03*
D11*
%TO.P,M101,28,P1.10*%
%TO.N,unconnected-(M101-P1.10-Pad28)*%
X133500000Y-93750000D03*
%TO.P,M101,29,P1.09*%
%TO.N,unconnected-(M101-P1.09-Pad29)*%
X133500000Y-93000000D03*
%TO.P,M101,30,P1.08*%
%TO.N,unconnected-(M101-P1.08-Pad30)*%
X133500000Y-92250000D03*
%TO.P,M101,31,P0.04*%
%TO.N,SDA*%
X133500000Y-91500000D03*
%TO.P,M101,32,P1.14/AIN7*%
%TO.N,INT*%
X133500000Y-90750000D03*
%TO.P,M101,33,P1.13/AIN6*%
%TO.N,unconnected-(M101-P1.13{slash}AIN6-Pad33)*%
X133500000Y-90000000D03*
%TO.P,M101,34,P1.12/AIN5*%
%TO.N,unconnected-(M101-P1.12{slash}AIN5-Pad34)*%
X133500000Y-89250000D03*
%TO.P,M101,35,P1.11/AIN4*%
%TO.N,unconnected-(M101-P1.11{slash}AIN4-Pad35)*%
X133500000Y-88500000D03*
%TO.P,M101,36,P0.03*%
%TO.N,SCL*%
X133500000Y-87750000D03*
%TO.P,M101,37,P2.10*%
%TO.N,unconnected-(M101-P2.10-Pad37)*%
X133500000Y-87000000D03*
%TO.P,M101,38,P2.06*%
%TO.N,unconnected-(M101-P2.06-Pad38)*%
X133500000Y-86250000D03*
%TO.P,M101,39,GND*%
%TO.N,GND*%
X133500000Y-85500000D03*
%TD*%
D13*
%TO.P,R107,1*%
%TO.N,+BATT*%
X144702500Y-93662500D03*
%TO.P,R107,2*%
%TO.N,Enable-Battery*%
X145897500Y-93662500D03*
%TD*%
D14*
%TO.P,Q101,1,G*%
%TO.N,Enable-Battery*%
X145850000Y-95125000D03*
%TO.P,Q101,2,S*%
%TO.N,+BATT*%
X143950000Y-95125000D03*
%TO.P,Q101,3,D*%
%TO.N,Net-(Q101-D)*%
X144900000Y-97400000D03*
%TD*%
D15*
%TO.P,D101,1,K*%
%TO.N,Net-(D101-K)*%
X141450000Y-105045000D03*
%TO.P,D101,2,A*%
%TO.N,Net-(D101-A)*%
X141450000Y-107095000D03*
%TD*%
D16*
%TO.P,C102,1*%
%TO.N,+BATT*%
X134900000Y-94900000D03*
%TO.P,C102,2*%
%TO.N,GND*%
X133765000Y-94900000D03*
%TD*%
D17*
%TO.P,R108,1*%
%TO.N,Net-(Q101-D)*%
X142597500Y-97662500D03*
%TO.P,R108,2*%
%TO.N,V_{BAT}*%
X141402500Y-97662500D03*
%TD*%
D18*
%TO.P,IC102,1,SCL*%
%TO.N,SCL*%
X126250000Y-87612500D03*
%TO.P,IC102,2,SDA*%
%TO.N,SDA*%
X125600000Y-87612500D03*
%TO.P,IC102,3,VDD*%
%TO.N,+BATT*%
X124950000Y-87612500D03*
%TO.P,IC102,4,INT*%
%TO.N,INT*%
X124950000Y-89187500D03*
%TO.P,IC102,5,NC*%
%TO.N,unconnected-(IC102-NC-Pad5)*%
X125600000Y-89187500D03*
%TO.P,IC102,6,GND*%
%TO.N,GND*%
X126250000Y-89187500D03*
%TD*%
D19*
%TO.P,C103,1*%
%TO.N,V_{BAT}*%
X141465000Y-95662500D03*
%TO.P,C103,2*%
%TO.N,GND*%
X142600000Y-95662500D03*
%TD*%
D20*
%TO.P,C104,1*%
%TO.N,+BATT*%
X123750000Y-88022880D03*
%TO.P,C104,2*%
%TO.N,GND*%
X123750000Y-89157880D03*
%TD*%
D21*
%TO.P,C105,1*%
%TO.N,+BATT*%
X131900000Y-97467500D03*
%TO.P,C105,2*%
%TO.N,GND*%
X131900000Y-96332500D03*
%TD*%
D22*
%TO.P,IC103,1,GND*%
%TO.N,GND*%
X128412500Y-97300000D03*
%TO.P,IC103,2,CSB*%
%TO.N,+BATT*%
X128412500Y-96500000D03*
%TO.P,IC103,3,SDI*%
%TO.N,SDA*%
X128412500Y-95700000D03*
%TO.P,IC103,4,SCK*%
%TO.N,SCL*%
X128412500Y-94900000D03*
%TO.P,IC103,5,SDO*%
%TO.N,GND*%
X130787500Y-94900000D03*
%TO.P,IC103,6,VDDIO*%
%TO.N,+BATT*%
X130787500Y-95700000D03*
%TO.P,IC103,7,GND*%
%TO.N,GND*%
X130787500Y-96500000D03*
%TO.P,IC103,8,VDD*%
%TO.N,+BATT*%
X130787500Y-97300000D03*
%TD*%
D13*
%TO.P,R104,1*%
%TO.N,+BATT*%
X125052500Y-86190380D03*
%TO.P,R104,2*%
%TO.N,SDA*%
X126247500Y-86190380D03*
%TD*%
D23*
%TO.P,R102,1*%
%TO.N,Net-(BT101-+)*%
X145400000Y-102300000D03*
%TO.P,R102,2*%
%TO.N,+BATT*%
X147400000Y-102300000D03*
%TD*%
D17*
%TO.P,R105,1*%
%TO.N,+BATT*%
X128597500Y-87200000D03*
%TO.P,R105,2*%
%TO.N,SCL*%
X127402500Y-87200000D03*
%TD*%
D24*
%TO.P,R103,1*%
%TO.N,+BATT*%
X141450000Y-109847500D03*
%TO.P,R103,2*%
%TO.N,Net-(D101-A)*%
X141450000Y-108652500D03*
%TD*%
D13*
%TO.P,R109,1*%
%TO.N,V_{BAT}*%
X141405000Y-96662500D03*
%TO.P,R109,2*%
%TO.N,GND*%
X142600000Y-96662500D03*
%TD*%
D21*
%TO.P,C106,1*%
%TO.N,+BATT*%
X131900000Y-95085000D03*
%TO.P,C106,2*%
%TO.N,GND*%
X131900000Y-93950000D03*
%TD*%
D19*
%TO.P,C101,1*%
%TO.N,~{RESET}*%
X143732500Y-88300000D03*
%TO.P,C101,2*%
%TO.N,GND*%
X144867500Y-88300000D03*
%TD*%
D25*
%TO.P,X102,1,VTref*%
%TO.N,+BATT*%
X150700000Y-84460000D03*
D26*
%TO.P,X102,2,SWDIO/TMS*%
%TO.N,SWDIO*%
X151970000Y-84460000D03*
%TO.P,X102,3,GND*%
%TO.N,GND*%
X150700000Y-85730000D03*
%TO.P,X102,4,SWCLK/TCK*%
%TO.N,SWDCLK*%
X151970000Y-85730000D03*
%TO.P,X102,5,GND*%
%TO.N,GND*%
X150700000Y-87000000D03*
%TO.P,X102,6,SWO/TDO*%
%TO.N,unconnected-(X102-SWO{slash}TDO-Pad6)*%
X151970000Y-87000000D03*
%TO.P,X102,7,KEY*%
%TO.N,unconnected-(X102-KEY-Pad7)*%
X150700000Y-88270000D03*
%TO.P,X102,8,NC/TDI*%
%TO.N,unconnected-(X102-NC{slash}TDI-Pad8)*%
X151970000Y-88270000D03*
%TO.P,X102,9,GNDDetect*%
%TO.N,unconnected-(X102-GNDDetect-Pad9)*%
X150700000Y-89540000D03*
%TO.P,X102,10,~{RESET}*%
%TO.N,~{RESET}*%
X151970000Y-89540000D03*
%TD*%
D17*
%TO.P,R101,1*%
%TO.N,+BATT*%
X144897500Y-87300000D03*
%TO.P,R101,2*%
%TO.N,~{RESET}*%
X143702500Y-87300000D03*
%TD*%
D13*
%TO.P,R106,1*%
%TO.N,+BATT*%
X123752500Y-90600000D03*
%TO.P,R106,2*%
%TO.N,INT*%
X124947500Y-90600000D03*
%TD*%
D27*
%TO.P,BT101,1,+*%
%TO.N,Net-(BT101-+)*%
X150700000Y-98700000D03*
X125300000Y-98700000D03*
%TD*%
D28*
%TO.N,Net-(BT101-+)*%
X143900000Y-102300000D03*
D29*
%TO.N,GND*%
X129000000Y-97300000D03*
X132800000Y-85500000D03*
X143300000Y-82500000D03*
X132532500Y-96332500D03*
X126812500Y-89187500D03*
X137800000Y-109250000D03*
X142600000Y-94962500D03*
X123150000Y-89157880D03*
X131900000Y-93200000D03*
X145600000Y-88300000D03*
X143200000Y-93750000D03*
X133765000Y-95700000D03*
%TO.N,~{RESET}*%
X148332500Y-90400000D03*
%TO.N,INT*%
X125900000Y-90600000D03*
X127950000Y-90750000D03*
%TO.N,SDA*%
X129100000Y-91500000D03*
X129100000Y-86190380D03*
%TO.N,SWDIO*%
X147800000Y-85500000D03*
%TO.N,SWDCLK*%
X145700000Y-86250000D03*
%TD*%
D30*
%TO.N,Net-(BT101-+)*%
X147400000Y-98700000D02*
X145400000Y-100700000D01*
X145400000Y-100700000D02*
X145400000Y-102300000D01*
X145400000Y-102300000D02*
X143900000Y-102300000D01*
X150700000Y-98700000D02*
X147400000Y-98700000D01*
D31*
%TO.N,GND*%
X142600000Y-95662500D02*
X142600000Y-94962500D01*
X128412500Y-97300000D02*
X129000000Y-97300000D01*
X134250000Y-93800000D02*
X134250000Y-94415000D01*
X134250000Y-94415000D02*
X133765000Y-94900000D01*
X130950000Y-94900000D02*
X131900000Y-93950000D01*
X132532500Y-96332500D02*
X131900000Y-96332500D01*
X137800000Y-109250000D02*
X138975000Y-109250000D01*
X133500000Y-85500000D02*
X132800000Y-85500000D01*
X131000000Y-96500000D02*
X131167500Y-96332500D01*
X130787500Y-94900000D02*
X130950000Y-94900000D01*
X142500000Y-93750000D02*
X143200000Y-93750000D01*
X131167500Y-96332500D02*
X131900000Y-96332500D01*
X142500000Y-82500000D02*
X143300000Y-82500000D01*
X142600000Y-96662500D02*
X142600000Y-95662500D01*
X126812500Y-89187500D02*
X126250000Y-89187500D01*
X133765000Y-94900000D02*
X133765000Y-95700000D01*
X123150000Y-89157880D02*
X123750000Y-89157880D01*
X145600000Y-88300000D02*
X144867500Y-88300000D01*
X130787500Y-96500000D02*
X131000000Y-96500000D01*
X131900000Y-93950000D02*
X131900000Y-93200000D01*
%TO.N,~{RESET}*%
X143732500Y-87732500D02*
X143732500Y-88300000D01*
X143732500Y-88732500D02*
X143732500Y-88300000D01*
X142500000Y-87000000D02*
X142900000Y-87000000D01*
X143200000Y-87300000D02*
X143702500Y-87300000D01*
X145400000Y-90400000D02*
X143732500Y-88732500D01*
X143702500Y-87697500D02*
X143700000Y-87700000D01*
X143700000Y-87700000D02*
X143732500Y-87732500D01*
X148332500Y-90400000D02*
X145400000Y-90400000D01*
X143702500Y-87300000D02*
X143702500Y-87697500D01*
X142900000Y-87000000D02*
X143200000Y-87300000D01*
%TO.N,+BATT*%
X134900000Y-94300000D02*
X134900000Y-94900000D01*
X131416250Y-97300000D02*
X131583750Y-97467500D01*
X135000000Y-93800000D02*
X135000000Y-94200000D01*
X130787500Y-95700000D02*
X131285000Y-95700000D01*
X130787500Y-97300000D02*
X131416250Y-97300000D01*
X124950000Y-87612500D02*
X124877880Y-87612500D01*
X131583750Y-97467500D02*
X131900000Y-97467500D01*
X124877880Y-87612500D02*
X124467500Y-88022880D01*
X135000000Y-94200000D02*
X134900000Y-94300000D01*
X124467500Y-88022880D02*
X123750000Y-88022880D01*
X131285000Y-95700000D02*
X131900000Y-95085000D01*
%TO.N,INT*%
X127950000Y-90750000D02*
X133500000Y-90750000D01*
X124950000Y-89187500D02*
X124950000Y-90597500D01*
X125900000Y-90600000D02*
X124947500Y-90600000D01*
X124950000Y-90597500D02*
X124947500Y-90600000D01*
%TO.N,SDA*%
X125600000Y-87140380D02*
X125600000Y-87612500D01*
X128700000Y-95700000D02*
X128412500Y-95700000D01*
X129100000Y-91500000D02*
X129100000Y-95300000D01*
X126247500Y-86190380D02*
X126247500Y-86492880D01*
X129100000Y-86190380D02*
X126247500Y-86190380D01*
X129100000Y-95300000D02*
X128700000Y-95700000D01*
X126247500Y-86492880D02*
X125600000Y-87140380D01*
X133500000Y-91500000D02*
X129100000Y-91500000D01*
%TO.N,SWDIO*%
X142500000Y-85500000D02*
X147800000Y-85500000D01*
%TO.N,SCL*%
X133150000Y-87750000D02*
X133500000Y-87750000D01*
X127402500Y-89600000D02*
X127702500Y-89900000D01*
X132900000Y-88000000D02*
X133150000Y-87750000D01*
X127702500Y-89900000D02*
X132500000Y-89900000D01*
X127402500Y-91102500D02*
X128412500Y-92112500D01*
X126662500Y-87200000D02*
X127402500Y-87200000D01*
X127402500Y-87200000D02*
X127402500Y-89600000D01*
X132900000Y-89500000D02*
X132900000Y-88000000D01*
X126250000Y-87612500D02*
X126662500Y-87200000D01*
X132500000Y-89900000D02*
X132900000Y-89500000D01*
X128412500Y-92112500D02*
X128412500Y-94900000D01*
X127402500Y-89600000D02*
X127402500Y-91102500D01*
%TO.N,Net-(Q101-D)*%
X143700000Y-97662500D02*
X142597500Y-97662500D01*
X143962500Y-97400000D02*
X143700000Y-97662500D01*
X144900000Y-97400000D02*
X143962500Y-97400000D01*
%TO.N,Net-(D101-A)*%
X141450000Y-108652500D02*
X141450000Y-106642500D01*
%TO.N,SWDCLK*%
X145700000Y-86250000D02*
X142500000Y-86250000D01*
%TO.N,V_{BAT}*%
X138462500Y-95662500D02*
X141465000Y-95662500D01*
X141402500Y-97662500D02*
X141402500Y-96665000D01*
X141465000Y-96097500D02*
X141465000Y-95662500D01*
X137250000Y-93800000D02*
X137250000Y-94450000D01*
X137250000Y-94450000D02*
X138462500Y-95662500D01*
X141400000Y-96162500D02*
X141465000Y-96097500D01*
X141405000Y-96167500D02*
X141400000Y-96162500D01*
X141405000Y-96662500D02*
X141405000Y-96167500D01*
X141402500Y-96665000D02*
X141405000Y-96662500D01*
%TO.N,Net-(D101-K)*%
X136500000Y-93800000D02*
X136500000Y-94700000D01*
X141450000Y-99650000D02*
X141450000Y-105045000D01*
X136500000Y-94700000D02*
X141450000Y-99650000D01*
%TO.N,Net-(M101-P1.00{slash}32K)*%
X135750000Y-96525000D02*
X138975000Y-99750000D01*
X135750000Y-93800000D02*
X135750000Y-96525000D01*
X138975000Y-104750000D02*
X138975000Y-99750000D01*
%TO.N,Enable-Battery*%
X145897500Y-93662500D02*
X145897500Y-92197500D01*
X143700000Y-90000000D02*
X142500000Y-90000000D01*
X145897500Y-92197500D02*
X143700000Y-90000000D01*
X145897500Y-94265000D02*
X145850000Y-94312500D01*
X145897500Y-93662500D02*
X145897500Y-94265000D01*
X145850000Y-94312500D02*
X145850000Y-95125000D01*
%TD*%
%TA.AperFunction,Conductor*%
%TO.N,+BATT*%
G36*
X142092923Y-82143806D02*
G01*
X142111229Y-82188000D01*
X142100696Y-82222723D01*
X142081782Y-82251029D01*
X142081780Y-82251033D01*
X142074500Y-82287636D01*
X142074500Y-82712358D01*
X142074501Y-82712362D01*
X142075068Y-82715211D01*
X142081780Y-82748967D01*
X142081781Y-82748968D01*
X142109519Y-82790481D01*
X142146120Y-82814936D01*
X142156150Y-82821639D01*
X142154924Y-82823472D01*
X142182534Y-82851079D01*
X142182537Y-82898914D01*
X142154926Y-82926528D01*
X142156151Y-82928361D01*
X142151032Y-82931780D01*
X142151032Y-82931781D01*
X142109519Y-82959519D01*
X142081782Y-83001029D01*
X142081780Y-83001033D01*
X142074500Y-83037636D01*
X142074500Y-83462358D01*
X142074501Y-83462362D01*
X142077608Y-83477984D01*
X142081780Y-83498967D01*
X142081781Y-83498968D01*
X142109519Y-83540481D01*
X142146120Y-83564936D01*
X142156150Y-83571639D01*
X142154924Y-83573472D01*
X142182534Y-83601079D01*
X142182537Y-83648914D01*
X142154926Y-83676528D01*
X142156151Y-83678361D01*
X142151032Y-83681780D01*
X142151032Y-83681781D01*
X142109519Y-83709519D01*
X142081782Y-83751029D01*
X142081780Y-83751033D01*
X142074500Y-83787636D01*
X142074500Y-84212358D01*
X142074501Y-84212362D01*
X142077608Y-84227984D01*
X142081780Y-84248967D01*
X142081781Y-84248968D01*
X142109519Y-84290481D01*
X142146120Y-84314936D01*
X142156150Y-84321639D01*
X142154924Y-84323472D01*
X142182534Y-84351079D01*
X142182537Y-84398914D01*
X142154926Y-84426528D01*
X142156151Y-84428361D01*
X142151032Y-84431780D01*
X142151032Y-84431781D01*
X142136196Y-84441694D01*
X142109519Y-84459519D01*
X142081782Y-84501029D01*
X142081780Y-84501033D01*
X142074500Y-84537636D01*
X142074500Y-84962358D01*
X142074501Y-84962362D01*
X142076519Y-84972507D01*
X142081780Y-84998967D01*
X142081781Y-84998968D01*
X142109519Y-85040481D01*
X142140921Y-85061463D01*
X142156150Y-85071639D01*
X142154924Y-85073472D01*
X142182534Y-85101079D01*
X142182537Y-85148914D01*
X142154926Y-85176528D01*
X142156151Y-85178361D01*
X142151032Y-85181780D01*
X142151032Y-85181781D01*
X142151031Y-85181782D01*
X142109519Y-85209519D01*
X142081782Y-85251029D01*
X142081780Y-85251033D01*
X142074500Y-85287636D01*
X142074500Y-85712358D01*
X142074501Y-85712362D01*
X142075068Y-85715211D01*
X142081780Y-85748967D01*
X142081781Y-85748968D01*
X142109519Y-85790481D01*
X142146120Y-85814936D01*
X142156150Y-85821639D01*
X142154924Y-85823472D01*
X142182534Y-85851079D01*
X142182537Y-85898914D01*
X142154926Y-85926528D01*
X142156151Y-85928361D01*
X142151032Y-85931780D01*
X142151032Y-85931781D01*
X142143127Y-85937063D01*
X142109519Y-85959519D01*
X142081782Y-86001029D01*
X142081780Y-86001033D01*
X142074500Y-86037636D01*
X142074500Y-86462358D01*
X142074501Y-86462362D01*
X142075068Y-86465211D01*
X142081780Y-86498967D01*
X142081781Y-86498968D01*
X142109519Y-86540481D01*
X142142929Y-86562805D01*
X142156150Y-86571639D01*
X142154924Y-86573472D01*
X142182534Y-86601079D01*
X142182537Y-86648914D01*
X142154926Y-86676528D01*
X142156151Y-86678361D01*
X142151032Y-86681780D01*
X142151032Y-86681781D01*
X142118210Y-86703712D01*
X142109519Y-86709519D01*
X142081782Y-86751029D01*
X142081780Y-86751033D01*
X142074500Y-86787636D01*
X142074500Y-87212358D01*
X142074501Y-87212362D01*
X142076810Y-87223974D01*
X142081780Y-87248967D01*
X142081781Y-87248968D01*
X142109519Y-87290481D01*
X142146120Y-87314936D01*
X142156150Y-87321639D01*
X142154924Y-87323472D01*
X142182534Y-87351079D01*
X142182537Y-87398914D01*
X142154926Y-87426528D01*
X142156151Y-87428361D01*
X142151032Y-87431780D01*
X142151032Y-87431781D01*
X142126860Y-87447932D01*
X142109519Y-87459519D01*
X142081782Y-87501029D01*
X142081781Y-87501032D01*
X142074500Y-87537636D01*
X142074500Y-87962358D01*
X142074501Y-87962362D01*
X142076694Y-87973388D01*
X142081780Y-87998967D01*
X142081781Y-87998968D01*
X142109519Y-88040481D01*
X142143127Y-88062937D01*
X142156150Y-88071639D01*
X142154924Y-88073472D01*
X142182534Y-88101079D01*
X142182537Y-88148914D01*
X142154926Y-88176528D01*
X142156151Y-88178361D01*
X142151032Y-88181780D01*
X142151032Y-88181781D01*
X142118931Y-88203230D01*
X142109519Y-88209519D01*
X142081782Y-88251029D01*
X142081780Y-88251033D01*
X142074500Y-88287636D01*
X142074500Y-88712358D01*
X142074501Y-88712362D01*
X142077608Y-88727984D01*
X142081780Y-88748967D01*
X142081781Y-88748968D01*
X142109519Y-88790481D01*
X142134812Y-88807381D01*
X142156150Y-88821639D01*
X142154924Y-88823472D01*
X142182534Y-88851079D01*
X142182537Y-88898914D01*
X142154926Y-88926528D01*
X142156151Y-88928361D01*
X142151032Y-88931780D01*
X142151032Y-88931781D01*
X142124328Y-88949624D01*
X142109519Y-88959519D01*
X142081782Y-89001029D01*
X142081780Y-89001033D01*
X142074500Y-89037636D01*
X142074500Y-89462358D01*
X142074501Y-89462362D01*
X142077608Y-89477984D01*
X142081780Y-89498967D01*
X142088069Y-89508379D01*
X142109519Y-89540481D01*
X142146120Y-89564936D01*
X142156150Y-89571639D01*
X142154924Y-89573472D01*
X142182534Y-89601079D01*
X142182537Y-89648914D01*
X142154926Y-89676528D01*
X142156151Y-89678361D01*
X142151032Y-89681780D01*
X142151032Y-89681781D01*
X142109519Y-89709519D01*
X142081782Y-89751029D01*
X142081780Y-89751033D01*
X142074500Y-89787636D01*
X142074500Y-90212358D01*
X142074501Y-90212362D01*
X142077114Y-90225500D01*
X142081780Y-90248967D01*
X142081781Y-90248968D01*
X142109519Y-90290481D01*
X142146120Y-90314936D01*
X142156150Y-90321639D01*
X142154924Y-90323472D01*
X142182534Y-90351079D01*
X142182537Y-90398914D01*
X142154926Y-90426528D01*
X142156151Y-90428361D01*
X142151032Y-90431780D01*
X142151032Y-90431781D01*
X142129539Y-90446142D01*
X142109519Y-90459519D01*
X142081782Y-90501029D01*
X142081780Y-90501033D01*
X142074500Y-90537636D01*
X142074500Y-90962358D01*
X142074501Y-90962362D01*
X142075068Y-90965212D01*
X142081780Y-90998967D01*
X142083055Y-91000875D01*
X142109519Y-91040481D01*
X142135207Y-91057645D01*
X142156150Y-91071639D01*
X142154924Y-91073472D01*
X142182534Y-91101079D01*
X142182537Y-91148914D01*
X142154926Y-91176528D01*
X142156151Y-91178361D01*
X142151032Y-91181780D01*
X142151032Y-91181781D01*
X142109519Y-91209519D01*
X142081782Y-91251029D01*
X142081780Y-91251033D01*
X142074500Y-91287636D01*
X142074500Y-91712358D01*
X142074501Y-91712362D01*
X142075068Y-91715211D01*
X142081780Y-91748967D01*
X142083723Y-91751875D01*
X142109519Y-91790481D01*
X142146120Y-91814936D01*
X142156150Y-91821639D01*
X142154924Y-91823472D01*
X142182534Y-91851079D01*
X142182537Y-91898914D01*
X142154926Y-91926528D01*
X142156151Y-91928361D01*
X142151032Y-91931780D01*
X142151032Y-91931781D01*
X142109519Y-91959519D01*
X142081782Y-92001029D01*
X142081780Y-92001033D01*
X142074500Y-92037636D01*
X142074500Y-92462358D01*
X142074501Y-92462362D01*
X142077608Y-92477984D01*
X142081780Y-92498967D01*
X142081781Y-92498968D01*
X142109519Y-92540481D01*
X142146120Y-92564936D01*
X142156150Y-92571639D01*
X142154924Y-92573472D01*
X142182534Y-92601079D01*
X142182537Y-92648914D01*
X142154926Y-92676528D01*
X142156151Y-92678361D01*
X142151032Y-92681780D01*
X142151032Y-92681781D01*
X142109519Y-92709519D01*
X142081782Y-92751029D01*
X142081780Y-92751033D01*
X142074500Y-92787636D01*
X142074500Y-93212358D01*
X142074501Y-93212362D01*
X142077608Y-93227984D01*
X142081780Y-93248967D01*
X142081781Y-93248968D01*
X142109519Y-93290481D01*
X142146120Y-93314936D01*
X142156150Y-93321639D01*
X142154924Y-93323472D01*
X142182534Y-93351079D01*
X142182537Y-93398914D01*
X142158123Y-93427871D01*
X142152330Y-93431522D01*
X142151032Y-93431781D01*
X142136197Y-93441693D01*
X142135460Y-93442158D01*
X142112629Y-93446072D01*
X142089934Y-93450585D01*
X142089193Y-93450090D01*
X142088313Y-93450241D01*
X142069422Y-93436879D01*
X142050163Y-93424010D01*
X142040481Y-93409519D01*
X142025488Y-93399501D01*
X141998970Y-93381782D01*
X141998966Y-93381780D01*
X141971450Y-93376307D01*
X141962363Y-93374500D01*
X141962362Y-93374500D01*
X141537641Y-93374500D01*
X141537640Y-93374500D01*
X141537638Y-93374501D01*
X141527325Y-93376552D01*
X141501032Y-93381780D01*
X141459519Y-93409519D01*
X141428361Y-93456150D01*
X141426530Y-93454926D01*
X141398906Y-93482540D01*
X141351070Y-93482531D01*
X141323474Y-93454924D01*
X141321639Y-93456151D01*
X141317690Y-93450241D01*
X141290481Y-93409519D01*
X141259494Y-93388814D01*
X141248970Y-93381782D01*
X141248966Y-93381780D01*
X141221450Y-93376307D01*
X141212363Y-93374500D01*
X141212362Y-93374500D01*
X140787641Y-93374500D01*
X140787640Y-93374500D01*
X140787638Y-93374501D01*
X140777325Y-93376552D01*
X140751032Y-93381780D01*
X140709519Y-93409519D01*
X140678361Y-93456150D01*
X140676530Y-93454926D01*
X140648906Y-93482540D01*
X140601070Y-93482531D01*
X140573474Y-93454924D01*
X140571639Y-93456151D01*
X140567690Y-93450241D01*
X140540481Y-93409519D01*
X140509494Y-93388814D01*
X140498970Y-93381782D01*
X140498966Y-93381780D01*
X140471450Y-93376307D01*
X140462363Y-93374500D01*
X140462362Y-93374500D01*
X140037641Y-93374500D01*
X140037640Y-93374500D01*
X140037638Y-93374501D01*
X140027325Y-93376552D01*
X140001032Y-93381780D01*
X139959519Y-93409519D01*
X139928361Y-93456150D01*
X139926530Y-93454926D01*
X139898906Y-93482540D01*
X139851070Y-93482531D01*
X139823474Y-93454924D01*
X139821639Y-93456151D01*
X139817690Y-93450241D01*
X139790481Y-93409519D01*
X139759494Y-93388814D01*
X139748970Y-93381782D01*
X139748966Y-93381780D01*
X139721450Y-93376307D01*
X139712363Y-93374500D01*
X139712362Y-93374500D01*
X139287641Y-93374500D01*
X139287640Y-93374500D01*
X139287638Y-93374501D01*
X139277325Y-93376552D01*
X139251032Y-93381780D01*
X139209519Y-93409519D01*
X139178361Y-93456150D01*
X139176530Y-93454926D01*
X139148906Y-93482540D01*
X139101070Y-93482531D01*
X139073474Y-93454924D01*
X139071639Y-93456151D01*
X139067690Y-93450241D01*
X139040481Y-93409519D01*
X139009494Y-93388814D01*
X138998970Y-93381782D01*
X138998966Y-93381780D01*
X138971450Y-93376307D01*
X138962363Y-93374500D01*
X138962362Y-93374500D01*
X138537641Y-93374500D01*
X138537640Y-93374500D01*
X138537638Y-93374501D01*
X138527325Y-93376552D01*
X138501032Y-93381780D01*
X138459519Y-93409519D01*
X138428361Y-93456150D01*
X138426530Y-93454926D01*
X138398906Y-93482540D01*
X138351070Y-93482531D01*
X138323474Y-93454924D01*
X138321639Y-93456151D01*
X138317690Y-93450241D01*
X138290481Y-93409519D01*
X138259494Y-93388814D01*
X138248970Y-93381782D01*
X138248966Y-93381780D01*
X138221450Y-93376307D01*
X138212363Y-93374500D01*
X138212362Y-93374500D01*
X137787641Y-93374500D01*
X137787640Y-93374500D01*
X137787638Y-93374501D01*
X137777325Y-93376552D01*
X137751032Y-93381780D01*
X137709519Y-93409519D01*
X137678361Y-93456150D01*
X137676530Y-93454926D01*
X137648906Y-93482540D01*
X137601070Y-93482531D01*
X137573474Y-93454924D01*
X137571639Y-93456151D01*
X137567690Y-93450241D01*
X137540481Y-93409519D01*
X137509494Y-93388814D01*
X137498970Y-93381782D01*
X137498966Y-93381780D01*
X137471450Y-93376307D01*
X137462363Y-93374500D01*
X137462362Y-93374500D01*
X137037641Y-93374500D01*
X137037640Y-93374500D01*
X137037638Y-93374501D01*
X137027325Y-93376552D01*
X137001032Y-93381780D01*
X136959519Y-93409519D01*
X136928361Y-93456150D01*
X136926530Y-93454926D01*
X136898906Y-93482540D01*
X136851070Y-93482531D01*
X136823474Y-93454924D01*
X136821639Y-93456151D01*
X136817690Y-93450241D01*
X136790481Y-93409519D01*
X136759494Y-93388814D01*
X136748970Y-93381782D01*
X136748966Y-93381780D01*
X136721450Y-93376307D01*
X136712363Y-93374500D01*
X136712362Y-93374500D01*
X136287641Y-93374500D01*
X136287640Y-93374500D01*
X136287638Y-93374501D01*
X136277325Y-93376552D01*
X136251032Y-93381780D01*
X136209519Y-93409519D01*
X136178361Y-93456150D01*
X136176530Y-93454926D01*
X136148906Y-93482540D01*
X136101070Y-93482531D01*
X136073474Y-93454924D01*
X136071639Y-93456151D01*
X136067690Y-93450241D01*
X136040481Y-93409519D01*
X136009494Y-93388814D01*
X135998970Y-93381782D01*
X135998966Y-93381780D01*
X135971450Y-93376307D01*
X135962363Y-93374500D01*
X135962362Y-93374500D01*
X135537641Y-93374500D01*
X135537640Y-93374500D01*
X135537638Y-93374501D01*
X135513234Y-93379354D01*
X135501031Y-93381781D01*
X135497221Y-93384327D01*
X135450304Y-93393658D01*
X135410532Y-93367080D01*
X135400000Y-93332359D01*
X135400000Y-93300000D01*
X134600000Y-93300000D01*
X134600000Y-93332358D01*
X134581694Y-93376552D01*
X134537500Y-93394858D01*
X134502780Y-93384327D01*
X134498972Y-93381783D01*
X134498966Y-93381780D01*
X134471450Y-93376307D01*
X134462363Y-93374500D01*
X134462362Y-93374500D01*
X134037641Y-93374500D01*
X134037640Y-93374500D01*
X134037638Y-93374501D01*
X134027325Y-93376552D01*
X134001032Y-93381780D01*
X133959518Y-93409519D01*
X133949835Y-93424011D01*
X133930590Y-93436869D01*
X133911684Y-93450241D01*
X133910817Y-93450080D01*
X133910061Y-93450586D01*
X133864537Y-93442157D01*
X133863825Y-93441708D01*
X133848968Y-93431781D01*
X133847669Y-93431522D01*
X133841874Y-93427869D01*
X133830900Y-93412353D01*
X133817461Y-93398912D01*
X133817461Y-93393352D01*
X133814252Y-93388814D01*
X133817464Y-93370081D01*
X133817466Y-93351076D01*
X133821396Y-93347146D01*
X133822336Y-93341667D01*
X133837851Y-93330693D01*
X133845073Y-93323472D01*
X133843849Y-93321639D01*
X133848966Y-93318219D01*
X133848968Y-93318219D01*
X133890481Y-93290481D01*
X133918219Y-93248968D01*
X133925500Y-93212363D01*
X133925499Y-92787638D01*
X133918219Y-92751032D01*
X133890481Y-92709519D01*
X133848968Y-92681781D01*
X133843850Y-92678361D01*
X133845074Y-92676529D01*
X133817461Y-92648912D01*
X133817466Y-92601076D01*
X133845073Y-92573472D01*
X133843849Y-92571639D01*
X133848966Y-92568219D01*
X133848968Y-92568219D01*
X133890481Y-92540481D01*
X133918219Y-92498968D01*
X133925500Y-92462363D01*
X133925499Y-92037638D01*
X133918219Y-92001032D01*
X133890481Y-91959519D01*
X133848968Y-91931781D01*
X133843850Y-91928361D01*
X133845074Y-91926529D01*
X133817461Y-91898912D01*
X133817466Y-91851076D01*
X133845073Y-91823472D01*
X133843849Y-91821639D01*
X133848966Y-91818219D01*
X133848968Y-91818219D01*
X133890481Y-91790481D01*
X133918219Y-91748968D01*
X133925500Y-91712363D01*
X133925499Y-91287638D01*
X133918219Y-91251032D01*
X133890481Y-91209519D01*
X133848968Y-91181781D01*
X133843850Y-91178361D01*
X133845074Y-91176529D01*
X133817461Y-91148912D01*
X133817466Y-91101076D01*
X133845073Y-91073472D01*
X133843849Y-91071639D01*
X133848966Y-91068219D01*
X133848968Y-91068219D01*
X133890481Y-91040481D01*
X133918219Y-90998968D01*
X133925500Y-90962363D01*
X133925499Y-90537638D01*
X133918219Y-90501032D01*
X133890481Y-90459519D01*
X133848968Y-90431781D01*
X133843850Y-90428361D01*
X133845074Y-90426529D01*
X133817461Y-90398912D01*
X133817466Y-90351076D01*
X133845073Y-90323472D01*
X133843849Y-90321639D01*
X133848966Y-90318219D01*
X133848968Y-90318219D01*
X133890481Y-90290481D01*
X133918219Y-90248968D01*
X133925500Y-90212363D01*
X133925499Y-89787638D01*
X133918219Y-89751032D01*
X133890481Y-89709519D01*
X133848968Y-89681781D01*
X133843850Y-89678361D01*
X133845074Y-89676529D01*
X133817461Y-89648912D01*
X133817466Y-89601076D01*
X133845073Y-89573472D01*
X133843849Y-89571639D01*
X133848966Y-89568219D01*
X133848968Y-89568219D01*
X133890481Y-89540481D01*
X133918219Y-89498968D01*
X133925500Y-89462363D01*
X133925499Y-89037638D01*
X133918219Y-89001032D01*
X133890481Y-88959519D01*
X133848968Y-88931781D01*
X133843850Y-88928361D01*
X133845074Y-88926529D01*
X133817461Y-88898912D01*
X133817466Y-88851076D01*
X133845073Y-88823472D01*
X133843849Y-88821639D01*
X133848966Y-88818219D01*
X133848968Y-88818219D01*
X133890481Y-88790481D01*
X133918219Y-88748968D01*
X133925500Y-88712363D01*
X133925499Y-88287638D01*
X133918219Y-88251032D01*
X133890481Y-88209519D01*
X133848968Y-88181781D01*
X133843850Y-88178361D01*
X133845074Y-88176529D01*
X133817461Y-88148912D01*
X133817466Y-88101076D01*
X133845073Y-88073472D01*
X133843849Y-88071639D01*
X133848966Y-88068219D01*
X133848968Y-88068219D01*
X133890481Y-88040481D01*
X133918219Y-87998968D01*
X133925500Y-87962363D01*
X133925499Y-87537638D01*
X133918219Y-87501032D01*
X133890481Y-87459519D01*
X133848968Y-87431781D01*
X133843850Y-87428361D01*
X133845074Y-87426529D01*
X133817461Y-87398912D01*
X133817466Y-87351076D01*
X133845073Y-87323472D01*
X133843849Y-87321639D01*
X133848966Y-87318219D01*
X133848968Y-87318219D01*
X133890481Y-87290481D01*
X133918219Y-87248968D01*
X133925500Y-87212363D01*
X133925499Y-86787638D01*
X133918219Y-86751032D01*
X133890481Y-86709519D01*
X133848968Y-86681781D01*
X133843850Y-86678361D01*
X133845074Y-86676529D01*
X133817461Y-86648912D01*
X133817466Y-86601076D01*
X133845073Y-86573472D01*
X133843849Y-86571639D01*
X133848966Y-86568219D01*
X133848968Y-86568219D01*
X133890481Y-86540481D01*
X133918219Y-86498968D01*
X133925500Y-86462363D01*
X133925499Y-86037638D01*
X133918219Y-86001032D01*
X133890481Y-85959519D01*
X133848968Y-85931781D01*
X133843850Y-85928361D01*
X133845074Y-85926529D01*
X133817461Y-85898912D01*
X133817466Y-85851076D01*
X133845073Y-85823472D01*
X133843849Y-85821639D01*
X133848966Y-85818219D01*
X133848968Y-85818219D01*
X133890481Y-85790481D01*
X133918219Y-85748968D01*
X133925500Y-85712363D01*
X133925499Y-85287638D01*
X133918219Y-85251032D01*
X133890481Y-85209519D01*
X133862869Y-85191069D01*
X133848970Y-85181782D01*
X133848966Y-85181780D01*
X133821450Y-85176307D01*
X133812363Y-85174500D01*
X133812362Y-85174500D01*
X133187641Y-85174500D01*
X133187640Y-85174500D01*
X133187638Y-85174501D01*
X133177446Y-85176528D01*
X133151032Y-85181780D01*
X133109518Y-85209519D01*
X133105166Y-85213872D01*
X133104039Y-85212745D01*
X133070263Y-85235309D01*
X133023348Y-85225970D01*
X133018495Y-85221987D01*
X133018465Y-85222027D01*
X133015211Y-85219530D01*
X132935290Y-85173386D01*
X132935287Y-85173385D01*
X132846150Y-85149501D01*
X132846145Y-85149500D01*
X132846144Y-85149500D01*
X132753856Y-85149500D01*
X132753855Y-85149500D01*
X132753849Y-85149501D01*
X132664712Y-85173385D01*
X132664709Y-85173386D01*
X132584788Y-85219530D01*
X132584782Y-85219535D01*
X132519535Y-85284782D01*
X132519530Y-85284788D01*
X132473386Y-85364709D01*
X132473385Y-85364712D01*
X132449501Y-85453849D01*
X132449500Y-85453857D01*
X132449500Y-85546142D01*
X132449501Y-85546150D01*
X132473385Y-85635287D01*
X132473386Y-85635290D01*
X132519530Y-85715211D01*
X132519535Y-85715217D01*
X132584782Y-85780464D01*
X132584788Y-85780469D01*
X132664709Y-85826613D01*
X132664712Y-85826614D01*
X132753856Y-85850500D01*
X132753857Y-85850500D01*
X132846143Y-85850500D01*
X132846144Y-85850500D01*
X132935288Y-85826614D01*
X132937218Y-85825500D01*
X132952180Y-85816860D01*
X133015212Y-85780469D01*
X133015215Y-85780465D01*
X133018465Y-85777973D01*
X133019590Y-85779439D01*
X133058058Y-85763491D01*
X133095080Y-85775621D01*
X133103937Y-85782127D01*
X133109519Y-85790481D01*
X133151032Y-85818219D01*
X133153823Y-85818774D01*
X133161795Y-85824630D01*
X133170564Y-85839110D01*
X133182534Y-85851079D01*
X133182534Y-85858876D01*
X133186574Y-85865547D01*
X133182535Y-85881986D01*
X133182537Y-85898914D01*
X133177023Y-85904428D01*
X133175163Y-85912002D01*
X133160682Y-85920771D01*
X133154926Y-85926528D01*
X133156151Y-85928361D01*
X133151032Y-85931780D01*
X133151032Y-85931781D01*
X133143127Y-85937063D01*
X133109519Y-85959519D01*
X133081782Y-86001029D01*
X133081780Y-86001033D01*
X133074500Y-86037636D01*
X133074500Y-86462358D01*
X133074501Y-86462362D01*
X133075068Y-86465211D01*
X133081780Y-86498967D01*
X133081781Y-86498968D01*
X133109519Y-86540481D01*
X133142929Y-86562805D01*
X133156150Y-86571639D01*
X133154924Y-86573472D01*
X133182534Y-86601079D01*
X133182537Y-86648914D01*
X133154926Y-86676528D01*
X133156151Y-86678361D01*
X133151032Y-86681780D01*
X133151032Y-86681781D01*
X133118210Y-86703712D01*
X133109519Y-86709519D01*
X133081782Y-86751029D01*
X133081780Y-86751033D01*
X133074500Y-86787636D01*
X133074500Y-87212358D01*
X133074501Y-87212362D01*
X133076810Y-87223974D01*
X133081780Y-87248967D01*
X133081781Y-87248968D01*
X133109519Y-87290481D01*
X133146120Y-87314936D01*
X133156150Y-87321639D01*
X133154924Y-87323472D01*
X133182534Y-87351079D01*
X133182537Y-87398914D01*
X133154926Y-87426528D01*
X133156151Y-87428361D01*
X133151032Y-87431780D01*
X133151032Y-87431781D01*
X133126860Y-87447932D01*
X133109519Y-87459519D01*
X133081781Y-87501030D01*
X133081779Y-87501035D01*
X133081112Y-87504391D01*
X133054534Y-87544163D01*
X133043734Y-87549936D01*
X133022265Y-87558829D01*
X133022262Y-87558831D01*
X132708831Y-87872262D01*
X132708829Y-87872265D01*
X132700999Y-87891170D01*
X132700998Y-87891171D01*
X132674499Y-87955143D01*
X132674499Y-88052127D01*
X132674500Y-88052136D01*
X132674500Y-89380706D01*
X132656194Y-89424900D01*
X132424901Y-89656194D01*
X132380707Y-89674500D01*
X127821793Y-89674500D01*
X127777599Y-89656194D01*
X127646306Y-89524901D01*
X127628000Y-89480707D01*
X127628000Y-87700453D01*
X127646306Y-87656259D01*
X127665255Y-87643278D01*
X127666495Y-87642730D01*
X127666498Y-87642730D01*
X127764141Y-87599616D01*
X127839616Y-87524141D01*
X127882730Y-87426498D01*
X127885474Y-87402847D01*
X128113001Y-87402847D01*
X128115784Y-87426849D01*
X128159125Y-87525003D01*
X128234997Y-87600875D01*
X128333151Y-87644215D01*
X128357152Y-87646999D01*
X128533999Y-87646999D01*
X128661000Y-87646999D01*
X128837847Y-87646999D01*
X128861849Y-87644215D01*
X128960003Y-87600874D01*
X129035875Y-87525003D01*
X129035875Y-87525001D01*
X129079215Y-87426849D01*
X129079215Y-87426847D01*
X129082000Y-87402847D01*
X129082000Y-87263500D01*
X128661000Y-87263500D01*
X128661000Y-87646999D01*
X128533999Y-87646999D01*
X128534000Y-87646998D01*
X128534000Y-87263500D01*
X128113001Y-87263500D01*
X128113001Y-87402847D01*
X127885474Y-87402847D01*
X127885500Y-87402623D01*
X127885499Y-87183785D01*
X127885499Y-86997377D01*
X127885473Y-86997152D01*
X128113000Y-86997152D01*
X128113000Y-87136500D01*
X128534000Y-87136500D01*
X128661000Y-87136500D01*
X129081999Y-87136500D01*
X129081999Y-86997152D01*
X129079215Y-86973150D01*
X129035874Y-86874996D01*
X128960003Y-86799125D01*
X128960001Y-86799124D01*
X128861848Y-86755784D01*
X128837848Y-86753000D01*
X128661000Y-86753000D01*
X128661000Y-87136500D01*
X128534000Y-87136500D01*
X128534000Y-86753000D01*
X128357152Y-86753000D01*
X128333150Y-86755784D01*
X128234996Y-86799125D01*
X128159125Y-86874997D01*
X128159124Y-86874998D01*
X128115784Y-86973150D01*
X128115784Y-86973152D01*
X128113000Y-86997152D01*
X127885473Y-86997152D01*
X127883003Y-86975859D01*
X127882730Y-86973502D01*
X127882575Y-86973152D01*
X127855191Y-86911133D01*
X127839616Y-86875859D01*
X127764141Y-86800384D01*
X127670670Y-86759112D01*
X127666496Y-86757269D01*
X127645755Y-86754863D01*
X127642623Y-86754500D01*
X127642622Y-86754500D01*
X127162377Y-86754500D01*
X127138501Y-86757270D01*
X127138497Y-86757271D01*
X127040858Y-86800384D01*
X126965385Y-86875857D01*
X126965384Y-86875858D01*
X126965384Y-86875859D01*
X126938278Y-86937246D01*
X126903683Y-86970280D01*
X126881105Y-86974500D01*
X126714636Y-86974500D01*
X126714628Y-86974499D01*
X126707355Y-86974499D01*
X126617645Y-86974499D01*
X126617643Y-86974499D01*
X126562957Y-86997152D01*
X126562414Y-86997377D01*
X126560363Y-86998226D01*
X126559002Y-86998790D01*
X126511167Y-86998781D01*
X126483128Y-86975765D01*
X126469553Y-86955448D01*
X126403232Y-86911133D01*
X126403230Y-86911132D01*
X126344748Y-86899500D01*
X126310674Y-86899500D01*
X126266480Y-86881194D01*
X126248174Y-86837000D01*
X126266480Y-86792806D01*
X126405100Y-86654185D01*
X126449294Y-86635879D01*
X126487622Y-86635879D01*
X126511498Y-86633110D01*
X126609141Y-86589996D01*
X126684616Y-86514521D01*
X126711721Y-86453133D01*
X126746317Y-86420100D01*
X126768895Y-86415880D01*
X128803931Y-86415880D01*
X128848125Y-86434186D01*
X128867074Y-86453135D01*
X128884787Y-86470848D01*
X128884788Y-86470849D01*
X128964709Y-86516993D01*
X128964712Y-86516994D01*
X129053856Y-86540880D01*
X129053857Y-86540880D01*
X129146143Y-86540880D01*
X129146144Y-86540880D01*
X129235288Y-86516994D01*
X129238079Y-86515383D01*
X129288336Y-86486366D01*
X129315212Y-86470849D01*
X129380469Y-86405592D01*
X129426614Y-86325668D01*
X129450500Y-86236524D01*
X129450500Y-86144236D01*
X129426614Y-86055092D01*
X129426613Y-86055089D01*
X129380469Y-85975168D01*
X129380464Y-85975162D01*
X129315217Y-85909915D01*
X129315211Y-85909910D01*
X129235290Y-85863766D01*
X129235287Y-85863765D01*
X129146150Y-85839881D01*
X129146145Y-85839880D01*
X129146144Y-85839880D01*
X129053856Y-85839880D01*
X129053855Y-85839880D01*
X129053849Y-85839881D01*
X128964712Y-85863765D01*
X128964709Y-85863766D01*
X128884788Y-85909910D01*
X128884787Y-85909911D01*
X128874266Y-85920433D01*
X128848124Y-85946574D01*
X128803932Y-85964880D01*
X126768895Y-85964880D01*
X126724701Y-85946574D01*
X126711722Y-85927628D01*
X126684616Y-85866239D01*
X126609141Y-85790764D01*
X126524242Y-85753277D01*
X126511496Y-85747649D01*
X126490755Y-85745243D01*
X126487623Y-85744880D01*
X126487622Y-85744880D01*
X126007377Y-85744880D01*
X125983501Y-85747650D01*
X125983497Y-85747651D01*
X125885858Y-85790764D01*
X125810385Y-85866237D01*
X125767269Y-85963883D01*
X125764500Y-85987757D01*
X125764500Y-86393002D01*
X125767270Y-86416878D01*
X125767271Y-86416882D01*
X125810384Y-86514521D01*
X125814474Y-86518611D01*
X125832780Y-86562805D01*
X125814474Y-86606999D01*
X125539533Y-86881941D01*
X125507533Y-86899046D01*
X125446768Y-86911133D01*
X125446767Y-86911133D01*
X125380447Y-86955447D01*
X125336133Y-87021767D01*
X125333778Y-87027455D01*
X125330928Y-87026274D01*
X125310484Y-87056869D01*
X125263567Y-87066198D01*
X125223795Y-87039620D01*
X125223405Y-87039029D01*
X125160141Y-86941973D01*
X125156849Y-86924379D01*
X125150000Y-86907844D01*
X125150000Y-86890380D01*
X124650000Y-86890380D01*
X124650000Y-87677880D01*
X124631694Y-87722074D01*
X124587500Y-87740380D01*
X124500000Y-87740380D01*
X124418306Y-87822074D01*
X124374112Y-87840380D01*
X124249499Y-87840380D01*
X124205305Y-87822074D01*
X124186999Y-87777880D01*
X124186999Y-87768274D01*
X124184264Y-87744695D01*
X124141678Y-87648250D01*
X124067130Y-87573702D01*
X123970680Y-87531115D01*
X123947106Y-87528380D01*
X123813500Y-87528380D01*
X123813500Y-87777880D01*
X123795194Y-87822074D01*
X123751000Y-87840380D01*
X123749000Y-87840380D01*
X123704806Y-87822074D01*
X123686500Y-87777880D01*
X123686500Y-87528380D01*
X123552894Y-87528380D01*
X123529315Y-87531115D01*
X123432870Y-87573701D01*
X123358322Y-87648249D01*
X123315735Y-87744699D01*
X123313000Y-87768274D01*
X123313000Y-87959380D01*
X123687500Y-87959380D01*
X123731694Y-87977686D01*
X123750000Y-88021880D01*
X123750000Y-88023880D01*
X123731694Y-88068074D01*
X123687500Y-88086380D01*
X123313001Y-88086380D01*
X123313001Y-88277485D01*
X123315735Y-88301064D01*
X123358321Y-88397509D01*
X123432869Y-88472057D01*
X123529319Y-88514644D01*
X123552894Y-88517379D01*
X123686499Y-88517379D01*
X123686500Y-88517378D01*
X123686500Y-88252880D01*
X123704806Y-88208686D01*
X123749000Y-88190380D01*
X123751000Y-88190380D01*
X123795194Y-88208686D01*
X123813500Y-88252880D01*
X123813500Y-88517379D01*
X123947105Y-88517379D01*
X123970684Y-88514644D01*
X124067129Y-88472058D01*
X124141677Y-88397510D01*
X124184264Y-88301060D01*
X124187000Y-88277485D01*
X124187000Y-88252880D01*
X124205306Y-88208686D01*
X124249500Y-88190380D01*
X124550001Y-88190380D01*
X124561485Y-88185623D01*
X124562871Y-88188969D01*
X124587500Y-88178768D01*
X124631694Y-88197074D01*
X124650000Y-88241268D01*
X124650000Y-88390380D01*
X124734039Y-88390380D01*
X124778233Y-88408686D01*
X124796539Y-88452880D01*
X124778233Y-88497074D01*
X124768762Y-88504847D01*
X124730447Y-88530447D01*
X124686133Y-88596767D01*
X124686132Y-88596769D01*
X124674500Y-88655251D01*
X124674500Y-89719748D01*
X124686132Y-89778230D01*
X124686133Y-89778233D01*
X124713966Y-89819885D01*
X124724500Y-89854609D01*
X124724500Y-90098442D01*
X124706194Y-90142636D01*
X124687246Y-90155616D01*
X124585858Y-90200384D01*
X124510385Y-90275857D01*
X124467269Y-90373503D01*
X124464500Y-90397377D01*
X124464500Y-90802622D01*
X124467270Y-90826498D01*
X124467271Y-90826502D01*
X124496757Y-90893279D01*
X124510384Y-90924141D01*
X124585859Y-90999616D01*
X124683502Y-91042730D01*
X124707377Y-91045500D01*
X125187622Y-91045499D01*
X125211498Y-91042730D01*
X125309141Y-90999616D01*
X125384616Y-90924141D01*
X125411721Y-90862753D01*
X125446317Y-90829720D01*
X125468895Y-90825500D01*
X125603931Y-90825500D01*
X125648125Y-90843806D01*
X125667074Y-90862755D01*
X125684787Y-90880468D01*
X125684788Y-90880469D01*
X125764709Y-90926613D01*
X125764712Y-90926614D01*
X125853856Y-90950500D01*
X125853857Y-90950500D01*
X125946143Y-90950500D01*
X125946144Y-90950500D01*
X126035288Y-90926614D01*
X126038079Y-90925003D01*
X126052180Y-90916860D01*
X126115212Y-90880469D01*
X126180469Y-90815212D01*
X126226614Y-90735288D01*
X126250500Y-90646144D01*
X126250500Y-90553856D01*
X126226614Y-90464712D01*
X126226613Y-90464709D01*
X126180469Y-90384788D01*
X126180464Y-90384782D01*
X126115217Y-90319535D01*
X126115211Y-90319530D01*
X126035290Y-90273386D01*
X126035287Y-90273385D01*
X125946150Y-90249501D01*
X125946145Y-90249500D01*
X125946144Y-90249500D01*
X125853856Y-90249500D01*
X125853855Y-90249500D01*
X125853849Y-90249501D01*
X125764712Y-90273385D01*
X125764709Y-90273386D01*
X125684788Y-90319530D01*
X125684787Y-90319531D01*
X125674755Y-90329564D01*
X125648124Y-90356194D01*
X125603932Y-90374500D01*
X125468895Y-90374500D01*
X125424701Y-90356194D01*
X125411722Y-90337248D01*
X125384616Y-90275859D01*
X125309141Y-90200384D01*
X125306287Y-90199124D01*
X125212754Y-90157824D01*
X125179720Y-90123227D01*
X125175500Y-90100650D01*
X125175500Y-89854609D01*
X125184031Y-89823088D01*
X125184982Y-89821458D01*
X125213867Y-89778231D01*
X125215745Y-89768786D01*
X125221031Y-89759737D01*
X125232368Y-89751127D01*
X125240276Y-89739292D01*
X125250677Y-89737222D01*
X125259126Y-89730807D01*
X125273231Y-89732736D01*
X125287192Y-89729959D01*
X125296011Y-89735851D01*
X125306521Y-89737289D01*
X125315130Y-89748626D01*
X125326966Y-89756534D01*
X125333624Y-89772608D01*
X125333778Y-89772545D01*
X125334357Y-89773944D01*
X125335451Y-89775384D01*
X125335327Y-89776286D01*
X125336133Y-89778232D01*
X125380447Y-89844552D01*
X125446767Y-89888866D01*
X125446769Y-89888867D01*
X125505252Y-89900500D01*
X125694748Y-89900500D01*
X125753231Y-89888867D01*
X125819552Y-89844552D01*
X125863867Y-89778231D01*
X125863867Y-89778228D01*
X125866222Y-89772545D01*
X125867660Y-89773140D01*
X125890276Y-89739292D01*
X125937192Y-89729959D01*
X125976966Y-89756534D01*
X125983624Y-89772608D01*
X125983778Y-89772545D01*
X125986133Y-89778232D01*
X126030447Y-89844552D01*
X126096767Y-89888866D01*
X126096769Y-89888867D01*
X126155252Y-89900500D01*
X126344748Y-89900500D01*
X126403231Y-89888867D01*
X126469552Y-89844552D01*
X126513867Y-89778231D01*
X126525500Y-89719748D01*
X126525500Y-89534775D01*
X126543806Y-89490581D01*
X126588000Y-89472275D01*
X126619249Y-89480648D01*
X126677212Y-89514114D01*
X126766356Y-89538000D01*
X126766357Y-89538000D01*
X126858643Y-89538000D01*
X126858644Y-89538000D01*
X126947788Y-89514114D01*
X126957720Y-89508380D01*
X126974023Y-89498967D01*
X127027712Y-89467969D01*
X127035789Y-89459892D01*
X127070306Y-89425376D01*
X127114500Y-89407070D01*
X127158694Y-89425376D01*
X127177000Y-89469570D01*
X127177000Y-89550100D01*
X127176999Y-89550114D01*
X127176999Y-89652127D01*
X127177000Y-89652136D01*
X127177000Y-91052600D01*
X127176999Y-91052614D01*
X127176999Y-91147357D01*
X127179638Y-91153727D01*
X127201274Y-91205960D01*
X127211330Y-91230236D01*
X127211331Y-91230238D01*
X127283554Y-91302460D01*
X127283556Y-91302461D01*
X128168694Y-92187599D01*
X128187000Y-92231793D01*
X128187000Y-94463390D01*
X128168694Y-94507584D01*
X128136691Y-94524689D01*
X128125339Y-94526946D01*
X128101032Y-94531780D01*
X128059519Y-94559519D01*
X128031782Y-94601029D01*
X128031780Y-94601033D01*
X128024500Y-94637636D01*
X128024500Y-95162358D01*
X128024501Y-95162362D01*
X128027554Y-95177712D01*
X128031780Y-95198967D01*
X128059519Y-95240481D01*
X128070822Y-95248034D01*
X128097397Y-95287808D01*
X128088064Y-95334724D01*
X128070822Y-95351966D01*
X128059519Y-95359518D01*
X128031782Y-95401029D01*
X128031780Y-95401033D01*
X128024500Y-95437637D01*
X128024500Y-95962358D01*
X128024501Y-95962362D01*
X128024530Y-95962507D01*
X128031780Y-95998967D01*
X128031781Y-95998968D01*
X128059519Y-96040481D01*
X128069472Y-96047131D01*
X128096048Y-96086905D01*
X128086716Y-96133821D01*
X128069473Y-96151064D01*
X128058438Y-96158437D01*
X128030369Y-96200445D01*
X128030369Y-96200446D01*
X128023000Y-96237492D01*
X128023000Y-96436500D01*
X128802000Y-96436500D01*
X128802000Y-96237492D01*
X128794630Y-96200446D01*
X128794630Y-96200445D01*
X128766561Y-96158438D01*
X128755527Y-96151065D01*
X128728951Y-96111291D01*
X128738283Y-96064375D01*
X128755526Y-96047132D01*
X128765481Y-96040481D01*
X128793219Y-95998968D01*
X128800500Y-95962363D01*
X128800499Y-95942776D01*
X128818803Y-95898583D01*
X128819224Y-95898166D01*
X128825343Y-95892161D01*
X128827736Y-95891170D01*
X128891170Y-95827736D01*
X128891170Y-95827734D01*
X129291170Y-95427736D01*
X129325500Y-95344855D01*
X129325500Y-95255146D01*
X129325500Y-91796068D01*
X129343806Y-91751875D01*
X129351875Y-91743806D01*
X129396069Y-91725500D01*
X133032694Y-91725500D01*
X133076888Y-91743806D01*
X133084656Y-91753271D01*
X133095955Y-91770181D01*
X133109519Y-91790481D01*
X133156150Y-91821639D01*
X133154924Y-91823472D01*
X133182534Y-91851079D01*
X133182537Y-91898914D01*
X133154926Y-91926528D01*
X133156151Y-91928361D01*
X133151032Y-91931780D01*
X133151032Y-91931781D01*
X133109519Y-91959519D01*
X133081782Y-92001029D01*
X133081780Y-92001033D01*
X133074500Y-92037636D01*
X133074500Y-92462358D01*
X133074501Y-92462362D01*
X133077608Y-92477984D01*
X133081780Y-92498967D01*
X133081781Y-92498968D01*
X133109519Y-92540481D01*
X133146120Y-92564936D01*
X133156150Y-92571639D01*
X133154924Y-92573472D01*
X133182534Y-92601079D01*
X133182537Y-92648914D01*
X133154926Y-92676528D01*
X133156151Y-92678361D01*
X133151032Y-92681780D01*
X133151032Y-92681781D01*
X133109519Y-92709519D01*
X133081782Y-92751029D01*
X133081780Y-92751033D01*
X133074500Y-92787636D01*
X133074500Y-93212358D01*
X133074501Y-93212362D01*
X133077608Y-93227984D01*
X133081780Y-93248967D01*
X133081781Y-93248968D01*
X133109519Y-93290481D01*
X133146120Y-93314936D01*
X133156150Y-93321639D01*
X133154924Y-93323472D01*
X133182534Y-93351079D01*
X133182537Y-93398914D01*
X133154926Y-93426528D01*
X133156151Y-93428361D01*
X133151032Y-93431780D01*
X133151032Y-93431781D01*
X133135503Y-93442157D01*
X133109519Y-93459519D01*
X133081782Y-93501029D01*
X133081780Y-93501033D01*
X133074500Y-93537636D01*
X133074500Y-93962358D01*
X133074501Y-93962362D01*
X133077114Y-93975500D01*
X133081780Y-93998967D01*
X133081781Y-93998968D01*
X133109519Y-94040481D01*
X133151032Y-94068219D01*
X133187637Y-94075500D01*
X133812362Y-94075499D01*
X133848968Y-94068219D01*
X133848968Y-94068218D01*
X133851883Y-94067639D01*
X133898798Y-94076974D01*
X133925372Y-94116747D01*
X133931779Y-94148964D01*
X133931780Y-94148966D01*
X133931780Y-94148967D01*
X133931781Y-94148968D01*
X133959519Y-94190481D01*
X133996723Y-94215340D01*
X134000279Y-94220662D01*
X134006194Y-94223112D01*
X134013169Y-94239952D01*
X134023299Y-94255112D01*
X134024500Y-94267306D01*
X134024500Y-94295707D01*
X134006194Y-94339901D01*
X133899901Y-94446194D01*
X133855707Y-94464500D01*
X133510620Y-94464500D01*
X133487168Y-94467220D01*
X133391231Y-94509581D01*
X133317081Y-94583731D01*
X133317080Y-94583732D01*
X133317080Y-94583733D01*
X133309747Y-94600338D01*
X133274720Y-94679668D01*
X133272362Y-94700000D01*
X133272000Y-94703120D01*
X133272000Y-95096880D01*
X133272106Y-95097790D01*
X133274720Y-95120331D01*
X133279589Y-95131359D01*
X133317080Y-95216267D01*
X133391233Y-95290420D01*
X133487167Y-95332779D01*
X133487168Y-95332779D01*
X133487173Y-95332781D01*
X133491707Y-95334015D01*
X133491090Y-95336280D01*
X133502167Y-95342442D01*
X133521194Y-95350324D01*
X133522648Y-95353836D01*
X133525972Y-95355685D01*
X133539500Y-95394518D01*
X133539500Y-95403930D01*
X133521194Y-95448124D01*
X133484535Y-95484782D01*
X133484530Y-95484788D01*
X133438386Y-95564709D01*
X133438385Y-95564712D01*
X133414501Y-95653849D01*
X133414500Y-95653857D01*
X133414500Y-95746142D01*
X133414501Y-95746150D01*
X133438385Y-95835287D01*
X133438386Y-95835290D01*
X133484530Y-95915211D01*
X133484535Y-95915217D01*
X133549782Y-95980464D01*
X133549788Y-95980469D01*
X133629709Y-96026613D01*
X133629712Y-96026614D01*
X133718856Y-96050500D01*
X133718857Y-96050500D01*
X133811143Y-96050500D01*
X133811144Y-96050500D01*
X133900288Y-96026614D01*
X133980212Y-95980469D01*
X134045469Y-95915212D01*
X134091614Y-95835288D01*
X134115500Y-95746144D01*
X134115500Y-95653856D01*
X134091614Y-95564712D01*
X134091613Y-95564709D01*
X134045469Y-95484788D01*
X134045464Y-95484782D01*
X134008806Y-95448124D01*
X133990500Y-95403930D01*
X133990500Y-95394518D01*
X134008806Y-95350324D01*
X134038788Y-95335834D01*
X134038293Y-95334015D01*
X134042826Y-95332781D01*
X134042829Y-95332779D01*
X134042833Y-95332779D01*
X134138767Y-95290420D01*
X134212920Y-95216267D01*
X134255279Y-95120333D01*
X134257974Y-95097105D01*
X134405501Y-95097105D01*
X134408235Y-95120684D01*
X134450821Y-95217129D01*
X134525369Y-95291677D01*
X134621819Y-95334264D01*
X134645394Y-95336999D01*
X134836499Y-95336999D01*
X134963500Y-95336999D01*
X135154605Y-95336999D01*
X135178184Y-95334264D01*
X135274629Y-95291678D01*
X135349177Y-95217130D01*
X135391764Y-95120680D01*
X135394500Y-95097105D01*
X135394500Y-94963500D01*
X134963500Y-94963500D01*
X134963500Y-95336999D01*
X134836499Y-95336999D01*
X134836500Y-95336998D01*
X134836500Y-94963500D01*
X134405501Y-94963500D01*
X134405501Y-95097105D01*
X134257974Y-95097105D01*
X134258000Y-95096880D01*
X134258000Y-94751792D01*
X134276305Y-94707599D01*
X134298807Y-94685097D01*
X134343000Y-94666792D01*
X134387194Y-94685098D01*
X134405500Y-94729292D01*
X134405500Y-94836500D01*
X135394499Y-94836500D01*
X135394499Y-94731389D01*
X135412805Y-94687195D01*
X135417806Y-94682194D01*
X135462000Y-94663888D01*
X135506194Y-94682194D01*
X135524500Y-94726388D01*
X135524500Y-96475100D01*
X135524499Y-96475112D01*
X135524499Y-96569856D01*
X135542358Y-96612969D01*
X135548474Y-96627735D01*
X135550928Y-96633659D01*
X135558830Y-96652737D01*
X135631054Y-96724960D01*
X135631056Y-96724961D01*
X138731194Y-99825099D01*
X138749500Y-99869293D01*
X138749500Y-103912000D01*
X138731194Y-103956194D01*
X138687000Y-103974500D01*
X138212641Y-103974500D01*
X138212640Y-103974500D01*
X138212638Y-103974501D01*
X138202222Y-103976572D01*
X138176032Y-103981780D01*
X138134519Y-104009519D01*
X138106782Y-104051029D01*
X138106780Y-104051033D01*
X138099500Y-104087636D01*
X138099500Y-105412358D01*
X138099501Y-105412362D01*
X138102608Y-105427984D01*
X138106780Y-105448967D01*
X138106781Y-105448968D01*
X138134519Y-105490481D01*
X138176032Y-105518219D01*
X138212637Y-105525500D01*
X139737362Y-105525499D01*
X139773968Y-105518219D01*
X139815481Y-105490481D01*
X139843219Y-105448968D01*
X139850500Y-105412363D01*
X139850499Y-104087638D01*
X139843219Y-104051032D01*
X139815481Y-104009519D01*
X139787869Y-103991069D01*
X139773970Y-103981782D01*
X139773966Y-103981780D01*
X139737363Y-103974500D01*
X139263000Y-103974500D01*
X139218806Y-103956194D01*
X139200500Y-103912000D01*
X139200500Y-99802136D01*
X139200501Y-99802127D01*
X139200501Y-99705146D01*
X139200500Y-99705144D01*
X139192429Y-99685660D01*
X139170928Y-99633751D01*
X139170928Y-99633750D01*
X139166170Y-99622264D01*
X139099181Y-99555274D01*
X139099166Y-99555261D01*
X135993806Y-96449901D01*
X135975500Y-96405707D01*
X135975500Y-94267306D01*
X135992566Y-94224388D01*
X135998260Y-94218359D01*
X135998968Y-94218219D01*
X136040481Y-94190481D01*
X136068219Y-94148968D01*
X136069395Y-94143055D01*
X136079566Y-94132288D01*
X136091685Y-94126858D01*
X136101073Y-94117468D01*
X136112651Y-94117466D01*
X136123221Y-94112731D01*
X136135630Y-94117462D01*
X136148908Y-94117460D01*
X136157097Y-94125646D01*
X136167918Y-94129772D01*
X136173347Y-94141891D01*
X136176529Y-94145072D01*
X136178361Y-94143849D01*
X136181780Y-94148967D01*
X136181781Y-94148968D01*
X136209519Y-94190481D01*
X136246724Y-94215340D01*
X136273299Y-94255112D01*
X136274500Y-94267306D01*
X136274500Y-94655142D01*
X136274499Y-94655145D01*
X136274499Y-94744855D01*
X136276687Y-94750136D01*
X136280754Y-94759954D01*
X136308829Y-94827734D01*
X136308831Y-94827737D01*
X136381054Y-94899960D01*
X136381056Y-94899961D01*
X141206194Y-99725099D01*
X141224500Y-99769293D01*
X141224500Y-104282000D01*
X141206194Y-104326194D01*
X141162000Y-104344500D01*
X140964364Y-104344500D01*
X140891374Y-104355134D01*
X140891373Y-104355134D01*
X140778790Y-104410172D01*
X140690172Y-104498790D01*
X140635134Y-104611373D01*
X140635134Y-104611374D01*
X140635134Y-104611375D01*
X140624500Y-104684364D01*
X140624500Y-105405636D01*
X140635134Y-105478625D01*
X140635134Y-105478626D01*
X140690172Y-105591209D01*
X140778790Y-105679827D01*
X140835082Y-105707346D01*
X140891375Y-105734866D01*
X140964364Y-105745500D01*
X141935636Y-105745500D01*
X142008625Y-105734866D01*
X142121211Y-105679826D01*
X142209826Y-105591211D01*
X142264866Y-105478625D01*
X142275500Y-105405636D01*
X142275500Y-104684364D01*
X142264866Y-104611375D01*
X142262568Y-104606674D01*
X142209827Y-104498790D01*
X142121209Y-104410172D01*
X142008625Y-104355134D01*
X141935636Y-104344500D01*
X141738000Y-104344500D01*
X141693806Y-104326194D01*
X141675500Y-104282000D01*
X141675500Y-102230818D01*
X143374500Y-102230818D01*
X143374500Y-102369181D01*
X143374501Y-102369189D01*
X143410310Y-102502832D01*
X143410311Y-102502835D01*
X143479496Y-102622666D01*
X143479499Y-102622670D01*
X143577329Y-102720500D01*
X143577333Y-102720503D01*
X143577335Y-102720505D01*
X143690144Y-102785635D01*
X143697164Y-102789688D01*
X143697167Y-102789689D01*
X143778955Y-102811603D01*
X143830817Y-102825500D01*
X143830818Y-102825500D01*
X143969182Y-102825500D01*
X143969183Y-102825500D01*
X144102836Y-102789688D01*
X144222665Y-102720505D01*
X144299364Y-102643806D01*
X144343558Y-102625500D01*
X144612000Y-102625500D01*
X144656194Y-102643806D01*
X144674500Y-102688000D01*
X144674500Y-102785636D01*
X144680308Y-102825498D01*
X144685134Y-102858625D01*
X144685134Y-102858626D01*
X144740172Y-102971209D01*
X144828790Y-103059827D01*
X144885082Y-103087346D01*
X144941375Y-103114866D01*
X145014364Y-103125500D01*
X145785636Y-103125500D01*
X145858625Y-103114866D01*
X145971211Y-103059826D01*
X146059826Y-102971211D01*
X146114866Y-102858625D01*
X146125479Y-102785777D01*
X146673001Y-102785777D01*
X146683676Y-102859056D01*
X146683678Y-102859060D01*
X146738936Y-102972095D01*
X146827904Y-103061063D01*
X146940941Y-103116322D01*
X147014221Y-103126999D01*
X147336500Y-103126999D01*
X147463500Y-103126999D01*
X147785778Y-103126999D01*
X147859056Y-103116323D01*
X147859060Y-103116321D01*
X147972095Y-103061063D01*
X148061063Y-102972095D01*
X148116322Y-102859058D01*
X148127000Y-102785778D01*
X148127000Y-102363500D01*
X147463500Y-102363500D01*
X147463500Y-103126999D01*
X147336500Y-103126999D01*
X147336500Y-102363500D01*
X146673001Y-102363500D01*
X146673001Y-102785777D01*
X146125479Y-102785777D01*
X146125500Y-102785636D01*
X146125500Y-101814364D01*
X146125479Y-101814221D01*
X146673000Y-101814221D01*
X146673000Y-102236500D01*
X147336500Y-102236500D01*
X147463500Y-102236500D01*
X148126999Y-102236500D01*
X148126999Y-101814222D01*
X148116323Y-101740943D01*
X148116321Y-101740939D01*
X148061063Y-101627904D01*
X147972095Y-101538936D01*
X147859058Y-101483677D01*
X147785778Y-101473000D01*
X147463500Y-101473000D01*
X147463500Y-102236500D01*
X147336500Y-102236500D01*
X147336500Y-101473000D01*
X147014222Y-101473000D01*
X146940943Y-101483676D01*
X146940939Y-101483678D01*
X146827904Y-101538936D01*
X146738936Y-101627904D01*
X146683677Y-101740941D01*
X146673000Y-101814221D01*
X146125479Y-101814221D01*
X146114866Y-101741375D01*
X146112568Y-101736674D01*
X146059827Y-101628790D01*
X145971209Y-101540172D01*
X145858625Y-101485134D01*
X145785631Y-101474499D01*
X145783476Y-101474343D01*
X145740723Y-101452886D01*
X145725500Y-101412007D01*
X145725500Y-100860715D01*
X145743806Y-100816521D01*
X147516521Y-99043806D01*
X147560715Y-99025500D01*
X149169491Y-99025500D01*
X149213685Y-99043806D01*
X149228932Y-99068687D01*
X149297846Y-99280784D01*
X149297848Y-99280791D01*
X149335288Y-99354271D01*
X149405967Y-99492985D01*
X149405970Y-99492989D01*
X149545948Y-99685652D01*
X149545955Y-99685660D01*
X149714339Y-99854044D01*
X149714347Y-99854051D01*
X149907015Y-99994033D01*
X150119210Y-100102152D01*
X150345705Y-100175744D01*
X150580924Y-100213000D01*
X150580926Y-100213000D01*
X150819074Y-100213000D01*
X150819076Y-100213000D01*
X151054295Y-100175744D01*
X151280790Y-100102152D01*
X151492985Y-99994033D01*
X151685653Y-99854051D01*
X151854051Y-99685653D01*
X151994033Y-99492985D01*
X152102152Y-99280790D01*
X152175744Y-99054295D01*
X152213000Y-98819076D01*
X152213000Y-98580924D01*
X152175744Y-98345705D01*
X152102152Y-98119210D01*
X151994033Y-97907015D01*
X151854051Y-97714347D01*
X151854044Y-97714339D01*
X151685660Y-97545955D01*
X151685652Y-97545948D01*
X151534318Y-97435997D01*
X151492985Y-97405967D01*
X151354271Y-97335288D01*
X151280791Y-97297848D01*
X151280784Y-97297846D01*
X151054297Y-97224256D01*
X151054294Y-97224255D01*
X150819087Y-97187001D01*
X150819077Y-97187000D01*
X150819076Y-97187000D01*
X150580924Y-97187000D01*
X150580922Y-97187000D01*
X150580912Y-97187001D01*
X150345705Y-97224255D01*
X150345702Y-97224256D01*
X150119215Y-97297846D01*
X150119208Y-97297848D01*
X149972247Y-97372729D01*
X149907015Y-97405967D01*
X149907012Y-97405968D01*
X149907010Y-97405970D01*
X149714347Y-97545948D01*
X149714339Y-97545955D01*
X149545955Y-97714339D01*
X149545948Y-97714347D01*
X149405970Y-97907010D01*
X149405968Y-97907012D01*
X149405967Y-97907015D01*
X149389348Y-97939632D01*
X149297848Y-98119208D01*
X149297846Y-98119215D01*
X149228932Y-98331313D01*
X149197866Y-98367688D01*
X149169491Y-98374500D01*
X147442853Y-98374500D01*
X147357147Y-98374500D01*
X147357146Y-98374500D01*
X147357140Y-98374501D01*
X147274364Y-98396680D01*
X147274355Y-98396684D01*
X147200141Y-98439532D01*
X147200132Y-98439539D01*
X145139539Y-100500132D01*
X145139532Y-100500141D01*
X145096683Y-100574357D01*
X145094553Y-100582308D01*
X145094552Y-100582312D01*
X145074500Y-100657142D01*
X145074500Y-101412007D01*
X145056194Y-101456201D01*
X145016524Y-101474343D01*
X145014368Y-101474499D01*
X144941374Y-101485134D01*
X144941373Y-101485134D01*
X144828790Y-101540172D01*
X144740172Y-101628790D01*
X144685134Y-101741373D01*
X144685134Y-101741374D01*
X144674500Y-101814364D01*
X144674500Y-101912000D01*
X144656194Y-101956194D01*
X144612000Y-101974500D01*
X144343558Y-101974500D01*
X144299364Y-101956194D01*
X144222666Y-101879496D01*
X144222665Y-101879495D01*
X144162750Y-101844903D01*
X144102835Y-101810311D01*
X144102832Y-101810310D01*
X143969189Y-101774501D01*
X143969184Y-101774500D01*
X143969183Y-101774500D01*
X143830817Y-101774500D01*
X143830816Y-101774500D01*
X143830810Y-101774501D01*
X143697167Y-101810310D01*
X143697164Y-101810311D01*
X143577333Y-101879496D01*
X143577329Y-101879499D01*
X143479499Y-101977329D01*
X143479496Y-101977333D01*
X143410311Y-102097164D01*
X143410310Y-102097167D01*
X143374501Y-102230810D01*
X143374500Y-102230818D01*
X141675500Y-102230818D01*
X141675500Y-99702136D01*
X141675501Y-99702127D01*
X141675501Y-99605145D01*
X141675500Y-99605143D01*
X141645928Y-99533751D01*
X141645928Y-99533750D01*
X141641170Y-99522264D01*
X141574181Y-99455274D01*
X141574166Y-99455261D01*
X136743806Y-94624901D01*
X136725500Y-94580707D01*
X136725500Y-94267306D01*
X136742566Y-94224388D01*
X136748260Y-94218359D01*
X136748968Y-94218219D01*
X136790481Y-94190481D01*
X136818219Y-94148968D01*
X136819395Y-94143055D01*
X136829566Y-94132288D01*
X136841685Y-94126858D01*
X136851073Y-94117468D01*
X136862651Y-94117466D01*
X136873221Y-94112731D01*
X136885630Y-94117462D01*
X136898908Y-94117460D01*
X136907097Y-94125646D01*
X136917918Y-94129772D01*
X136923347Y-94141891D01*
X136926529Y-94145072D01*
X136928361Y-94143849D01*
X136931780Y-94148967D01*
X136931781Y-94148968D01*
X136959519Y-94190481D01*
X136996724Y-94215340D01*
X137023299Y-94255112D01*
X137024500Y-94267306D01*
X137024500Y-94400100D01*
X137024499Y-94400114D01*
X137024499Y-94494856D01*
X137039794Y-94531780D01*
X137039794Y-94531781D01*
X137058827Y-94577732D01*
X137058831Y-94577737D01*
X137131054Y-94649960D01*
X137131056Y-94649961D01*
X138267761Y-95786666D01*
X138267774Y-95786681D01*
X138302288Y-95821194D01*
X138334764Y-95853670D01*
X138359039Y-95863725D01*
X138417645Y-95888001D01*
X138514628Y-95888001D01*
X138514636Y-95888000D01*
X140936277Y-95888000D01*
X140980471Y-95906306D01*
X140993451Y-95925254D01*
X141017080Y-95978767D01*
X141091233Y-96052920D01*
X141137245Y-96073236D01*
X141145350Y-96081724D01*
X141156193Y-96086216D01*
X141161215Y-96098340D01*
X141170278Y-96107832D01*
X141174499Y-96130410D01*
X141174499Y-96164254D01*
X141156193Y-96208448D01*
X141137245Y-96221428D01*
X141043358Y-96262884D01*
X140967885Y-96338357D01*
X140924769Y-96436003D01*
X140922000Y-96459877D01*
X140922000Y-96865122D01*
X140924770Y-96888998D01*
X140924771Y-96889002D01*
X140955907Y-96959516D01*
X140967884Y-96986641D01*
X141043359Y-97062116D01*
X141139746Y-97104675D01*
X141147851Y-97113163D01*
X141158694Y-97117655D01*
X141163715Y-97129777D01*
X141172780Y-97139271D01*
X141177000Y-97161849D01*
X141177000Y-97162046D01*
X141158694Y-97206240D01*
X141139746Y-97219220D01*
X141040858Y-97262884D01*
X140965385Y-97338357D01*
X140965384Y-97338358D01*
X140965384Y-97338359D01*
X140961947Y-97346144D01*
X140922269Y-97436003D01*
X140919500Y-97459877D01*
X140919500Y-97865122D01*
X140922270Y-97888998D01*
X140922271Y-97889002D01*
X140944628Y-97939634D01*
X140965384Y-97986641D01*
X141040859Y-98062116D01*
X141138502Y-98105230D01*
X141162377Y-98108000D01*
X141642622Y-98107999D01*
X141666498Y-98105230D01*
X141764141Y-98062116D01*
X141839616Y-97986641D01*
X141882730Y-97888998D01*
X141885500Y-97865123D01*
X141885499Y-97459878D01*
X141882730Y-97436002D01*
X141839616Y-97338359D01*
X141764141Y-97262884D01*
X141667529Y-97220225D01*
X141634496Y-97185630D01*
X141635601Y-97137807D01*
X141667531Y-97105877D01*
X141668995Y-97105230D01*
X141668998Y-97105230D01*
X141766641Y-97062116D01*
X141842116Y-96986641D01*
X141885230Y-96888998D01*
X141888000Y-96865123D01*
X141887999Y-96459878D01*
X141885230Y-96436002D01*
X141842116Y-96338359D01*
X141766641Y-96262884D01*
X141715935Y-96240494D01*
X141700356Y-96224178D01*
X141684027Y-96208612D01*
X141684008Y-96207056D01*
X141682901Y-96205897D01*
X141682883Y-96160790D01*
X141683140Y-96160124D01*
X141683391Y-96159519D01*
X141690501Y-96142355D01*
X141690501Y-96141077D01*
X141692970Y-96134689D01*
X141706024Y-96120994D01*
X141716531Y-96105261D01*
X141723445Y-96102719D01*
X141725976Y-96100065D01*
X141730992Y-96099944D01*
X141738477Y-96097193D01*
X141738293Y-96096515D01*
X141742826Y-96095281D01*
X141742829Y-96095279D01*
X141742833Y-96095279D01*
X141838767Y-96052920D01*
X141912920Y-95978767D01*
X141955279Y-95882833D01*
X141958000Y-95859380D01*
X141958000Y-95465620D01*
X142107000Y-95465620D01*
X142107000Y-95859379D01*
X142109720Y-95882831D01*
X142109721Y-95882833D01*
X142152080Y-95978767D01*
X142226233Y-96052920D01*
X142322167Y-96095279D01*
X142322168Y-96095279D01*
X142322173Y-96095281D01*
X142326707Y-96096515D01*
X142326090Y-96098780D01*
X142337167Y-96104942D01*
X142356194Y-96112824D01*
X142357648Y-96116336D01*
X142360972Y-96118185D01*
X142374500Y-96157018D01*
X142374500Y-96162046D01*
X142356194Y-96206240D01*
X142337246Y-96219220D01*
X142238358Y-96262884D01*
X142162885Y-96338357D01*
X142119769Y-96436003D01*
X142117000Y-96459877D01*
X142117000Y-96865122D01*
X142119770Y-96888998D01*
X142119771Y-96889002D01*
X142150907Y-96959516D01*
X142162884Y-96986641D01*
X142238359Y-97062116D01*
X142334970Y-97104774D01*
X142368002Y-97139369D01*
X142366898Y-97187192D01*
X142334969Y-97219121D01*
X142235858Y-97262884D01*
X142160385Y-97338357D01*
X142160384Y-97338358D01*
X142160384Y-97338359D01*
X142156947Y-97346144D01*
X142117269Y-97436003D01*
X142114500Y-97459877D01*
X142114500Y-97865122D01*
X142117270Y-97888998D01*
X142117271Y-97889002D01*
X142139628Y-97939634D01*
X142160384Y-97986641D01*
X142235859Y-98062116D01*
X142333502Y-98105230D01*
X142357377Y-98108000D01*
X142837622Y-98107999D01*
X142861498Y-98105230D01*
X142959141Y-98062116D01*
X143034616Y-97986641D01*
X143061721Y-97925253D01*
X143096317Y-97892220D01*
X143118895Y-97888000D01*
X143647864Y-97888000D01*
X143647872Y-97888001D01*
X143655145Y-97888001D01*
X143744855Y-97888001D01*
X143774157Y-97875863D01*
X143803459Y-97863726D01*
X143803459Y-97863725D01*
X143803460Y-97863725D01*
X143827736Y-97853670D01*
X143891170Y-97790236D01*
X143891170Y-97790235D01*
X143899958Y-97781447D01*
X143899959Y-97781444D01*
X144037599Y-97643806D01*
X144081793Y-97625500D01*
X144412001Y-97625500D01*
X144456195Y-97643806D01*
X144474501Y-97688000D01*
X144474501Y-97939634D01*
X144490484Y-98019993D01*
X144490486Y-98019997D01*
X144551375Y-98111124D01*
X144642503Y-98172014D01*
X144642505Y-98172015D01*
X144722867Y-98188000D01*
X145077132Y-98187999D01*
X145157495Y-98172015D01*
X145248624Y-98111124D01*
X145309515Y-98019995D01*
X145325500Y-97939633D01*
X145325499Y-96860368D01*
X145309515Y-96780005D01*
X145297724Y-96762358D01*
X145248624Y-96688875D01*
X145157496Y-96627985D01*
X145157494Y-96627984D01*
X145077133Y-96612000D01*
X144722869Y-96612000D01*
X144722865Y-96612001D01*
X144642506Y-96627984D01*
X144642502Y-96627986D01*
X144551375Y-96688875D01*
X144490485Y-96780003D01*
X144490484Y-96780005D01*
X144474500Y-96860366D01*
X144474500Y-97112000D01*
X144456194Y-97156194D01*
X144412000Y-97174500D01*
X144014636Y-97174500D01*
X144014628Y-97174499D01*
X144007355Y-97174499D01*
X143917645Y-97174499D01*
X143859039Y-97198773D01*
X143859039Y-97198774D01*
X143843731Y-97205115D01*
X143834761Y-97208831D01*
X143780710Y-97262884D01*
X143771330Y-97272264D01*
X143771329Y-97272265D01*
X143697445Y-97346150D01*
X143624901Y-97418694D01*
X143580707Y-97437000D01*
X143118895Y-97437000D01*
X143074701Y-97418694D01*
X143061722Y-97399748D01*
X143034616Y-97338359D01*
X142959141Y-97262884D01*
X142862529Y-97220225D01*
X142829496Y-97185630D01*
X142830601Y-97137807D01*
X142862531Y-97105877D01*
X142863995Y-97105230D01*
X142863998Y-97105230D01*
X142961641Y-97062116D01*
X143037116Y-96986641D01*
X143080230Y-96888998D01*
X143083000Y-96865123D01*
X143082999Y-96459878D01*
X143080230Y-96436002D01*
X143037116Y-96338359D01*
X142961641Y-96262884D01*
X142862754Y-96219220D01*
X142854648Y-96210731D01*
X142843806Y-96206240D01*
X142838783Y-96194115D01*
X142829720Y-96184623D01*
X142825500Y-96162046D01*
X142825500Y-96157018D01*
X142843806Y-96112824D01*
X142873788Y-96098334D01*
X142873293Y-96096515D01*
X142877826Y-96095281D01*
X142877829Y-96095279D01*
X142877833Y-96095279D01*
X142973767Y-96052920D01*
X143047920Y-95978767D01*
X143090279Y-95882833D01*
X143093000Y-95859380D01*
X143093000Y-95678855D01*
X143523001Y-95678855D01*
X143525687Y-95702021D01*
X143525688Y-95702022D01*
X143567516Y-95796752D01*
X143567517Y-95796754D01*
X143640744Y-95869981D01*
X143735483Y-95911812D01*
X143758644Y-95914499D01*
X143886499Y-95914499D01*
X144013500Y-95914499D01*
X144141355Y-95914499D01*
X144164521Y-95911812D01*
X144164522Y-95911811D01*
X144259252Y-95869983D01*
X144259254Y-95869983D01*
X144332481Y-95796755D01*
X144374312Y-95702016D01*
X144377000Y-95678855D01*
X144377000Y-95188500D01*
X144013500Y-95188500D01*
X144013500Y-95914499D01*
X143886499Y-95914499D01*
X143886500Y-95914498D01*
X143886500Y-95188500D01*
X143523001Y-95188500D01*
X143523001Y-95678855D01*
X143093000Y-95678855D01*
X143093000Y-95465620D01*
X143090279Y-95442167D01*
X143047920Y-95346233D01*
X142973767Y-95272080D01*
X142919700Y-95248207D01*
X142917234Y-95245625D01*
X142913694Y-95245159D01*
X142901030Y-95228654D01*
X142886666Y-95213610D01*
X142886748Y-95210039D01*
X142884575Y-95207207D01*
X142887290Y-95186585D01*
X142887771Y-95165788D01*
X142890807Y-95159804D01*
X142926614Y-95097788D01*
X142950500Y-95008644D01*
X142950500Y-94916356D01*
X142926614Y-94827212D01*
X142926613Y-94827209D01*
X142880469Y-94747288D01*
X142880464Y-94747282D01*
X142815217Y-94682035D01*
X142815211Y-94682030D01*
X142735289Y-94635886D01*
X142712232Y-94629708D01*
X142712231Y-94629707D01*
X142646150Y-94612001D01*
X142646145Y-94612000D01*
X142646144Y-94612000D01*
X142553856Y-94612000D01*
X142553855Y-94612000D01*
X142553849Y-94612001D01*
X142464712Y-94635885D01*
X142464709Y-94635886D01*
X142384788Y-94682030D01*
X142384782Y-94682035D01*
X142319535Y-94747282D01*
X142319530Y-94747288D01*
X142273386Y-94827209D01*
X142273385Y-94827212D01*
X142249501Y-94916349D01*
X142249500Y-94916357D01*
X142249500Y-95008642D01*
X142249501Y-95008650D01*
X142273385Y-95097787D01*
X142273386Y-95097790D01*
X142309179Y-95159782D01*
X142315424Y-95207208D01*
X142286304Y-95245159D01*
X142280299Y-95248207D01*
X142226232Y-95272080D01*
X142152081Y-95346231D01*
X142109720Y-95442168D01*
X142107000Y-95465620D01*
X141958000Y-95465620D01*
X141955279Y-95442167D01*
X141912920Y-95346233D01*
X141838767Y-95272080D01*
X141742833Y-95229721D01*
X141742831Y-95229720D01*
X141719380Y-95227000D01*
X141210620Y-95227000D01*
X141187168Y-95229720D01*
X141091231Y-95272081D01*
X141017080Y-95346232D01*
X140993451Y-95399746D01*
X140958854Y-95432780D01*
X140936277Y-95437000D01*
X138581793Y-95437000D01*
X138537599Y-95418694D01*
X137690049Y-94571144D01*
X143523000Y-94571144D01*
X143523000Y-95061500D01*
X143886500Y-95061500D01*
X144013500Y-95061500D01*
X144376999Y-95061500D01*
X144376999Y-94571144D01*
X144374312Y-94547978D01*
X144374311Y-94547977D01*
X144332483Y-94453247D01*
X144332483Y-94453246D01*
X144259255Y-94380018D01*
X144164516Y-94338187D01*
X144141356Y-94335500D01*
X144013500Y-94335500D01*
X144013500Y-95061500D01*
X143886500Y-95061500D01*
X143886500Y-94335500D01*
X143758644Y-94335500D01*
X143735478Y-94338187D01*
X143735477Y-94338188D01*
X143640747Y-94380016D01*
X143640746Y-94380017D01*
X143567518Y-94453244D01*
X143525687Y-94547983D01*
X143523000Y-94571144D01*
X137690049Y-94571144D01*
X137493806Y-94374901D01*
X137475500Y-94330707D01*
X137475500Y-94267306D01*
X137493806Y-94223112D01*
X137503271Y-94215343D01*
X137540481Y-94190481D01*
X137568219Y-94148968D01*
X137568218Y-94148968D01*
X137571639Y-94143850D01*
X137573473Y-94145076D01*
X137601073Y-94117468D01*
X137648908Y-94117460D01*
X137676529Y-94145072D01*
X137678361Y-94143849D01*
X137681780Y-94148967D01*
X137681781Y-94148968D01*
X137709519Y-94190481D01*
X137751032Y-94218219D01*
X137787637Y-94225500D01*
X138212362Y-94225499D01*
X138248968Y-94218219D01*
X138290481Y-94190481D01*
X138318219Y-94148968D01*
X138318218Y-94148968D01*
X138321639Y-94143850D01*
X138323473Y-94145076D01*
X138351073Y-94117468D01*
X138398908Y-94117460D01*
X138426529Y-94145072D01*
X138428361Y-94143849D01*
X138431780Y-94148967D01*
X138431781Y-94148968D01*
X138459519Y-94190481D01*
X138501032Y-94218219D01*
X138537637Y-94225500D01*
X138962362Y-94225499D01*
X138998968Y-94218219D01*
X139040481Y-94190481D01*
X139068219Y-94148968D01*
X139068218Y-94148968D01*
X139071639Y-94143850D01*
X139073473Y-94145076D01*
X139101073Y-94117468D01*
X139148908Y-94117460D01*
X139176529Y-94145072D01*
X139178361Y-94143849D01*
X139181780Y-94148967D01*
X139181781Y-94148968D01*
X139209519Y-94190481D01*
X139251032Y-94218219D01*
X139287637Y-94225500D01*
X139712362Y-94225499D01*
X139748968Y-94218219D01*
X139790481Y-94190481D01*
X139818219Y-94148968D01*
X139818218Y-94148968D01*
X139821639Y-94143850D01*
X139823473Y-94145076D01*
X139851073Y-94117468D01*
X139898908Y-94117460D01*
X139926529Y-94145072D01*
X139928361Y-94143849D01*
X139931780Y-94148967D01*
X139931781Y-94148968D01*
X139959519Y-94190481D01*
X140001032Y-94218219D01*
X140037637Y-94225500D01*
X140462362Y-94225499D01*
X140498968Y-94218219D01*
X140540481Y-94190481D01*
X140568219Y-94148968D01*
X140568218Y-94148968D01*
X140571639Y-94143850D01*
X140573473Y-94145076D01*
X140601073Y-94117468D01*
X140648908Y-94117460D01*
X140676529Y-94145072D01*
X140678361Y-94143849D01*
X140681780Y-94148967D01*
X140681781Y-94148968D01*
X140709519Y-94190481D01*
X140751032Y-94218219D01*
X140787637Y-94225500D01*
X141212362Y-94225499D01*
X141248968Y-94218219D01*
X141290481Y-94190481D01*
X141318219Y-94148968D01*
X141318218Y-94148968D01*
X141321639Y-94143850D01*
X141323473Y-94145076D01*
X141351073Y-94117468D01*
X141398908Y-94117460D01*
X141426529Y-94145072D01*
X141428361Y-94143849D01*
X141431780Y-94148967D01*
X141431781Y-94148968D01*
X141459519Y-94190481D01*
X141501032Y-94218219D01*
X141537637Y-94225500D01*
X141962362Y-94225499D01*
X141998968Y-94218219D01*
X142040481Y-94190481D01*
X142068219Y-94148968D01*
X142074628Y-94116744D01*
X142101203Y-94076971D01*
X142148120Y-94067639D01*
X142148121Y-94067639D01*
X142151029Y-94068217D01*
X142151032Y-94068219D01*
X142187637Y-94075500D01*
X142812362Y-94075499D01*
X142848968Y-94068219D01*
X142890481Y-94040481D01*
X142890483Y-94040477D01*
X142894834Y-94036128D01*
X142895962Y-94037256D01*
X142929719Y-94014694D01*
X142976637Y-94024019D01*
X142981504Y-94028013D01*
X142981535Y-94027973D01*
X142984788Y-94030469D01*
X143064709Y-94076613D01*
X143064712Y-94076614D01*
X143153856Y-94100500D01*
X143153857Y-94100500D01*
X143246143Y-94100500D01*
X143246144Y-94100500D01*
X143335288Y-94076614D01*
X143337218Y-94075500D01*
X143397481Y-94040706D01*
X143415212Y-94030469D01*
X143480469Y-93965212D01*
X143524269Y-93889349D01*
X143526613Y-93885290D01*
X143526614Y-93885287D01*
X143531957Y-93865347D01*
X144218001Y-93865347D01*
X144220784Y-93889349D01*
X144264125Y-93987503D01*
X144339997Y-94063375D01*
X144438151Y-94106715D01*
X144462152Y-94109499D01*
X144638999Y-94109499D01*
X144766000Y-94109499D01*
X144942847Y-94109499D01*
X144966849Y-94106715D01*
X145065003Y-94063374D01*
X145140875Y-93987503D01*
X145140875Y-93987501D01*
X145184215Y-93889349D01*
X145184215Y-93889347D01*
X145187000Y-93865347D01*
X145187000Y-93726000D01*
X144766000Y-93726000D01*
X144766000Y-94109499D01*
X144638999Y-94109499D01*
X144639000Y-94109498D01*
X144639000Y-93726000D01*
X144218001Y-93726000D01*
X144218001Y-93865347D01*
X143531957Y-93865347D01*
X143550498Y-93796150D01*
X143550500Y-93796142D01*
X143550500Y-93703857D01*
X143550498Y-93703849D01*
X143526614Y-93614712D01*
X143526613Y-93614709D01*
X143480469Y-93534788D01*
X143480464Y-93534782D01*
X143415217Y-93469535D01*
X143415211Y-93469530D01*
X143398102Y-93459652D01*
X144218000Y-93459652D01*
X144218000Y-93599000D01*
X144639000Y-93599000D01*
X144766000Y-93599000D01*
X145186999Y-93599000D01*
X145186999Y-93459652D01*
X145184215Y-93435650D01*
X145140874Y-93337496D01*
X145065003Y-93261625D01*
X145065001Y-93261624D01*
X144966848Y-93218284D01*
X144942848Y-93215500D01*
X144766000Y-93215500D01*
X144766000Y-93599000D01*
X144639000Y-93599000D01*
X144639000Y-93215500D01*
X144462152Y-93215500D01*
X144438150Y-93218284D01*
X144339996Y-93261625D01*
X144264125Y-93337497D01*
X144264124Y-93337498D01*
X144220784Y-93435650D01*
X144220784Y-93435652D01*
X144218000Y-93459652D01*
X143398102Y-93459652D01*
X143335290Y-93423386D01*
X143335287Y-93423385D01*
X143246150Y-93399501D01*
X143246145Y-93399500D01*
X143246144Y-93399500D01*
X143153856Y-93399500D01*
X143153855Y-93399500D01*
X143153849Y-93399501D01*
X143064712Y-93423385D01*
X143064709Y-93423386D01*
X142984788Y-93469530D01*
X142981535Y-93472027D01*
X142980416Y-93470568D01*
X142941901Y-93486508D01*
X142904919Y-93474378D01*
X142896062Y-93467871D01*
X142890481Y-93459519D01*
X142848968Y-93431781D01*
X142846176Y-93431225D01*
X142838204Y-93425369D01*
X142829433Y-93410885D01*
X142817461Y-93398912D01*
X142817461Y-93391117D01*
X142813425Y-93384452D01*
X142817464Y-93368008D01*
X142817466Y-93351076D01*
X142822976Y-93345566D01*
X142824836Y-93337997D01*
X142839319Y-93329226D01*
X142845073Y-93323472D01*
X142843849Y-93321639D01*
X142848966Y-93318219D01*
X142848968Y-93318219D01*
X142890481Y-93290481D01*
X142918219Y-93248968D01*
X142925500Y-93212363D01*
X142925499Y-92787638D01*
X142918219Y-92751032D01*
X142890481Y-92709519D01*
X142848968Y-92681781D01*
X142843850Y-92678361D01*
X142845074Y-92676529D01*
X142817461Y-92648912D01*
X142817466Y-92601076D01*
X142845073Y-92573472D01*
X142843849Y-92571639D01*
X142848966Y-92568219D01*
X142848968Y-92568219D01*
X142890481Y-92540481D01*
X142918219Y-92498968D01*
X142925500Y-92462363D01*
X142925499Y-92037638D01*
X142918219Y-92001032D01*
X142890481Y-91959519D01*
X142848968Y-91931781D01*
X142843850Y-91928361D01*
X142845074Y-91926529D01*
X142817461Y-91898912D01*
X142817466Y-91851076D01*
X142845073Y-91823472D01*
X142843849Y-91821639D01*
X142848966Y-91818219D01*
X142848968Y-91818219D01*
X142890481Y-91790481D01*
X142918219Y-91748968D01*
X142925500Y-91712363D01*
X142925499Y-91287638D01*
X142918219Y-91251032D01*
X142890481Y-91209519D01*
X142848968Y-91181781D01*
X142843850Y-91178361D01*
X142845074Y-91176529D01*
X142817461Y-91148912D01*
X142817466Y-91101076D01*
X142845073Y-91073472D01*
X142843849Y-91071639D01*
X142848966Y-91068219D01*
X142848968Y-91068219D01*
X142890481Y-91040481D01*
X142918219Y-90998968D01*
X142925500Y-90962363D01*
X142925499Y-90537638D01*
X142918219Y-90501032D01*
X142890481Y-90459519D01*
X142848968Y-90431781D01*
X142843850Y-90428361D01*
X142845074Y-90426529D01*
X142817461Y-90398912D01*
X142817466Y-90351076D01*
X142832288Y-90329564D01*
X142843052Y-90319395D01*
X142848968Y-90318219D01*
X142890481Y-90290481D01*
X142918219Y-90248968D01*
X142918359Y-90248260D01*
X142924389Y-90242565D01*
X142940648Y-90236366D01*
X142955114Y-90226701D01*
X142967307Y-90225500D01*
X143580707Y-90225500D01*
X143624901Y-90243806D01*
X145653694Y-92272599D01*
X145672000Y-92316793D01*
X145672000Y-93162046D01*
X145653694Y-93206240D01*
X145634746Y-93219220D01*
X145535858Y-93262884D01*
X145460385Y-93338357D01*
X145417269Y-93436003D01*
X145414500Y-93459877D01*
X145414500Y-93865122D01*
X145417270Y-93888998D01*
X145417271Y-93889002D01*
X145450922Y-93965212D01*
X145460384Y-93986641D01*
X145535859Y-94062116D01*
X145626896Y-94102313D01*
X145642946Y-94119122D01*
X145659391Y-94135565D01*
X145659391Y-94136345D01*
X145659930Y-94136910D01*
X145659394Y-94183401D01*
X145654074Y-94196247D01*
X145654072Y-94196248D01*
X145654072Y-94196251D01*
X145624499Y-94267643D01*
X145624499Y-94298200D01*
X145606193Y-94342394D01*
X145596722Y-94350167D01*
X145501375Y-94413875D01*
X145440485Y-94505003D01*
X145440484Y-94505005D01*
X145424500Y-94585366D01*
X145424500Y-95664630D01*
X145424501Y-95664634D01*
X145440484Y-95744993D01*
X145440486Y-95744997D01*
X145501375Y-95836124D01*
X145592503Y-95897014D01*
X145592505Y-95897015D01*
X145672867Y-95913000D01*
X146027132Y-95912999D01*
X146107495Y-95897015D01*
X146198624Y-95836124D01*
X146259515Y-95744995D01*
X146275500Y-95664633D01*
X146275499Y-94585368D01*
X146259515Y-94505005D01*
X146245350Y-94483806D01*
X146198624Y-94413875D01*
X146148294Y-94380246D01*
X146121718Y-94340472D01*
X146124149Y-94316359D01*
X146121799Y-94315892D01*
X146123000Y-94309854D01*
X146123000Y-94162953D01*
X146141306Y-94118759D01*
X146160255Y-94105778D01*
X146161495Y-94105230D01*
X146161498Y-94105230D01*
X146259141Y-94062116D01*
X146334616Y-93986641D01*
X146377730Y-93888998D01*
X146380500Y-93865123D01*
X146380499Y-93459878D01*
X146377730Y-93436002D01*
X146377575Y-93435652D01*
X146350574Y-93374500D01*
X146334616Y-93338359D01*
X146259141Y-93262884D01*
X146256287Y-93261624D01*
X146160254Y-93219220D01*
X146127220Y-93184623D01*
X146123000Y-93162046D01*
X146123000Y-92152647D01*
X146123000Y-92152645D01*
X146088670Y-92069764D01*
X146025236Y-92006330D01*
X146025235Y-92006329D01*
X143899961Y-89881055D01*
X143827738Y-89808831D01*
X143827736Y-89808830D01*
X143803460Y-89798774D01*
X143803459Y-89798773D01*
X143744857Y-89774499D01*
X143744855Y-89774499D01*
X143655145Y-89774499D01*
X143647872Y-89774499D01*
X143647864Y-89774500D01*
X142967306Y-89774500D01*
X142924387Y-89757434D01*
X142918359Y-89751740D01*
X142918219Y-89751032D01*
X142890481Y-89709519D01*
X142848968Y-89681781D01*
X142843055Y-89680604D01*
X142832287Y-89670433D01*
X142826855Y-89658307D01*
X142817461Y-89648912D01*
X142817462Y-89637339D01*
X142812731Y-89626778D01*
X142817464Y-89614361D01*
X142817466Y-89601076D01*
X142825649Y-89592894D01*
X142829772Y-89582080D01*
X142841897Y-89576648D01*
X142845073Y-89573472D01*
X142843849Y-89571639D01*
X142848966Y-89568219D01*
X142848968Y-89568219D01*
X142890481Y-89540481D01*
X142918219Y-89498968D01*
X142925500Y-89462363D01*
X142925499Y-89037638D01*
X142918219Y-89001032D01*
X142890481Y-88959519D01*
X142848968Y-88931781D01*
X142843850Y-88928361D01*
X142845074Y-88926529D01*
X142817461Y-88898912D01*
X142817466Y-88851076D01*
X142845073Y-88823472D01*
X142843849Y-88821639D01*
X142848966Y-88818219D01*
X142848968Y-88818219D01*
X142890481Y-88790481D01*
X142918219Y-88748968D01*
X142925500Y-88712363D01*
X142925499Y-88287638D01*
X142918219Y-88251032D01*
X142890481Y-88209519D01*
X142848968Y-88181781D01*
X142843850Y-88178361D01*
X142845074Y-88176529D01*
X142817461Y-88148912D01*
X142817466Y-88101076D01*
X142845073Y-88073472D01*
X142843849Y-88071639D01*
X142848966Y-88068219D01*
X142848968Y-88068219D01*
X142890481Y-88040481D01*
X142918219Y-87998968D01*
X142925500Y-87962363D01*
X142925499Y-87537638D01*
X142918219Y-87501032D01*
X142918218Y-87501030D01*
X142917715Y-87498501D01*
X142918184Y-87496141D01*
X142916997Y-87494053D01*
X142922788Y-87473002D01*
X142927050Y-87451585D01*
X142929048Y-87450249D01*
X142929686Y-87447932D01*
X142948662Y-87437144D01*
X142966824Y-87425010D01*
X142969183Y-87425479D01*
X142971272Y-87424292D01*
X142982389Y-87428107D01*
X143013740Y-87434345D01*
X143017393Y-87436981D01*
X143020465Y-87439371D01*
X143072264Y-87491170D01*
X143096073Y-87501032D01*
X143155145Y-87525501D01*
X143181105Y-87525501D01*
X143225299Y-87543807D01*
X143238279Y-87562756D01*
X143259618Y-87611082D01*
X143265384Y-87624141D01*
X143340859Y-87699616D01*
X143438502Y-87742730D01*
X143438504Y-87742730D01*
X143438506Y-87742731D01*
X143438909Y-87742778D01*
X143439130Y-87742901D01*
X143443042Y-87743966D01*
X143442778Y-87744933D01*
X143446698Y-87747116D01*
X143455617Y-87747116D01*
X143466836Y-87758333D01*
X143480699Y-87766055D01*
X143489445Y-87780938D01*
X143490908Y-87784469D01*
X143490913Y-87832304D01*
X143458413Y-87865566D01*
X143358734Y-87909579D01*
X143358733Y-87909580D01*
X143284581Y-87983731D01*
X143284580Y-87983732D01*
X143284580Y-87983733D01*
X143282470Y-87988511D01*
X143242220Y-88079668D01*
X143239500Y-88103120D01*
X143239500Y-88496879D01*
X143242220Y-88520331D01*
X143242221Y-88520333D01*
X143284580Y-88616267D01*
X143358733Y-88690420D01*
X143454667Y-88732779D01*
X143454668Y-88732779D01*
X143454673Y-88732781D01*
X143459207Y-88734015D01*
X143458825Y-88735418D01*
X143495725Y-88755962D01*
X143504547Y-88771017D01*
X143506999Y-88776982D01*
X143506999Y-88777355D01*
X143526926Y-88825461D01*
X143527006Y-88825656D01*
X143541327Y-88860232D01*
X143541331Y-88860237D01*
X143613554Y-88932460D01*
X143613556Y-88932461D01*
X145205261Y-90524166D01*
X145205274Y-90524181D01*
X145272262Y-90591168D01*
X145272264Y-90591170D01*
X145296539Y-90601225D01*
X145355145Y-90625501D01*
X145452128Y-90625501D01*
X145452136Y-90625500D01*
X148036431Y-90625500D01*
X148080625Y-90643806D01*
X148100319Y-90663500D01*
X148117287Y-90680468D01*
X148117288Y-90680469D01*
X148197209Y-90726613D01*
X148197212Y-90726614D01*
X148286356Y-90750500D01*
X148286357Y-90750500D01*
X148378643Y-90750500D01*
X148378644Y-90750500D01*
X148467788Y-90726614D01*
X148547712Y-90680469D01*
X148612969Y-90615212D01*
X148649360Y-90552180D01*
X148659113Y-90535290D01*
X148659114Y-90535287D01*
X148659248Y-90534788D01*
X148683000Y-90446144D01*
X148683000Y-90353856D01*
X148659114Y-90264712D01*
X148659113Y-90264709D01*
X148612969Y-90184788D01*
X148612964Y-90184782D01*
X148547717Y-90119535D01*
X148547711Y-90119530D01*
X148467790Y-90073386D01*
X148467787Y-90073385D01*
X148378650Y-90049501D01*
X148378645Y-90049500D01*
X148378644Y-90049500D01*
X148286356Y-90049500D01*
X148286355Y-90049500D01*
X148286349Y-90049501D01*
X148197212Y-90073385D01*
X148197209Y-90073386D01*
X148117288Y-90119530D01*
X148117287Y-90119531D01*
X148098956Y-90137862D01*
X148080624Y-90156194D01*
X148036432Y-90174500D01*
X145519293Y-90174500D01*
X145475099Y-90156194D01*
X144101955Y-88783050D01*
X144083649Y-88738856D01*
X144101955Y-88694662D01*
X144102357Y-88694329D01*
X144106265Y-88690420D01*
X144106267Y-88690420D01*
X144180420Y-88616267D01*
X144222779Y-88520333D01*
X144225500Y-88496880D01*
X144225500Y-88103120D01*
X144374500Y-88103120D01*
X144374500Y-88496879D01*
X144377220Y-88520331D01*
X144377221Y-88520333D01*
X144419580Y-88616267D01*
X144493733Y-88690420D01*
X144589667Y-88732779D01*
X144613120Y-88735500D01*
X145121880Y-88735500D01*
X145145333Y-88732779D01*
X145241267Y-88690420D01*
X145315420Y-88616267D01*
X145318693Y-88611489D01*
X145320853Y-88612968D01*
X145348553Y-88586497D01*
X145396376Y-88587581D01*
X145402399Y-88590637D01*
X145464712Y-88626614D01*
X145553856Y-88650500D01*
X145553857Y-88650500D01*
X145646143Y-88650500D01*
X145646144Y-88650500D01*
X145735288Y-88626614D01*
X145815212Y-88580469D01*
X145880469Y-88515212D01*
X145926614Y-88435288D01*
X145950500Y-88346144D01*
X145950500Y-88253856D01*
X145926614Y-88164712D01*
X145926613Y-88164709D01*
X145880469Y-88084788D01*
X145880464Y-88084782D01*
X145815217Y-88019535D01*
X145815211Y-88019530D01*
X145735290Y-87973386D01*
X145735287Y-87973385D01*
X145646150Y-87949501D01*
X145646145Y-87949500D01*
X145646144Y-87949500D01*
X145553856Y-87949500D01*
X145553855Y-87949500D01*
X145553849Y-87949501D01*
X145464712Y-87973385D01*
X145464706Y-87973388D01*
X145402406Y-88009358D01*
X145354980Y-88015603D01*
X145319211Y-87988155D01*
X145318693Y-87988511D01*
X145317605Y-87986923D01*
X145317030Y-87986482D01*
X145316249Y-87984943D01*
X145315420Y-87983733D01*
X145241268Y-87909581D01*
X145241267Y-87909580D01*
X145145333Y-87867221D01*
X145145331Y-87867220D01*
X145141033Y-87865323D01*
X145141601Y-87864035D01*
X145108094Y-87838114D01*
X145102037Y-87790663D01*
X145131306Y-87752828D01*
X145155143Y-87744993D01*
X145161849Y-87744215D01*
X145260003Y-87700874D01*
X145335875Y-87625003D01*
X145335875Y-87625001D01*
X145379215Y-87526849D01*
X145379215Y-87526847D01*
X145382000Y-87502847D01*
X145382000Y-87363500D01*
X144413001Y-87363500D01*
X144413001Y-87502847D01*
X144415784Y-87526849D01*
X144459125Y-87625003D01*
X144534997Y-87700875D01*
X144634767Y-87744929D01*
X144667802Y-87779526D01*
X144666696Y-87827348D01*
X144632099Y-87860383D01*
X144614892Y-87864117D01*
X144614913Y-87864292D01*
X144589668Y-87867220D01*
X144535425Y-87891171D01*
X144493736Y-87909579D01*
X144493731Y-87909581D01*
X144419581Y-87983731D01*
X144419580Y-87983732D01*
X144419580Y-87983733D01*
X144417470Y-87988511D01*
X144377220Y-88079668D01*
X144374500Y-88103120D01*
X144225500Y-88103120D01*
X144222779Y-88079667D01*
X144180420Y-87983733D01*
X144106267Y-87909580D01*
X144010333Y-87867221D01*
X144010332Y-87867220D01*
X144010326Y-87867218D01*
X144005793Y-87865985D01*
X144006407Y-87863727D01*
X143995319Y-87857550D01*
X143976306Y-87849675D01*
X143974843Y-87846144D01*
X143971505Y-87844285D01*
X143958000Y-87805481D01*
X143958000Y-87787206D01*
X143976306Y-87743012D01*
X143995249Y-87730035D01*
X144064141Y-87699616D01*
X144139616Y-87624141D01*
X144182730Y-87526498D01*
X144185500Y-87502623D01*
X144185499Y-87097378D01*
X144185473Y-87097152D01*
X144413000Y-87097152D01*
X144413000Y-87236500D01*
X144834000Y-87236500D01*
X144961000Y-87236500D01*
X145381999Y-87236500D01*
X145381999Y-87097152D01*
X145379215Y-87073150D01*
X145335874Y-86974996D01*
X145260003Y-86899125D01*
X145260001Y-86899124D01*
X145161848Y-86855784D01*
X145137848Y-86853000D01*
X144961000Y-86853000D01*
X144961000Y-87236500D01*
X144834000Y-87236500D01*
X144834000Y-86853000D01*
X144657152Y-86853000D01*
X144633150Y-86855784D01*
X144534996Y-86899125D01*
X144459125Y-86974997D01*
X144459124Y-86974998D01*
X144415784Y-87073150D01*
X144415784Y-87073152D01*
X144413000Y-87097152D01*
X144185473Y-87097152D01*
X144182730Y-87073502D01*
X144182575Y-87073152D01*
X144167769Y-87039620D01*
X144139616Y-86975859D01*
X144064141Y-86900384D01*
X143983398Y-86864732D01*
X143966496Y-86857269D01*
X143945755Y-86854863D01*
X143942623Y-86854500D01*
X143942622Y-86854500D01*
X143462377Y-86854500D01*
X143438501Y-86857270D01*
X143438497Y-86857271D01*
X143340858Y-86900384D01*
X143274268Y-86966975D01*
X143230074Y-86985281D01*
X143185880Y-86966975D01*
X143099961Y-86881056D01*
X143099961Y-86881055D01*
X143027738Y-86808831D01*
X143027736Y-86808830D01*
X143003460Y-86798774D01*
X143003459Y-86798773D01*
X142947221Y-86775479D01*
X142919172Y-86752459D01*
X142890481Y-86709519D01*
X142843850Y-86678361D01*
X142845074Y-86676529D01*
X142817461Y-86648912D01*
X142817466Y-86601076D01*
X142832288Y-86579564D01*
X142843052Y-86569395D01*
X142848968Y-86568219D01*
X142890481Y-86540481D01*
X142918219Y-86498968D01*
X142918359Y-86498260D01*
X142924389Y-86492565D01*
X142940648Y-86486366D01*
X142955114Y-86476701D01*
X142967307Y-86475500D01*
X145403931Y-86475500D01*
X145448125Y-86493806D01*
X145468460Y-86514141D01*
X145484787Y-86530468D01*
X145484788Y-86530469D01*
X145564709Y-86576613D01*
X145564712Y-86576614D01*
X145653856Y-86600500D01*
X145653857Y-86600500D01*
X145746143Y-86600500D01*
X145746144Y-86600500D01*
X145835288Y-86576614D01*
X145837218Y-86575500D01*
X145859205Y-86562805D01*
X145915212Y-86530469D01*
X145980469Y-86465212D01*
X146026614Y-86385288D01*
X146050500Y-86296144D01*
X146050500Y-86203856D01*
X146026614Y-86114712D01*
X146026613Y-86114709D01*
X145980469Y-86034788D01*
X145980464Y-86034782D01*
X145915217Y-85969535D01*
X145915211Y-85969530D01*
X145835290Y-85923386D01*
X145835287Y-85923385D01*
X145746150Y-85899501D01*
X145746145Y-85899500D01*
X145746144Y-85899500D01*
X145653856Y-85899500D01*
X145653855Y-85899500D01*
X145653849Y-85899501D01*
X145564712Y-85923385D01*
X145564709Y-85923386D01*
X145484788Y-85969530D01*
X145484787Y-85969531D01*
X145466787Y-85987532D01*
X145448124Y-86006194D01*
X145403932Y-86024500D01*
X142967306Y-86024500D01*
X142924387Y-86007434D01*
X142918359Y-86001740D01*
X142918219Y-86001032D01*
X142890481Y-85959519D01*
X142848968Y-85931781D01*
X142843055Y-85930604D01*
X142832287Y-85920433D01*
X142826855Y-85908307D01*
X142817461Y-85898912D01*
X142817462Y-85887339D01*
X142812731Y-85876778D01*
X142817464Y-85864361D01*
X142817466Y-85851076D01*
X142825649Y-85842894D01*
X142829772Y-85832080D01*
X142841897Y-85826648D01*
X142845073Y-85823472D01*
X142843849Y-85821639D01*
X142848966Y-85818219D01*
X142848968Y-85818219D01*
X142890481Y-85790481D01*
X142915340Y-85753277D01*
X142955114Y-85726701D01*
X142967307Y-85725500D01*
X147503931Y-85725500D01*
X147548125Y-85743806D01*
X147567810Y-85763491D01*
X147584787Y-85780468D01*
X147584788Y-85780469D01*
X147664709Y-85826613D01*
X147664712Y-85826614D01*
X147753856Y-85850500D01*
X147753857Y-85850500D01*
X147846143Y-85850500D01*
X147846144Y-85850500D01*
X147935288Y-85826614D01*
X147937218Y-85825500D01*
X147952180Y-85816860D01*
X148015212Y-85780469D01*
X148080469Y-85715212D01*
X148126614Y-85635288D01*
X148150500Y-85546144D01*
X148150500Y-85453856D01*
X148126614Y-85364712D01*
X148126613Y-85364709D01*
X148080469Y-85284788D01*
X148080464Y-85284782D01*
X148015217Y-85219535D01*
X148015211Y-85219530D01*
X147935290Y-85173386D01*
X147935287Y-85173385D01*
X147846150Y-85149501D01*
X147846145Y-85149500D01*
X147846144Y-85149500D01*
X147753856Y-85149500D01*
X147753855Y-85149500D01*
X147753849Y-85149501D01*
X147664712Y-85173385D01*
X147664709Y-85173386D01*
X147584788Y-85219530D01*
X147584787Y-85219531D01*
X147569010Y-85235309D01*
X147548124Y-85256194D01*
X147503932Y-85274500D01*
X142967306Y-85274500D01*
X142924387Y-85257434D01*
X142918359Y-85251740D01*
X142918219Y-85251032D01*
X142890481Y-85209519D01*
X142848968Y-85181781D01*
X142843055Y-85180604D01*
X142832287Y-85170433D01*
X142826855Y-85158307D01*
X142817461Y-85148912D01*
X142817462Y-85137339D01*
X142812731Y-85126778D01*
X142817464Y-85114361D01*
X142817466Y-85101076D01*
X142825649Y-85092894D01*
X142829772Y-85082080D01*
X142841897Y-85076648D01*
X142845073Y-85073472D01*
X142843849Y-85071639D01*
X142848966Y-85068219D01*
X142848968Y-85068219D01*
X142890481Y-85040481D01*
X142918219Y-84998968D01*
X142923482Y-84972507D01*
X150072999Y-84972507D01*
X150080369Y-85009553D01*
X150080369Y-85009554D01*
X150108438Y-85051561D01*
X150150446Y-85079630D01*
X150187493Y-85087000D01*
X150330412Y-85087000D01*
X150374606Y-85105306D01*
X150392912Y-85149500D01*
X150374606Y-85193694D01*
X150365135Y-85201467D01*
X150301267Y-85244141D01*
X150214141Y-85331267D01*
X150145690Y-85433712D01*
X150145687Y-85433716D01*
X150098537Y-85547546D01*
X150098536Y-85547549D01*
X150074500Y-85668393D01*
X150074500Y-85791606D01*
X150098536Y-85912450D01*
X150098537Y-85912453D01*
X150145687Y-86026283D01*
X150145688Y-86026285D01*
X150145689Y-86026286D01*
X150214142Y-86128733D01*
X150301267Y-86215858D01*
X150403714Y-86284311D01*
X150403715Y-86284311D01*
X150403716Y-86284312D01*
X150459112Y-86307258D01*
X150492937Y-86341083D01*
X150492936Y-86388918D01*
X150459112Y-86422742D01*
X150403716Y-86445687D01*
X150403712Y-86445690D01*
X150301267Y-86514141D01*
X150214141Y-86601267D01*
X150145690Y-86703712D01*
X150145687Y-86703716D01*
X150098537Y-86817546D01*
X150098536Y-86817549D01*
X150074500Y-86938393D01*
X150074500Y-87061606D01*
X150098536Y-87182450D01*
X150098537Y-87182453D01*
X150145687Y-87296283D01*
X150145688Y-87296285D01*
X150145689Y-87296286D01*
X150214142Y-87398733D01*
X150301267Y-87485858D01*
X150403714Y-87554311D01*
X150403715Y-87554311D01*
X150403716Y-87554312D01*
X150459112Y-87577258D01*
X150492937Y-87611083D01*
X150492936Y-87658918D01*
X150459112Y-87692742D01*
X150403716Y-87715687D01*
X150403712Y-87715690D01*
X150301267Y-87784141D01*
X150214141Y-87871267D01*
X150145690Y-87973712D01*
X150145687Y-87973716D01*
X150098537Y-88087546D01*
X150098536Y-88087549D01*
X150074500Y-88208393D01*
X150074500Y-88331606D01*
X150098536Y-88452450D01*
X150098537Y-88452453D01*
X150145687Y-88566283D01*
X150145688Y-88566285D01*
X150145689Y-88566286D01*
X150155166Y-88580469D01*
X150213385Y-88667601D01*
X150214142Y-88668733D01*
X150301267Y-88755858D01*
X150403714Y-88824311D01*
X150403715Y-88824311D01*
X150403716Y-88824312D01*
X150459112Y-88847258D01*
X150492937Y-88881083D01*
X150492936Y-88928918D01*
X150459112Y-88962742D01*
X150403716Y-88985687D01*
X150403712Y-88985690D01*
X150301267Y-89054141D01*
X150214141Y-89141267D01*
X150145690Y-89243712D01*
X150145687Y-89243716D01*
X150098537Y-89357546D01*
X150098536Y-89357549D01*
X150074500Y-89478393D01*
X150074500Y-89601606D01*
X150098536Y-89722450D01*
X150098537Y-89722453D01*
X150145687Y-89836283D01*
X150145688Y-89836285D01*
X150145689Y-89836286D01*
X150214142Y-89938733D01*
X150301267Y-90025858D01*
X150403714Y-90094311D01*
X150403715Y-90094311D01*
X150403716Y-90094312D01*
X150420408Y-90101226D01*
X150517548Y-90141463D01*
X150638394Y-90165500D01*
X150638395Y-90165500D01*
X150761605Y-90165500D01*
X150761606Y-90165500D01*
X150882452Y-90141463D01*
X150996286Y-90094311D01*
X151098733Y-90025858D01*
X151185858Y-89938733D01*
X151254311Y-89836286D01*
X151277259Y-89780884D01*
X151311082Y-89747063D01*
X151358918Y-89747062D01*
X151392742Y-89780887D01*
X151415689Y-89836286D01*
X151415690Y-89836287D01*
X151415691Y-89836289D01*
X151450822Y-89888867D01*
X151484142Y-89938733D01*
X151571267Y-90025858D01*
X151673714Y-90094311D01*
X151673715Y-90094311D01*
X151673716Y-90094312D01*
X151690408Y-90101226D01*
X151787548Y-90141463D01*
X151908394Y-90165500D01*
X151908395Y-90165500D01*
X152031605Y-90165500D01*
X152031606Y-90165500D01*
X152152452Y-90141463D01*
X152266286Y-90094311D01*
X152368733Y-90025858D01*
X152455858Y-89938733D01*
X152524311Y-89836286D01*
X152571463Y-89722452D01*
X152595500Y-89601606D01*
X152595500Y-89478394D01*
X152571463Y-89357548D01*
X152524311Y-89243714D01*
X152455858Y-89141267D01*
X152368733Y-89054142D01*
X152289248Y-89001032D01*
X152266289Y-88985691D01*
X152266288Y-88985690D01*
X152266286Y-88985689D01*
X152210884Y-88962740D01*
X152177063Y-88928918D01*
X152177062Y-88881082D01*
X152210886Y-88847258D01*
X152266286Y-88824311D01*
X152368733Y-88755858D01*
X152455858Y-88668733D01*
X152524311Y-88566286D01*
X152571463Y-88452452D01*
X152595500Y-88331606D01*
X152595500Y-88208394D01*
X152571463Y-88087548D01*
X152539075Y-88009358D01*
X152524312Y-87973716D01*
X152524311Y-87973715D01*
X152524311Y-87973714D01*
X152455858Y-87871267D01*
X152368733Y-87784142D01*
X152359361Y-87777880D01*
X152266289Y-87715691D01*
X152266288Y-87715690D01*
X152266286Y-87715689D01*
X152210884Y-87692740D01*
X152177063Y-87658918D01*
X152177062Y-87611082D01*
X152210886Y-87577258D01*
X152266286Y-87554311D01*
X152368733Y-87485858D01*
X152455858Y-87398733D01*
X152524311Y-87296286D01*
X152571463Y-87182452D01*
X152595500Y-87061606D01*
X152595500Y-86938394D01*
X152571463Y-86817548D01*
X152524311Y-86703714D01*
X152455858Y-86601267D01*
X152368733Y-86514142D01*
X152327163Y-86486366D01*
X152266289Y-86445691D01*
X152266288Y-86445690D01*
X152266286Y-86445689D01*
X152210884Y-86422740D01*
X152177063Y-86388918D01*
X152177062Y-86341082D01*
X152210886Y-86307258D01*
X152266286Y-86284311D01*
X152368733Y-86215858D01*
X152455858Y-86128733D01*
X152524311Y-86026286D01*
X152571463Y-85912452D01*
X152595500Y-85791606D01*
X152595500Y-85668394D01*
X152571463Y-85547548D01*
X152524311Y-85433714D01*
X152455858Y-85331267D01*
X152368733Y-85244142D01*
X152304865Y-85201467D01*
X152266289Y-85175691D01*
X152266288Y-85175690D01*
X152266286Y-85175689D01*
X152210884Y-85152740D01*
X152177063Y-85118918D01*
X152177062Y-85071082D01*
X152210886Y-85037258D01*
X152266286Y-85014311D01*
X152368733Y-84945858D01*
X152455858Y-84858733D01*
X152524311Y-84756286D01*
X152571463Y-84642452D01*
X152595500Y-84521606D01*
X152595500Y-84398394D01*
X152571463Y-84277548D01*
X152524311Y-84163714D01*
X152455858Y-84061267D01*
X152368733Y-83974142D01*
X152266286Y-83905689D01*
X152266285Y-83905688D01*
X152266283Y-83905687D01*
X152152453Y-83858537D01*
X152152450Y-83858536D01*
X152031606Y-83834500D01*
X151908394Y-83834500D01*
X151908393Y-83834500D01*
X151787549Y-83858536D01*
X151787546Y-83858537D01*
X151673716Y-83905687D01*
X151673712Y-83905690D01*
X151571267Y-83974141D01*
X151484141Y-84061267D01*
X151441467Y-84125134D01*
X151401693Y-84151710D01*
X151354777Y-84142378D01*
X151328201Y-84102604D01*
X151327000Y-84090411D01*
X151327000Y-83947492D01*
X151319630Y-83910446D01*
X151319630Y-83910445D01*
X151291561Y-83868438D01*
X151249553Y-83840369D01*
X151212507Y-83833000D01*
X150763500Y-83833000D01*
X150763500Y-84140550D01*
X150742787Y-84135000D01*
X150657213Y-84135000D01*
X150636500Y-84140550D01*
X150636500Y-83833000D01*
X150187493Y-83833000D01*
X150150446Y-83840369D01*
X150150445Y-83840369D01*
X150108438Y-83868438D01*
X150080369Y-83910445D01*
X150080369Y-83910446D01*
X150073000Y-83947492D01*
X150073000Y-84396500D01*
X150380550Y-84396500D01*
X150375000Y-84417213D01*
X150375000Y-84502787D01*
X150380550Y-84523500D01*
X150073000Y-84523500D01*
X150073000Y-84972507D01*
X150072999Y-84972507D01*
X142923482Y-84972507D01*
X142925500Y-84962363D01*
X142925499Y-84537638D01*
X142918219Y-84501032D01*
X142890481Y-84459519D01*
X142848968Y-84431781D01*
X142843850Y-84428361D01*
X142845074Y-84426529D01*
X142817461Y-84398912D01*
X142817466Y-84351076D01*
X142845073Y-84323472D01*
X142843849Y-84321639D01*
X142848966Y-84318219D01*
X142848968Y-84318219D01*
X142890481Y-84290481D01*
X142918219Y-84248968D01*
X142925500Y-84212363D01*
X142925499Y-83787638D01*
X142918219Y-83751032D01*
X142890481Y-83709519D01*
X142848968Y-83681781D01*
X142843850Y-83678361D01*
X142845074Y-83676529D01*
X142817461Y-83648912D01*
X142817466Y-83601076D01*
X142845073Y-83573472D01*
X142843849Y-83571639D01*
X142848966Y-83568219D01*
X142848968Y-83568219D01*
X142890481Y-83540481D01*
X142918219Y-83498968D01*
X142925500Y-83462363D01*
X142925499Y-83037638D01*
X142918219Y-83001032D01*
X142890481Y-82959519D01*
X142848968Y-82931781D01*
X142843850Y-82928361D01*
X142845074Y-82926529D01*
X142817461Y-82898912D01*
X142817466Y-82851076D01*
X142832288Y-82829564D01*
X142843052Y-82819395D01*
X142848968Y-82818219D01*
X142890481Y-82790481D01*
X142918219Y-82748968D01*
X142918359Y-82748260D01*
X142924389Y-82742565D01*
X142940648Y-82736366D01*
X142955114Y-82726701D01*
X142967307Y-82725500D01*
X143003931Y-82725500D01*
X143048125Y-82743806D01*
X143084783Y-82780464D01*
X143084787Y-82780468D01*
X143084788Y-82780469D01*
X143164709Y-82826613D01*
X143164712Y-82826614D01*
X143253856Y-82850500D01*
X143253857Y-82850500D01*
X143346143Y-82850500D01*
X143346144Y-82850500D01*
X143435288Y-82826614D01*
X143437218Y-82825500D01*
X143452180Y-82816860D01*
X143515212Y-82780469D01*
X143580469Y-82715212D01*
X143626614Y-82635288D01*
X143650500Y-82546144D01*
X143650500Y-82453856D01*
X143626614Y-82364712D01*
X143626613Y-82364709D01*
X143580469Y-82284788D01*
X143580464Y-82284782D01*
X143527876Y-82232194D01*
X143509570Y-82188000D01*
X143527876Y-82143806D01*
X143572070Y-82125500D01*
X152971356Y-82125500D01*
X152996930Y-82125500D01*
X153003056Y-82125801D01*
X153164482Y-82141699D01*
X153176491Y-82144088D01*
X153321250Y-82188000D01*
X153328766Y-82190280D01*
X153340085Y-82194969D01*
X153480420Y-82269980D01*
X153490605Y-82276785D01*
X153597744Y-82364712D01*
X153613606Y-82377729D01*
X153622270Y-82386393D01*
X153723212Y-82509392D01*
X153730019Y-82519579D01*
X153805030Y-82659914D01*
X153809719Y-82671233D01*
X153855910Y-82823504D01*
X153858300Y-82835521D01*
X153874199Y-82996943D01*
X153874500Y-83003069D01*
X153874500Y-109996930D01*
X153874199Y-110003056D01*
X153858300Y-110164478D01*
X153855910Y-110176495D01*
X153809719Y-110328766D01*
X153805030Y-110340085D01*
X153730019Y-110480420D01*
X153723212Y-110490607D01*
X153622270Y-110613606D01*
X153613606Y-110622270D01*
X153490607Y-110723212D01*
X153480420Y-110730019D01*
X153340085Y-110805030D01*
X153328766Y-110809719D01*
X153176495Y-110855910D01*
X153164478Y-110858300D01*
X153003056Y-110874199D01*
X152996930Y-110874500D01*
X123003070Y-110874500D01*
X122996944Y-110874199D01*
X122835521Y-110858300D01*
X122823504Y-110855910D01*
X122671233Y-110809719D01*
X122659914Y-110805030D01*
X122519579Y-110730019D01*
X122509392Y-110723212D01*
X122386393Y-110622270D01*
X122377729Y-110613606D01*
X122276787Y-110490607D01*
X122269980Y-110480420D01*
X122194969Y-110340085D01*
X122190280Y-110328766D01*
X122189867Y-110327405D01*
X122144088Y-110176491D01*
X122141699Y-110164478D01*
X122134152Y-110087847D01*
X141003001Y-110087847D01*
X141005784Y-110111849D01*
X141049125Y-110210003D01*
X141124997Y-110285875D01*
X141223151Y-110329215D01*
X141247152Y-110331999D01*
X141386499Y-110331999D01*
X141513500Y-110331999D01*
X141652847Y-110331999D01*
X141676849Y-110329215D01*
X141775003Y-110285874D01*
X141850875Y-110210003D01*
X141850875Y-110210001D01*
X141894215Y-110111849D01*
X141894215Y-110111847D01*
X141897000Y-110087847D01*
X141897000Y-109911000D01*
X141513500Y-109911000D01*
X141513500Y-110331999D01*
X141386499Y-110331999D01*
X141386500Y-110331998D01*
X141386500Y-109911000D01*
X141003001Y-109911000D01*
X141003001Y-110087847D01*
X122134152Y-110087847D01*
X122125801Y-110003056D01*
X122125500Y-109996930D01*
X122125500Y-107907488D01*
X123824500Y-107907488D01*
X123824500Y-108092511D01*
X123824501Y-108092527D01*
X123853444Y-108275261D01*
X123853444Y-108275262D01*
X123910620Y-108451233D01*
X123910621Y-108451236D01*
X123926184Y-108481780D01*
X123994622Y-108616096D01*
X123994625Y-108616100D01*
X124103378Y-108765786D01*
X124103385Y-108765794D01*
X124234205Y-108896614D01*
X124234213Y-108896621D01*
X124383904Y-109005378D01*
X124548765Y-109089379D01*
X124724736Y-109146555D01*
X124801755Y-109158753D01*
X124907472Y-109175498D01*
X124907478Y-109175498D01*
X124907486Y-109175500D01*
X124907488Y-109175500D01*
X125092512Y-109175500D01*
X125092514Y-109175500D01*
X125275264Y-109146555D01*
X125451235Y-109089379D01*
X125616096Y-109005378D01*
X125765787Y-108896621D01*
X125896621Y-108765787D01*
X126005378Y-108616096D01*
X126019879Y-108587636D01*
X130149500Y-108587636D01*
X130149500Y-109912358D01*
X130149501Y-109912362D01*
X130152608Y-109927984D01*
X130156780Y-109948967D01*
X130156781Y-109948968D01*
X130184519Y-109990481D01*
X130226032Y-110018219D01*
X130262637Y-110025500D01*
X131787362Y-110025499D01*
X131823968Y-110018219D01*
X131865481Y-109990481D01*
X131893219Y-109948968D01*
X131900500Y-109912363D01*
X131900499Y-109203857D01*
X137449500Y-109203857D01*
X137449500Y-109296142D01*
X137449501Y-109296150D01*
X137473385Y-109385287D01*
X137473386Y-109385290D01*
X137519530Y-109465211D01*
X137519535Y-109465217D01*
X137584782Y-109530464D01*
X137584788Y-109530469D01*
X137664709Y-109576613D01*
X137664712Y-109576614D01*
X137753856Y-109600500D01*
X137753857Y-109600500D01*
X137846143Y-109600500D01*
X137846144Y-109600500D01*
X137935288Y-109576614D01*
X138005752Y-109535930D01*
X138053176Y-109529686D01*
X138091127Y-109558806D01*
X138099501Y-109590057D01*
X138099501Y-109912362D01*
X138102608Y-109927984D01*
X138106780Y-109948967D01*
X138106781Y-109948968D01*
X138134519Y-109990481D01*
X138176032Y-110018219D01*
X138212637Y-110025500D01*
X139737362Y-110025499D01*
X139773968Y-110018219D01*
X139815481Y-109990481D01*
X139843219Y-109948968D01*
X139850500Y-109912363D01*
X139850500Y-109607152D01*
X141003000Y-109607152D01*
X141003000Y-109784000D01*
X141386500Y-109784000D01*
X141513500Y-109784000D01*
X141896999Y-109784000D01*
X141896999Y-109607152D01*
X141894215Y-109583150D01*
X141850874Y-109484996D01*
X141775003Y-109409125D01*
X141775001Y-109409124D01*
X141676848Y-109365784D01*
X141652848Y-109363000D01*
X141513500Y-109363000D01*
X141513500Y-109784000D01*
X141386500Y-109784000D01*
X141386500Y-109363000D01*
X141247152Y-109363000D01*
X141223150Y-109365784D01*
X141124996Y-109409125D01*
X141049125Y-109484997D01*
X141049124Y-109484998D01*
X141005784Y-109583150D01*
X141005784Y-109583152D01*
X141003000Y-109607152D01*
X139850500Y-109607152D01*
X139850499Y-109203857D01*
X139850499Y-108587641D01*
X139850499Y-108587638D01*
X139843219Y-108551032D01*
X139815481Y-108509519D01*
X139787869Y-108491069D01*
X139773970Y-108481782D01*
X139773966Y-108481780D01*
X139746450Y-108476307D01*
X139737363Y-108474500D01*
X139737362Y-108474500D01*
X138212641Y-108474500D01*
X138212640Y-108474500D01*
X138212638Y-108474501D01*
X138202222Y-108476572D01*
X138176032Y-108481780D01*
X138134519Y-108509519D01*
X138106782Y-108551029D01*
X138106780Y-108551033D01*
X138099500Y-108587636D01*
X138099500Y-108909941D01*
X138081194Y-108954135D01*
X138037000Y-108972441D01*
X138005750Y-108964067D01*
X137935293Y-108923388D01*
X137935287Y-108923385D01*
X137846150Y-108899501D01*
X137846145Y-108899500D01*
X137846144Y-108899500D01*
X137753856Y-108899500D01*
X137753855Y-108899500D01*
X137753849Y-108899501D01*
X137664712Y-108923385D01*
X137664709Y-108923386D01*
X137584788Y-108969530D01*
X137584782Y-108969535D01*
X137519535Y-109034782D01*
X137519530Y-109034788D01*
X137473386Y-109114709D01*
X137473385Y-109114712D01*
X137449501Y-109203849D01*
X137449500Y-109203857D01*
X131900499Y-109203857D01*
X131900499Y-108587638D01*
X131893219Y-108551032D01*
X131865481Y-108509519D01*
X131837869Y-108491069D01*
X131823970Y-108481782D01*
X131823966Y-108481780D01*
X131796450Y-108476307D01*
X131787363Y-108474500D01*
X131787362Y-108474500D01*
X130262641Y-108474500D01*
X130262640Y-108474500D01*
X130262638Y-108474501D01*
X130252222Y-108476572D01*
X130226032Y-108481780D01*
X130184519Y-108509519D01*
X130156782Y-108551029D01*
X130156780Y-108551033D01*
X130149500Y-108587636D01*
X126019879Y-108587636D01*
X126089379Y-108451235D01*
X126146555Y-108275264D01*
X126175500Y-108092514D01*
X126175500Y-107907486D01*
X126146555Y-107724736D01*
X126089379Y-107548765D01*
X126005378Y-107383904D01*
X125896621Y-107234213D01*
X125896614Y-107234205D01*
X125765794Y-107103385D01*
X125765786Y-107103378D01*
X125616100Y-106994625D01*
X125616096Y-106994622D01*
X125508325Y-106939710D01*
X125451236Y-106910621D01*
X125451233Y-106910620D01*
X125275262Y-106853444D01*
X125092527Y-106824501D01*
X125092515Y-106824500D01*
X125092514Y-106824500D01*
X124907486Y-106824500D01*
X124907484Y-106824500D01*
X124907472Y-106824501D01*
X124724738Y-106853444D01*
X124724737Y-106853444D01*
X124548766Y-106910620D01*
X124548763Y-106910621D01*
X124434584Y-106968799D01*
X124383904Y-106994622D01*
X124383901Y-106994623D01*
X124383899Y-106994625D01*
X124234213Y-107103378D01*
X124234205Y-107103385D01*
X124103385Y-107234205D01*
X124103378Y-107234213D01*
X123994625Y-107383899D01*
X123910621Y-107548763D01*
X123910620Y-107548766D01*
X123853444Y-107724737D01*
X123853444Y-107724738D01*
X123824501Y-107907472D01*
X123824500Y-107907488D01*
X122125500Y-107907488D01*
X122125500Y-106734364D01*
X140624500Y-106734364D01*
X140624500Y-107455635D01*
X140635134Y-107528625D01*
X140635134Y-107528626D01*
X140690172Y-107641209D01*
X140778790Y-107729827D01*
X140835082Y-107757346D01*
X140891375Y-107784866D01*
X140964364Y-107795500D01*
X141162000Y-107795500D01*
X141206194Y-107813806D01*
X141224500Y-107858000D01*
X141224500Y-108131104D01*
X141206194Y-108175298D01*
X141187246Y-108188278D01*
X141125858Y-108215384D01*
X141050385Y-108290857D01*
X141007269Y-108388503D01*
X141004500Y-108412377D01*
X141004500Y-108892622D01*
X141007270Y-108916498D01*
X141007271Y-108916502D01*
X141030688Y-108969535D01*
X141050384Y-109014141D01*
X141125859Y-109089616D01*
X141223502Y-109132730D01*
X141247377Y-109135500D01*
X141652622Y-109135499D01*
X141676498Y-109132730D01*
X141774141Y-109089616D01*
X141849616Y-109014141D01*
X141892730Y-108916498D01*
X141895500Y-108892623D01*
X141895499Y-108412378D01*
X141892730Y-108388502D01*
X141849616Y-108290859D01*
X141774141Y-108215384D01*
X141712754Y-108188278D01*
X141679720Y-108153681D01*
X141675500Y-108131104D01*
X141675500Y-107907488D01*
X149824500Y-107907488D01*
X149824500Y-108092511D01*
X149824501Y-108092527D01*
X149853444Y-108275261D01*
X149853444Y-108275262D01*
X149910620Y-108451233D01*
X149910621Y-108451236D01*
X149926184Y-108481780D01*
X149994622Y-108616096D01*
X149994625Y-108616100D01*
X150103378Y-108765786D01*
X150103385Y-108765794D01*
X150234205Y-108896614D01*
X150234213Y-108896621D01*
X150383904Y-109005378D01*
X150548765Y-109089379D01*
X150724736Y-109146555D01*
X150801755Y-109158753D01*
X150907472Y-109175498D01*
X150907478Y-109175498D01*
X150907486Y-109175500D01*
X150907488Y-109175500D01*
X151092512Y-109175500D01*
X151092514Y-109175500D01*
X151275264Y-109146555D01*
X151451235Y-109089379D01*
X151616096Y-109005378D01*
X151765787Y-108896621D01*
X151896621Y-108765787D01*
X152005378Y-108616096D01*
X152089379Y-108451235D01*
X152146555Y-108275264D01*
X152175500Y-108092514D01*
X152175500Y-107907486D01*
X152146555Y-107724736D01*
X152089379Y-107548765D01*
X152005378Y-107383904D01*
X151896621Y-107234213D01*
X151896614Y-107234205D01*
X151765794Y-107103385D01*
X151765786Y-107103378D01*
X151616100Y-106994625D01*
X151616096Y-106994622D01*
X151508325Y-106939710D01*
X151451236Y-106910621D01*
X151451233Y-106910620D01*
X151275262Y-106853444D01*
X151092527Y-106824501D01*
X151092515Y-106824500D01*
X151092514Y-106824500D01*
X150907486Y-106824500D01*
X150907484Y-106824500D01*
X150907472Y-106824501D01*
X150724738Y-106853444D01*
X150724737Y-106853444D01*
X150548766Y-106910620D01*
X150548763Y-106910621D01*
X150434584Y-106968799D01*
X150383904Y-106994622D01*
X150383901Y-106994623D01*
X150383899Y-106994625D01*
X150234213Y-107103378D01*
X150234205Y-107103385D01*
X150103385Y-107234205D01*
X150103378Y-107234213D01*
X149994625Y-107383899D01*
X149910621Y-107548763D01*
X149910620Y-107548766D01*
X149853444Y-107724737D01*
X149853444Y-107724738D01*
X149824501Y-107907472D01*
X149824500Y-107907488D01*
X141675500Y-107907488D01*
X141675500Y-107858000D01*
X141693806Y-107813806D01*
X141738000Y-107795500D01*
X141935636Y-107795500D01*
X142008625Y-107784866D01*
X142121211Y-107729826D01*
X142209826Y-107641211D01*
X142264866Y-107528625D01*
X142275500Y-107455636D01*
X142275500Y-106734364D01*
X142264866Y-106661375D01*
X142262568Y-106656674D01*
X142209827Y-106548790D01*
X142121209Y-106460172D01*
X142008625Y-106405134D01*
X141935636Y-106394500D01*
X140964364Y-106394500D01*
X140891374Y-106405134D01*
X140891373Y-106405134D01*
X140778790Y-106460172D01*
X140690172Y-106548790D01*
X140635134Y-106661373D01*
X140635134Y-106661374D01*
X140624500Y-106734364D01*
X122125500Y-106734364D01*
X122125500Y-104087636D01*
X130149500Y-104087636D01*
X130149500Y-105412358D01*
X130149501Y-105412362D01*
X130152608Y-105427984D01*
X130156780Y-105448967D01*
X130156781Y-105448968D01*
X130184519Y-105490481D01*
X130226032Y-105518219D01*
X130262637Y-105525500D01*
X131787362Y-105525499D01*
X131823968Y-105518219D01*
X131865481Y-105490481D01*
X131893219Y-105448968D01*
X131900500Y-105412363D01*
X131900499Y-104087638D01*
X131893219Y-104051032D01*
X131865481Y-104009519D01*
X131837869Y-103991069D01*
X131823970Y-103981782D01*
X131823966Y-103981780D01*
X131796450Y-103976307D01*
X131787363Y-103974500D01*
X131787362Y-103974500D01*
X130262641Y-103974500D01*
X130262640Y-103974500D01*
X130262638Y-103974501D01*
X130252222Y-103976572D01*
X130226032Y-103981780D01*
X130184519Y-104009519D01*
X130156782Y-104051029D01*
X130156780Y-104051033D01*
X130149500Y-104087636D01*
X122125500Y-104087636D01*
X122125500Y-98580926D01*
X123787000Y-98580926D01*
X123787000Y-98819073D01*
X123787001Y-98819087D01*
X123824255Y-99054294D01*
X123824256Y-99054297D01*
X123897846Y-99280784D01*
X123897848Y-99280791D01*
X123935288Y-99354271D01*
X124005967Y-99492985D01*
X124005970Y-99492989D01*
X124145948Y-99685652D01*
X124145955Y-99685660D01*
X124314339Y-99854044D01*
X124314347Y-99854051D01*
X124507015Y-99994033D01*
X124719210Y-100102152D01*
X124945705Y-100175744D01*
X125180924Y-100213000D01*
X125180926Y-100213000D01*
X125419074Y-100213000D01*
X125419076Y-100213000D01*
X125654295Y-100175744D01*
X125880790Y-100102152D01*
X126092985Y-99994033D01*
X126285653Y-99854051D01*
X126454051Y-99685653D01*
X126594033Y-99492985D01*
X126702152Y-99280790D01*
X126775744Y-99054295D01*
X126813000Y-98819076D01*
X126813000Y-98580924D01*
X126775744Y-98345705D01*
X126702152Y-98119210D01*
X126594033Y-97907015D01*
X126454051Y-97714347D01*
X126454044Y-97714339D01*
X126285660Y-97545955D01*
X126285652Y-97545948D01*
X126134318Y-97435997D01*
X126092985Y-97405967D01*
X125954271Y-97335288D01*
X125880791Y-97297848D01*
X125880784Y-97297846D01*
X125654297Y-97224256D01*
X125654294Y-97224255D01*
X125419087Y-97187001D01*
X125419077Y-97187000D01*
X125419076Y-97187000D01*
X125180924Y-97187000D01*
X125180922Y-97187000D01*
X125180912Y-97187001D01*
X124945705Y-97224255D01*
X124945702Y-97224256D01*
X124719215Y-97297846D01*
X124719208Y-97297848D01*
X124572247Y-97372729D01*
X124507015Y-97405967D01*
X124507012Y-97405968D01*
X124507010Y-97405970D01*
X124314347Y-97545948D01*
X124314339Y-97545955D01*
X124145955Y-97714339D01*
X124145948Y-97714347D01*
X124005970Y-97907010D01*
X124005968Y-97907012D01*
X124005967Y-97907015D01*
X123989348Y-97939632D01*
X123897848Y-98119208D01*
X123897846Y-98119215D01*
X123824256Y-98345702D01*
X123824255Y-98345705D01*
X123787001Y-98580912D01*
X123787000Y-98580926D01*
X122125500Y-98580926D01*
X122125500Y-96762507D01*
X128022999Y-96762507D01*
X128030369Y-96799553D01*
X128030369Y-96799554D01*
X128058438Y-96841562D01*
X128069471Y-96848934D01*
X128096048Y-96888707D01*
X128086716Y-96935623D01*
X128069474Y-96952866D01*
X128059521Y-96959516D01*
X128059519Y-96959518D01*
X128031782Y-97001029D01*
X128031780Y-97001033D01*
X128024500Y-97037636D01*
X128024500Y-97562358D01*
X128024501Y-97562362D01*
X128027608Y-97577984D01*
X128031780Y-97598967D01*
X128031781Y-97598968D01*
X128059519Y-97640481D01*
X128101032Y-97668219D01*
X128137637Y-97675500D01*
X128687362Y-97675499D01*
X128723968Y-97668219D01*
X128765481Y-97640481D01*
X128767267Y-97637806D01*
X128807037Y-97611228D01*
X128850484Y-97618399D01*
X128864712Y-97626614D01*
X128953856Y-97650500D01*
X128953857Y-97650500D01*
X129046143Y-97650500D01*
X129046144Y-97650500D01*
X129135288Y-97626614D01*
X129137218Y-97625500D01*
X129183173Y-97598967D01*
X129215212Y-97580469D01*
X129280469Y-97515212D01*
X129326614Y-97435288D01*
X129350500Y-97346144D01*
X129350500Y-97253856D01*
X129326614Y-97164712D01*
X129326613Y-97164709D01*
X129280469Y-97084788D01*
X129280464Y-97084782D01*
X129215217Y-97019535D01*
X129215211Y-97019530D01*
X129135290Y-96973386D01*
X129135287Y-96973385D01*
X129046150Y-96949501D01*
X129046145Y-96949500D01*
X129046144Y-96949500D01*
X128953856Y-96949500D01*
X128953855Y-96949500D01*
X128953849Y-96949501D01*
X128864715Y-96973384D01*
X128864710Y-96973386D01*
X128850484Y-96981600D01*
X128803058Y-96987842D01*
X128777003Y-96973544D01*
X128771452Y-96968455D01*
X128765481Y-96959519D01*
X128751545Y-96950207D01*
X128748017Y-96946973D01*
X128739782Y-96929305D01*
X128728951Y-96913094D01*
X128729930Y-96908167D01*
X128727809Y-96903615D01*
X128729125Y-96900000D01*
X130300000Y-96900000D01*
X130300000Y-97800000D01*
X131300000Y-97800000D01*
X131300000Y-97762500D01*
X131318306Y-97718306D01*
X131362500Y-97700000D01*
X131405539Y-97700000D01*
X131449733Y-97718306D01*
X131463259Y-97741634D01*
X131463835Y-97741380D01*
X131508321Y-97842129D01*
X131582869Y-97916677D01*
X131679319Y-97959264D01*
X131702894Y-97961999D01*
X131836499Y-97961999D01*
X131963500Y-97961999D01*
X132097105Y-97961999D01*
X132120684Y-97959264D01*
X132217129Y-97916678D01*
X132291677Y-97842130D01*
X132334264Y-97745680D01*
X132337000Y-97722105D01*
X132337000Y-97531000D01*
X131963500Y-97531000D01*
X131963500Y-97961999D01*
X131836499Y-97961999D01*
X131836500Y-97961998D01*
X131836500Y-97404000D01*
X131963500Y-97404000D01*
X132336999Y-97404000D01*
X132336999Y-97212894D01*
X132334264Y-97189315D01*
X132291678Y-97092870D01*
X132217130Y-97018322D01*
X132120680Y-96975735D01*
X132097106Y-96973000D01*
X131963500Y-96973000D01*
X131963500Y-97404000D01*
X131836500Y-97404000D01*
X131836500Y-96973000D01*
X131702894Y-96973000D01*
X131679315Y-96975735D01*
X131582870Y-97018321D01*
X131519498Y-97081694D01*
X131475304Y-97100000D01*
X131362500Y-97100000D01*
X131318306Y-97081694D01*
X131300000Y-97037500D01*
X131300000Y-96900000D01*
X131217641Y-96900000D01*
X131173447Y-96881694D01*
X131155141Y-96837500D01*
X131165675Y-96802776D01*
X131167827Y-96799554D01*
X131168219Y-96798968D01*
X131175500Y-96762363D01*
X131175499Y-96669295D01*
X131187442Y-96640456D01*
X131186124Y-96639929D01*
X131186126Y-96639924D01*
X131190256Y-96633659D01*
X131193798Y-96625108D01*
X131193807Y-96625098D01*
X131196699Y-96622206D01*
X131199955Y-96618949D01*
X131199957Y-96618948D01*
X131199959Y-96618944D01*
X131242600Y-96576304D01*
X131286793Y-96558000D01*
X131405481Y-96558000D01*
X131449675Y-96576306D01*
X131464174Y-96606285D01*
X131465985Y-96605793D01*
X131467218Y-96610326D01*
X131467220Y-96610332D01*
X131467221Y-96610333D01*
X131509580Y-96706267D01*
X131583733Y-96780420D01*
X131679667Y-96822779D01*
X131703120Y-96825500D01*
X132096880Y-96825500D01*
X132120333Y-96822779D01*
X132216267Y-96780420D01*
X132290420Y-96706267D01*
X132300579Y-96683257D01*
X132335174Y-96650223D01*
X132382997Y-96651326D01*
X132389005Y-96654376D01*
X132397209Y-96659113D01*
X132397212Y-96659114D01*
X132486356Y-96683000D01*
X132486357Y-96683000D01*
X132578643Y-96683000D01*
X132578644Y-96683000D01*
X132667788Y-96659114D01*
X132747712Y-96612969D01*
X132812969Y-96547712D01*
X132859114Y-96467788D01*
X132883000Y-96378644D01*
X132883000Y-96286356D01*
X132859114Y-96197212D01*
X132859113Y-96197209D01*
X132812969Y-96117288D01*
X132812964Y-96117282D01*
X132747717Y-96052035D01*
X132747711Y-96052030D01*
X132667790Y-96005886D01*
X132667787Y-96005885D01*
X132578650Y-95982001D01*
X132578645Y-95982000D01*
X132578644Y-95982000D01*
X132486356Y-95982000D01*
X132486355Y-95982000D01*
X132486349Y-95982001D01*
X132397215Y-96005884D01*
X132397208Y-96005887D01*
X132389003Y-96010625D01*
X132341577Y-96016868D01*
X132303627Y-95987747D01*
X132300585Y-95981754D01*
X132290420Y-95958733D01*
X132216267Y-95884580D01*
X132120333Y-95842221D01*
X132120331Y-95842220D01*
X132096880Y-95839500D01*
X131711388Y-95839500D01*
X131667194Y-95821194D01*
X131648888Y-95777000D01*
X131667194Y-95732806D01*
X131802195Y-95597805D01*
X131829507Y-95586491D01*
X131836500Y-95579499D01*
X131963500Y-95579499D01*
X132097105Y-95579499D01*
X132120684Y-95576764D01*
X132217129Y-95534178D01*
X132291677Y-95459630D01*
X132334264Y-95363180D01*
X132337000Y-95339605D01*
X132337000Y-95148500D01*
X131963500Y-95148500D01*
X131963500Y-95579499D01*
X131836500Y-95579499D01*
X131836500Y-95148500D01*
X131818306Y-95130306D01*
X131800000Y-95086112D01*
X131800000Y-95083888D01*
X131818306Y-95039694D01*
X131836500Y-95021500D01*
X131963500Y-95021500D01*
X132336999Y-95021500D01*
X132336999Y-94830394D01*
X132334264Y-94806815D01*
X132291678Y-94710370D01*
X132217130Y-94635822D01*
X132120680Y-94593235D01*
X132097106Y-94590500D01*
X131963500Y-94590500D01*
X131963500Y-95021500D01*
X131836500Y-95021500D01*
X131836500Y-94590500D01*
X131729292Y-94590500D01*
X131685098Y-94572194D01*
X131666792Y-94528000D01*
X131685097Y-94483807D01*
X131707600Y-94461305D01*
X131751793Y-94443000D01*
X132096880Y-94443000D01*
X132120333Y-94440279D01*
X132216267Y-94397920D01*
X132290420Y-94323767D01*
X132332779Y-94227833D01*
X132335500Y-94204380D01*
X132335500Y-93695620D01*
X132332779Y-93672167D01*
X132290420Y-93576233D01*
X132216267Y-93502080D01*
X132213887Y-93501029D01*
X132211471Y-93499962D01*
X132178436Y-93465365D01*
X132179542Y-93417543D01*
X132182584Y-93411548D01*
X132226614Y-93335288D01*
X132250500Y-93246144D01*
X132250500Y-93153856D01*
X132226614Y-93064712D01*
X132226613Y-93064709D01*
X132180469Y-92984788D01*
X132180464Y-92984782D01*
X132115217Y-92919535D01*
X132115211Y-92919530D01*
X132035290Y-92873386D01*
X132035287Y-92873385D01*
X131946150Y-92849501D01*
X131946145Y-92849500D01*
X131946144Y-92849500D01*
X131853856Y-92849500D01*
X131853855Y-92849500D01*
X131853849Y-92849501D01*
X131764712Y-92873385D01*
X131764709Y-92873386D01*
X131684788Y-92919530D01*
X131684782Y-92919535D01*
X131619535Y-92984782D01*
X131619530Y-92984788D01*
X131573386Y-93064709D01*
X131573385Y-93064712D01*
X131549501Y-93153849D01*
X131549500Y-93153857D01*
X131549500Y-93246142D01*
X131549501Y-93246150D01*
X131573385Y-93335287D01*
X131573386Y-93335290D01*
X131617409Y-93411537D01*
X131623654Y-93458964D01*
X131594534Y-93496914D01*
X131588530Y-93499962D01*
X131583732Y-93502080D01*
X131509581Y-93576231D01*
X131467220Y-93672168D01*
X131464500Y-93695620D01*
X131464500Y-94040706D01*
X131446194Y-94084900D01*
X131024899Y-94506194D01*
X130980705Y-94524500D01*
X130512641Y-94524500D01*
X130512640Y-94524500D01*
X130512638Y-94524501D01*
X130502222Y-94526572D01*
X130476032Y-94531780D01*
X130434519Y-94559519D01*
X130406782Y-94601029D01*
X130406780Y-94601033D01*
X130399500Y-94637636D01*
X130399500Y-95162358D01*
X130399501Y-95162362D01*
X130404699Y-95188500D01*
X130406781Y-95198968D01*
X130406781Y-95198969D01*
X130416036Y-95212820D01*
X130425368Y-95259736D01*
X130408264Y-95291735D01*
X130400000Y-95299999D01*
X130400000Y-95421282D01*
X130398799Y-95433474D01*
X130398000Y-95437489D01*
X130398000Y-95659559D01*
X130400000Y-95664388D01*
X130400000Y-95735612D01*
X130398000Y-95740440D01*
X130398000Y-95962507D01*
X130397999Y-95962507D01*
X130398799Y-95966524D01*
X130400000Y-95978718D01*
X130400000Y-96050000D01*
X130404843Y-96054843D01*
X130437344Y-96068306D01*
X130455650Y-96112500D01*
X130437344Y-96156694D01*
X130434519Y-96159518D01*
X130406782Y-96201029D01*
X130406780Y-96201033D01*
X130399500Y-96237636D01*
X130399500Y-96762358D01*
X130399501Y-96762362D01*
X130406781Y-96798966D01*
X130406781Y-96798968D01*
X130409327Y-96802779D01*
X130418658Y-96849696D01*
X130392080Y-96889468D01*
X130375617Y-96897274D01*
X130366692Y-96900000D01*
X130300000Y-96900000D01*
X128729125Y-96900000D01*
X128734479Y-96885298D01*
X128738283Y-96866177D01*
X128743253Y-96861207D01*
X128744178Y-96858668D01*
X128747202Y-96857258D01*
X128755529Y-96848933D01*
X128766561Y-96841561D01*
X128768015Y-96839387D01*
X128768015Y-96839386D01*
X128794630Y-96799554D01*
X128794630Y-96799553D01*
X128802000Y-96762507D01*
X128802000Y-96563500D01*
X128023000Y-96563500D01*
X128023000Y-96762507D01*
X128022999Y-96762507D01*
X122125500Y-96762507D01*
X122125500Y-90802847D01*
X123268001Y-90802847D01*
X123270784Y-90826849D01*
X123314125Y-90925003D01*
X123389997Y-91000875D01*
X123488151Y-91044215D01*
X123512152Y-91046999D01*
X123688999Y-91046999D01*
X123816000Y-91046999D01*
X123992847Y-91046999D01*
X124016849Y-91044215D01*
X124115003Y-91000874D01*
X124190875Y-90925003D01*
X124190875Y-90925001D01*
X124234215Y-90826849D01*
X124234215Y-90826847D01*
X124237000Y-90802847D01*
X124237000Y-90663500D01*
X123816000Y-90663500D01*
X123816000Y-91046999D01*
X123688999Y-91046999D01*
X123689000Y-91046998D01*
X123689000Y-90663500D01*
X123268001Y-90663500D01*
X123268001Y-90802847D01*
X122125500Y-90802847D01*
X122125500Y-90397152D01*
X123268000Y-90397152D01*
X123268000Y-90536500D01*
X123689000Y-90536500D01*
X123816000Y-90536500D01*
X124236999Y-90536500D01*
X124236999Y-90397152D01*
X124234215Y-90373150D01*
X124190874Y-90274996D01*
X124115003Y-90199125D01*
X124115001Y-90199124D01*
X124016848Y-90155784D01*
X123992848Y-90153000D01*
X123816000Y-90153000D01*
X123816000Y-90536500D01*
X123689000Y-90536500D01*
X123689000Y-90153000D01*
X123512152Y-90153000D01*
X123488150Y-90155784D01*
X123389996Y-90199125D01*
X123314125Y-90274997D01*
X123314124Y-90274998D01*
X123270784Y-90373150D01*
X123270784Y-90373152D01*
X123268000Y-90397152D01*
X122125500Y-90397152D01*
X122125500Y-89111737D01*
X122799500Y-89111737D01*
X122799500Y-89204022D01*
X122799501Y-89204030D01*
X122823385Y-89293167D01*
X122823386Y-89293170D01*
X122869530Y-89373091D01*
X122869535Y-89373097D01*
X122934782Y-89438344D01*
X122934788Y-89438349D01*
X123014709Y-89484493D01*
X123014712Y-89484494D01*
X123103856Y-89508380D01*
X123103857Y-89508380D01*
X123196143Y-89508380D01*
X123196144Y-89508380D01*
X123196152Y-89508378D01*
X123262571Y-89490581D01*
X123281380Y-89485541D01*
X123328807Y-89491784D01*
X123354731Y-89520666D01*
X123359580Y-89531647D01*
X123433733Y-89605800D01*
X123529667Y-89648159D01*
X123553120Y-89650880D01*
X123946880Y-89650880D01*
X123970333Y-89648159D01*
X124066267Y-89605800D01*
X124140420Y-89531647D01*
X124182779Y-89435713D01*
X124185500Y-89412260D01*
X124185500Y-88903500D01*
X124182779Y-88880047D01*
X124140420Y-88784113D01*
X124066267Y-88709960D01*
X123972897Y-88668733D01*
X123970331Y-88667600D01*
X123946880Y-88664880D01*
X123553120Y-88664880D01*
X123529668Y-88667600D01*
X123433731Y-88709961D01*
X123359580Y-88784112D01*
X123354731Y-88795095D01*
X123320133Y-88828128D01*
X123281381Y-88830218D01*
X123196150Y-88807381D01*
X123196145Y-88807380D01*
X123196144Y-88807380D01*
X123103856Y-88807380D01*
X123103855Y-88807380D01*
X123103849Y-88807381D01*
X123014712Y-88831265D01*
X123014709Y-88831266D01*
X122934788Y-88877410D01*
X122934782Y-88877415D01*
X122869535Y-88942662D01*
X122869530Y-88942668D01*
X122823386Y-89022589D01*
X122823385Y-89022592D01*
X122799501Y-89111729D01*
X122799500Y-89111737D01*
X122125500Y-89111737D01*
X122125500Y-86393227D01*
X124568001Y-86393227D01*
X124570784Y-86417229D01*
X124614125Y-86515383D01*
X124689997Y-86591255D01*
X124788151Y-86634595D01*
X124812152Y-86637379D01*
X124988999Y-86637379D01*
X125116000Y-86637379D01*
X125292847Y-86637379D01*
X125316849Y-86634595D01*
X125415003Y-86591254D01*
X125490875Y-86515383D01*
X125490875Y-86515381D01*
X125534215Y-86417229D01*
X125534215Y-86417227D01*
X125537000Y-86393227D01*
X125537000Y-86253880D01*
X125116000Y-86253880D01*
X125116000Y-86637379D01*
X124988999Y-86637379D01*
X124989000Y-86637378D01*
X124989000Y-86253880D01*
X124568001Y-86253880D01*
X124568001Y-86393227D01*
X122125500Y-86393227D01*
X122125500Y-85987532D01*
X124568000Y-85987532D01*
X124568000Y-86126880D01*
X124989000Y-86126880D01*
X125116000Y-86126880D01*
X125536999Y-86126880D01*
X125536999Y-85987532D01*
X125534215Y-85963530D01*
X125490874Y-85865376D01*
X125415003Y-85789505D01*
X125415001Y-85789504D01*
X125316848Y-85746164D01*
X125292848Y-85743380D01*
X125116000Y-85743380D01*
X125116000Y-86126880D01*
X124989000Y-86126880D01*
X124989000Y-85743380D01*
X124812152Y-85743380D01*
X124788150Y-85746164D01*
X124689996Y-85789505D01*
X124614125Y-85865377D01*
X124614124Y-85865378D01*
X124570784Y-85963530D01*
X124570784Y-85963532D01*
X124568000Y-85987532D01*
X122125500Y-85987532D01*
X122125500Y-84862500D01*
X122143806Y-84818306D01*
X122188000Y-84800000D01*
X141500000Y-84800000D01*
X141500000Y-82188000D01*
X141518306Y-82143806D01*
X141562500Y-82125500D01*
X142048729Y-82125500D01*
X142092923Y-82143806D01*
G37*
%TD.AperFunction*%
%TD*%
M02*
