%TF.GenerationSoftware,KiCad,Pcbnew,9.0.7+1*%
%TF.CreationDate,2026-03-17T20:23:58+00:00*%
%TF.ProjectId,BeeLight,4265654c-6967-4687-942e-6b696361645f,rev?*%
%TF.SameCoordinates,Original*%
%TF.FileFunction,Soldermask,Top*%
%TF.FilePolarity,Negative*%
%FSLAX46Y46*%
G04 Gerber Fmt 4.6, Leading zero omitted, Abs format (unit mm)*
G04 Created by KiCad (PCBNEW 9.0.7+1) date 2026-03-17 20:23:58*
%MOMM*%
%LPD*%
G01*
G04 APERTURE LIST*
G04 Aperture macros list*
%AMRoundRect*
0 Rectangle with rounded corners*
0 $1 Rounding radius*
0 $2 $3 $4 $5 $6 $7 $8 $9 X,Y pos of 4 corners*
0 Add a 4 corners polygon primitive as box body*
4,1,4,$2,$3,$4,$5,$6,$7,$8,$9,$2,$3,0*
0 Add four circle primitives for the rounded corners*
1,1,$1+$1,$2,$3*
1,1,$1+$1,$4,$5*
1,1,$1+$1,$6,$7*
1,1,$1+$1,$8,$9*
0 Add four rect primitives between the rounded corners*
20,1,$1+$1,$2,$3,$4,$5,0*
20,1,$1+$1,$4,$5,$6,$7,0*
20,1,$1+$1,$6,$7,$8,$9,0*
20,1,$1+$1,$8,$9,$2,$3,0*%
G04 Aperture macros list end*
%ADD10R,1.500000X1.300000*%
%ADD11R,0.600000X0.400000*%
%ADD12R,0.400000X0.600000*%
%ADD13RoundRect,0.160000X-0.197500X-0.160000X0.197500X-0.160000X0.197500X0.160000X-0.197500X0.160000X0*%
%ADD14C,2.100000*%
%ADD15RoundRect,0.150000X-0.150000X0.512500X-0.150000X-0.512500X0.150000X-0.512500X0.150000X0.512500X0*%
%ADD16RoundRect,0.250000X-0.450000X0.325000X-0.450000X-0.325000X0.450000X-0.325000X0.450000X0.325000X0*%
%ADD17RoundRect,0.155000X0.212500X0.155000X-0.212500X0.155000X-0.212500X-0.155000X0.212500X-0.155000X0*%
%ADD18RoundRect,0.160000X0.197500X0.160000X-0.197500X0.160000X-0.197500X-0.160000X0.197500X-0.160000X0*%
%ADD19RoundRect,0.075000X-0.075000X0.512500X-0.075000X-0.512500X0.075000X-0.512500X0.075000X0.512500X0*%
%ADD20RoundRect,0.155000X-0.212500X-0.155000X0.212500X-0.155000X0.212500X0.155000X-0.212500X0.155000X0*%
%ADD21RoundRect,0.155000X-0.155000X0.212500X-0.155000X-0.212500X0.155000X-0.212500X0.155000X0.212500X0*%
%ADD22RoundRect,0.155000X0.155000X-0.212500X0.155000X0.212500X-0.155000X0.212500X-0.155000X-0.212500X0*%
%ADD23R,0.525000X0.500000*%
%ADD24RoundRect,0.250000X-0.350000X-0.450000X0.350000X-0.450000X0.350000X0.450000X-0.350000X0.450000X0*%
%ADD25RoundRect,0.160000X0.160000X-0.197500X0.160000X0.197500X-0.160000X0.197500X-0.160000X-0.197500X0*%
%ADD26R,1.000000X1.000000*%
%ADD27C,1.000000*%
%ADD28C,2.775000*%
G04 APERTURE END LIST*
D10*
%TO.C,SW101*%
X138975000Y-109250000D03*
X138975000Y-104750000D03*
X131025000Y-109250000D03*
X131025000Y-104750000D03*
%TD*%
D11*
%TO.C,M101*%
X142500000Y-82500000D03*
X142500000Y-83250000D03*
X142500000Y-84000000D03*
X142500000Y-84750000D03*
X142500000Y-85500000D03*
X142500000Y-86250000D03*
X142500000Y-87000000D03*
X142500000Y-87750000D03*
X142500000Y-88500000D03*
X142500000Y-89250000D03*
X142500000Y-90000000D03*
X142500000Y-90750000D03*
X142500000Y-91500000D03*
X142500000Y-92250000D03*
X142500000Y-93000000D03*
X142500000Y-93750000D03*
D12*
X141750000Y-93800000D03*
X141000000Y-93800000D03*
X140250000Y-93800000D03*
X139500000Y-93800000D03*
X138750000Y-93800000D03*
X138000000Y-93800000D03*
X137250000Y-93800000D03*
X136500000Y-93800000D03*
X135750000Y-93800000D03*
X135000000Y-93800000D03*
X134250000Y-93800000D03*
D11*
X133500000Y-93750000D03*
X133500000Y-93000000D03*
X133500000Y-92250000D03*
X133500000Y-91500000D03*
X133500000Y-90750000D03*
X133500000Y-90000000D03*
X133500000Y-89250000D03*
X133500000Y-88500000D03*
X133500000Y-87750000D03*
X133500000Y-87000000D03*
X133500000Y-86250000D03*
X133500000Y-85500000D03*
%TD*%
D13*
%TO.C,R107*%
X144702500Y-93662500D03*
X145897500Y-93662500D03*
%TD*%
D14*
%TO.C,REF\u002A\u002A*%
X151000000Y-108000000D03*
%TD*%
D15*
%TO.C,Q101*%
X145850000Y-95125000D03*
X143950000Y-95125000D03*
X144900000Y-97400000D03*
%TD*%
D16*
%TO.C,D101*%
X141450000Y-105045000D03*
X141450000Y-107095000D03*
%TD*%
D17*
%TO.C,C102*%
X134900000Y-94900000D03*
X133765000Y-94900000D03*
%TD*%
D18*
%TO.C,R108*%
X142597500Y-97662500D03*
X141402500Y-97662500D03*
%TD*%
D19*
%TO.C,IC102*%
X126250000Y-87612500D03*
X125600000Y-87612500D03*
X124950000Y-87612500D03*
X124950000Y-89187500D03*
X125600000Y-89187500D03*
X126250000Y-89187500D03*
%TD*%
D20*
%TO.C,C103*%
X141465000Y-95662500D03*
X142600000Y-95662500D03*
%TD*%
D21*
%TO.C,C104*%
X123750000Y-88022880D03*
X123750000Y-89157880D03*
%TD*%
D22*
%TO.C,C105*%
X131900000Y-97467500D03*
X131900000Y-96332500D03*
%TD*%
D23*
%TO.C,IC103*%
X128412500Y-97300000D03*
X128412500Y-96500000D03*
X128412500Y-95700000D03*
X128412500Y-94900000D03*
X130787500Y-94900000D03*
X130787500Y-95700000D03*
X130787500Y-96500000D03*
X130787500Y-97300000D03*
%TD*%
D13*
%TO.C,R104*%
X125052500Y-86190380D03*
X126247500Y-86190380D03*
%TD*%
D24*
%TO.C,R102*%
X145400000Y-102300000D03*
X147400000Y-102300000D03*
%TD*%
D18*
%TO.C,R105*%
X128597500Y-87200000D03*
X127402500Y-87200000D03*
%TD*%
D25*
%TO.C,R103*%
X141450000Y-109847500D03*
X141450000Y-108652500D03*
%TD*%
D13*
%TO.C,R109*%
X141405000Y-96662500D03*
X142600000Y-96662500D03*
%TD*%
D22*
%TO.C,C106*%
X131900000Y-95085000D03*
X131900000Y-93950000D03*
%TD*%
D20*
%TO.C,C101*%
X143732500Y-88300000D03*
X144867500Y-88300000D03*
%TD*%
D14*
%TO.C,REF\u002A\u002A*%
X125000000Y-108000000D03*
%TD*%
D26*
%TO.C,X102*%
X150700000Y-84460000D03*
D27*
X151970000Y-84460000D03*
X150700000Y-85730000D03*
X151970000Y-85730000D03*
X150700000Y-87000000D03*
X151970000Y-87000000D03*
X150700000Y-88270000D03*
X151970000Y-88270000D03*
X150700000Y-89540000D03*
X151970000Y-89540000D03*
%TD*%
D18*
%TO.C,R101*%
X144897500Y-87300000D03*
X143702500Y-87300000D03*
%TD*%
D13*
%TO.C,R106*%
X123752500Y-90600000D03*
X124947500Y-90600000D03*
%TD*%
D28*
%TO.C,BT101*%
X150700000Y-98700000D03*
X125300000Y-98700000D03*
%TD*%
M02*
