%TF.GenerationSoftware,KiCad,Pcbnew,9.0.1+1*%
%TF.CreationDate,2025-06-27T11:46:01+00:00*%
%TF.ProjectId,BeeLight,4265654c-6967-4687-942e-6b696361645f,rev?*%
%TF.SameCoordinates,Original*%
%TF.FileFunction,Copper,L2,Bot*%
%TF.FilePolarity,Positive*%
%FSLAX46Y46*%
G04 Gerber Fmt 4.6, Leading zero omitted, Abs format (unit mm)*
G04 Created by KiCad (PCBNEW 9.0.1+1) date 2025-06-27 11:46:01*
%MOMM*%
%LPD*%
G01*
G04 APERTURE LIST*
G04 Aperture macros list*
%AMRoundRect*
0 Rectangle with rounded corners*
0 $1 Rounding radius*
0 $2 $3 $4 $5 $6 $7 $8 $9 X,Y pos of 4 corners*
0 Add a 4 corners polygon primitive as box body*
4,1,4,$2,$3,$4,$5,$6,$7,$8,$9,$2,$3,0*
0 Add four circle primitives for the rounded corners*
1,1,$1+$1,$2,$3*
1,1,$1+$1,$4,$5*
1,1,$1+$1,$6,$7*
1,1,$1+$1,$8,$9*
0 Add four rect primitives between the rounded corners*
20,1,$1+$1,$2,$3,$4,$5,0*
20,1,$1+$1,$4,$5,$6,$7,0*
20,1,$1+$1,$6,$7,$8,$9,0*
20,1,$1+$1,$8,$9,$2,$3,0*%
G04 Aperture macros list end*
%TA.AperFunction,NonConductor*%
%ADD10C,0.200000*%
%TD*%
%ADD11C,0.120000*%
%TA.AperFunction,NonConductor*%
%ADD12C,0.120000*%
%TD*%
%TA.AperFunction,ComponentPad*%
%ADD13R,1.000000X1.000000*%
%TD*%
%TA.AperFunction,ComponentPad*%
%ADD14C,1.000000*%
%TD*%
%TA.AperFunction,SMDPad,CuDef*%
%ADD15RoundRect,0.250000X-0.350000X-0.450000X0.350000X-0.450000X0.350000X0.450000X-0.350000X0.450000X0*%
%TD*%
%TA.AperFunction,SMDPad,CuDef*%
%ADD16R,5.100000X5.100000*%
%TD*%
%TA.AperFunction,SMDPad,CuDef*%
%ADD17C,17.800000*%
%TD*%
%TA.AperFunction,ViaPad*%
%ADD18C,0.450000*%
%TD*%
%TA.AperFunction,ViaPad*%
%ADD19C,0.800000*%
%TD*%
%TA.AperFunction,Conductor*%
%ADD20C,0.400000*%
%TD*%
%TA.AperFunction,Conductor*%
%ADD21C,0.200000*%
%TD*%
G04 APERTURE END LIST*
D10*
X122700000Y-85300000D02*
X124400000Y-85300000D01*
X124400000Y-87000000D01*
X122700000Y-87000000D01*
X122700000Y-85300000D01*
D11*
D12*
X123668672Y-85772045D02*
X123630576Y-85733950D01*
X123630576Y-85733950D02*
X123554386Y-85695855D01*
X123554386Y-85695855D02*
X123363910Y-85695855D01*
X123363910Y-85695855D02*
X123287719Y-85733950D01*
X123287719Y-85733950D02*
X123249624Y-85772045D01*
X123249624Y-85772045D02*
X123211529Y-85848236D01*
X123211529Y-85848236D02*
X123211529Y-85924426D01*
X123211529Y-85924426D02*
X123249624Y-86038712D01*
X123249624Y-86038712D02*
X123706767Y-86495855D01*
X123706767Y-86495855D02*
X123211529Y-86495855D01*
D13*
%TO.P,X102,1,VTref*%
%TO.N,+BATT*%
X150700000Y-84460000D03*
D14*
%TO.P,X102,2,SWDIO/TMS*%
%TO.N,SWDIO*%
X151970000Y-84460000D03*
%TO.P,X102,3,GND*%
%TO.N,GND*%
X150700000Y-85730000D03*
%TO.P,X102,4,SWCLK/TCK*%
%TO.N,SWDCLK*%
X151970000Y-85730000D03*
%TO.P,X102,5,GND*%
%TO.N,GND*%
X150700000Y-87000000D03*
%TO.P,X102,6,SWO/TDO*%
%TO.N,unconnected-(X102-SWO{slash}TDO-Pad6)*%
X151970000Y-87000000D03*
%TO.P,X102,7,KEY*%
%TO.N,unconnected-(X102-KEY-Pad7)*%
X150700000Y-88270000D03*
%TO.P,X102,8,NC/TDI*%
%TO.N,unconnected-(X102-NC{slash}TDI-Pad8)*%
X151970000Y-88270000D03*
%TO.P,X102,9,GNDDetect*%
%TO.N,unconnected-(X102-GNDDetect-Pad9)*%
X150700000Y-89540000D03*
%TO.P,X102,10,~{RESET}*%
%TO.N,~{RESET}*%
X151970000Y-89540000D03*
%TD*%
D15*
%TO.P,R102,1*%
%TO.N,Net-(BT101-+)*%
X145750000Y-104450000D03*
%TO.P,R102,2*%
%TO.N,+BATT*%
X147750000Y-104450000D03*
%TD*%
D16*
%TO.P,BT101,1,+*%
%TO.N,Net-(BT101-+)*%
X150800000Y-94000000D03*
X125200000Y-94000000D03*
D17*
%TO.P,BT101,2,-*%
%TO.N,GND*%
X138000000Y-94000000D03*
%TD*%
D18*
%TO.N,GND*%
X125300000Y-99200000D03*
X132800000Y-85500000D03*
X143300000Y-82500000D03*
X128832500Y-98232500D03*
X126812500Y-89187500D03*
X137450000Y-103500000D03*
X142600000Y-94962500D03*
X123150000Y-89157880D03*
X128200000Y-95100000D03*
X145600000Y-88300000D03*
X143200000Y-93750000D03*
X133765000Y-95700000D03*
%TO.N,~{RESET}*%
X148332500Y-90400000D03*
D19*
%TO.N,+BATT*%
X147750000Y-103100000D03*
D18*
%TO.N,INT*%
X125900000Y-90600000D03*
X127950000Y-90750000D03*
%TO.N,SDA*%
X128700000Y-91500000D03*
X128700000Y-86190380D03*
%TO.N,SWDIO*%
X147800000Y-85500000D03*
%TO.N,SWDCLK*%
X145700000Y-86250000D03*
%TD*%
D20*
%TO.N,Net-(BT101-+)*%
X145750000Y-104450000D02*
X145750000Y-101000000D01*
X125200000Y-96950000D02*
X132700000Y-104450000D01*
X125200000Y-94000000D02*
X125200000Y-96950000D01*
X132700000Y-104450000D02*
X145750000Y-104450000D01*
X145750000Y-101000000D02*
X150800000Y-95950000D01*
X150800000Y-95950000D02*
X150800000Y-94000000D01*
D21*
%TO.N,~{RESET}*%
X148332500Y-90400000D02*
X151110000Y-90400000D01*
X151110000Y-90400000D02*
X151970000Y-89540000D01*
D20*
%TO.N,+BATT*%
X147750000Y-104450000D02*
X147750000Y-103100000D01*
D21*
%TO.N,INT*%
X126800000Y-90600000D02*
X125900000Y-90600000D01*
X127950000Y-90750000D02*
X126950000Y-90750000D01*
X126950000Y-90750000D02*
X126800000Y-90600000D01*
%TO.N,SDA*%
X128700000Y-91500000D02*
X128700000Y-86190380D01*
%TO.N,SWDIO*%
X151617106Y-83400000D02*
X151970000Y-83752894D01*
X148600000Y-83400000D02*
X151617106Y-83400000D01*
X147800000Y-84200000D02*
X148600000Y-83400000D01*
X147800000Y-85500000D02*
X147800000Y-84200000D01*
X151970000Y-83752894D02*
X151970000Y-84460000D01*
%TO.N,SWDCLK*%
X145700000Y-84465380D02*
X147090380Y-83075000D01*
X151775000Y-83075000D02*
X152695000Y-83995000D01*
X147090380Y-83075000D02*
X151775000Y-83075000D01*
X145700000Y-86250000D02*
X145700000Y-84465380D01*
X152695000Y-83995000D02*
X152695000Y-85005000D01*
X152695000Y-85005000D02*
X151970000Y-85730000D01*
%TD*%
%TA.AperFunction,Conductor*%
%TO.N,GND*%
G36*
X151188011Y-87398208D02*
G01*
X151255638Y-87296998D01*
X151255639Y-87296996D01*
X151278068Y-87242847D01*
X151311893Y-87209022D01*
X151359728Y-87209021D01*
X151393553Y-87242846D01*
X151415687Y-87296283D01*
X151415688Y-87296285D01*
X151415689Y-87296286D01*
X151484142Y-87398733D01*
X151571267Y-87485858D01*
X151673714Y-87554311D01*
X151673715Y-87554311D01*
X151673716Y-87554312D01*
X151729112Y-87577258D01*
X151762937Y-87611083D01*
X151762936Y-87658918D01*
X151729112Y-87692742D01*
X151673716Y-87715687D01*
X151673712Y-87715690D01*
X151571267Y-87784141D01*
X151484141Y-87871267D01*
X151415690Y-87973712D01*
X151415687Y-87973716D01*
X151392742Y-88029112D01*
X151358917Y-88062937D01*
X151311082Y-88062936D01*
X151277258Y-88029112D01*
X151254312Y-87973716D01*
X151254311Y-87973715D01*
X151254311Y-87973714D01*
X151185858Y-87871267D01*
X151098733Y-87784142D01*
X150996286Y-87715689D01*
X150996285Y-87715688D01*
X150996283Y-87715687D01*
X150942846Y-87693553D01*
X150909021Y-87659728D01*
X150909022Y-87611893D01*
X150942847Y-87578068D01*
X150996996Y-87555639D01*
X150996998Y-87555638D01*
X151098208Y-87488011D01*
X150880983Y-87270785D01*
X150899554Y-87260064D01*
X150960064Y-87199554D01*
X150970786Y-87180983D01*
X151188011Y-87398208D01*
G37*
%TD.AperFunction*%
%TA.AperFunction,Conductor*%
G36*
X151188011Y-86128208D02*
G01*
X151255638Y-86026998D01*
X151255639Y-86026996D01*
X151278068Y-85972847D01*
X151311893Y-85939022D01*
X151359728Y-85939021D01*
X151393553Y-85972846D01*
X151415687Y-86026283D01*
X151415688Y-86026285D01*
X151415689Y-86026286D01*
X151484142Y-86128733D01*
X151571267Y-86215858D01*
X151673714Y-86284311D01*
X151673715Y-86284311D01*
X151673716Y-86284312D01*
X151729112Y-86307258D01*
X151762937Y-86341083D01*
X151762936Y-86388918D01*
X151729112Y-86422742D01*
X151673716Y-86445687D01*
X151673712Y-86445690D01*
X151571267Y-86514141D01*
X151484141Y-86601267D01*
X151415690Y-86703712D01*
X151415687Y-86703716D01*
X151393553Y-86757153D01*
X151359728Y-86790978D01*
X151311893Y-86790977D01*
X151278068Y-86757152D01*
X151255638Y-86703001D01*
X151188011Y-86601790D01*
X150970785Y-86819015D01*
X150960064Y-86800446D01*
X150899554Y-86739936D01*
X150880981Y-86729213D01*
X151098208Y-86511987D01*
X150996997Y-86444361D01*
X150996998Y-86444361D01*
X150944806Y-86422743D01*
X150910981Y-86388918D01*
X150910980Y-86341083D01*
X150944806Y-86307257D01*
X150996995Y-86285639D01*
X150996998Y-86285638D01*
X151098208Y-86218011D01*
X150880983Y-86000785D01*
X150899554Y-85990064D01*
X150960064Y-85929554D01*
X150970786Y-85910983D01*
X151188011Y-86128208D01*
G37*
%TD.AperFunction*%
%TA.AperFunction,Conductor*%
G36*
X151432193Y-84783149D02*
G01*
X151439965Y-84792618D01*
X151484142Y-84858733D01*
X151571267Y-84945858D01*
X151673714Y-85014311D01*
X151673715Y-85014311D01*
X151673716Y-85014312D01*
X151729112Y-85037258D01*
X151762937Y-85071083D01*
X151762936Y-85118918D01*
X151729112Y-85152742D01*
X151673716Y-85175687D01*
X151673712Y-85175690D01*
X151571267Y-85244141D01*
X151484141Y-85331267D01*
X151415690Y-85433712D01*
X151415687Y-85433716D01*
X151393553Y-85487153D01*
X151359728Y-85520978D01*
X151311893Y-85520977D01*
X151278068Y-85487152D01*
X151255638Y-85433001D01*
X151188011Y-85331790D01*
X150970785Y-85549015D01*
X150960064Y-85530446D01*
X150899554Y-85469936D01*
X150880981Y-85459213D01*
X151098208Y-85241987D01*
X151035318Y-85199966D01*
X151008742Y-85160192D01*
X151018074Y-85113276D01*
X151057848Y-85086700D01*
X151070039Y-85085499D01*
X151212362Y-85085499D01*
X151248968Y-85078219D01*
X151290481Y-85050481D01*
X151318219Y-85008968D01*
X151325500Y-84972363D01*
X151325499Y-84827340D01*
X151343805Y-84783149D01*
X151387999Y-84764843D01*
X151432193Y-84783149D01*
G37*
%TD.AperFunction*%
%TA.AperFunction,Conductor*%
G36*
X153003056Y-82125801D02*
G01*
X153164482Y-82141699D01*
X153176491Y-82144088D01*
X153321250Y-82188000D01*
X153328766Y-82190280D01*
X153340085Y-82194969D01*
X153480420Y-82269980D01*
X153490607Y-82276787D01*
X153613606Y-82377729D01*
X153622270Y-82386393D01*
X153723212Y-82509392D01*
X153730019Y-82519579D01*
X153805030Y-82659914D01*
X153809719Y-82671233D01*
X153855910Y-82823504D01*
X153858300Y-82835521D01*
X153874199Y-82996943D01*
X153874500Y-83003069D01*
X153874500Y-104996930D01*
X153874199Y-105003056D01*
X153858300Y-105164478D01*
X153855910Y-105176495D01*
X153809719Y-105328766D01*
X153805030Y-105340085D01*
X153730019Y-105480420D01*
X153723212Y-105490607D01*
X153622270Y-105613606D01*
X153613606Y-105622270D01*
X153490607Y-105723212D01*
X153480420Y-105730019D01*
X153340085Y-105805030D01*
X153328766Y-105809719D01*
X153176495Y-105855910D01*
X153164478Y-105858300D01*
X153003056Y-105874199D01*
X152996930Y-105874500D01*
X123003070Y-105874500D01*
X122996944Y-105874199D01*
X122835521Y-105858300D01*
X122823504Y-105855910D01*
X122671233Y-105809719D01*
X122659914Y-105805030D01*
X122519579Y-105730019D01*
X122509392Y-105723212D01*
X122386393Y-105622270D01*
X122377729Y-105613606D01*
X122276787Y-105490607D01*
X122269980Y-105480420D01*
X122194969Y-105340085D01*
X122190280Y-105328766D01*
X122189867Y-105327405D01*
X122144088Y-105176491D01*
X122141699Y-105164478D01*
X122125801Y-105003056D01*
X122125500Y-104996930D01*
X122125500Y-102907488D01*
X123824500Y-102907488D01*
X123824500Y-103092511D01*
X123824501Y-103092527D01*
X123853444Y-103275261D01*
X123853444Y-103275262D01*
X123910620Y-103451233D01*
X123910621Y-103451236D01*
X123935144Y-103499364D01*
X123994622Y-103616096D01*
X123994625Y-103616100D01*
X124103378Y-103765786D01*
X124103385Y-103765794D01*
X124234205Y-103896614D01*
X124234213Y-103896621D01*
X124383904Y-104005378D01*
X124548765Y-104089379D01*
X124724736Y-104146555D01*
X124801755Y-104158753D01*
X124907472Y-104175498D01*
X124907478Y-104175498D01*
X124907486Y-104175500D01*
X124907488Y-104175500D01*
X125092512Y-104175500D01*
X125092514Y-104175500D01*
X125275264Y-104146555D01*
X125451235Y-104089379D01*
X125616096Y-104005378D01*
X125765787Y-103896621D01*
X125896621Y-103765787D01*
X126005378Y-103616096D01*
X126089379Y-103451235D01*
X126146555Y-103275264D01*
X126175500Y-103092514D01*
X126175500Y-102907486D01*
X126146555Y-102724736D01*
X126089379Y-102548765D01*
X126005378Y-102383904D01*
X125896621Y-102234213D01*
X125896614Y-102234205D01*
X125765794Y-102103385D01*
X125765786Y-102103378D01*
X125616100Y-101994625D01*
X125616096Y-101994622D01*
X125508325Y-101939710D01*
X125451236Y-101910621D01*
X125451233Y-101910620D01*
X125275262Y-101853444D01*
X125092527Y-101824501D01*
X125092515Y-101824500D01*
X125092514Y-101824500D01*
X124907486Y-101824500D01*
X124907484Y-101824500D01*
X124907472Y-101824501D01*
X124724738Y-101853444D01*
X124724737Y-101853444D01*
X124548766Y-101910620D01*
X124548763Y-101910621D01*
X124441324Y-101965365D01*
X124383904Y-101994622D01*
X124383901Y-101994623D01*
X124383899Y-101994625D01*
X124234213Y-102103378D01*
X124234205Y-102103385D01*
X124103385Y-102234205D01*
X124103378Y-102234213D01*
X123994625Y-102383899D01*
X123910621Y-102548763D01*
X123910620Y-102548766D01*
X123853444Y-102724737D01*
X123853444Y-102724738D01*
X123824501Y-102907472D01*
X123824500Y-102907488D01*
X122125500Y-102907488D01*
X122125500Y-91437636D01*
X122524500Y-91437636D01*
X122524500Y-96562358D01*
X122524501Y-96562362D01*
X122527608Y-96577984D01*
X122531780Y-96598967D01*
X122531781Y-96598968D01*
X122559519Y-96640481D01*
X122601032Y-96668219D01*
X122637637Y-96675500D01*
X124812000Y-96675499D01*
X124856194Y-96693805D01*
X124874500Y-96737999D01*
X124874500Y-96992851D01*
X124874501Y-96992859D01*
X124896680Y-97075635D01*
X124896684Y-97075644D01*
X124939532Y-97149858D01*
X124939539Y-97149867D01*
X132437347Y-104647673D01*
X132437352Y-104647679D01*
X132439535Y-104649862D01*
X132500138Y-104710465D01*
X132537248Y-104731890D01*
X132537249Y-104731891D01*
X132537250Y-104731891D01*
X132574363Y-104753319D01*
X132657141Y-104775500D01*
X132657147Y-104775501D01*
X132746678Y-104775501D01*
X132746694Y-104775500D01*
X144962000Y-104775500D01*
X145006194Y-104793806D01*
X145024500Y-104838000D01*
X145024500Y-104935635D01*
X145035134Y-105008625D01*
X145035134Y-105008626D01*
X145090172Y-105121209D01*
X145178790Y-105209827D01*
X145235082Y-105237346D01*
X145291375Y-105264866D01*
X145364364Y-105275500D01*
X146135636Y-105275500D01*
X146208625Y-105264866D01*
X146321211Y-105209826D01*
X146409826Y-105121211D01*
X146464866Y-105008625D01*
X146475500Y-104935636D01*
X146475500Y-103964364D01*
X147024500Y-103964364D01*
X147024500Y-104935635D01*
X147035134Y-105008625D01*
X147035134Y-105008626D01*
X147090172Y-105121209D01*
X147178790Y-105209827D01*
X147235082Y-105237346D01*
X147291375Y-105264866D01*
X147364364Y-105275500D01*
X148135636Y-105275500D01*
X148208625Y-105264866D01*
X148321211Y-105209826D01*
X148409826Y-105121211D01*
X148464866Y-105008625D01*
X148475500Y-104935636D01*
X148475500Y-103964364D01*
X148464866Y-103891375D01*
X148462568Y-103886674D01*
X148409827Y-103778790D01*
X148321209Y-103690172D01*
X148208625Y-103635134D01*
X148135631Y-103624499D01*
X148133476Y-103624343D01*
X148113970Y-103614553D01*
X148093806Y-103606201D01*
X148092881Y-103603969D01*
X148090723Y-103602886D01*
X148075500Y-103562007D01*
X148075500Y-103543558D01*
X148093806Y-103499364D01*
X148170505Y-103422665D01*
X148239688Y-103302836D01*
X148275500Y-103169183D01*
X148275500Y-103030817D01*
X148242454Y-102907488D01*
X149824500Y-102907488D01*
X149824500Y-103092511D01*
X149824501Y-103092527D01*
X149853444Y-103275261D01*
X149853444Y-103275262D01*
X149910620Y-103451233D01*
X149910621Y-103451236D01*
X149935144Y-103499364D01*
X149994622Y-103616096D01*
X149994625Y-103616100D01*
X150103378Y-103765786D01*
X150103385Y-103765794D01*
X150234205Y-103896614D01*
X150234213Y-103896621D01*
X150383904Y-104005378D01*
X150548765Y-104089379D01*
X150724736Y-104146555D01*
X150801755Y-104158753D01*
X150907472Y-104175498D01*
X150907478Y-104175498D01*
X150907486Y-104175500D01*
X150907488Y-104175500D01*
X151092512Y-104175500D01*
X151092514Y-104175500D01*
X151275264Y-104146555D01*
X151451235Y-104089379D01*
X151616096Y-104005378D01*
X151765787Y-103896621D01*
X151896621Y-103765787D01*
X152005378Y-103616096D01*
X152089379Y-103451235D01*
X152146555Y-103275264D01*
X152175500Y-103092514D01*
X152175500Y-102907486D01*
X152146555Y-102724736D01*
X152089379Y-102548765D01*
X152005378Y-102383904D01*
X151896621Y-102234213D01*
X151896614Y-102234205D01*
X151765794Y-102103385D01*
X151765786Y-102103378D01*
X151616100Y-101994625D01*
X151616096Y-101994622D01*
X151508325Y-101939710D01*
X151451236Y-101910621D01*
X151451233Y-101910620D01*
X151275262Y-101853444D01*
X151092527Y-101824501D01*
X151092515Y-101824500D01*
X151092514Y-101824500D01*
X150907486Y-101824500D01*
X150907484Y-101824500D01*
X150907472Y-101824501D01*
X150724738Y-101853444D01*
X150724737Y-101853444D01*
X150548766Y-101910620D01*
X150548763Y-101910621D01*
X150441324Y-101965365D01*
X150383904Y-101994622D01*
X150383901Y-101994623D01*
X150383899Y-101994625D01*
X150234213Y-102103378D01*
X150234205Y-102103385D01*
X150103385Y-102234205D01*
X150103378Y-102234213D01*
X149994625Y-102383899D01*
X149910621Y-102548763D01*
X149910620Y-102548766D01*
X149853444Y-102724737D01*
X149853444Y-102724738D01*
X149824501Y-102907472D01*
X149824500Y-102907488D01*
X148242454Y-102907488D01*
X148239688Y-102897164D01*
X148170505Y-102777335D01*
X148170503Y-102777333D01*
X148170500Y-102777329D01*
X148072670Y-102679499D01*
X148072666Y-102679496D01*
X148072665Y-102679495D01*
X148009324Y-102642925D01*
X147952835Y-102610311D01*
X147952832Y-102610310D01*
X147819189Y-102574501D01*
X147819184Y-102574500D01*
X147819183Y-102574500D01*
X147680817Y-102574500D01*
X147680816Y-102574500D01*
X147680810Y-102574501D01*
X147547167Y-102610310D01*
X147547164Y-102610311D01*
X147427333Y-102679496D01*
X147427329Y-102679499D01*
X147329499Y-102777329D01*
X147329496Y-102777333D01*
X147260311Y-102897164D01*
X147260310Y-102897167D01*
X147224501Y-103030810D01*
X147224500Y-103030818D01*
X147224500Y-103169181D01*
X147224501Y-103169189D01*
X147260310Y-103302832D01*
X147260311Y-103302835D01*
X147329496Y-103422666D01*
X147406194Y-103499364D01*
X147424500Y-103543558D01*
X147424500Y-103562007D01*
X147406194Y-103606201D01*
X147366524Y-103624343D01*
X147364368Y-103624499D01*
X147291374Y-103635134D01*
X147291373Y-103635134D01*
X147178790Y-103690172D01*
X147090172Y-103778790D01*
X147035134Y-103891373D01*
X147035134Y-103891374D01*
X147024500Y-103964364D01*
X146475500Y-103964364D01*
X146464866Y-103891375D01*
X146462568Y-103886674D01*
X146409827Y-103778790D01*
X146321209Y-103690172D01*
X146208625Y-103635134D01*
X146135631Y-103624499D01*
X146133476Y-103624343D01*
X146090723Y-103602886D01*
X146075500Y-103562007D01*
X146075500Y-101160714D01*
X146093805Y-101116521D01*
X150516521Y-96693804D01*
X150560715Y-96675499D01*
X153362359Y-96675499D01*
X153362362Y-96675499D01*
X153398968Y-96668219D01*
X153440481Y-96640481D01*
X153468219Y-96598968D01*
X153475500Y-96562363D01*
X153475499Y-91437638D01*
X153468219Y-91401032D01*
X153440481Y-91359519D01*
X153412869Y-91341069D01*
X153398970Y-91331782D01*
X153398966Y-91331780D01*
X153371450Y-91326307D01*
X153362363Y-91324500D01*
X153362362Y-91324500D01*
X148237641Y-91324500D01*
X148237640Y-91324500D01*
X148237638Y-91324501D01*
X148227222Y-91326572D01*
X148201032Y-91331780D01*
X148159519Y-91359519D01*
X148131782Y-91401029D01*
X148131780Y-91401033D01*
X148124500Y-91437636D01*
X148124500Y-96562358D01*
X148124501Y-96562362D01*
X148127608Y-96577984D01*
X148131780Y-96598967D01*
X148131781Y-96598968D01*
X148159519Y-96640481D01*
X148201032Y-96668219D01*
X148237637Y-96675500D01*
X149463284Y-96675499D01*
X149507478Y-96693805D01*
X149525784Y-96737999D01*
X149507478Y-96782193D01*
X145489539Y-100800132D01*
X145489532Y-100800141D01*
X145446683Y-100874357D01*
X145444553Y-100882308D01*
X145444552Y-100882312D01*
X145424500Y-100957142D01*
X145424500Y-103562007D01*
X145406194Y-103606201D01*
X145366524Y-103624343D01*
X145364368Y-103624499D01*
X145291374Y-103635134D01*
X145291373Y-103635134D01*
X145178790Y-103690172D01*
X145090172Y-103778790D01*
X145035134Y-103891373D01*
X145035134Y-103891374D01*
X145024500Y-103964364D01*
X145024500Y-104062000D01*
X145006194Y-104106194D01*
X144962000Y-104124500D01*
X132860714Y-104124500D01*
X132816520Y-104106194D01*
X129156587Y-100446260D01*
X129138281Y-100427954D01*
X131661847Y-100427954D01*
X131825900Y-100592007D01*
X131825918Y-100592024D01*
X132270256Y-100981697D01*
X132270265Y-100981704D01*
X132739174Y-101341509D01*
X133230572Y-101669851D01*
X133742419Y-101965365D01*
X134272506Y-102226776D01*
X134818512Y-102452940D01*
X134818531Y-102452947D01*
X135378188Y-102642925D01*
X135378221Y-102642935D01*
X135949069Y-102795893D01*
X135949105Y-102795901D01*
X136528750Y-102911200D01*
X136528760Y-102911202D01*
X137114697Y-102988341D01*
X137114733Y-102988345D01*
X137704486Y-103027000D01*
X138295514Y-103027000D01*
X138885266Y-102988345D01*
X138885302Y-102988341D01*
X139471239Y-102911202D01*
X139471249Y-102911200D01*
X140050894Y-102795901D01*
X140050930Y-102795893D01*
X140621778Y-102642935D01*
X140621811Y-102642925D01*
X141181468Y-102452947D01*
X141181487Y-102452940D01*
X141727493Y-102226776D01*
X142257580Y-101965365D01*
X142769427Y-101669851D01*
X143260825Y-101341509D01*
X143729734Y-100981704D01*
X143729743Y-100981697D01*
X144174081Y-100592024D01*
X144174099Y-100592007D01*
X144338152Y-100427954D01*
X138000000Y-94089802D01*
X131661847Y-100427954D01*
X129138281Y-100427954D01*
X125543806Y-96833479D01*
X125525500Y-96789285D01*
X125525500Y-96737999D01*
X125543806Y-96693805D01*
X125588000Y-96675499D01*
X127762359Y-96675499D01*
X127762362Y-96675499D01*
X127798968Y-96668219D01*
X127840481Y-96640481D01*
X127868219Y-96598968D01*
X127875500Y-96562363D01*
X127875499Y-93704485D01*
X128973000Y-93704485D01*
X128973000Y-94295514D01*
X129011654Y-94885266D01*
X129011658Y-94885302D01*
X129088797Y-95471239D01*
X129088799Y-95471249D01*
X129204098Y-96050894D01*
X129204106Y-96050930D01*
X129357064Y-96621778D01*
X129357074Y-96621811D01*
X129547052Y-97181468D01*
X129547059Y-97181487D01*
X129773223Y-97727493D01*
X130034634Y-98257580D01*
X130330148Y-98769427D01*
X130658490Y-99260825D01*
X131018295Y-99729734D01*
X131018302Y-99729743D01*
X131407975Y-100174081D01*
X131407992Y-100174099D01*
X131572045Y-100338152D01*
X137910197Y-94000000D01*
X137910197Y-93999999D01*
X138089802Y-93999999D01*
X138089802Y-94000000D01*
X144427954Y-100338152D01*
X144592007Y-100174099D01*
X144592024Y-100174081D01*
X144981697Y-99729743D01*
X144981704Y-99729734D01*
X145341509Y-99260825D01*
X145669851Y-98769427D01*
X145965365Y-98257580D01*
X146226776Y-97727493D01*
X146452940Y-97181487D01*
X146452947Y-97181468D01*
X146642925Y-96621811D01*
X146642935Y-96621778D01*
X146795893Y-96050930D01*
X146795901Y-96050894D01*
X146911200Y-95471249D01*
X146911202Y-95471239D01*
X146988341Y-94885302D01*
X146988345Y-94885266D01*
X147027000Y-94295514D01*
X147027000Y-93704485D01*
X146988345Y-93114733D01*
X146988341Y-93114697D01*
X146911202Y-92528760D01*
X146911200Y-92528750D01*
X146795901Y-91949105D01*
X146795893Y-91949069D01*
X146642935Y-91378221D01*
X146642925Y-91378188D01*
X146452947Y-90818531D01*
X146452940Y-90818512D01*
X146226776Y-90272506D01*
X145965365Y-89742419D01*
X145669851Y-89230572D01*
X145341509Y-88739174D01*
X144981704Y-88270265D01*
X144981697Y-88270256D01*
X144592024Y-87825918D01*
X144592007Y-87825900D01*
X144427954Y-87661847D01*
X138089802Y-93999999D01*
X137910197Y-93999999D01*
X131572045Y-87661847D01*
X131407992Y-87825900D01*
X131407975Y-87825918D01*
X131018302Y-88270256D01*
X131018295Y-88270265D01*
X130658490Y-88739174D01*
X130330148Y-89230572D01*
X130034634Y-89742419D01*
X129773223Y-90272506D01*
X129547059Y-90818512D01*
X129547052Y-90818531D01*
X129357074Y-91378188D01*
X129357064Y-91378221D01*
X129204106Y-91949069D01*
X129204098Y-91949105D01*
X129088799Y-92528750D01*
X129088797Y-92528760D01*
X129011658Y-93114697D01*
X129011654Y-93114733D01*
X128973000Y-93704485D01*
X127875499Y-93704485D01*
X127875499Y-91437638D01*
X127868219Y-91401032D01*
X127840481Y-91359519D01*
X127812869Y-91341069D01*
X127798970Y-91331782D01*
X127798966Y-91331780D01*
X127771450Y-91326307D01*
X127762363Y-91324500D01*
X127762362Y-91324500D01*
X122637641Y-91324500D01*
X122637640Y-91324500D01*
X122637638Y-91324501D01*
X122627222Y-91326572D01*
X122601032Y-91331780D01*
X122559519Y-91359519D01*
X122531782Y-91401029D01*
X122531780Y-91401033D01*
X122524500Y-91437636D01*
X122125500Y-91437636D01*
X122125500Y-90553857D01*
X125549500Y-90553857D01*
X125549500Y-90646142D01*
X125549501Y-90646150D01*
X125573385Y-90735287D01*
X125573386Y-90735290D01*
X125619530Y-90815211D01*
X125619535Y-90815217D01*
X125684782Y-90880464D01*
X125684788Y-90880469D01*
X125764709Y-90926613D01*
X125764712Y-90926614D01*
X125853856Y-90950500D01*
X125853857Y-90950500D01*
X125946143Y-90950500D01*
X125946144Y-90950500D01*
X126035288Y-90926614D01*
X126115212Y-90880469D01*
X126151875Y-90843805D01*
X126196068Y-90825500D01*
X126680707Y-90825500D01*
X126724901Y-90843806D01*
X126755261Y-90874166D01*
X126755274Y-90874181D01*
X126807707Y-90926613D01*
X126822264Y-90941170D01*
X126844789Y-90950500D01*
X126905145Y-90975501D01*
X127002128Y-90975501D01*
X127002136Y-90975500D01*
X127653931Y-90975500D01*
X127698125Y-90993806D01*
X127734783Y-91030464D01*
X127734787Y-91030468D01*
X127734788Y-91030469D01*
X127814709Y-91076613D01*
X127814712Y-91076614D01*
X127903856Y-91100500D01*
X127903857Y-91100500D01*
X127996143Y-91100500D01*
X127996144Y-91100500D01*
X128085288Y-91076614D01*
X128165212Y-91030469D01*
X128230469Y-90965212D01*
X128276614Y-90885288D01*
X128300500Y-90796144D01*
X128300500Y-90703856D01*
X128276614Y-90614712D01*
X128276613Y-90614709D01*
X128230469Y-90534788D01*
X128230464Y-90534782D01*
X128165217Y-90469535D01*
X128165211Y-90469530D01*
X128085290Y-90423386D01*
X128085287Y-90423385D01*
X127996150Y-90399501D01*
X127996145Y-90399500D01*
X127996144Y-90399500D01*
X127903856Y-90399500D01*
X127903855Y-90399500D01*
X127903849Y-90399501D01*
X127814712Y-90423385D01*
X127814709Y-90423386D01*
X127734788Y-90469530D01*
X127734787Y-90469531D01*
X127723264Y-90481055D01*
X127698124Y-90506194D01*
X127653932Y-90524500D01*
X127069293Y-90524500D01*
X127025099Y-90506194D01*
X126999961Y-90481056D01*
X126999961Y-90481055D01*
X126927738Y-90408831D01*
X126927736Y-90408830D01*
X126903460Y-90398774D01*
X126903459Y-90398773D01*
X126844857Y-90374499D01*
X126844855Y-90374499D01*
X126755145Y-90374499D01*
X126747872Y-90374499D01*
X126747864Y-90374500D01*
X126196069Y-90374500D01*
X126151875Y-90356194D01*
X126115212Y-90319531D01*
X126115211Y-90319530D01*
X126035290Y-90273386D01*
X126035287Y-90273385D01*
X125946150Y-90249501D01*
X125946145Y-90249500D01*
X125946144Y-90249500D01*
X125853856Y-90249500D01*
X125853855Y-90249500D01*
X125853849Y-90249501D01*
X125764712Y-90273385D01*
X125764709Y-90273386D01*
X125684788Y-90319530D01*
X125684782Y-90319535D01*
X125619535Y-90384782D01*
X125619530Y-90384788D01*
X125573386Y-90464709D01*
X125573385Y-90464712D01*
X125549501Y-90553849D01*
X125549500Y-90553857D01*
X122125500Y-90553857D01*
X122125500Y-85255145D01*
X122474500Y-85255145D01*
X122474500Y-87044855D01*
X122508830Y-87127736D01*
X122572264Y-87191170D01*
X122655145Y-87225500D01*
X122655147Y-87225500D01*
X124444853Y-87225500D01*
X124444855Y-87225500D01*
X124527736Y-87191170D01*
X124591170Y-87127736D01*
X124625500Y-87044855D01*
X124625500Y-86144237D01*
X128349500Y-86144237D01*
X128349500Y-86236522D01*
X128349501Y-86236530D01*
X128373385Y-86325667D01*
X128373386Y-86325670D01*
X128419530Y-86405591D01*
X128419531Y-86405592D01*
X128456194Y-86442255D01*
X128474500Y-86486448D01*
X128474500Y-91203930D01*
X128456194Y-91248124D01*
X128419535Y-91284782D01*
X128419530Y-91284788D01*
X128373386Y-91364709D01*
X128373385Y-91364712D01*
X128349501Y-91453849D01*
X128349500Y-91453857D01*
X128349500Y-91546142D01*
X128349501Y-91546150D01*
X128373385Y-91635287D01*
X128373386Y-91635290D01*
X128419530Y-91715211D01*
X128419535Y-91715217D01*
X128484782Y-91780464D01*
X128484788Y-91780469D01*
X128564709Y-91826613D01*
X128564712Y-91826614D01*
X128653856Y-91850500D01*
X128653857Y-91850500D01*
X128746143Y-91850500D01*
X128746144Y-91850500D01*
X128835288Y-91826614D01*
X128915212Y-91780469D01*
X128980469Y-91715212D01*
X129026614Y-91635288D01*
X129050500Y-91546144D01*
X129050500Y-91453856D01*
X129026614Y-91364712D01*
X129026613Y-91364709D01*
X128980469Y-91284788D01*
X128980464Y-91284782D01*
X128943806Y-91248124D01*
X128925500Y-91203930D01*
X128925500Y-87572045D01*
X131661847Y-87572045D01*
X137999999Y-93910197D01*
X144338152Y-87572045D01*
X144174099Y-87407992D01*
X144174081Y-87407975D01*
X143729743Y-87018302D01*
X143729719Y-87018283D01*
X143686032Y-86984761D01*
X143686031Y-86984761D01*
X143260825Y-86658490D01*
X142769427Y-86330148D01*
X142637338Y-86253887D01*
X142550683Y-86203857D01*
X145349500Y-86203857D01*
X145349500Y-86296142D01*
X145349501Y-86296150D01*
X145373385Y-86385287D01*
X145373386Y-86385290D01*
X145419530Y-86465211D01*
X145419535Y-86465217D01*
X145484782Y-86530464D01*
X145484788Y-86530469D01*
X145564709Y-86576613D01*
X145564712Y-86576614D01*
X145653856Y-86600500D01*
X145653857Y-86600500D01*
X145746143Y-86600500D01*
X145746144Y-86600500D01*
X145835288Y-86576614D01*
X145915212Y-86530469D01*
X145980469Y-86465212D01*
X146026614Y-86385288D01*
X146050500Y-86296144D01*
X146050500Y-86203856D01*
X146050500Y-86203853D01*
X146026614Y-86114712D01*
X146026613Y-86114709D01*
X145980469Y-86034788D01*
X145980464Y-86034782D01*
X145943806Y-85998124D01*
X145925500Y-85953930D01*
X145925500Y-84584673D01*
X145943806Y-84540479D01*
X147165479Y-83318806D01*
X147209673Y-83300500D01*
X148229707Y-83300500D01*
X148273901Y-83318806D01*
X148292207Y-83363000D01*
X148273901Y-83407194D01*
X147672265Y-84008829D01*
X147608829Y-84072264D01*
X147604072Y-84083750D01*
X147604072Y-84083751D01*
X147574499Y-84155143D01*
X147574499Y-84252127D01*
X147574500Y-84252136D01*
X147574500Y-85203930D01*
X147556194Y-85248124D01*
X147519535Y-85284782D01*
X147519530Y-85284788D01*
X147473386Y-85364709D01*
X147473385Y-85364712D01*
X147449501Y-85453849D01*
X147449500Y-85453857D01*
X147449500Y-85546142D01*
X147449501Y-85546150D01*
X147473385Y-85635287D01*
X147473386Y-85635290D01*
X147519530Y-85715211D01*
X147519535Y-85715217D01*
X147584782Y-85780464D01*
X147584788Y-85780469D01*
X147664709Y-85826613D01*
X147664712Y-85826614D01*
X147753856Y-85850500D01*
X147753857Y-85850500D01*
X147846143Y-85850500D01*
X147846144Y-85850500D01*
X147935288Y-85826614D01*
X148015212Y-85780469D01*
X148080469Y-85715212D01*
X148126614Y-85635288D01*
X148150500Y-85546144D01*
X148150500Y-85453856D01*
X148126614Y-85364712D01*
X148126613Y-85364709D01*
X148080469Y-85284788D01*
X148080464Y-85284782D01*
X148043806Y-85248124D01*
X148025500Y-85203930D01*
X148025500Y-84319293D01*
X148043806Y-84275099D01*
X148675099Y-83643806D01*
X148719293Y-83625500D01*
X151497813Y-83625500D01*
X151542007Y-83643806D01*
X151699621Y-83801420D01*
X151717927Y-83845614D01*
X151699621Y-83889808D01*
X151679347Y-83903355D01*
X151673718Y-83905686D01*
X151673712Y-83905690D01*
X151571267Y-83974141D01*
X151484144Y-84061264D01*
X151439966Y-84127381D01*
X151400192Y-84153956D01*
X151353275Y-84144624D01*
X151326700Y-84104850D01*
X151325499Y-84092657D01*
X151325499Y-83947641D01*
X151325499Y-83947638D01*
X151318219Y-83911032D01*
X151290481Y-83869519D01*
X151254705Y-83845614D01*
X151248970Y-83841782D01*
X151248966Y-83841780D01*
X151221450Y-83836307D01*
X151212363Y-83834500D01*
X151212362Y-83834500D01*
X150187641Y-83834500D01*
X150187640Y-83834500D01*
X150187638Y-83834501D01*
X150177222Y-83836572D01*
X150151032Y-83841780D01*
X150109519Y-83869519D01*
X150081782Y-83911029D01*
X150081780Y-83911033D01*
X150074500Y-83947636D01*
X150074500Y-84972358D01*
X150074501Y-84972362D01*
X150074628Y-84973000D01*
X150081780Y-85008967D01*
X150083578Y-85011658D01*
X150109519Y-85050481D01*
X150151032Y-85078219D01*
X150187637Y-85085500D01*
X150329959Y-85085499D01*
X150374151Y-85103805D01*
X150392457Y-85147999D01*
X150374151Y-85192193D01*
X150364680Y-85199966D01*
X150301790Y-85241987D01*
X150519016Y-85459213D01*
X150500446Y-85469936D01*
X150439936Y-85530446D01*
X150429213Y-85549016D01*
X150211987Y-85331790D01*
X150144361Y-85433000D01*
X150144360Y-85433003D01*
X150097094Y-85547112D01*
X150073000Y-85668245D01*
X150073000Y-85791754D01*
X150097094Y-85912887D01*
X150097094Y-85912888D01*
X150144358Y-86026993D01*
X150144361Y-86026997D01*
X150211987Y-86128208D01*
X150429213Y-85910981D01*
X150439936Y-85929554D01*
X150500446Y-85990064D01*
X150519016Y-86000785D01*
X150301790Y-86218011D01*
X150403002Y-86285638D01*
X150403006Y-86285641D01*
X150455194Y-86307258D01*
X150489018Y-86341082D01*
X150489018Y-86388918D01*
X150455194Y-86422742D01*
X150403003Y-86444360D01*
X150403000Y-86444361D01*
X150301790Y-86511987D01*
X150519016Y-86729213D01*
X150500446Y-86739936D01*
X150439936Y-86800446D01*
X150429213Y-86819016D01*
X150211987Y-86601790D01*
X150144361Y-86703000D01*
X150144360Y-86703003D01*
X150097094Y-86817112D01*
X150073000Y-86938245D01*
X150073000Y-87061754D01*
X150097094Y-87182887D01*
X150097094Y-87182888D01*
X150144358Y-87296993D01*
X150144361Y-87296997D01*
X150211987Y-87398208D01*
X150429213Y-87180981D01*
X150439936Y-87199554D01*
X150500446Y-87260064D01*
X150519016Y-87270785D01*
X150301790Y-87488011D01*
X150403002Y-87555638D01*
X150403001Y-87555638D01*
X150457152Y-87578068D01*
X150490977Y-87611893D01*
X150490978Y-87659728D01*
X150457153Y-87693553D01*
X150403716Y-87715687D01*
X150403712Y-87715690D01*
X150301267Y-87784141D01*
X150214141Y-87871267D01*
X150145690Y-87973712D01*
X150145687Y-87973716D01*
X150098537Y-88087546D01*
X150098536Y-88087549D01*
X150074500Y-88208393D01*
X150074500Y-88331606D01*
X150098536Y-88452450D01*
X150098537Y-88452453D01*
X150145687Y-88566283D01*
X150145688Y-88566285D01*
X150145689Y-88566286D01*
X150214142Y-88668733D01*
X150301267Y-88755858D01*
X150403714Y-88824311D01*
X150403715Y-88824311D01*
X150403716Y-88824312D01*
X150459112Y-88847258D01*
X150492937Y-88881083D01*
X150492936Y-88928918D01*
X150459112Y-88962742D01*
X150403716Y-88985687D01*
X150403712Y-88985690D01*
X150301267Y-89054141D01*
X150214141Y-89141267D01*
X150145690Y-89243712D01*
X150145687Y-89243716D01*
X150098537Y-89357546D01*
X150098536Y-89357549D01*
X150074500Y-89478393D01*
X150074500Y-89601606D01*
X150098536Y-89722450D01*
X150098537Y-89722453D01*
X150145687Y-89836283D01*
X150145690Y-89836287D01*
X150214141Y-89938732D01*
X150301267Y-90025858D01*
X150352413Y-90060033D01*
X150378989Y-90099807D01*
X150369657Y-90146723D01*
X150329883Y-90173299D01*
X150317690Y-90174500D01*
X148628569Y-90174500D01*
X148584375Y-90156194D01*
X148547712Y-90119531D01*
X148547711Y-90119530D01*
X148467790Y-90073386D01*
X148467787Y-90073385D01*
X148378650Y-90049501D01*
X148378645Y-90049500D01*
X148378644Y-90049500D01*
X148286356Y-90049500D01*
X148286355Y-90049500D01*
X148286349Y-90049501D01*
X148197212Y-90073385D01*
X148197209Y-90073386D01*
X148117288Y-90119530D01*
X148117282Y-90119535D01*
X148052035Y-90184782D01*
X148052030Y-90184788D01*
X148005886Y-90264709D01*
X148005885Y-90264712D01*
X147982001Y-90353849D01*
X147982000Y-90353857D01*
X147982000Y-90446142D01*
X147982001Y-90446150D01*
X148005885Y-90535287D01*
X148005886Y-90535290D01*
X148052030Y-90615211D01*
X148052035Y-90615217D01*
X148117282Y-90680464D01*
X148117288Y-90680469D01*
X148197209Y-90726613D01*
X148197212Y-90726614D01*
X148286356Y-90750500D01*
X148286357Y-90750500D01*
X148378643Y-90750500D01*
X148378644Y-90750500D01*
X148467788Y-90726614D01*
X148547712Y-90680469D01*
X148584375Y-90643805D01*
X148628568Y-90625500D01*
X151057864Y-90625500D01*
X151057872Y-90625501D01*
X151065145Y-90625501D01*
X151154855Y-90625501D01*
X151184157Y-90613363D01*
X151213459Y-90601226D01*
X151213459Y-90601225D01*
X151213460Y-90601225D01*
X151237736Y-90591170D01*
X151301170Y-90527736D01*
X151301170Y-90527735D01*
X151309958Y-90518947D01*
X151309960Y-90518944D01*
X151687233Y-90141670D01*
X151731426Y-90123365D01*
X151755341Y-90128122D01*
X151787548Y-90141463D01*
X151908394Y-90165500D01*
X151908395Y-90165500D01*
X152031605Y-90165500D01*
X152031606Y-90165500D01*
X152152452Y-90141463D01*
X152266286Y-90094311D01*
X152368733Y-90025858D01*
X152455858Y-89938733D01*
X152524311Y-89836286D01*
X152571463Y-89722452D01*
X152595500Y-89601606D01*
X152595500Y-89478394D01*
X152571463Y-89357548D01*
X152524311Y-89243714D01*
X152455858Y-89141267D01*
X152368733Y-89054142D01*
X152266286Y-88985689D01*
X152210884Y-88962740D01*
X152177063Y-88928918D01*
X152177062Y-88881082D01*
X152210886Y-88847258D01*
X152266286Y-88824311D01*
X152368733Y-88755858D01*
X152455858Y-88668733D01*
X152524311Y-88566286D01*
X152571463Y-88452452D01*
X152595500Y-88331606D01*
X152595500Y-88208394D01*
X152571463Y-88087548D01*
X152524311Y-87973714D01*
X152455858Y-87871267D01*
X152368733Y-87784142D01*
X152266286Y-87715689D01*
X152210884Y-87692740D01*
X152177063Y-87658918D01*
X152177062Y-87611082D01*
X152210886Y-87577258D01*
X152266286Y-87554311D01*
X152368733Y-87485858D01*
X152455858Y-87398733D01*
X152524311Y-87296286D01*
X152571463Y-87182452D01*
X152595500Y-87061606D01*
X152595500Y-86938394D01*
X152571463Y-86817548D01*
X152524311Y-86703714D01*
X152455858Y-86601267D01*
X152368733Y-86514142D01*
X152288543Y-86460561D01*
X152266289Y-86445691D01*
X152266288Y-86445690D01*
X152266286Y-86445689D01*
X152210884Y-86422740D01*
X152177063Y-86388918D01*
X152177062Y-86341082D01*
X152210886Y-86307258D01*
X152266286Y-86284311D01*
X152368733Y-86215858D01*
X152455858Y-86128733D01*
X152524311Y-86026286D01*
X152571463Y-85912452D01*
X152595500Y-85791606D01*
X152595500Y-85668394D01*
X152571463Y-85547548D01*
X152558122Y-85515342D01*
X152558122Y-85467509D01*
X152571668Y-85447235D01*
X152813944Y-85204960D01*
X152813947Y-85204958D01*
X152822735Y-85196170D01*
X152822736Y-85196170D01*
X152886170Y-85132736D01*
X152905736Y-85085499D01*
X152920501Y-85049854D01*
X152920501Y-84960145D01*
X152920501Y-84955114D01*
X152920500Y-84955100D01*
X152920500Y-83950147D01*
X152920500Y-83950145D01*
X152886170Y-83867264D01*
X152822736Y-83803830D01*
X152822735Y-83803829D01*
X151974961Y-82956055D01*
X151902738Y-82883831D01*
X151902736Y-82883830D01*
X151878460Y-82873774D01*
X151878459Y-82873773D01*
X151819857Y-82849499D01*
X151819855Y-82849499D01*
X151730145Y-82849499D01*
X151722872Y-82849499D01*
X151722864Y-82849500D01*
X147045525Y-82849500D01*
X146962645Y-82883829D01*
X146962642Y-82883831D01*
X145508829Y-84337644D01*
X145504072Y-84349130D01*
X145504072Y-84349131D01*
X145474499Y-84420523D01*
X145474499Y-84517507D01*
X145474500Y-84517516D01*
X145474500Y-85953930D01*
X145456194Y-85998124D01*
X145419535Y-86034782D01*
X145419530Y-86034788D01*
X145373386Y-86114709D01*
X145373385Y-86114712D01*
X145349501Y-86203849D01*
X145349500Y-86203857D01*
X142550683Y-86203857D01*
X142257580Y-86034634D01*
X141727493Y-85773223D01*
X141181487Y-85547059D01*
X141181468Y-85547052D01*
X140621811Y-85357074D01*
X140621778Y-85357064D01*
X140050930Y-85204106D01*
X140050894Y-85204098D01*
X139471249Y-85088799D01*
X139471239Y-85088797D01*
X138885302Y-85011658D01*
X138885266Y-85011654D01*
X138295514Y-84973000D01*
X137704486Y-84973000D01*
X137114733Y-85011654D01*
X137114697Y-85011658D01*
X136528760Y-85088797D01*
X136528750Y-85088799D01*
X135949105Y-85204098D01*
X135949069Y-85204106D01*
X135378221Y-85357064D01*
X135378188Y-85357074D01*
X134818531Y-85547052D01*
X134818512Y-85547059D01*
X134272506Y-85773223D01*
X133742419Y-86034634D01*
X133230572Y-86330148D01*
X132739174Y-86658490D01*
X132270265Y-87018295D01*
X132270256Y-87018302D01*
X131825918Y-87407975D01*
X131825900Y-87407992D01*
X131661847Y-87572045D01*
X128925500Y-87572045D01*
X128925500Y-86486449D01*
X128943806Y-86442255D01*
X128980469Y-86405592D01*
X129023268Y-86331463D01*
X129026613Y-86325670D01*
X129026614Y-86325667D01*
X129037339Y-86285641D01*
X129050500Y-86236524D01*
X129050500Y-86144236D01*
X129026614Y-86055092D01*
X129026613Y-86055089D01*
X128980469Y-85975168D01*
X128980464Y-85975162D01*
X128915217Y-85909915D01*
X128915211Y-85909910D01*
X128835290Y-85863766D01*
X128835287Y-85863765D01*
X128746150Y-85839881D01*
X128746145Y-85839880D01*
X128746144Y-85839880D01*
X128653856Y-85839880D01*
X128653855Y-85839880D01*
X128653849Y-85839881D01*
X128564712Y-85863765D01*
X128564709Y-85863766D01*
X128484788Y-85909910D01*
X128484782Y-85909915D01*
X128419535Y-85975162D01*
X128419530Y-85975168D01*
X128373386Y-86055089D01*
X128373385Y-86055092D01*
X128349501Y-86144229D01*
X128349500Y-86144237D01*
X124625500Y-86144237D01*
X124625500Y-85255145D01*
X124591170Y-85172264D01*
X124527736Y-85108830D01*
X124517282Y-85104500D01*
X124479371Y-85088797D01*
X124444855Y-85074500D01*
X122744855Y-85074500D01*
X122655145Y-85074500D01*
X122572265Y-85108829D01*
X122572262Y-85108831D01*
X122508831Y-85172262D01*
X122508829Y-85172265D01*
X122477408Y-85248124D01*
X122474500Y-85255145D01*
X122125500Y-85255145D01*
X122125500Y-84862500D01*
X122143806Y-84818306D01*
X122188000Y-84800000D01*
X141500000Y-84800000D01*
X141500000Y-82188000D01*
X141518306Y-82143806D01*
X141562500Y-82125500D01*
X152971356Y-82125500D01*
X152996930Y-82125500D01*
X153003056Y-82125801D01*
G37*
%TD.AperFunction*%
%TD*%
M02*
