M48
; DRILL file {KiCad 9.0.1+1} date 2025-06-27T08:53:01+0000
; FORMAT={-:-/ absolute / metric / decimal}
; #@! TF.CreationDate,2025-06-27T08:53:01+00:00
; #@! TF.GenerationSoftware,Kicad,Pcbnew,9.0.1+1
; #@! TF.FileFunction,Plated,1,2,PTH
FMAT,2
METRIC
; #@! TA.AperFunction,Plated,PTH,ViaDrill
T1C0.250
; #@! TA.AperFunction,Plated,PTH,ViaDrill
T2C0.400
; #@! TA.AperFunction,Plated,PTH,ComponentDrill
T3C0.650
%
G90
G05
T1
X123.15Y-89.158
X125.3Y-99.2
X125.9Y-90.6
X126.812Y-89.188
X127.95Y-90.75
X128.2Y-95.1
X128.7Y-86.19
X128.7Y-91.5
X128.832Y-98.233
X132.8Y-85.5
X133.765Y-95.7
X137.45Y-103.5
X142.6Y-94.962
X143.2Y-93.75
X143.3Y-82.5
X145.6Y-88.3
X145.7Y-86.25
X147.8Y-85.5
X148.332Y-90.4
T2
X147.75Y-103.1
T3
X150.7Y-84.46
X150.7Y-85.73
X150.7Y-87.0
X150.7Y-88.27
X150.7Y-89.54
X151.97Y-84.46
X151.97Y-85.73
X151.97Y-87.0
X151.97Y-88.27
X151.97Y-89.54
M30
