%TF.GenerationSoftware,KiCad,Pcbnew,9.0.1+1*%
%TF.CreationDate,2025-07-21T23:08:40+00:00*%
%TF.ProjectId,BeeLight,4265654c-6967-4687-942e-6b696361645f,rev?*%
%TF.SameCoordinates,Original*%
%TF.FileFunction,Legend,Top*%
%TF.FilePolarity,Positive*%
%FSLAX46Y46*%
G04 Gerber Fmt 4.6, Leading zero omitted, Abs format (unit mm)*
G04 Created by KiCad (PCBNEW 9.0.1+1) date 2025-07-21 23:08:40*
%MOMM*%
%LPD*%
G01*
G04 APERTURE LIST*
G04 Aperture macros list*
%AMRoundRect*
0 Rectangle with rounded corners*
0 $1 Rounding radius*
0 $2 $3 $4 $5 $6 $7 $8 $9 X,Y pos of 4 corners*
0 Add a 4 corners polygon primitive as box body*
4,1,4,$2,$3,$4,$5,$6,$7,$8,$9,$2,$3,0*
0 Add four circle primitives for the rounded corners*
1,1,$1+$1,$2,$3*
1,1,$1+$1,$4,$5*
1,1,$1+$1,$6,$7*
1,1,$1+$1,$8,$9*
0 Add four rect primitives between the rounded corners*
20,1,$1+$1,$2,$3,$4,$5,0*
20,1,$1+$1,$4,$5,$6,$7,0*
20,1,$1+$1,$6,$7,$8,$9,0*
20,1,$1+$1,$8,$9,$2,$3,0*%
G04 Aperture macros list end*
%ADD10C,0.120000*%
%ADD11C,0.100000*%
%ADD12R,1.500000X1.300000*%
%ADD13R,0.600000X0.400000*%
%ADD14R,0.400000X0.600000*%
%ADD15RoundRect,0.160000X-0.197500X-0.160000X0.197500X-0.160000X0.197500X0.160000X-0.197500X0.160000X0*%
%ADD16RoundRect,0.150000X-0.150000X0.512500X-0.150000X-0.512500X0.150000X-0.512500X0.150000X0.512500X0*%
%ADD17RoundRect,0.250000X-0.450000X0.325000X-0.450000X-0.325000X0.450000X-0.325000X0.450000X0.325000X0*%
%ADD18RoundRect,0.155000X0.212500X0.155000X-0.212500X0.155000X-0.212500X-0.155000X0.212500X-0.155000X0*%
%ADD19RoundRect,0.160000X0.197500X0.160000X-0.197500X0.160000X-0.197500X-0.160000X0.197500X-0.160000X0*%
%ADD20RoundRect,0.075000X-0.075000X0.512500X-0.075000X-0.512500X0.075000X-0.512500X0.075000X0.512500X0*%
%ADD21RoundRect,0.155000X-0.212500X-0.155000X0.212500X-0.155000X0.212500X0.155000X-0.212500X0.155000X0*%
%ADD22RoundRect,0.155000X-0.155000X0.212500X-0.155000X-0.212500X0.155000X-0.212500X0.155000X0.212500X0*%
%ADD23RoundRect,0.155000X0.155000X-0.212500X0.155000X0.212500X-0.155000X0.212500X-0.155000X-0.212500X0*%
%ADD24R,0.525000X0.500000*%
%ADD25RoundRect,0.160000X0.160000X-0.197500X0.160000X0.197500X-0.160000X0.197500X-0.160000X-0.197500X0*%
%ADD26R,1.000000X1.000000*%
%ADD27C,1.000000*%
%ADD28C,2.100000*%
G04 APERTURE END LIST*
D10*
%TO.C,R107*%
X145132379Y-93282500D02*
X145467621Y-93282500D01*
X145132379Y-94042500D02*
X145467621Y-94042500D01*
%TO.C,Q101*%
X143340000Y-96262500D02*
X143340000Y-95462500D01*
X143340000Y-96262500D02*
X143340000Y-97062500D01*
X146460000Y-96262500D02*
X146460000Y-95462500D01*
X146460000Y-96262500D02*
X146460000Y-97062500D01*
X146740000Y-95202500D02*
X146410000Y-94962500D01*
X146740000Y-94722500D01*
X146740000Y-95202500D01*
G36*
X146740000Y-95202500D02*
G01*
X146410000Y-94962500D01*
X146740000Y-94722500D01*
X146740000Y-95202500D01*
G37*
%TO.C,D101*%
X140490000Y-99210000D02*
X140490000Y-102070000D01*
X142410000Y-99210000D02*
X140490000Y-99210000D01*
X142410000Y-102070000D02*
X142410000Y-99210000D01*
%TO.C,C102*%
X134448335Y-94540000D02*
X134216665Y-94540000D01*
X134448335Y-95260000D02*
X134216665Y-95260000D01*
%TO.C,R108*%
X142167621Y-97282500D02*
X141832379Y-97282500D01*
X142167621Y-98042500D02*
X141832379Y-98042500D01*
%TO.C,IC102*%
X124490000Y-87400000D02*
X124490000Y-89400000D01*
X126710000Y-88400000D02*
X126710000Y-89400000D01*
%TO.C,C103*%
X141916665Y-95302500D02*
X142148335Y-95302500D01*
X141916665Y-96022500D02*
X142148335Y-96022500D01*
%TO.C,C104*%
X123390000Y-88474545D02*
X123390000Y-88706215D01*
X124110000Y-88474545D02*
X124110000Y-88706215D01*
%TO.C,C105*%
X127840000Y-98915835D02*
X127840000Y-98684165D01*
X128560000Y-98915835D02*
X128560000Y-98684165D01*
D11*
%TO.C,IC103*%
X124350000Y-96450000D02*
X124350000Y-96750000D01*
X124350000Y-96450000D02*
X124650000Y-96450000D01*
X124350000Y-99550000D02*
X124350000Y-99250000D01*
X124350000Y-99550000D02*
X124650000Y-99550000D01*
X127450000Y-96450000D02*
X127150000Y-96450000D01*
X127450000Y-96450000D02*
X127450000Y-96750000D01*
X127450000Y-99550000D02*
X127150000Y-99550000D01*
X127450000Y-99550000D02*
X127450000Y-99250000D01*
D10*
%TO.C,R104*%
X125482379Y-85810380D02*
X125817621Y-85810380D01*
X125482379Y-86570380D02*
X125817621Y-86570380D01*
%TO.C,R105*%
X128167621Y-86820000D02*
X127832379Y-86820000D01*
X128167621Y-87580000D02*
X127832379Y-87580000D01*
%TO.C,R103*%
X141070000Y-104417621D02*
X141070000Y-104082379D01*
X141830000Y-104417621D02*
X141830000Y-104082379D01*
%TO.C,R109*%
X141834879Y-96282500D02*
X142170121Y-96282500D01*
X141834879Y-97042500D02*
X142170121Y-97042500D01*
%TO.C,C106*%
X127840000Y-96533335D02*
X127840000Y-96301665D01*
X128560000Y-96533335D02*
X128560000Y-96301665D01*
%TO.C,C101*%
X144184165Y-87940000D02*
X144415835Y-87940000D01*
X144184165Y-88660000D02*
X144415835Y-88660000D01*
%TO.C,X102*%
X149520000Y-83650000D02*
X150700000Y-83650000D01*
X149520000Y-84460000D02*
X149520000Y-83650000D01*
X149520000Y-85270000D02*
X149520000Y-90285000D01*
X149520000Y-85270000D02*
X150033292Y-85270000D01*
X149520000Y-90285000D02*
X150382077Y-90285000D01*
X151017923Y-90285000D02*
X151652077Y-90285000D01*
X152287923Y-83715000D02*
X153150000Y-83715000D01*
X152287923Y-90285000D02*
X153150000Y-90285000D01*
X153150000Y-83715000D02*
X153150000Y-90285000D01*
%TO.C,R101*%
X144467621Y-86920000D02*
X144132379Y-86920000D01*
X144467621Y-87680000D02*
X144132379Y-87680000D01*
%TO.C,R106*%
X124182379Y-90220000D02*
X124517621Y-90220000D01*
X124182379Y-90980000D02*
X124517621Y-90980000D01*
%TD*%
%LPC*%
D12*
%TO.C,SW101*%
X138975000Y-104250000D03*
X138975000Y-99750000D03*
X131025000Y-104250000D03*
X131025000Y-99750000D03*
%TD*%
D13*
%TO.C,M101*%
X142500000Y-82500000D03*
X142500000Y-83250000D03*
X142500000Y-84000000D03*
X142500000Y-84750000D03*
X142500000Y-85500000D03*
X142500000Y-86250000D03*
X142500000Y-87000000D03*
X142500000Y-87750000D03*
X142500000Y-88500000D03*
X142500000Y-89250000D03*
X142500000Y-90000000D03*
X142500000Y-90750000D03*
X142500000Y-91500000D03*
X142500000Y-92250000D03*
X142500000Y-93000000D03*
X142500000Y-93750000D03*
D14*
X141750000Y-93800000D03*
X141000000Y-93800000D03*
X140250000Y-93800000D03*
X139500000Y-93800000D03*
X138750000Y-93800000D03*
X138000000Y-93800000D03*
X137250000Y-93800000D03*
X136500000Y-93800000D03*
X135750000Y-93800000D03*
X135000000Y-93800000D03*
X134250000Y-93800000D03*
D13*
X133500000Y-93750000D03*
X133500000Y-93000000D03*
X133500000Y-92250000D03*
X133500000Y-91500000D03*
X133500000Y-90750000D03*
X133500000Y-90000000D03*
X133500000Y-89250000D03*
X133500000Y-88500000D03*
X133500000Y-87750000D03*
X133500000Y-87000000D03*
X133500000Y-86250000D03*
X133500000Y-85500000D03*
%TD*%
D15*
%TO.C,R107*%
X144702500Y-93662500D03*
X145897500Y-93662500D03*
%TD*%
D16*
%TO.C,Q101*%
X145850000Y-95125000D03*
X143950000Y-95125000D03*
X144900000Y-97400000D03*
%TD*%
D17*
%TO.C,D101*%
X141450000Y-100045000D03*
X141450000Y-102095000D03*
%TD*%
D18*
%TO.C,C102*%
X134900000Y-94900000D03*
X133765000Y-94900000D03*
%TD*%
D19*
%TO.C,R108*%
X142597500Y-97662500D03*
X141402500Y-97662500D03*
%TD*%
D20*
%TO.C,IC102*%
X126250000Y-87612500D03*
X125600000Y-87612500D03*
X124950000Y-87612500D03*
X124950000Y-89187500D03*
X125600000Y-89187500D03*
X126250000Y-89187500D03*
%TD*%
D21*
%TO.C,C103*%
X141465000Y-95662500D03*
X142600000Y-95662500D03*
%TD*%
D22*
%TO.C,C104*%
X123750000Y-88022880D03*
X123750000Y-89157880D03*
%TD*%
D23*
%TO.C,C105*%
X128200000Y-99367500D03*
X128200000Y-98232500D03*
%TD*%
D24*
%TO.C,IC103*%
X124712500Y-99200000D03*
X124712500Y-98400000D03*
X124712500Y-97600000D03*
X124712500Y-96800000D03*
X127087500Y-96800000D03*
X127087500Y-97600000D03*
X127087500Y-98400000D03*
X127087500Y-99200000D03*
%TD*%
D15*
%TO.C,R104*%
X125052500Y-86190380D03*
X126247500Y-86190380D03*
%TD*%
D19*
%TO.C,R105*%
X128597500Y-87200000D03*
X127402500Y-87200000D03*
%TD*%
D25*
%TO.C,R103*%
X141450000Y-104847500D03*
X141450000Y-103652500D03*
%TD*%
D15*
%TO.C,R109*%
X141405000Y-96662500D03*
X142600000Y-96662500D03*
%TD*%
D23*
%TO.C,C106*%
X128200000Y-96985000D03*
X128200000Y-95850000D03*
%TD*%
D21*
%TO.C,C101*%
X143732500Y-88300000D03*
X144867500Y-88300000D03*
%TD*%
D26*
%TO.C,X102*%
X150700000Y-84460000D03*
D27*
X151970000Y-84460000D03*
X150700000Y-85730000D03*
X151970000Y-85730000D03*
X150700000Y-87000000D03*
X151970000Y-87000000D03*
X150700000Y-88270000D03*
X151970000Y-88270000D03*
X150700000Y-89540000D03*
X151970000Y-89540000D03*
%TD*%
D28*
%TO.C,REF\u002A\u002A*%
X125000000Y-103000000D03*
%TD*%
D19*
%TO.C,R101*%
X144897500Y-87300000D03*
X143702500Y-87300000D03*
%TD*%
D28*
%TO.C,REF\u002A\u002A*%
X151000000Y-103000000D03*
%TD*%
D15*
%TO.C,R106*%
X123752500Y-90600000D03*
X124947500Y-90600000D03*
%TD*%
%LPD*%
M02*
