<?xml version="1.0" standalone="no"?>
 <!DOCTYPE svg PUBLIC "-//W3C//DTD SVG 1.1//EN" 
 "http://www.w3.org/Graphics/SVG/1.1/DTD/svg11.dtd"> 
<svg
  xmlns:svg="http://www.w3.org/2000/svg"
  xmlns="http://www.w3.org/2000/svg"
  xmlns:xlink="http://www.w3.org/1999/xlink"
  version="1.1"
  width="297.0022mm" height="210.0072mm" viewBox="0.0000 0.0000 297.0022 210.0072">
<title>SVG Image created as BeeLight-B_Cu.svg date 2026/03/17 20:28:59 </title>
  <desc>Image generated by PCBNEW </desc>
<g style="fill:#000000; fill-opacity:1.0000;stroke:#000000; stroke-opacity:1.0000;
stroke-linecap:round; stroke-linejoin:round;"
 transform="translate(0 0) scale(1 1)">
</g>
<g style="fill:none; 
stroke:#000000; stroke-width:0.1500; stroke-opacity:1; 
stroke-linecap:round; stroke-linejoin:round;">
<path d="M177.0022 166.0072
L285.0022 166.0072
L285.0022 198.0072
L177.0022 198.0072
L177.0022 166.0072
" />
</g>
<g style="fill:none; 
stroke:#000000; stroke-width:0.1500; stroke-opacity:1; 
stroke-linecap:round; stroke-linejoin:round;">
<path d="M10.0000 10.0000
L287.0022 10.0000
L287.0022 200.0072
L10.0000 200.0072
L10.0000 10.0000
" />
</g>
<g style="fill:none; 
stroke:#000000; stroke-width:0.1500; stroke-opacity:1; 
stroke-linecap:round; stroke-linejoin:round;">
<path d="M12.0000 12.0000
L285.0022 12.0000
L285.0022 198.0072
L12.0000 198.0072
L12.0000 12.0000
" />
</g>
<g style="fill:none; 
stroke:#000000; stroke-width:0.1500; stroke-opacity:1; 
stroke-linecap:round; stroke-linejoin:round;">
<path d="M60.0000 12.0000
L60.0000 10.0000
" />
</g>
<g style="fill:none; 
stroke:#000000; stroke-width:0.1500; stroke-opacity:1; 
stroke-linecap:round; stroke-linejoin:round;">
<path d="M110.0000 12.0000
L110.0000 10.0000
" />
</g>
<g style="fill:none; 
stroke:#000000; stroke-width:0.1500; stroke-opacity:1; 
stroke-linecap:round; stroke-linejoin:round;">
<path d="M160.0000 12.0000
L160.0000 10.0000
" />
</g>
<g style="fill:none; 
stroke:#000000; stroke-width:0.1500; stroke-opacity:1; 
stroke-linecap:round; stroke-linejoin:round;">
<path d="M210.0000 12.0000
L210.0000 10.0000
" />
</g>
<g style="fill:none; 
stroke:#000000; stroke-width:0.1500; stroke-opacity:1; 
stroke-linecap:round; stroke-linejoin:round;">
<path d="M260.0000 12.0000
L260.0000 10.0000
" />
</g>
<g style="fill:none; 
stroke:#000000; stroke-width:0.1500; stroke-opacity:1; 
stroke-linecap:round; stroke-linejoin:round;">
<text x="35.0000" y="11.6500"
textLength="1.4281" font-size="1.7333" lengthAdjust="spacingAndGlyphs"
text-anchor="start" opacity="0" stroke-opacity="0">1</text>
<g class="stroked-text"><desc>1</desc>
<path d="M36.0892 11.5936
L35.3463 11.5936
" />
<path d="M35.7177 11.5936
L35.7177 10.2936
" />
<path d="M35.7177 10.2936
L35.5939 10.4793
" />
<path d="M35.5939 10.4793
L35.4701 10.6031
" />
<path d="M35.4701 10.6031
L35.3463 10.6650
" />
</g></g>
<g style="fill:none; 
stroke:#000000; stroke-width:0.1500; stroke-opacity:1; 
stroke-linecap:round; stroke-linejoin:round;">
<text x="85.0000" y="11.6500"
textLength="1.4281" font-size="1.7333" lengthAdjust="spacingAndGlyphs"
text-anchor="start" opacity="0" stroke-opacity="0">2</text>
<g class="stroked-text"><desc>2</desc>
<path d="M85.3463 10.4174
L85.4082 10.3555
" />
<path d="M85.4082 10.3555
L85.5320 10.2936
" />
<path d="M85.5320 10.2936
L85.8415 10.2936
" />
<path d="M85.8415 10.2936
L85.9654 10.3555
" />
<path d="M85.9654 10.3555
L86.0273 10.4174
" />
<path d="M86.0273 10.4174
L86.0892 10.5412
" />
<path d="M86.0892 10.5412
L86.0892 10.6650
" />
<path d="M86.0892 10.6650
L86.0273 10.8507
" />
<path d="M86.0273 10.8507
L85.2844 11.5936
" />
<path d="M85.2844 11.5936
L86.0892 11.5936
" />
</g></g>
<g style="fill:none; 
stroke:#000000; stroke-width:0.1500; stroke-opacity:1; 
stroke-linecap:round; stroke-linejoin:round;">
<text x="135.0000" y="11.6500"
textLength="1.4281" font-size="1.7333" lengthAdjust="spacingAndGlyphs"
text-anchor="start" opacity="0" stroke-opacity="0">3</text>
<g class="stroked-text"><desc>3</desc>
<path d="M135.2844 10.2936
L136.0892 10.2936
" />
<path d="M136.0892 10.2936
L135.6558 10.7888
" />
<path d="M135.6558 10.7888
L135.8415 10.7888
" />
<path d="M135.8415 10.7888
L135.9654 10.8507
" />
<path d="M135.9654 10.8507
L136.0273 10.9127
" />
<path d="M136.0273 10.9127
L136.0892 11.0365
" />
<path d="M136.0892 11.0365
L136.0892 11.3460
" />
<path d="M136.0892 11.3460
L136.0273 11.4698
" />
<path d="M136.0273 11.4698
L135.9654 11.5317
" />
<path d="M135.9654 11.5317
L135.8415 11.5936
" />
<path d="M135.8415 11.5936
L135.4701 11.5936
" />
<path d="M135.4701 11.5936
L135.3463 11.5317
" />
<path d="M135.3463 11.5317
L135.2844 11.4698
" />
</g></g>
<g style="fill:none; 
stroke:#000000; stroke-width:0.1500; stroke-opacity:1; 
stroke-linecap:round; stroke-linejoin:round;">
<text x="185.0000" y="11.6500"
textLength="1.4281" font-size="1.7333" lengthAdjust="spacingAndGlyphs"
text-anchor="start" opacity="0" stroke-opacity="0">4</text>
<g class="stroked-text"><desc>4</desc>
<path d="M185.9654 10.7269
L185.9654 11.5936
" />
<path d="M185.6558 10.2317
L185.3463 11.1603
" />
<path d="M185.3463 11.1603
L186.1511 11.1603
" />
</g></g>
<g style="fill:none; 
stroke:#000000; stroke-width:0.1500; stroke-opacity:1; 
stroke-linecap:round; stroke-linejoin:round;">
<text x="235.0000" y="11.6500"
textLength="1.4281" font-size="1.7333" lengthAdjust="spacingAndGlyphs"
text-anchor="start" opacity="0" stroke-opacity="0">5</text>
<g class="stroked-text"><desc>5</desc>
<path d="M236.0273 10.2936
L235.4082 10.2936
" />
<path d="M235.4082 10.2936
L235.3463 10.9127
" />
<path d="M235.3463 10.9127
L235.4082 10.8507
" />
<path d="M235.4082 10.8507
L235.5320 10.7888
" />
<path d="M235.5320 10.7888
L235.8415 10.7888
" />
<path d="M235.8415 10.7888
L235.9654 10.8507
" />
<path d="M235.9654 10.8507
L236.0273 10.9127
" />
<path d="M236.0273 10.9127
L236.0892 11.0365
" />
<path d="M236.0892 11.0365
L236.0892 11.3460
" />
<path d="M236.0892 11.3460
L236.0273 11.4698
" />
<path d="M236.0273 11.4698
L235.9654 11.5317
" />
<path d="M235.9654 11.5317
L235.8415 11.5936
" />
<path d="M235.8415 11.5936
L235.5320 11.5936
" />
<path d="M235.5320 11.5936
L235.4082 11.5317
" />
<path d="M235.4082 11.5317
L235.3463 11.4698
" />
</g></g>
<g style="fill:none; 
stroke:#000000; stroke-width:0.1500; stroke-opacity:1; 
stroke-linecap:round; stroke-linejoin:round;">
<text x="285.0000" y="11.6500"
textLength="1.4281" font-size="1.7333" lengthAdjust="spacingAndGlyphs"
text-anchor="start" opacity="0" stroke-opacity="0">6</text>
<g class="stroked-text"><desc>6</desc>
<path d="M285.9654 10.2936
L285.7177 10.2936
" />
<path d="M285.7177 10.2936
L285.5939 10.3555
" />
<path d="M285.5939 10.3555
L285.5320 10.4174
" />
<path d="M285.5320 10.4174
L285.4082 10.6031
" />
<path d="M285.4082 10.6031
L285.3463 10.8507
" />
<path d="M285.3463 10.8507
L285.3463 11.3460
" />
<path d="M285.3463 11.3460
L285.4082 11.4698
" />
<path d="M285.4082 11.4698
L285.4701 11.5317
" />
<path d="M285.4701 11.5317
L285.5939 11.5936
" />
<path d="M285.5939 11.5936
L285.8415 11.5936
" />
<path d="M285.8415 11.5936
L285.9654 11.5317
" />
<path d="M285.9654 11.5317
L286.0273 11.4698
" />
<path d="M286.0273 11.4698
L286.0892 11.3460
" />
<path d="M286.0892 11.3460
L286.0892 11.0365
" />
<path d="M286.0892 11.0365
L286.0273 10.9127
" />
<path d="M286.0273 10.9127
L285.9654 10.8507
" />
<path d="M285.9654 10.8507
L285.8415 10.7888
" />
<path d="M285.8415 10.7888
L285.5939 10.7888
" />
<path d="M285.5939 10.7888
L285.4701 10.8507
" />
<path d="M285.4701 10.8507
L285.4082 10.9127
" />
<path d="M285.4082 10.9127
L285.3463 11.0365
" />
</g></g>
<g style="fill:none; 
stroke:#000000; stroke-width:0.1500; stroke-opacity:1; 
stroke-linecap:round; stroke-linejoin:round;">
<path d="M60.0000 198.0072
L60.0000 200.0072
" />
</g>
<g style="fill:none; 
stroke:#000000; stroke-width:0.1500; stroke-opacity:1; 
stroke-linecap:round; stroke-linejoin:round;">
<path d="M110.0000 198.0072
L110.0000 200.0072
" />
</g>
<g style="fill:none; 
stroke:#000000; stroke-width:0.1500; stroke-opacity:1; 
stroke-linecap:round; stroke-linejoin:round;">
<path d="M160.0000 198.0072
L160.0000 200.0072
" />
</g>
<g style="fill:none; 
stroke:#000000; stroke-width:0.1500; stroke-opacity:1; 
stroke-linecap:round; stroke-linejoin:round;">
<path d="M210.0000 198.0072
L210.0000 200.0072
" />
</g>
<g style="fill:none; 
stroke:#000000; stroke-width:0.1500; stroke-opacity:1; 
stroke-linecap:round; stroke-linejoin:round;">
<path d="M260.0000 198.0072
L260.0000 200.0072
" />
</g>
<g style="fill:none; 
stroke:#000000; stroke-width:0.1500; stroke-opacity:1; 
stroke-linecap:round; stroke-linejoin:round;">
<text x="35.0000" y="199.6572"
textLength="1.4281" font-size="1.7333" lengthAdjust="spacingAndGlyphs"
text-anchor="start" opacity="0" stroke-opacity="0">1</text>
<g class="stroked-text"><desc>1</desc>
<path d="M36.0892 199.6008
L35.3463 199.6008
" />
<path d="M35.7177 199.6008
L35.7177 198.3008
" />
<path d="M35.7177 198.3008
L35.5939 198.4865
" />
<path d="M35.5939 198.4865
L35.4701 198.6103
" />
<path d="M35.4701 198.6103
L35.3463 198.6722
" />
</g></g>
<g style="fill:none; 
stroke:#000000; stroke-width:0.1500; stroke-opacity:1; 
stroke-linecap:round; stroke-linejoin:round;">
<text x="85.0000" y="199.6572"
textLength="1.4281" font-size="1.7333" lengthAdjust="spacingAndGlyphs"
text-anchor="start" opacity="0" stroke-opacity="0">2</text>
<g class="stroked-text"><desc>2</desc>
<path d="M85.3463 198.4246
L85.4082 198.3627
" />
<path d="M85.4082 198.3627
L85.5320 198.3008
" />
<path d="M85.5320 198.3008
L85.8415 198.3008
" />
<path d="M85.8415 198.3008
L85.9654 198.3627
" />
<path d="M85.9654 198.3627
L86.0273 198.4246
" />
<path d="M86.0273 198.4246
L86.0892 198.5484
" />
<path d="M86.0892 198.5484
L86.0892 198.6722
" />
<path d="M86.0892 198.6722
L86.0273 198.8579
" />
<path d="M86.0273 198.8579
L85.2844 199.6008
" />
<path d="M85.2844 199.6008
L86.0892 199.6008
" />
</g></g>
<g style="fill:none; 
stroke:#000000; stroke-width:0.1500; stroke-opacity:1; 
stroke-linecap:round; stroke-linejoin:round;">
<text x="135.0000" y="199.6572"
textLength="1.4281" font-size="1.7333" lengthAdjust="spacingAndGlyphs"
text-anchor="start" opacity="0" stroke-opacity="0">3</text>
<g class="stroked-text"><desc>3</desc>
<path d="M135.2844 198.3008
L136.0892 198.3008
" />
<path d="M136.0892 198.3008
L135.6558 198.7960
" />
<path d="M135.6558 198.7960
L135.8415 198.7960
" />
<path d="M135.8415 198.7960
L135.9654 198.8579
" />
<path d="M135.9654 198.8579
L136.0273 198.9199
" />
<path d="M136.0273 198.9199
L136.0892 199.0437
" />
<path d="M136.0892 199.0437
L136.0892 199.3532
" />
<path d="M136.0892 199.3532
L136.0273 199.4770
" />
<path d="M136.0273 199.4770
L135.9654 199.5389
" />
<path d="M135.9654 199.5389
L135.8415 199.6008
" />
<path d="M135.8415 199.6008
L135.4701 199.6008
" />
<path d="M135.4701 199.6008
L135.3463 199.5389
" />
<path d="M135.3463 199.5389
L135.2844 199.4770
" />
</g></g>
<g style="fill:none; 
stroke:#000000; stroke-width:0.1500; stroke-opacity:1; 
stroke-linecap:round; stroke-linejoin:round;">
<text x="185.0000" y="199.6572"
textLength="1.4281" font-size="1.7333" lengthAdjust="spacingAndGlyphs"
text-anchor="start" opacity="0" stroke-opacity="0">4</text>
<g class="stroked-text"><desc>4</desc>
<path d="M185.9654 198.7341
L185.9654 199.6008
" />
<path d="M185.6558 198.2389
L185.3463 199.1675
" />
<path d="M185.3463 199.1675
L186.1511 199.1675
" />
</g></g>
<g style="fill:none; 
stroke:#000000; stroke-width:0.1500; stroke-opacity:1; 
stroke-linecap:round; stroke-linejoin:round;">
<text x="235.0000" y="199.6572"
textLength="1.4281" font-size="1.7333" lengthAdjust="spacingAndGlyphs"
text-anchor="start" opacity="0" stroke-opacity="0">5</text>
<g class="stroked-text"><desc>5</desc>
<path d="M236.0273 198.3008
L235.4082 198.3008
" />
<path d="M235.4082 198.3008
L235.3463 198.9199
" />
<path d="M235.3463 198.9199
L235.4082 198.8579
" />
<path d="M235.4082 198.8579
L235.5320 198.7960
" />
<path d="M235.5320 198.7960
L235.8415 198.7960
" />
<path d="M235.8415 198.7960
L235.9654 198.8579
" />
<path d="M235.9654 198.8579
L236.0273 198.9199
" />
<path d="M236.0273 198.9199
L236.0892 199.0437
" />
<path d="M236.0892 199.0437
L236.0892 199.3532
" />
<path d="M236.0892 199.3532
L236.0273 199.4770
" />
<path d="M236.0273 199.4770
L235.9654 199.5389
" />
<path d="M235.9654 199.5389
L235.8415 199.6008
" />
<path d="M235.8415 199.6008
L235.5320 199.6008
" />
<path d="M235.5320 199.6008
L235.4082 199.5389
" />
<path d="M235.4082 199.5389
L235.3463 199.4770
" />
</g></g>
<g style="fill:none; 
stroke:#000000; stroke-width:0.1500; stroke-opacity:1; 
stroke-linecap:round; stroke-linejoin:round;">
<text x="285.0000" y="199.6572"
textLength="1.4281" font-size="1.7333" lengthAdjust="spacingAndGlyphs"
text-anchor="start" opacity="0" stroke-opacity="0">6</text>
<g class="stroked-text"><desc>6</desc>
<path d="M285.9654 198.3008
L285.7177 198.3008
" />
<path d="M285.7177 198.3008
L285.5939 198.3627
" />
<path d="M285.5939 198.3627
L285.5320 198.4246
" />
<path d="M285.5320 198.4246
L285.4082 198.6103
" />
<path d="M285.4082 198.6103
L285.3463 198.8579
" />
<path d="M285.3463 198.8579
L285.3463 199.3532
" />
<path d="M285.3463 199.3532
L285.4082 199.4770
" />
<path d="M285.4082 199.4770
L285.4701 199.5389
" />
<path d="M285.4701 199.5389
L285.5939 199.6008
" />
<path d="M285.5939 199.6008
L285.8415 199.6008
" />
<path d="M285.8415 199.6008
L285.9654 199.5389
" />
<path d="M285.9654 199.5389
L286.0273 199.4770
" />
<path d="M286.0273 199.4770
L286.0892 199.3532
" />
<path d="M286.0892 199.3532
L286.0892 199.0437
" />
<path d="M286.0892 199.0437
L286.0273 198.9199
" />
<path d="M286.0273 198.9199
L285.9654 198.8579
" />
<path d="M285.9654 198.8579
L285.8415 198.7960
" />
<path d="M285.8415 198.7960
L285.5939 198.7960
" />
<path d="M285.5939 198.7960
L285.4701 198.8579
" />
<path d="M285.4701 198.8579
L285.4082 198.9199
" />
<path d="M285.4082 198.9199
L285.3463 199.0437
" />
</g></g>
<g style="fill:none; 
stroke:#000000; stroke-width:0.1500; stroke-opacity:1; 
stroke-linecap:round; stroke-linejoin:round;">
<path d="M10.0000 60.0000
L12.0000 60.0000
" />
</g>
<g style="fill:none; 
stroke:#000000; stroke-width:0.1500; stroke-opacity:1; 
stroke-linecap:round; stroke-linejoin:round;">
<path d="M10.0000 110.0000
L12.0000 110.0000
" />
</g>
<g style="fill:none; 
stroke:#000000; stroke-width:0.1500; stroke-opacity:1; 
stroke-linecap:round; stroke-linejoin:round;">
<path d="M10.0000 160.0000
L12.0000 160.0000
" />
</g>
<g style="fill:none; 
stroke:#000000; stroke-width:0.1500; stroke-opacity:1; 
stroke-linecap:round; stroke-linejoin:round;">
<text x="11.0000" y="35.6500"
textLength="1.3043" font-size="1.7333" lengthAdjust="spacingAndGlyphs"
text-anchor="middle" opacity="0" stroke-opacity="0">A</text>
<g class="stroked-text"><desc>A</desc>
<path d="M10.6905 35.2222
L11.3095 35.2222
" />
<path d="M10.5667 35.5936
L11.0000 34.2936
" />
<path d="M11.0000 34.2936
L11.4333 35.5936
" />
</g></g>
<g style="fill:none; 
stroke:#000000; stroke-width:0.1500; stroke-opacity:1; 
stroke-linecap:round; stroke-linejoin:round;">
<text x="11.0000" y="85.6500"
textLength="1.4900" font-size="1.7333" lengthAdjust="spacingAndGlyphs"
text-anchor="middle" opacity="0" stroke-opacity="0">B</text>
<g class="stroked-text"><desc>B</desc>
<path d="M11.0929 84.9127
L11.2786 84.9746
" />
<path d="M11.2786 84.9746
L11.3405 85.0365
" />
<path d="M11.3405 85.0365
L11.4024 85.1603
" />
<path d="M11.4024 85.1603
L11.4024 85.3460
" />
<path d="M11.4024 85.3460
L11.3405 85.4698
" />
<path d="M11.3405 85.4698
L11.2786 85.5317
" />
<path d="M11.2786 85.5317
L11.1548 85.5936
" />
<path d="M11.1548 85.5936
L10.6595 85.5936
" />
<path d="M10.6595 85.5936
L10.6595 84.2936
" />
<path d="M10.6595 84.2936
L11.0929 84.2936
" />
<path d="M11.0929 84.2936
L11.2167 84.3555
" />
<path d="M11.2167 84.3555
L11.2786 84.4174
" />
<path d="M11.2786 84.4174
L11.3405 84.5412
" />
<path d="M11.3405 84.5412
L11.3405 84.6650
" />
<path d="M11.3405 84.6650
L11.2786 84.7888
" />
<path d="M11.2786 84.7888
L11.2167 84.8507
" />
<path d="M11.2167 84.8507
L11.0929 84.9127
" />
<path d="M11.0929 84.9127
L10.6595 84.9127
" />
</g></g>
<g style="fill:none; 
stroke:#000000; stroke-width:0.1500; stroke-opacity:1; 
stroke-linecap:round; stroke-linejoin:round;">
<text x="11.0000" y="135.6500"
textLength="1.4900" font-size="1.7333" lengthAdjust="spacingAndGlyphs"
text-anchor="middle" opacity="0" stroke-opacity="0">C</text>
<g class="stroked-text"><desc>C</desc>
<path d="M11.4024 135.4698
L11.3405 135.5317
" />
<path d="M11.3405 135.5317
L11.1548 135.5936
" />
<path d="M11.1548 135.5936
L11.0310 135.5936
" />
<path d="M11.0310 135.5936
L10.8452 135.5317
" />
<path d="M10.8452 135.5317
L10.7214 135.4079
" />
<path d="M10.7214 135.4079
L10.6595 135.2841
" />
<path d="M10.6595 135.2841
L10.5976 135.0365
" />
<path d="M10.5976 135.0365
L10.5976 134.8507
" />
<path d="M10.5976 134.8507
L10.6595 134.6031
" />
<path d="M10.6595 134.6031
L10.7214 134.4793
" />
<path d="M10.7214 134.4793
L10.8452 134.3555
" />
<path d="M10.8452 134.3555
L11.0310 134.2936
" />
<path d="M11.0310 134.2936
L11.1548 134.2936
" />
<path d="M11.1548 134.2936
L11.3405 134.3555
" />
<path d="M11.3405 134.3555
L11.4024 134.4174
" />
</g></g>
<g style="fill:none; 
stroke:#000000; stroke-width:0.1500; stroke-opacity:1; 
stroke-linecap:round; stroke-linejoin:round;">
<text x="11.0000" y="185.6500"
textLength="1.4900" font-size="1.7333" lengthAdjust="spacingAndGlyphs"
text-anchor="middle" opacity="0" stroke-opacity="0">D</text>
<g class="stroked-text"><desc>D</desc>
<path d="M10.6595 185.5936
L10.6595 184.2936
" />
<path d="M10.6595 184.2936
L10.9690 184.2936
" />
<path d="M10.9690 184.2936
L11.1548 184.3555
" />
<path d="M11.1548 184.3555
L11.2786 184.4793
" />
<path d="M11.2786 184.4793
L11.3405 184.6031
" />
<path d="M11.3405 184.6031
L11.4024 184.8507
" />
<path d="M11.4024 184.8507
L11.4024 185.0365
" />
<path d="M11.4024 185.0365
L11.3405 185.2841
" />
<path d="M11.3405 185.2841
L11.2786 185.4079
" />
<path d="M11.2786 185.4079
L11.1548 185.5317
" />
<path d="M11.1548 185.5317
L10.9690 185.5936
" />
<path d="M10.9690 185.5936
L10.6595 185.5936
" />
</g></g>
<g style="fill:none; 
stroke:#000000; stroke-width:0.1500; stroke-opacity:1; 
stroke-linecap:round; stroke-linejoin:round;">
<path d="M287.0022 60.0000
L285.0022 60.0000
" />
</g>
<g style="fill:none; 
stroke:#000000; stroke-width:0.1500; stroke-opacity:1; 
stroke-linecap:round; stroke-linejoin:round;">
<path d="M287.0022 110.0000
L285.0022 110.0000
" />
</g>
<g style="fill:none; 
stroke:#000000; stroke-width:0.1500; stroke-opacity:1; 
stroke-linecap:round; stroke-linejoin:round;">
<path d="M287.0022 160.0000
L285.0022 160.0000
" />
</g>
<g style="fill:none; 
stroke:#000000; stroke-width:0.1500; stroke-opacity:1; 
stroke-linecap:round; stroke-linejoin:round;">
<text x="286.0022" y="35.6500"
textLength="1.3043" font-size="1.7333" lengthAdjust="spacingAndGlyphs"
text-anchor="middle" opacity="0" stroke-opacity="0">A</text>
<g class="stroked-text"><desc>A</desc>
<path d="M285.6927 35.2222
L286.3117 35.2222
" />
<path d="M285.5689 35.5936
L286.0022 34.2936
" />
<path d="M286.0022 34.2936
L286.4355 35.5936
" />
</g></g>
<g style="fill:none; 
stroke:#000000; stroke-width:0.1500; stroke-opacity:1; 
stroke-linecap:round; stroke-linejoin:round;">
<text x="286.0022" y="85.6500"
textLength="1.4900" font-size="1.7333" lengthAdjust="spacingAndGlyphs"
text-anchor="middle" opacity="0" stroke-opacity="0">B</text>
<g class="stroked-text"><desc>B</desc>
<path d="M286.0951 84.9127
L286.2808 84.9746
" />
<path d="M286.2808 84.9746
L286.3427 85.0365
" />
<path d="M286.3427 85.0365
L286.4046 85.1603
" />
<path d="M286.4046 85.1603
L286.4046 85.3460
" />
<path d="M286.4046 85.3460
L286.3427 85.4698
" />
<path d="M286.3427 85.4698
L286.2808 85.5317
" />
<path d="M286.2808 85.5317
L286.1570 85.5936
" />
<path d="M286.1570 85.5936
L285.6617 85.5936
" />
<path d="M285.6617 85.5936
L285.6617 84.2936
" />
<path d="M285.6617 84.2936
L286.0951 84.2936
" />
<path d="M286.0951 84.2936
L286.2189 84.3555
" />
<path d="M286.2189 84.3555
L286.2808 84.4174
" />
<path d="M286.2808 84.4174
L286.3427 84.5412
" />
<path d="M286.3427 84.5412
L286.3427 84.6650
" />
<path d="M286.3427 84.6650
L286.2808 84.7888
" />
<path d="M286.2808 84.7888
L286.2189 84.8507
" />
<path d="M286.2189 84.8507
L286.0951 84.9127
" />
<path d="M286.0951 84.9127
L285.6617 84.9127
" />
</g></g>
<g style="fill:none; 
stroke:#000000; stroke-width:0.1500; stroke-opacity:1; 
stroke-linecap:round; stroke-linejoin:round;">
<text x="286.0022" y="135.6500"
textLength="1.4900" font-size="1.7333" lengthAdjust="spacingAndGlyphs"
text-anchor="middle" opacity="0" stroke-opacity="0">C</text>
<g class="stroked-text"><desc>C</desc>
<path d="M286.4046 135.4698
L286.3427 135.5317
" />
<path d="M286.3427 135.5317
L286.1570 135.5936
" />
<path d="M286.1570 135.5936
L286.0332 135.5936
" />
<path d="M286.0332 135.5936
L285.8474 135.5317
" />
<path d="M285.8474 135.5317
L285.7236 135.4079
" />
<path d="M285.7236 135.4079
L285.6617 135.2841
" />
<path d="M285.6617 135.2841
L285.5998 135.0365
" />
<path d="M285.5998 135.0365
L285.5998 134.8507
" />
<path d="M285.5998 134.8507
L285.6617 134.6031
" />
<path d="M285.6617 134.6031
L285.7236 134.4793
" />
<path d="M285.7236 134.4793
L285.8474 134.3555
" />
<path d="M285.8474 134.3555
L286.0332 134.2936
" />
<path d="M286.0332 134.2936
L286.1570 134.2936
" />
<path d="M286.1570 134.2936
L286.3427 134.3555
" />
<path d="M286.3427 134.3555
L286.4046 134.4174
" />
</g></g>
<g style="fill:none; 
stroke:#000000; stroke-width:0.1500; stroke-opacity:1; 
stroke-linecap:round; stroke-linejoin:round;">
<text x="286.0022" y="185.6500"
textLength="1.4900" font-size="1.7333" lengthAdjust="spacingAndGlyphs"
text-anchor="middle" opacity="0" stroke-opacity="0">D</text>
<g class="stroked-text"><desc>D</desc>
<path d="M285.6617 185.5936
L285.6617 184.2936
" />
<path d="M285.6617 184.2936
L285.9712 184.2936
" />
<path d="M285.9712 184.2936
L286.1570 184.3555
" />
<path d="M286.1570 184.3555
L286.2808 184.4793
" />
<path d="M286.2808 184.4793
L286.3427 184.6031
" />
<path d="M286.3427 184.6031
L286.4046 184.8507
" />
<path d="M286.4046 184.8507
L286.4046 185.0365
" />
<path d="M286.4046 185.0365
L286.3427 185.2841
" />
<path d="M286.3427 185.2841
L286.2808 185.4079
" />
<path d="M286.2808 185.4079
L286.1570 185.5317
" />
<path d="M286.1570 185.5317
L285.9712 185.5936
" />
<path d="M285.9712 185.5936
L285.6617 185.5936
" />
</g></g>
<g style="fill:none; 
stroke:#000000; stroke-width:0.1500; stroke-opacity:1; 
stroke-linecap:round; stroke-linejoin:round;">
<text x="200.0022" y="193.8572"
textLength="22.1500" font-size="2.0000" lengthAdjust="spacingAndGlyphs"
text-anchor="start" opacity="0" stroke-opacity="0">Date: 2025-05-12</text>
<g class="stroked-text"><desc>Date: 2025-05-12</desc>
<path d="M200.4580 193.7933
L200.4580 192.2933
" />
<path d="M200.4580 192.2933
L200.8152 192.2933
" />
<path d="M200.8152 192.2933
L201.0295 192.3648
" />
<path d="M201.0295 192.3648
L201.1723 192.5076
" />
<path d="M201.1723 192.5076
L201.2437 192.6505
" />
<path d="M201.2437 192.6505
L201.3152 192.9362
" />
<path d="M201.3152 192.9362
L201.3152 193.1505
" />
<path d="M201.3152 193.1505
L201.2437 193.4362
" />
<path d="M201.2437 193.4362
L201.1723 193.5790
" />
<path d="M201.1723 193.5790
L201.0295 193.7219
" />
<path d="M201.0295 193.7219
L200.8152 193.7933
" />
<path d="M200.8152 193.7933
L200.4580 193.7933
" />
<path d="M202.6009 193.7933
L202.6009 193.0076
" />
<path d="M202.6009 193.0076
L202.5295 192.8648
" />
<path d="M202.5295 192.8648
L202.3866 192.7933
" />
<path d="M202.3866 192.7933
L202.1009 192.7933
" />
<path d="M202.1009 192.7933
L201.9580 192.8648
" />
<path d="M202.6009 193.7219
L202.4580 193.7933
" />
<path d="M202.4580 193.7933
L202.1009 193.7933
" />
<path d="M202.1009 193.7933
L201.9580 193.7219
" />
<path d="M201.9580 193.7219
L201.8866 193.5790
" />
<path d="M201.8866 193.5790
L201.8866 193.4362
" />
<path d="M201.8866 193.4362
L201.9580 193.2933
" />
<path d="M201.9580 193.2933
L202.1009 193.2219
" />
<path d="M202.1009 193.2219
L202.4580 193.2219
" />
<path d="M202.4580 193.2219
L202.6009 193.1505
" />
<path d="M203.1009 192.7933
L203.6723 192.7933
" />
<path d="M203.3152 192.2933
L203.3152 193.5790
" />
<path d="M203.3152 193.5790
L203.3866 193.7219
" />
<path d="M203.3866 193.7219
L203.5295 193.7933
" />
<path d="M203.5295 193.7933
L203.6723 193.7933
" />
<path d="M204.7437 193.7219
L204.6009 193.7933
" />
<path d="M204.6009 193.7933
L204.3152 193.7933
" />
<path d="M204.3152 193.7933
L204.1723 193.7219
" />
<path d="M204.1723 193.7219
L204.1009 193.5790
" />
<path d="M204.1009 193.5790
L204.1009 193.0076
" />
<path d="M204.1009 193.0076
L204.1723 192.8648
" />
<path d="M204.1723 192.8648
L204.3152 192.7933
" />
<path d="M204.3152 192.7933
L204.6009 192.7933
" />
<path d="M204.6009 192.7933
L204.7437 192.8648
" />
<path d="M204.7437 192.8648
L204.8152 193.0076
" />
<path d="M204.8152 193.0076
L204.8152 193.1505
" />
<path d="M204.8152 193.1505
L204.1009 193.2933
" />
<path d="M205.4580 193.6505
L205.5295 193.7219
" />
<path d="M205.5295 193.7219
L205.4580 193.7933
" />
<path d="M205.4580 193.7933
L205.3866 193.7219
" />
<path d="M205.3866 193.7219
L205.4580 193.6505
" />
<path d="M205.4580 193.6505
L205.4580 193.7933
" />
<path d="M205.4580 192.8648
L205.5295 192.9362
" />
<path d="M205.5295 192.9362
L205.4580 193.0076
" />
<path d="M205.4580 193.0076
L205.3866 192.9362
" />
<path d="M205.3866 192.9362
L205.4580 192.8648
" />
<path d="M205.4580 192.8648
L205.4580 193.0076
" />
<path d="M207.2437 192.4362
L207.3152 192.3648
" />
<path d="M207.3152 192.3648
L207.4580 192.2933
" />
<path d="M207.4580 192.2933
L207.8152 192.2933
" />
<path d="M207.8152 192.2933
L207.9580 192.3648
" />
<path d="M207.9580 192.3648
L208.0295 192.4362
" />
<path d="M208.0295 192.4362
L208.1009 192.5790
" />
<path d="M208.1009 192.5790
L208.1009 192.7219
" />
<path d="M208.1009 192.7219
L208.0295 192.9362
" />
<path d="M208.0295 192.9362
L207.1723 193.7933
" />
<path d="M207.1723 193.7933
L208.1009 193.7933
" />
<path d="M209.0295 192.2933
L209.1723 192.2933
" />
<path d="M209.1723 192.2933
L209.3152 192.3648
" />
<path d="M209.3152 192.3648
L209.3866 192.4362
" />
<path d="M209.3866 192.4362
L209.4580 192.5790
" />
<path d="M209.4580 192.5790
L209.5295 192.8648
" />
<path d="M209.5295 192.8648
L209.5295 193.2219
" />
<path d="M209.5295 193.2219
L209.4580 193.5076
" />
<path d="M209.4580 193.5076
L209.3866 193.6505
" />
<path d="M209.3866 193.6505
L209.3152 193.7219
" />
<path d="M209.3152 193.7219
L209.1723 193.7933
" />
<path d="M209.1723 193.7933
L209.0295 193.7933
" />
<path d="M209.0295 193.7933
L208.8866 193.7219
" />
<path d="M208.8866 193.7219
L208.8152 193.6505
" />
<path d="M208.8152 193.6505
L208.7437 193.5076
" />
<path d="M208.7437 193.5076
L208.6723 193.2219
" />
<path d="M208.6723 193.2219
L208.6723 192.8648
" />
<path d="M208.6723 192.8648
L208.7437 192.5790
" />
<path d="M208.7437 192.5790
L208.8152 192.4362
" />
<path d="M208.8152 192.4362
L208.8866 192.3648
" />
<path d="M208.8866 192.3648
L209.0295 192.2933
" />
<path d="M210.1009 192.4362
L210.1723 192.3648
" />
<path d="M210.1723 192.3648
L210.3152 192.2933
" />
<path d="M210.3152 192.2933
L210.6723 192.2933
" />
<path d="M210.6723 192.2933
L210.8152 192.3648
" />
<path d="M210.8152 192.3648
L210.8866 192.4362
" />
<path d="M210.8866 192.4362
L210.9580 192.5790
" />
<path d="M210.9580 192.5790
L210.9580 192.7219
" />
<path d="M210.9580 192.7219
L210.8866 192.9362
" />
<path d="M210.8866 192.9362
L210.0295 193.7933
" />
<path d="M210.0295 193.7933
L210.9580 193.7933
" />
<path d="M212.3152 192.2933
L211.6009 192.2933
" />
<path d="M211.6009 192.2933
L211.5295 193.0076
" />
<path d="M211.5295 193.0076
L211.6009 192.9362
" />
<path d="M211.6009 192.9362
L211.7437 192.8648
" />
<path d="M211.7437 192.8648
L212.1009 192.8648
" />
<path d="M212.1009 192.8648
L212.2437 192.9362
" />
<path d="M212.2437 192.9362
L212.3152 193.0076
" />
<path d="M212.3152 193.0076
L212.3866 193.1505
" />
<path d="M212.3866 193.1505
L212.3866 193.5076
" />
<path d="M212.3866 193.5076
L212.3152 193.6505
" />
<path d="M212.3152 193.6505
L212.2437 193.7219
" />
<path d="M212.2437 193.7219
L212.1009 193.7933
" />
<path d="M212.1009 193.7933
L211.7437 193.7933
" />
<path d="M211.7437 193.7933
L211.6009 193.7219
" />
<path d="M211.6009 193.7219
L211.5295 193.6505
" />
<path d="M213.0295 193.2219
L214.1723 193.2219
" />
<path d="M215.1723 192.2933
L215.3152 192.2933
" />
<path d="M215.3152 192.2933
L215.4580 192.3648
" />
<path d="M215.4580 192.3648
L215.5295 192.4362
" />
<path d="M215.5295 192.4362
L215.6009 192.5790
" />
<path d="M215.6009 192.5790
L215.6723 192.8648
" />
<path d="M215.6723 192.8648
L215.6723 193.2219
" />
<path d="M215.6723 193.2219
L215.6009 193.5076
" />
<path d="M215.6009 193.5076
L215.5295 193.6505
" />
<path d="M215.5295 193.6505
L215.4580 193.7219
" />
<path d="M215.4580 193.7219
L215.3152 193.7933
" />
<path d="M215.3152 193.7933
L215.1723 193.7933
" />
<path d="M215.1723 193.7933
L215.0295 193.7219
" />
<path d="M215.0295 193.7219
L214.9580 193.6505
" />
<path d="M214.9580 193.6505
L214.8866 193.5076
" />
<path d="M214.8866 193.5076
L214.8152 193.2219
" />
<path d="M214.8152 193.2219
L214.8152 192.8648
" />
<path d="M214.8152 192.8648
L214.8866 192.5790
" />
<path d="M214.8866 192.5790
L214.9580 192.4362
" />
<path d="M214.9580 192.4362
L215.0295 192.3648
" />
<path d="M215.0295 192.3648
L215.1723 192.2933
" />
<path d="M217.0295 192.2933
L216.3152 192.2933
" />
<path d="M216.3152 192.2933
L216.2437 193.0076
" />
<path d="M216.2437 193.0076
L216.3152 192.9362
" />
<path d="M216.3152 192.9362
L216.4580 192.8648
" />
<path d="M216.4580 192.8648
L216.8152 192.8648
" />
<path d="M216.8152 192.8648
L216.9580 192.9362
" />
<path d="M216.9580 192.9362
L217.0295 193.0076
" />
<path d="M217.0295 193.0076
L217.1009 193.1505
" />
<path d="M217.1009 193.1505
L217.1009 193.5076
" />
<path d="M217.1009 193.5076
L217.0295 193.6505
" />
<path d="M217.0295 193.6505
L216.9580 193.7219
" />
<path d="M216.9580 193.7219
L216.8152 193.7933
" />
<path d="M216.8152 193.7933
L216.4580 193.7933
" />
<path d="M216.4580 193.7933
L216.3152 193.7219
" />
<path d="M216.3152 193.7219
L216.2437 193.6505
" />
<path d="M217.7437 193.2219
L218.8866 193.2219
" />
<path d="M220.3866 193.7933
L219.5295 193.7933
" />
<path d="M219.9580 193.7933
L219.9580 192.2933
" />
<path d="M219.9580 192.2933
L219.8152 192.5076
" />
<path d="M219.8152 192.5076
L219.6723 192.6505
" />
<path d="M219.6723 192.6505
L219.5295 192.7219
" />
<path d="M220.9580 192.4362
L221.0295 192.3648
" />
<path d="M221.0295 192.3648
L221.1723 192.2933
" />
<path d="M221.1723 192.2933
L221.5295 192.2933
" />
<path d="M221.5295 192.2933
L221.6723 192.3648
" />
<path d="M221.6723 192.3648
L221.7437 192.4362
" />
<path d="M221.7437 192.4362
L221.8152 192.5790
" />
<path d="M221.8152 192.5790
L221.8152 192.7219
" />
<path d="M221.8152 192.7219
L221.7437 192.9362
" />
<path d="M221.7437 192.9362
L220.8866 193.7933
" />
<path d="M220.8866 193.7933
L221.8152 193.7933
" />
</g></g>
<g style="fill:none; 
stroke:#000000; stroke-width:0.1500; stroke-opacity:1; 
stroke-linecap:round; stroke-linejoin:round;">
<path d="M177.0022 194.5072
L285.0022 194.5072
" />
</g>
<g style="fill:none; 
stroke:#000000; stroke-width:0.1500; stroke-opacity:1; 
stroke-linecap:round; stroke-linejoin:round;">
<text x="178.0022" y="196.6572"
textLength="20.6500" font-size="2.0000" lengthAdjust="spacingAndGlyphs"
text-anchor="start" opacity="0" stroke-opacity="0">${KICAD_VERSION}</text>
<g class="stroked-text"><desc>${KICAD_VERSION}</desc>
<path d="M178.3866 196.5219
L178.6009 196.5933
" />
<path d="M178.6009 196.5933
L178.9580 196.5933
" />
<path d="M178.9580 196.5933
L179.1009 196.5219
" />
<path d="M179.1009 196.5219
L179.1723 196.4505
" />
<path d="M179.1723 196.4505
L179.2437 196.3076
" />
<path d="M179.2437 196.3076
L179.2437 196.1648
" />
<path d="M179.2437 196.1648
L179.1723 196.0219
" />
<path d="M179.1723 196.0219
L179.1009 195.9505
" />
<path d="M179.1009 195.9505
L178.9580 195.8790
" />
<path d="M178.9580 195.8790
L178.6723 195.8076
" />
<path d="M178.6723 195.8076
L178.5295 195.7362
" />
<path d="M178.5295 195.7362
L178.4580 195.6648
" />
<path d="M178.4580 195.6648
L178.3866 195.5219
" />
<path d="M178.3866 195.5219
L178.3866 195.3790
" />
<path d="M178.3866 195.3790
L178.4580 195.2362
" />
<path d="M178.4580 195.2362
L178.5295 195.1648
" />
<path d="M178.5295 195.1648
L178.6723 195.0933
" />
<path d="M178.6723 195.0933
L179.0295 195.0933
" />
<path d="M179.0295 195.0933
L179.2437 195.1648
" />
<path d="M178.8152 194.8790
L178.8152 196.8076
" />
<path d="M180.3152 197.1648
L180.2437 197.1648
" />
<path d="M180.2437 197.1648
L180.1009 197.0933
" />
<path d="M180.1009 197.0933
L180.0295 196.9505
" />
<path d="M180.0295 196.9505
L180.0295 196.2362
" />
<path d="M180.0295 196.2362
L179.9580 196.0933
" />
<path d="M179.9580 196.0933
L179.8152 196.0219
" />
<path d="M179.8152 196.0219
L179.9580 195.9505
" />
<path d="M179.9580 195.9505
L180.0295 195.8076
" />
<path d="M180.0295 195.8076
L180.0295 195.0933
" />
<path d="M180.0295 195.0933
L180.1009 194.9505
" />
<path d="M180.1009 194.9505
L180.2437 194.8790
" />
<path d="M180.2437 194.8790
L180.3152 194.8790
" />
<path d="M180.8866 196.5933
L180.8866 195.0933
" />
<path d="M181.7437 196.5933
L181.1009 195.7362
" />
<path d="M181.7437 195.0933
L180.8866 195.9505
" />
<path d="M182.3866 196.5933
L182.3866 195.0933
" />
<path d="M183.9580 196.4505
L183.8866 196.5219
" />
<path d="M183.8866 196.5219
L183.6723 196.5933
" />
<path d="M183.6723 196.5933
L183.5295 196.5933
" />
<path d="M183.5295 196.5933
L183.3152 196.5219
" />
<path d="M183.3152 196.5219
L183.1723 196.3790
" />
<path d="M183.1723 196.3790
L183.1009 196.2362
" />
<path d="M183.1009 196.2362
L183.0295 195.9505
" />
<path d="M183.0295 195.9505
L183.0295 195.7362
" />
<path d="M183.0295 195.7362
L183.1009 195.4505
" />
<path d="M183.1009 195.4505
L183.1723 195.3076
" />
<path d="M183.1723 195.3076
L183.3152 195.1648
" />
<path d="M183.3152 195.1648
L183.5295 195.0933
" />
<path d="M183.5295 195.0933
L183.6723 195.0933
" />
<path d="M183.6723 195.0933
L183.8866 195.1648
" />
<path d="M183.8866 195.1648
L183.9580 195.2362
" />
<path d="M184.5295 196.1648
L185.2437 196.1648
" />
<path d="M184.3866 196.5933
L184.8866 195.0933
" />
<path d="M184.8866 195.0933
L185.3866 196.5933
" />
<path d="M185.8866 196.5933
L185.8866 195.0933
" />
<path d="M185.8866 195.0933
L186.2437 195.0933
" />
<path d="M186.2437 195.0933
L186.4580 195.1648
" />
<path d="M186.4580 195.1648
L186.6009 195.3076
" />
<path d="M186.6009 195.3076
L186.6723 195.4505
" />
<path d="M186.6723 195.4505
L186.7437 195.7362
" />
<path d="M186.7437 195.7362
L186.7437 195.9505
" />
<path d="M186.7437 195.9505
L186.6723 196.2362
" />
<path d="M186.6723 196.2362
L186.6009 196.3790
" />
<path d="M186.6009 196.3790
L186.4580 196.5219
" />
<path d="M186.4580 196.5219
L186.2437 196.5933
" />
<path d="M186.2437 196.5933
L185.8866 196.5933
" />
<path d="M187.0295 196.7362
L188.1723 196.7362
" />
<path d="M188.3152 195.0933
L188.8152 196.5933
" />
<path d="M188.8152 196.5933
L189.3152 195.0933
" />
<path d="M189.8152 195.8076
L190.3152 195.8076
" />
<path d="M190.5295 196.5933
L189.8152 196.5933
" />
<path d="M189.8152 196.5933
L189.8152 195.0933
" />
<path d="M189.8152 195.0933
L190.5295 195.0933
" />
<path d="M192.0295 196.5933
L191.5295 195.8790
" />
<path d="M191.1723 196.5933
L191.1723 195.0933
" />
<path d="M191.1723 195.0933
L191.7437 195.0933
" />
<path d="M191.7437 195.0933
L191.8866 195.1648
" />
<path d="M191.8866 195.1648
L191.9580 195.2362
" />
<path d="M191.9580 195.2362
L192.0295 195.3790
" />
<path d="M192.0295 195.3790
L192.0295 195.5933
" />
<path d="M192.0295 195.5933
L191.9580 195.7362
" />
<path d="M191.9580 195.7362
L191.8866 195.8076
" />
<path d="M191.8866 195.8076
L191.7437 195.8790
" />
<path d="M191.7437 195.8790
L191.1723 195.8790
" />
<path d="M192.6009 196.5219
L192.8152 196.5933
" />
<path d="M192.8152 196.5933
L193.1723 196.5933
" />
<path d="M193.1723 196.5933
L193.3152 196.5219
" />
<path d="M193.3152 196.5219
L193.3866 196.4505
" />
<path d="M193.3866 196.4505
L193.4580 196.3076
" />
<path d="M193.4580 196.3076
L193.4580 196.1648
" />
<path d="M193.4580 196.1648
L193.3866 196.0219
" />
<path d="M193.3866 196.0219
L193.3152 195.9505
" />
<path d="M193.3152 195.9505
L193.1723 195.8790
" />
<path d="M193.1723 195.8790
L192.8866 195.8076
" />
<path d="M192.8866 195.8076
L192.7437 195.7362
" />
<path d="M192.7437 195.7362
L192.6723 195.6648
" />
<path d="M192.6723 195.6648
L192.6009 195.5219
" />
<path d="M192.6009 195.5219
L192.6009 195.3790
" />
<path d="M192.6009 195.3790
L192.6723 195.2362
" />
<path d="M192.6723 195.2362
L192.7437 195.1648
" />
<path d="M192.7437 195.1648
L192.8866 195.0933
" />
<path d="M192.8866 195.0933
L193.2437 195.0933
" />
<path d="M193.2437 195.0933
L193.4580 195.1648
" />
<path d="M194.1009 196.5933
L194.1009 195.0933
" />
<path d="M195.1009 195.0933
L195.3866 195.0933
" />
<path d="M195.3866 195.0933
L195.5295 195.1648
" />
<path d="M195.5295 195.1648
L195.6723 195.3076
" />
<path d="M195.6723 195.3076
L195.7437 195.5933
" />
<path d="M195.7437 195.5933
L195.7437 196.0933
" />
<path d="M195.7437 196.0933
L195.6723 196.3790
" />
<path d="M195.6723 196.3790
L195.5295 196.5219
" />
<path d="M195.5295 196.5219
L195.3866 196.5933
" />
<path d="M195.3866 196.5933
L195.1009 196.5933
" />
<path d="M195.1009 196.5933
L194.9580 196.5219
" />
<path d="M194.9580 196.5219
L194.8152 196.3790
" />
<path d="M194.8152 196.3790
L194.7437 196.0933
" />
<path d="M194.7437 196.0933
L194.7437 195.5933
" />
<path d="M194.7437 195.5933
L194.8152 195.3076
" />
<path d="M194.8152 195.3076
L194.9580 195.1648
" />
<path d="M194.9580 195.1648
L195.1009 195.0933
" />
<path d="M196.3866 196.5933
L196.3866 195.0933
" />
<path d="M196.3866 195.0933
L197.2437 196.5933
" />
<path d="M197.2437 196.5933
L197.2437 195.0933
" />
<path d="M197.8152 197.1648
L197.8866 197.1648
" />
<path d="M197.8866 197.1648
L198.0295 197.0933
" />
<path d="M198.0295 197.0933
L198.1009 196.9505
" />
<path d="M198.1009 196.9505
L198.1009 196.2362
" />
<path d="M198.1009 196.2362
L198.1723 196.0933
" />
<path d="M198.1723 196.0933
L198.3152 196.0219
" />
<path d="M198.3152 196.0219
L198.1723 195.9505
" />
<path d="M198.1723 195.9505
L198.1009 195.8076
" />
<path d="M198.1009 195.8076
L198.1009 195.0933
" />
<path d="M198.1009 195.0933
L198.0295 194.9505
" />
<path d="M198.0295 194.9505
L197.8866 194.8790
" />
<path d="M197.8866 194.8790
L197.8152 194.8790
" />
</g></g>
<g style="fill:none; 
stroke:#000000; stroke-width:0.1500; stroke-opacity:1; 
stroke-linecap:round; stroke-linejoin:round;">
<path d="M177.0022 191.5072
L285.0022 191.5072
" />
</g>
<g style="fill:none; 
stroke:#000000; stroke-width:0.3000; stroke-opacity:1; 
stroke-linecap:round; stroke-linejoin:round;">
<text x="263.0022" y="193.8572"
textLength="6.3857" font-size="2.0000" lengthAdjust="spacingAndGlyphs"
text-anchor="start" opacity="0" stroke-opacity="0">Rev: </text>
<g class="stroked-text"><desc>Rev: </desc>
<path d="M264.4139 193.7855
L263.9139 193.0712
" />
<path d="M263.5567 193.7855
L263.5567 192.2855
" />
<path d="M263.5567 192.2855
L264.1281 192.2855
" />
<path d="M264.1281 192.2855
L264.2710 192.3570
" />
<path d="M264.2710 192.3570
L264.3424 192.4284
" />
<path d="M264.3424 192.4284
L264.4139 192.5712
" />
<path d="M264.4139 192.5712
L264.4139 192.7855
" />
<path d="M264.4139 192.7855
L264.3424 192.9284
" />
<path d="M264.3424 192.9284
L264.2710 192.9998
" />
<path d="M264.2710 192.9998
L264.1281 193.0712
" />
<path d="M264.1281 193.0712
L263.5567 193.0712
" />
<path d="M265.6281 193.7141
L265.4853 193.7855
" />
<path d="M265.4853 193.7855
L265.1996 193.7855
" />
<path d="M265.1996 193.7855
L265.0567 193.7141
" />
<path d="M265.0567 193.7141
L264.9853 193.5712
" />
<path d="M264.9853 193.5712
L264.9853 192.9998
" />
<path d="M264.9853 192.9998
L265.0567 192.8570
" />
<path d="M265.0567 192.8570
L265.1996 192.7855
" />
<path d="M265.1996 192.7855
L265.4853 192.7855
" />
<path d="M265.4853 192.7855
L265.6281 192.8570
" />
<path d="M265.6281 192.8570
L265.6996 192.9998
" />
<path d="M265.6996 192.9998
L265.6996 193.1427
" />
<path d="M265.6996 193.1427
L264.9853 193.2855
" />
<path d="M266.1996 192.7855
L266.5567 193.7855
" />
<path d="M266.5567 193.7855
L266.9139 192.7855
" />
<path d="M267.4853 193.6427
L267.5567 193.7141
" />
<path d="M267.5567 193.7141
L267.4853 193.7855
" />
<path d="M267.4853 193.7855
L267.4139 193.7141
" />
<path d="M267.4139 193.7141
L267.4853 193.6427
" />
<path d="M267.4853 193.6427
L267.4853 193.7855
" />
<path d="M267.4853 192.8570
L267.5567 192.9284
" />
<path d="M267.5567 192.9284
L267.4853 192.9998
" />
<path d="M267.4853 192.9998
L267.4139 192.9284
" />
<path d="M267.4139 192.9284
L267.4853 192.8570
" />
<path d="M267.4853 192.8570
L267.4853 192.9998
" />
</g></g>
<g style="fill:none; 
stroke:#000000; stroke-width:0.1500; stroke-opacity:1; 
stroke-linecap:round; stroke-linejoin:round;">
<text x="178.0022" y="193.8572"
textLength="9.3643" font-size="2.0000" lengthAdjust="spacingAndGlyphs"
text-anchor="start" opacity="0" stroke-opacity="0">Size: A4</text>
<g class="stroked-text"><desc>Size: A4</desc>
<path d="M178.3866 193.7219
L178.6009 193.7933
" />
<path d="M178.6009 193.7933
L178.9580 193.7933
" />
<path d="M178.9580 193.7933
L179.1009 193.7219
" />
<path d="M179.1009 193.7219
L179.1723 193.6505
" />
<path d="M179.1723 193.6505
L179.2437 193.5076
" />
<path d="M179.2437 193.5076
L179.2437 193.3648
" />
<path d="M179.2437 193.3648
L179.1723 193.2219
" />
<path d="M179.1723 193.2219
L179.1009 193.1505
" />
<path d="M179.1009 193.1505
L178.9580 193.0790
" />
<path d="M178.9580 193.0790
L178.6723 193.0076
" />
<path d="M178.6723 193.0076
L178.5295 192.9362
" />
<path d="M178.5295 192.9362
L178.4580 192.8648
" />
<path d="M178.4580 192.8648
L178.3866 192.7219
" />
<path d="M178.3866 192.7219
L178.3866 192.5790
" />
<path d="M178.3866 192.5790
L178.4580 192.4362
" />
<path d="M178.4580 192.4362
L178.5295 192.3648
" />
<path d="M178.5295 192.3648
L178.6723 192.2933
" />
<path d="M178.6723 192.2933
L179.0295 192.2933
" />
<path d="M179.0295 192.2933
L179.2437 192.3648
" />
<path d="M179.8866 193.7933
L179.8866 192.7933
" />
<path d="M179.8866 192.2933
L179.8152 192.3648
" />
<path d="M179.8152 192.3648
L179.8866 192.4362
" />
<path d="M179.8866 192.4362
L179.9580 192.3648
" />
<path d="M179.9580 192.3648
L179.8866 192.2933
" />
<path d="M179.8866 192.2933
L179.8866 192.4362
" />
<path d="M180.4580 192.7933
L181.2437 192.7933
" />
<path d="M181.2437 192.7933
L180.4580 193.7933
" />
<path d="M180.4580 193.7933
L181.2437 193.7933
" />
<path d="M182.3866 193.7219
L182.2437 193.7933
" />
<path d="M182.2437 193.7933
L181.9580 193.7933
" />
<path d="M181.9580 193.7933
L181.8152 193.7219
" />
<path d="M181.8152 193.7219
L181.7437 193.5790
" />
<path d="M181.7437 193.5790
L181.7437 193.0076
" />
<path d="M181.7437 193.0076
L181.8152 192.8648
" />
<path d="M181.8152 192.8648
L181.9580 192.7933
" />
<path d="M181.9580 192.7933
L182.2437 192.7933
" />
<path d="M182.2437 192.7933
L182.3866 192.8648
" />
<path d="M182.3866 192.8648
L182.4580 193.0076
" />
<path d="M182.4580 193.0076
L182.4580 193.1505
" />
<path d="M182.4580 193.1505
L181.7437 193.2933
" />
<path d="M183.1009 193.6505
L183.1723 193.7219
" />
<path d="M183.1723 193.7219
L183.1009 193.7933
" />
<path d="M183.1009 193.7933
L183.0295 193.7219
" />
<path d="M183.0295 193.7219
L183.1009 193.6505
" />
<path d="M183.1009 193.6505
L183.1009 193.7933
" />
<path d="M183.1009 192.8648
L183.1723 192.9362
" />
<path d="M183.1723 192.9362
L183.1009 193.0076
" />
<path d="M183.1009 193.0076
L183.0295 192.9362
" />
<path d="M183.0295 192.9362
L183.1009 192.8648
" />
<path d="M183.1009 192.8648
L183.1009 193.0076
" />
<path d="M184.8866 193.3648
L185.6009 193.3648
" />
<path d="M184.7437 193.7933
L185.2437 192.2933
" />
<path d="M185.2437 192.2933
L185.7437 193.7933
" />
<path d="M186.8866 192.7933
L186.8866 193.7933
" />
<path d="M186.5295 192.2219
L186.1723 193.2933
" />
<path d="M186.1723 193.2933
L187.1009 193.2933
" />
</g></g>
<g style="fill:none; 
stroke:#000000; stroke-width:0.1500; stroke-opacity:1; 
stroke-linecap:round; stroke-linejoin:round;">
<text x="263.0022" y="196.6572"
textLength="7.0786" font-size="2.0000" lengthAdjust="spacingAndGlyphs"
text-anchor="start" opacity="0" stroke-opacity="0">Id: /1</text>
<g class="stroked-text"><desc>Id: /1</desc>
<path d="M263.4580 196.5933
L263.4580 195.0933
" />
<path d="M264.8152 196.5933
L264.8152 195.0933
" />
<path d="M264.8152 196.5219
L264.6723 196.5933
" />
<path d="M264.6723 196.5933
L264.3866 196.5933
" />
<path d="M264.3866 196.5933
L264.2437 196.5219
" />
<path d="M264.2437 196.5219
L264.1723 196.4505
" />
<path d="M264.1723 196.4505
L264.1009 196.3076
" />
<path d="M264.1009 196.3076
L264.1009 195.8790
" />
<path d="M264.1009 195.8790
L264.1723 195.7362
" />
<path d="M264.1723 195.7362
L264.2437 195.6648
" />
<path d="M264.2437 195.6648
L264.3866 195.5933
" />
<path d="M264.3866 195.5933
L264.6723 195.5933
" />
<path d="M264.6723 195.5933
L264.8152 195.6648
" />
<path d="M265.5295 196.4505
L265.6009 196.5219
" />
<path d="M265.6009 196.5219
L265.5295 196.5933
" />
<path d="M265.5295 196.5933
L265.4580 196.5219
" />
<path d="M265.4580 196.5219
L265.5295 196.4505
" />
<path d="M265.5295 196.4505
L265.5295 196.5933
" />
<path d="M265.5295 195.6648
L265.6009 195.7362
" />
<path d="M265.6009 195.7362
L265.5295 195.8076
" />
<path d="M265.5295 195.8076
L265.4580 195.7362
" />
<path d="M265.4580 195.7362
L265.5295 195.6648
" />
<path d="M265.5295 195.6648
L265.5295 195.8076
" />
<path d="M268.4580 195.0219
L267.1723 196.9505
" />
<path d="M269.7437 196.5933
L268.8866 196.5933
" />
<path d="M269.3152 196.5933
L269.3152 195.0933
" />
<path d="M269.3152 195.0933
L269.1723 195.3076
" />
<path d="M269.1723 195.3076
L269.0295 195.4505
" />
<path d="M269.0295 195.4505
L268.8866 195.5219
" />
</g></g>
<g style="fill:none; 
stroke:#000000; stroke-width:0.1500; stroke-opacity:1; 
stroke-linecap:round; stroke-linejoin:round;">
<path d="M177.0022 187.5072
L285.0022 187.5072
" />
</g>
<g style="fill:none; 
stroke:#000000; stroke-width:0.4000; stroke-opacity:1; 
stroke-linecap:round; stroke-linejoin:round;">
<text x="178.0022" y="190.3072"
textLength="9.6571" font-size="2.6667" lengthAdjust="spacingAndGlyphs"
text-anchor="start" opacity="0" stroke-opacity="0">Title: </text>
<g class="stroked-text"><desc>Title: </desc>
<path d="M178.6939 188.2116
L179.8368 188.2116
" />
<path d="M179.0154 190.2116
L179.2654 188.2116
" />
<path d="M180.2535 190.2116
L180.4201 188.8783
" />
<path d="M180.5035 188.2116
L180.3963 188.3069
" />
<path d="M180.3963 188.3069
L180.4796 188.4021
" />
<path d="M180.4796 188.4021
L180.5868 188.3069
" />
<path d="M180.5868 188.3069
L180.5035 188.2116
" />
<path d="M180.5035 188.2116
L180.4796 188.4021
" />
<path d="M181.0868 188.8783
L181.8487 188.8783
" />
<path d="M181.4558 188.2116
L181.2415 189.9259
" />
<path d="M181.2415 189.9259
L181.3130 190.1164
" />
<path d="M181.3130 190.1164
L181.4915 190.2116
" />
<path d="M181.4915 190.2116
L181.6820 190.2116
" />
<path d="M182.6344 190.2116
L182.4558 190.1164
" />
<path d="M182.4558 190.1164
L182.3844 189.9259
" />
<path d="M182.3844 189.9259
L182.5987 188.2116
" />
<path d="M184.1701 190.1164
L183.9677 190.2116
" />
<path d="M183.9677 190.2116
L183.5868 190.2116
" />
<path d="M183.5868 190.2116
L183.4082 190.1164
" />
<path d="M183.4082 190.1164
L183.3368 189.9259
" />
<path d="M183.3368 189.9259
L183.4320 189.1640
" />
<path d="M183.4320 189.1640
L183.5511 188.9735
" />
<path d="M183.5511 188.9735
L183.7535 188.8783
" />
<path d="M183.7535 188.8783
L184.1344 188.8783
" />
<path d="M184.1344 188.8783
L184.3130 188.9735
" />
<path d="M184.3130 188.9735
L184.3844 189.1640
" />
<path d="M184.3844 189.1640
L184.3606 189.3545
" />
<path d="M184.3606 189.3545
L183.3844 189.5450
" />
<path d="M185.1344 190.0212
L185.2177 190.1164
" />
<path d="M185.2177 190.1164
L185.1106 190.2116
" />
<path d="M185.1106 190.2116
L185.0273 190.1164
" />
<path d="M185.0273 190.1164
L185.1344 190.0212
" />
<path d="M185.1344 190.0212
L185.1106 190.2116
" />
<path d="M185.2654 188.9735
L185.3487 189.0688
" />
<path d="M185.3487 189.0688
L185.2415 189.1640
" />
<path d="M185.2415 189.1640
L185.1582 189.0688
" />
<path d="M185.1582 189.0688
L185.2654 188.9735
" />
<path d="M185.2654 188.9735
L185.2415 189.1640
" />
</g></g>
<g style="fill:none; 
stroke:#000000; stroke-width:0.1500; stroke-opacity:1; 
stroke-linecap:round; stroke-linejoin:round;">
<text x="178.0022" y="186.4572"
textLength="27.4357" font-size="2.0000" lengthAdjust="spacingAndGlyphs"
text-anchor="start" opacity="0" stroke-opacity="0">File: BeeLight.kicad_pcb</text>
<g class="stroked-text"><desc>File: BeeLight.kicad_pcb</desc>
<path d="M178.9580 185.6076
L178.4580 185.6076
" />
<path d="M178.4580 186.3933
L178.4580 184.8933
" />
<path d="M178.4580 184.8933
L179.1723 184.8933
" />
<path d="M179.7437 186.3933
L179.7437 185.3933
" />
<path d="M179.7437 184.8933
L179.6723 184.9648
" />
<path d="M179.6723 184.9648
L179.7437 185.0362
" />
<path d="M179.7437 185.0362
L179.8152 184.9648
" />
<path d="M179.8152 184.9648
L179.7437 184.8933
" />
<path d="M179.7437 184.8933
L179.7437 185.0362
" />
<path d="M180.6723 186.3933
L180.5295 186.3219
" />
<path d="M180.5295 186.3219
L180.4580 186.1790
" />
<path d="M180.4580 186.1790
L180.4580 184.8933
" />
<path d="M181.8152 186.3219
L181.6723 186.3933
" />
<path d="M181.6723 186.3933
L181.3866 186.3933
" />
<path d="M181.3866 186.3933
L181.2437 186.3219
" />
<path d="M181.2437 186.3219
L181.1723 186.1790
" />
<path d="M181.1723 186.1790
L181.1723 185.6076
" />
<path d="M181.1723 185.6076
L181.2437 185.4648
" />
<path d="M181.2437 185.4648
L181.3866 185.3933
" />
<path d="M181.3866 185.3933
L181.6723 185.3933
" />
<path d="M181.6723 185.3933
L181.8152 185.4648
" />
<path d="M181.8152 185.4648
L181.8866 185.6076
" />
<path d="M181.8866 185.6076
L181.8866 185.7505
" />
<path d="M181.8866 185.7505
L181.1723 185.8933
" />
<path d="M182.5295 186.2505
L182.6009 186.3219
" />
<path d="M182.6009 186.3219
L182.5295 186.3933
" />
<path d="M182.5295 186.3933
L182.4580 186.3219
" />
<path d="M182.4580 186.3219
L182.5295 186.2505
" />
<path d="M182.5295 186.2505
L182.5295 186.3933
" />
<path d="M182.5295 185.4648
L182.6009 185.5362
" />
<path d="M182.6009 185.5362
L182.5295 185.6076
" />
<path d="M182.5295 185.6076
L182.4580 185.5362
" />
<path d="M182.4580 185.5362
L182.5295 185.4648
" />
<path d="M182.5295 185.4648
L182.5295 185.6076
" />
<path d="M184.8866 185.6076
L185.1009 185.6790
" />
<path d="M185.1009 185.6790
L185.1723 185.7505
" />
<path d="M185.1723 185.7505
L185.2437 185.8933
" />
<path d="M185.2437 185.8933
L185.2437 186.1076
" />
<path d="M185.2437 186.1076
L185.1723 186.2505
" />
<path d="M185.1723 186.2505
L185.1009 186.3219
" />
<path d="M185.1009 186.3219
L184.9580 186.3933
" />
<path d="M184.9580 186.3933
L184.3866 186.3933
" />
<path d="M184.3866 186.3933
L184.3866 184.8933
" />
<path d="M184.3866 184.8933
L184.8866 184.8933
" />
<path d="M184.8866 184.8933
L185.0295 184.9648
" />
<path d="M185.0295 184.9648
L185.1009 185.0362
" />
<path d="M185.1009 185.0362
L185.1723 185.1790
" />
<path d="M185.1723 185.1790
L185.1723 185.3219
" />
<path d="M185.1723 185.3219
L185.1009 185.4648
" />
<path d="M185.1009 185.4648
L185.0295 185.5362
" />
<path d="M185.0295 185.5362
L184.8866 185.6076
" />
<path d="M184.8866 185.6076
L184.3866 185.6076
" />
<path d="M186.4580 186.3219
L186.3152 186.3933
" />
<path d="M186.3152 186.3933
L186.0295 186.3933
" />
<path d="M186.0295 186.3933
L185.8866 186.3219
" />
<path d="M185.8866 186.3219
L185.8152 186.1790
" />
<path d="M185.8152 186.1790
L185.8152 185.6076
" />
<path d="M185.8152 185.6076
L185.8866 185.4648
" />
<path d="M185.8866 185.4648
L186.0295 185.3933
" />
<path d="M186.0295 185.3933
L186.3152 185.3933
" />
<path d="M186.3152 185.3933
L186.4580 185.4648
" />
<path d="M186.4580 185.4648
L186.5295 185.6076
" />
<path d="M186.5295 185.6076
L186.5295 185.7505
" />
<path d="M186.5295 185.7505
L185.8152 185.8933
" />
<path d="M187.7437 186.3219
L187.6009 186.3933
" />
<path d="M187.6009 186.3933
L187.3152 186.3933
" />
<path d="M187.3152 186.3933
L187.1723 186.3219
" />
<path d="M187.1723 186.3219
L187.1009 186.1790
" />
<path d="M187.1009 186.1790
L187.1009 185.6076
" />
<path d="M187.1009 185.6076
L187.1723 185.4648
" />
<path d="M187.1723 185.4648
L187.3152 185.3933
" />
<path d="M187.3152 185.3933
L187.6009 185.3933
" />
<path d="M187.6009 185.3933
L187.7437 185.4648
" />
<path d="M187.7437 185.4648
L187.8152 185.6076
" />
<path d="M187.8152 185.6076
L187.8152 185.7505
" />
<path d="M187.8152 185.7505
L187.1009 185.8933
" />
<path d="M189.1723 186.3933
L188.4580 186.3933
" />
<path d="M188.4580 186.3933
L188.4580 184.8933
" />
<path d="M189.6723 186.3933
L189.6723 185.3933
" />
<path d="M189.6723 184.8933
L189.6009 184.9648
" />
<path d="M189.6009 184.9648
L189.6723 185.0362
" />
<path d="M189.6723 185.0362
L189.7437 184.9648
" />
<path d="M189.7437 184.9648
L189.6723 184.8933
" />
<path d="M189.6723 184.8933
L189.6723 185.0362
" />
<path d="M191.0295 185.3933
L191.0295 186.6076
" />
<path d="M191.0295 186.6076
L190.9580 186.7505
" />
<path d="M190.9580 186.7505
L190.8866 186.8219
" />
<path d="M190.8866 186.8219
L190.7437 186.8933
" />
<path d="M190.7437 186.8933
L190.5295 186.8933
" />
<path d="M190.5295 186.8933
L190.3866 186.8219
" />
<path d="M191.0295 186.3219
L190.8866 186.3933
" />
<path d="M190.8866 186.3933
L190.6009 186.3933
" />
<path d="M190.6009 186.3933
L190.4580 186.3219
" />
<path d="M190.4580 186.3219
L190.3866 186.2505
" />
<path d="M190.3866 186.2505
L190.3152 186.1076
" />
<path d="M190.3152 186.1076
L190.3152 185.6790
" />
<path d="M190.3152 185.6790
L190.3866 185.5362
" />
<path d="M190.3866 185.5362
L190.4580 185.4648
" />
<path d="M190.4580 185.4648
L190.6009 185.3933
" />
<path d="M190.6009 185.3933
L190.8866 185.3933
" />
<path d="M190.8866 185.3933
L191.0295 185.4648
" />
<path d="M191.7437 186.3933
L191.7437 184.8933
" />
<path d="M192.3866 186.3933
L192.3866 185.6076
" />
<path d="M192.3866 185.6076
L192.3152 185.4648
" />
<path d="M192.3152 185.4648
L192.1723 185.3933
" />
<path d="M192.1723 185.3933
L191.9580 185.3933
" />
<path d="M191.9580 185.3933
L191.8152 185.4648
" />
<path d="M191.8152 185.4648
L191.7437 185.5362
" />
<path d="M192.8866 185.3933
L193.4580 185.3933
" />
<path d="M193.1009 184.8933
L193.1009 186.1790
" />
<path d="M193.1009 186.1790
L193.1723 186.3219
" />
<path d="M193.1723 186.3219
L193.3152 186.3933
" />
<path d="M193.3152 186.3933
L193.4580 186.3933
" />
<path d="M193.9580 186.2505
L194.0295 186.3219
" />
<path d="M194.0295 186.3219
L193.9580 186.3933
" />
<path d="M193.9580 186.3933
L193.8866 186.3219
" />
<path d="M193.8866 186.3219
L193.9580 186.2505
" />
<path d="M193.9580 186.2505
L193.9580 186.3933
" />
<path d="M194.6723 186.3933
L194.6723 184.8933
" />
<path d="M194.8152 185.8219
L195.2437 186.3933
" />
<path d="M195.2437 185.3933
L194.6723 185.9648
" />
<path d="M195.8866 186.3933
L195.8866 185.3933
" />
<path d="M195.8866 184.8933
L195.8152 184.9648
" />
<path d="M195.8152 184.9648
L195.8866 185.0362
" />
<path d="M195.8866 185.0362
L195.9580 184.9648
" />
<path d="M195.9580 184.9648
L195.8866 184.8933
" />
<path d="M195.8866 184.8933
L195.8866 185.0362
" />
<path d="M197.2437 186.3219
L197.1009 186.3933
" />
<path d="M197.1009 186.3933
L196.8152 186.3933
" />
<path d="M196.8152 186.3933
L196.6723 186.3219
" />
<path d="M196.6723 186.3219
L196.6009 186.2505
" />
<path d="M196.6009 186.2505
L196.5295 186.1076
" />
<path d="M196.5295 186.1076
L196.5295 185.6790
" />
<path d="M196.5295 185.6790
L196.6009 185.5362
" />
<path d="M196.6009 185.5362
L196.6723 185.4648
" />
<path d="M196.6723 185.4648
L196.8152 185.3933
" />
<path d="M196.8152 185.3933
L197.1009 185.3933
" />
<path d="M197.1009 185.3933
L197.2437 185.4648
" />
<path d="M198.5295 186.3933
L198.5295 185.6076
" />
<path d="M198.5295 185.6076
L198.4580 185.4648
" />
<path d="M198.4580 185.4648
L198.3152 185.3933
" />
<path d="M198.3152 185.3933
L198.0295 185.3933
" />
<path d="M198.0295 185.3933
L197.8866 185.4648
" />
<path d="M198.5295 186.3219
L198.3866 186.3933
" />
<path d="M198.3866 186.3933
L198.0295 186.3933
" />
<path d="M198.0295 186.3933
L197.8866 186.3219
" />
<path d="M197.8866 186.3219
L197.8152 186.1790
" />
<path d="M197.8152 186.1790
L197.8152 186.0362
" />
<path d="M197.8152 186.0362
L197.8866 185.8933
" />
<path d="M197.8866 185.8933
L198.0295 185.8219
" />
<path d="M198.0295 185.8219
L198.3866 185.8219
" />
<path d="M198.3866 185.8219
L198.5295 185.7505
" />
<path d="M199.8866 186.3933
L199.8866 184.8933
" />
<path d="M199.8866 186.3219
L199.7437 186.3933
" />
<path d="M199.7437 186.3933
L199.4580 186.3933
" />
<path d="M199.4580 186.3933
L199.3152 186.3219
" />
<path d="M199.3152 186.3219
L199.2437 186.2505
" />
<path d="M199.2437 186.2505
L199.1723 186.1076
" />
<path d="M199.1723 186.1076
L199.1723 185.6790
" />
<path d="M199.1723 185.6790
L199.2437 185.5362
" />
<path d="M199.2437 185.5362
L199.3152 185.4648
" />
<path d="M199.3152 185.4648
L199.4580 185.3933
" />
<path d="M199.4580 185.3933
L199.7437 185.3933
" />
<path d="M199.7437 185.3933
L199.8866 185.4648
" />
<path d="M200.2437 186.5362
L201.3866 186.5362
" />
<path d="M201.7437 185.3933
L201.7437 186.8933
" />
<path d="M201.7437 185.4648
L201.8866 185.3933
" />
<path d="M201.8866 185.3933
L202.1723 185.3933
" />
<path d="M202.1723 185.3933
L202.3152 185.4648
" />
<path d="M202.3152 185.4648
L202.3866 185.5362
" />
<path d="M202.3866 185.5362
L202.4580 185.6790
" />
<path d="M202.4580 185.6790
L202.4580 186.1076
" />
<path d="M202.4580 186.1076
L202.3866 186.2505
" />
<path d="M202.3866 186.2505
L202.3152 186.3219
" />
<path d="M202.3152 186.3219
L202.1723 186.3933
" />
<path d="M202.1723 186.3933
L201.8866 186.3933
" />
<path d="M201.8866 186.3933
L201.7437 186.3219
" />
<path d="M203.7437 186.3219
L203.6009 186.3933
" />
<path d="M203.6009 186.3933
L203.3152 186.3933
" />
<path d="M203.3152 186.3933
L203.1723 186.3219
" />
<path d="M203.1723 186.3219
L203.1009 186.2505
" />
<path d="M203.1009 186.2505
L203.0295 186.1076
" />
<path d="M203.0295 186.1076
L203.0295 185.6790
" />
<path d="M203.0295 185.6790
L203.1009 185.5362
" />
<path d="M203.1009 185.5362
L203.1723 185.4648
" />
<path d="M203.1723 185.4648
L203.3152 185.3933
" />
<path d="M203.3152 185.3933
L203.6009 185.3933
" />
<path d="M203.6009 185.3933
L203.7437 185.4648
" />
<path d="M204.3866 186.3933
L204.3866 184.8933
" />
<path d="M204.3866 185.4648
L204.5295 185.3933
" />
<path d="M204.5295 185.3933
L204.8152 185.3933
" />
<path d="M204.8152 185.3933
L204.9580 185.4648
" />
<path d="M204.9580 185.4648
L205.0295 185.5362
" />
<path d="M205.0295 185.5362
L205.1009 185.6790
" />
<path d="M205.1009 185.6790
L205.1009 186.1076
" />
<path d="M205.1009 186.1076
L205.0295 186.2505
" />
<path d="M205.0295 186.2505
L204.9580 186.3219
" />
<path d="M204.9580 186.3219
L204.8152 186.3933
" />
<path d="M204.8152 186.3933
L204.5295 186.3933
" />
<path d="M204.5295 186.3933
L204.3866 186.3219
" />
</g></g>
<g style="fill:none; 
stroke:#000000; stroke-width:0.1500; stroke-opacity:1; 
stroke-linecap:round; stroke-linejoin:round;">
<path d="M177.0022 181.5072
L285.0022 181.5072
" />
</g>
<g style="fill:none; 
stroke:#000000; stroke-width:0.1500; stroke-opacity:1; 
stroke-linecap:round; stroke-linejoin:round;">
<text x="178.0022" y="183.7572"
textLength="8.2214" font-size="2.0000" lengthAdjust="spacingAndGlyphs"
text-anchor="start" opacity="0" stroke-opacity="0">Sheet: </text>
<g class="stroked-text"><desc>Sheet: </desc>
<path d="M178.3866 183.6219
L178.6009 183.6933
" />
<path d="M178.6009 183.6933
L178.9580 183.6933
" />
<path d="M178.9580 183.6933
L179.1009 183.6219
" />
<path d="M179.1009 183.6219
L179.1723 183.5505
" />
<path d="M179.1723 183.5505
L179.2437 183.4076
" />
<path d="M179.2437 183.4076
L179.2437 183.2648
" />
<path d="M179.2437 183.2648
L179.1723 183.1219
" />
<path d="M179.1723 183.1219
L179.1009 183.0505
" />
<path d="M179.1009 183.0505
L178.9580 182.9790
" />
<path d="M178.9580 182.9790
L178.6723 182.9076
" />
<path d="M178.6723 182.9076
L178.5295 182.8362
" />
<path d="M178.5295 182.8362
L178.4580 182.7648
" />
<path d="M178.4580 182.7648
L178.3866 182.6219
" />
<path d="M178.3866 182.6219
L178.3866 182.4790
" />
<path d="M178.3866 182.4790
L178.4580 182.3362
" />
<path d="M178.4580 182.3362
L178.5295 182.2648
" />
<path d="M178.5295 182.2648
L178.6723 182.1933
" />
<path d="M178.6723 182.1933
L179.0295 182.1933
" />
<path d="M179.0295 182.1933
L179.2437 182.2648
" />
<path d="M179.8866 183.6933
L179.8866 182.1933
" />
<path d="M180.5295 183.6933
L180.5295 182.9076
" />
<path d="M180.5295 182.9076
L180.4580 182.7648
" />
<path d="M180.4580 182.7648
L180.3152 182.6933
" />
<path d="M180.3152 182.6933
L180.1009 182.6933
" />
<path d="M180.1009 182.6933
L179.9580 182.7648
" />
<path d="M179.9580 182.7648
L179.8866 182.8362
" />
<path d="M181.8152 183.6219
L181.6723 183.6933
" />
<path d="M181.6723 183.6933
L181.3866 183.6933
" />
<path d="M181.3866 183.6933
L181.2437 183.6219
" />
<path d="M181.2437 183.6219
L181.1723 183.4790
" />
<path d="M181.1723 183.4790
L181.1723 182.9076
" />
<path d="M181.1723 182.9076
L181.2437 182.7648
" />
<path d="M181.2437 182.7648
L181.3866 182.6933
" />
<path d="M181.3866 182.6933
L181.6723 182.6933
" />
<path d="M181.6723 182.6933
L181.8152 182.7648
" />
<path d="M181.8152 182.7648
L181.8866 182.9076
" />
<path d="M181.8866 182.9076
L181.8866 183.0505
" />
<path d="M181.8866 183.0505
L181.1723 183.1933
" />
<path d="M183.1009 183.6219
L182.9580 183.6933
" />
<path d="M182.9580 183.6933
L182.6723 183.6933
" />
<path d="M182.6723 183.6933
L182.5295 183.6219
" />
<path d="M182.5295 183.6219
L182.4580 183.4790
" />
<path d="M182.4580 183.4790
L182.4580 182.9076
" />
<path d="M182.4580 182.9076
L182.5295 182.7648
" />
<path d="M182.5295 182.7648
L182.6723 182.6933
" />
<path d="M182.6723 182.6933
L182.9580 182.6933
" />
<path d="M182.9580 182.6933
L183.1009 182.7648
" />
<path d="M183.1009 182.7648
L183.1723 182.9076
" />
<path d="M183.1723 182.9076
L183.1723 183.0505
" />
<path d="M183.1723 183.0505
L182.4580 183.1933
" />
<path d="M183.6009 182.6933
L184.1723 182.6933
" />
<path d="M183.8152 182.1933
L183.8152 183.4790
" />
<path d="M183.8152 183.4790
L183.8866 183.6219
" />
<path d="M183.8866 183.6219
L184.0295 183.6933
" />
<path d="M184.0295 183.6933
L184.1723 183.6933
" />
<path d="M184.6723 183.5505
L184.7437 183.6219
" />
<path d="M184.7437 183.6219
L184.6723 183.6933
" />
<path d="M184.6723 183.6933
L184.6009 183.6219
" />
<path d="M184.6009 183.6219
L184.6723 183.5505
" />
<path d="M184.6723 183.5505
L184.6723 183.6933
" />
<path d="M184.6723 182.7648
L184.7437 182.8362
" />
<path d="M184.7437 182.8362
L184.6723 182.9076
" />
<path d="M184.6723 182.9076
L184.6009 182.8362
" />
<path d="M184.6009 182.8362
L184.6723 182.7648
" />
<path d="M184.6723 182.7648
L184.6723 182.9076
" />
</g></g>
<g style="fill:none; 
stroke:#000000; stroke-width:0.3000; stroke-opacity:1; 
stroke-linecap:round; stroke-linejoin:round;">
<text x="178.0022" y="180.7572"
textLength="0.9000" font-size="2.0000" lengthAdjust="spacingAndGlyphs"
text-anchor="start" opacity="0" stroke-opacity="0"></text>
<g class="stroked-text"><desc></desc>
</g></g>
<g style="fill:none; 
stroke:#000000; stroke-width:0.1500; stroke-opacity:1; 
stroke-linecap:round; stroke-linejoin:round;">
<text x="178.0022" y="177.7572"
textLength="0.4500" font-size="2.0000" lengthAdjust="spacingAndGlyphs"
text-anchor="start" opacity="0" stroke-opacity="0"></text>
<g class="stroked-text"><desc></desc>
</g></g>
<g style="fill:none; 
stroke:#000000; stroke-width:0.1500; stroke-opacity:1; 
stroke-linecap:round; stroke-linejoin:round;">
<text x="178.0022" y="174.7572"
textLength="0.4500" font-size="2.0000" lengthAdjust="spacingAndGlyphs"
text-anchor="start" opacity="0" stroke-opacity="0"></text>
<g class="stroked-text"><desc></desc>
</g></g>
<g style="fill:none; 
stroke:#000000; stroke-width:0.1500; stroke-opacity:1; 
stroke-linecap:round; stroke-linejoin:round;">
<text x="178.0022" y="171.7572"
textLength="0.4500" font-size="2.0000" lengthAdjust="spacingAndGlyphs"
text-anchor="start" opacity="0" stroke-opacity="0"></text>
<g class="stroked-text"><desc></desc>
</g></g>
<g style="fill:none; 
stroke:#000000; stroke-width:0.1500; stroke-opacity:1; 
stroke-linecap:round; stroke-linejoin:round;">
<text x="178.0022" y="168.7572"
textLength="0.4500" font-size="2.0000" lengthAdjust="spacingAndGlyphs"
text-anchor="start" opacity="0" stroke-opacity="0"></text>
<g class="stroked-text"><desc></desc>
</g></g>
<g style="fill:none; 
stroke:#000000; stroke-width:0.1500; stroke-opacity:1; 
stroke-linecap:round; stroke-linejoin:round;">
<path d="M197.0022 191.5072
L197.0022 194.5072
" />
</g>
<g style="fill:none; 
stroke:#000000; stroke-width:0.1500; stroke-opacity:1; 
stroke-linecap:round; stroke-linejoin:round;">
<path d="M261.0022 191.5072
L261.0022 198.0072
" />
</g>
<g style="fill:none; 
stroke:#000000; stroke-width:0.0500; stroke-opacity:1; 
stroke-linecap:round; stroke-linejoin:round;">
<path d="M153.0000 111.0000
L123.0000 111.0000
" />
<path d="M123.0000 82.0000 A1.0000 1.0000 0.0 0 0 122.0000 83.0000" />
<path d="M122.0000 110.0000 A1.0000 1.0000 0.0 0 0 123.0000 111.0000" />
<path d="M122.0000 105.0000
L122.0000 110.0000
" />
<path d="M123.0000 82.0000
L153.0000 82.0000
" />
<path d="M153.0000 111.0000 A1.0000 1.0000 0.0 0 0 154.0000 110.0000" />
<path d="M122.0000 105.0000
L122.0000 83.0000
" />
<path d="M154.0000 105.0000
L154.0000 110.0000
" />
<path d="M154.0000 83.0000
L154.0000 105.0000
" />
<path d="M154.0000 83.0000 A1.0000 1.0000 0.0 0 0 153.0000 82.0000" />
<path style="fill:none; 
stroke:#000000; stroke-width:0.2000; stroke-opacity:1; 
stroke-linecap:round; stroke-linejoin:round;fill:none"
d="M 122.7000,85.3000
124.4000,85.3000
124.4000,87.0000
122.7000,87.0000
Z" /> 
</g>
<g style="fill:none; 
stroke:#000000; stroke-width:0.1200; stroke-opacity:1; 
stroke-linecap:round; stroke-linejoin:round;">
<text x="123.9000" y="86.6000"
transform="scale(-1 1) translate(-247.800000 0)"
textLength="0.9619" font-size="1.0667" lengthAdjust="spacingAndGlyphs"
text-anchor="start" opacity="0" stroke-opacity="0">2</text>
<g class="stroked-text"><desc>2</desc>
<path d="M123.6687 85.7720
L123.6306 85.7339
" />
<path d="M123.6306 85.7339
L123.5544 85.6959
" />
<path d="M123.5544 85.6959
L123.3639 85.6959
" />
<path d="M123.3639 85.6959
L123.2877 85.7339
" />
<path d="M123.2877 85.7339
L123.2496 85.7720
" />
<path d="M123.2496 85.7720
L123.2115 85.8482
" />
<path d="M123.2115 85.8482
L123.2115 85.9244
" />
<path d="M123.2115 85.9244
L123.2496 86.0387
" />
<path d="M123.2496 86.0387
L123.7068 86.4959
" />
<path d="M123.7068 86.4959
L123.2115 86.4959
" />
</g><path style="fill:#000000; fill-opacity:1.0000; stroke:none;fill-rule:evenodd;"
d="M 150.2000,84.9600
150.2000,83.9600
151.2000,83.9600
151.2000,84.9600
Z" /> 
</g>
<g style="fill:#000000; fill-opacity:1.0000; stroke:none;">
<circle cx="151.9700" cy="84.4600" r="0.5000" /> 
</g>
<g style="fill:#000000; fill-opacity:1.0000; stroke:none;">
<circle cx="150.7000" cy="85.7300" r="0.5000" /> 
</g>
<g style="fill:#000000; fill-opacity:1.0000; stroke:none;">
<circle cx="151.9700" cy="85.7300" r="0.5000" /> 
</g>
<g style="fill:#000000; fill-opacity:1.0000; stroke:none;">
<circle cx="150.7000" cy="87.0000" r="0.5000" /> 
</g>
<g style="fill:#000000; fill-opacity:1.0000; stroke:none;">
<circle cx="151.9700" cy="87.0000" r="0.5000" /> 
</g>
<g style="fill:#000000; fill-opacity:1.0000; stroke:none;">
<circle cx="150.7000" cy="88.2700" r="0.5000" /> 
</g>
<g style="fill:#000000; fill-opacity:1.0000; stroke:none;">
<circle cx="151.9700" cy="88.2700" r="0.5000" /> 
</g>
<g style="fill:#000000; fill-opacity:1.0000; stroke:none;">
<circle cx="150.7000" cy="89.5400" r="0.5000" /> 
</g>
<g style="fill:#000000; fill-opacity:1.0000; stroke:none;">
<circle cx="151.9700" cy="89.5400" r="0.5000" /> 
</g>
<g style="fill:#000000; fill-opacity:1.0000; stroke:none;">
<circle cx="150.7000" cy="98.7000" r="1.3875" /> 
</g>
<g style="fill:#000000; fill-opacity:1.0000; stroke:none;">
<circle cx="125.3000" cy="98.7000" r="1.3875" /> 
<path style="fill:#000000; fill-opacity:1.0000; stroke:none;fill-rule:evenodd;"
d="M 139.9800,96.7200
139.9800,100.6800
136.0200,100.6800
136.0200,96.7200
Z" /> 
</g>
<g style="fill:#000000; fill-opacity:1.0000; stroke:none;">
<circle cx="143.9000" cy="102.3000" r="0.4000" /> 
</g>
<g style="fill:#000000; fill-opacity:1.0000; stroke:none;">
<circle cx="129.0000" cy="97.3000" r="0.2250" /> 
</g>
<g style="fill:#000000; fill-opacity:1.0000; stroke:none;">
<circle cx="132.8000" cy="85.5000" r="0.2250" /> 
</g>
<g style="fill:#000000; fill-opacity:1.0000; stroke:none;">
<circle cx="143.3000" cy="82.5000" r="0.2250" /> 
</g>
<g style="fill:#000000; fill-opacity:1.0000; stroke:none;">
<circle cx="132.5325" cy="96.3325" r="0.2250" /> 
</g>
<g style="fill:#000000; fill-opacity:1.0000; stroke:none;">
<circle cx="126.8125" cy="89.1875" r="0.2250" /> 
</g>
<g style="fill:#000000; fill-opacity:1.0000; stroke:none;">
<circle cx="137.8000" cy="109.2500" r="0.2250" /> 
</g>
<g style="fill:#000000; fill-opacity:1.0000; stroke:none;">
<circle cx="142.6000" cy="94.9625" r="0.2250" /> 
</g>
<g style="fill:#000000; fill-opacity:1.0000; stroke:none;">
<circle cx="123.1500" cy="89.1579" r="0.2250" /> 
</g>
<g style="fill:#000000; fill-opacity:1.0000; stroke:none;">
<circle cx="131.9000" cy="93.2000" r="0.2250" /> 
</g>
<g style="fill:#000000; fill-opacity:1.0000; stroke:none;">
<circle cx="145.6000" cy="88.3000" r="0.2250" /> 
</g>
<g style="fill:#000000; fill-opacity:1.0000; stroke:none;">
<circle cx="143.2000" cy="93.7500" r="0.2250" /> 
</g>
<g style="fill:#000000; fill-opacity:1.0000; stroke:none;">
<circle cx="133.7650" cy="95.7000" r="0.2250" /> 
</g>
<g style="fill:#000000; fill-opacity:1.0000; stroke:none;">
<circle cx="148.3325" cy="90.4000" r="0.2250" /> 
</g>
<g style="fill:#000000; fill-opacity:1.0000; stroke:none;">
<circle cx="125.9000" cy="90.6000" r="0.2250" /> 
</g>
<g style="fill:#000000; fill-opacity:1.0000; stroke:none;">
<circle cx="127.9500" cy="90.7500" r="0.2250" /> 
</g>
<g style="fill:#000000; fill-opacity:1.0000; stroke:none;">
<circle cx="129.1000" cy="91.5000" r="0.2250" /> 
</g>
<g style="fill:#000000; fill-opacity:1.0000; stroke:none;">
<circle cx="129.1000" cy="86.1904" r="0.2250" /> 
</g>
<g style="fill:#000000; fill-opacity:1.0000; stroke:none;">
<circle cx="147.8000" cy="85.5000" r="0.2250" /> 
</g>
<g style="fill:#000000; fill-opacity:1.0000; stroke:none;">
<circle cx="145.7000" cy="86.2500" r="0.2250" /> 
</g>
<g style="fill:none; 
stroke:#000000; stroke-width:0.4000; stroke-opacity:1; 
stroke-linecap:round; stroke-linejoin:round;">
<path d="M128.9000 102.3000
L125.3000 98.7000
" />
<path d="M143.9000 102.3000
L128.9000 102.3000
" />
</g>
<g style="fill:none; 
stroke:#000000; stroke-width:0.2000; stroke-opacity:1; 
stroke-linecap:round; stroke-linejoin:round;">
<path d="M148.3325 90.4000
L151.1100 90.4000
" />
<path d="M151.1100 90.4000
L151.9700 89.5400
" />
<path d="M126.8000 90.6000
L125.9000 90.6000
" />
<path d="M127.9500 90.7500
L126.9500 90.7500
" />
<path d="M126.9500 90.7500
L126.8000 90.6000
" />
<path d="M129.1000 86.1904
L129.1000 91.5000
" />
<path d="M151.6171 83.4000
L151.9700 83.7529
" />
<path d="M148.6000 83.4000
L151.6171 83.4000
" />
<path d="M147.8000 84.2000
L148.6000 83.4000
" />
<path d="M147.8000 85.5000
L147.8000 84.2000
" />
<path d="M151.9700 83.7529
L151.9700 84.4600
" />
<path d="M145.7000 84.4654
L147.0904 83.0750
" />
<path d="M151.7750 83.0750
L152.6950 83.9950
" />
<path d="M147.0904 83.0750
L151.7750 83.0750
" />
<path d="M145.7000 86.2500
L145.7000 84.4654
" />
<path d="M152.6950 83.9950
L152.6950 85.0050
" />
<path d="M152.6950 85.0050
L151.9700 85.7300
" />
<path style="fill:#000000; fill-opacity:1.0000; stroke:none;fill-rule:evenodd;"
d="M 151.1880,87.3982
151.2556,87.2970
151.2556,87.2970
151.2781,87.2428
151.3119,87.2090
151.3597,87.2090
151.3936,87.2428
151.4157,87.2963
151.4157,87.2963
151.4157,87.2963
151.4841,87.3987
151.5713,87.4859
151.6737,87.5543
151.6737,87.5543
151.6737,87.5543
151.7291,87.5773
151.7629,87.6111
151.7629,87.6589
151.7291,87.6927
151.6737,87.7157
151.6737,87.7157
151.5713,87.7841
151.4841,87.8713
151.4157,87.9737
151.4157,87.9737
151.3927,88.0291
151.3589,88.0629
151.3111,88.0629
151.2773,88.0291
151.2543,87.9737
151.2543,87.9737
151.2543,87.9737
151.1859,87.8713
151.0987,87.7841
150.9963,87.7157
150.9963,87.7157
150.9963,87.7157
150.9428,87.6936
150.9090,87.6597
150.9090,87.6119
150.9428,87.5781
150.9970,87.5556
150.9970,87.5556
151.0982,87.4880
150.8810,87.2708
150.8996,87.2601
150.9601,87.1996
150.9708,87.1810
Z" /> 
<path style="fill:#000000; fill-opacity:1.0000; stroke:none;fill-rule:evenodd;"
d="M 151.1880,86.1282
151.2556,86.0270
151.2556,86.0270
151.2781,85.9728
151.3119,85.9390
151.3597,85.9390
151.3936,85.9728
151.4157,86.0263
151.4157,86.0263
151.4157,86.0263
151.4841,86.1287
151.5713,86.2159
151.6737,86.2843
151.6737,86.2843
151.6737,86.2843
151.7291,86.3073
151.7629,86.3411
151.7629,86.3889
151.7291,86.4227
151.6737,86.4457
151.6737,86.4457
151.5713,86.5141
151.4841,86.6013
151.4157,86.7037
151.4157,86.7037
151.3936,86.7572
151.3597,86.7910
151.3119,86.7910
151.2781,86.7572
151.2556,86.7030
151.1880,86.6018
150.9708,86.8190
150.9601,86.8004
150.8996,86.7399
150.8810,86.7292
151.0982,86.5120
150.9970,86.4444
150.9970,86.4444
150.9448,86.4227
150.9110,86.3889
150.9110,86.3411
150.9448,86.3073
150.9970,86.2856
150.9970,86.2856
151.0982,86.2180
150.8810,86.0008
150.8996,85.9901
150.9601,85.9296
150.9708,85.9110
Z" /> 
<path style="fill:#000000; fill-opacity:1.0000; stroke:none;fill-rule:evenodd;"
d="M 151.4322,84.7831
151.4400,84.7926
151.4841,84.8587
151.5713,84.9459
151.6737,85.0143
151.6737,85.0143
151.6737,85.0143
151.7291,85.0373
151.7629,85.0711
151.7629,85.1189
151.7291,85.1527
151.6737,85.1757
151.6737,85.1757
151.5713,85.2441
151.4841,85.3313
151.4157,85.4337
151.4157,85.4337
151.3936,85.4872
151.3597,85.5210
151.3119,85.5210
151.2781,85.4872
151.2556,85.4330
151.1880,85.3318
150.9708,85.5490
150.9601,85.5304
150.8996,85.4699
150.8810,85.4592
151.0982,85.2420
151.0353,85.2000
151.0087,85.1602
151.0181,85.1133
151.0578,85.0867
151.0700,85.0855
151.2124,85.0855
151.2490,85.0782
151.2905,85.0505
151.3182,85.0090
151.3255,84.9724
151.3255,84.8273
151.3438,84.7831
151.3880,84.7648
Z" /> 
<path style="fill:#000000; fill-opacity:1.0000; stroke:none;fill-rule:evenodd;"
d="M 153.0031,82.1258
153.1645,82.1417
153.1765,82.1441
153.3212,82.1880
153.3288,82.1903
153.3401,82.1950
153.4804,82.2700
153.4906,82.2768
153.6136,82.3777
153.6223,82.3864
153.7232,82.5094
153.7300,82.5196
153.8050,82.6599
153.8097,82.6712
153.8559,82.8235
153.8583,82.8355
153.8742,82.9969
153.8745,83.0031
153.8745,109.9969
153.8742,110.0031
153.8583,110.1645
153.8559,110.1765
153.8097,110.3288
153.8050,110.3401
153.7300,110.4804
153.7232,110.4906
153.6223,110.6136
153.6136,110.6223
153.4906,110.7232
153.4804,110.7300
153.3401,110.8050
153.3288,110.8097
153.1765,110.8559
153.1645,110.8583
153.0031,110.8742
152.9969,110.8745
123.0031,110.8745
122.9969,110.8742
122.8355,110.8583
122.8235,110.8559
122.6712,110.8097
122.6599,110.8050
122.5196,110.7300
122.5094,110.7232
122.3864,110.6223
122.3777,110.6136
122.2768,110.4906
122.2700,110.4804
122.1950,110.3401
122.1903,110.3288
122.1899,110.3274
122.1441,110.1765
122.1417,110.1645
122.1258,110.0031
122.1255,109.9969
122.1255,107.9075
123.8245,107.9075
123.8245,108.0925
123.8245,108.0925
123.8534,108.2753
123.8534,108.2753
123.9106,108.4512
123.9106,108.4512
123.9397,108.5083
123.9946,108.6161
123.9946,108.6161
124.1034,108.7658
124.1034,108.7658
124.2342,108.8966
124.2342,108.8966
124.3839,109.0054
124.5488,109.0894
124.7247,109.1466
124.8018,109.1588
124.9075,109.1755
124.9075,109.1755
124.9075,109.1755
124.9075,109.1755
125.0925,109.1755
125.0925,109.1755
125.2753,109.1466
125.4512,109.0894
125.6161,109.0054
125.7658,108.8966
125.8966,108.7658
126.0054,108.6161
126.0894,108.4512
126.1466,108.2753
126.1755,108.0925
126.1755,107.9075
149.8245,107.9075
149.8245,108.0925
149.8245,108.0925
149.8534,108.2753
149.8534,108.2753
149.9106,108.4512
149.9106,108.4512
149.9397,108.5083
149.9946,108.6161
149.9946,108.6161
150.1034,108.7658
150.1034,108.7658
150.2342,108.8966
150.2342,108.8966
150.3839,109.0054
150.5488,109.0894
150.7247,109.1466
150.8018,109.1588
150.9075,109.1755
150.9075,109.1755
150.9075,109.1755
150.9075,109.1755
151.0925,109.1755
151.0925,109.1755
151.2753,109.1466
151.4512,109.0894
151.6161,109.0054
151.7658,108.8966
151.8966,108.7658
152.0054,108.6161
152.0894,108.4512
152.1466,108.2753
152.1755,108.0925
152.1755,107.9075
152.1466,107.7247
152.0894,107.5488
152.0054,107.3839
151.8966,107.2342
151.8966,107.2342
151.7658,107.1034
151.7658,107.1034
151.6161,106.9946
151.6161,106.9946
151.5083,106.9397
151.4512,106.9106
151.4512,106.9106
151.2753,106.8534
151.0925,106.8245
151.0925,106.8245
151.0925,106.8245
150.9075,106.8245
150.9075,106.8245
150.9075,106.8245
150.7247,106.8534
150.7247,106.8534
150.5488,106.9106
150.5488,106.9106
150.4346,106.9688
150.3839,106.9946
150.3839,106.9946
150.3839,106.9946
150.2342,107.1034
150.2342,107.1034
150.1034,107.2342
150.1034,107.2342
149.9946,107.3839
149.9106,107.5488
149.9106,107.5488
149.8534,107.7247
149.8534,107.7247
149.8245,107.9075
149.8245,107.9075
126.1755,107.9075
126.1755,107.9075
126.1466,107.7247
126.0894,107.5488
126.0054,107.3839
125.8966,107.2342
125.8966,107.2342
125.7658,107.1034
125.7658,107.1034
125.6161,106.9946
125.6161,106.9946
125.5083,106.9397
125.4512,106.9106
125.4512,106.9106
125.2753,106.8534
125.0925,106.8245
125.0925,106.8245
125.0925,106.8245
124.9075,106.8245
124.9075,106.8245
124.9075,106.8245
124.7247,106.8534
124.7247,106.8534
124.5488,106.9106
124.5488,106.9106
124.4346,106.9688
124.3839,106.9946
124.3839,106.9946
124.3839,106.9946
124.2342,107.1034
124.2342,107.1034
124.1034,107.2342
124.1034,107.2342
123.9946,107.3839
123.9106,107.5488
123.9106,107.5488
123.8534,107.7247
123.8534,107.7247
123.8245,107.9075
123.8245,107.9075
122.1255,107.9075
122.1255,98.5809
123.7870,98.5809
123.7870,98.8191
123.7870,98.8191
123.8243,99.0543
123.8243,99.0543
123.8978,99.2808
123.8978,99.2808
123.8979,99.2808
124.0060,99.4930
124.0060,99.4930
124.1459,99.6857
124.1460,99.6857
124.3143,99.8540
124.3143,99.8541
124.5070,99.9940
124.7192,100.1022
124.9457,100.1757
125.1809,100.2130
125.1809,100.2130
125.4191,100.2130
125.4191,100.2130
125.6543,100.1757
125.8808,100.1022
126.0795,100.0009
126.1272,99.9971
126.1521,100.0124
128.6373,102.4977
128.6374,102.4977
128.6395,102.4999
128.7001,102.5605
128.7372,102.5819
128.7372,102.5819
128.7372,102.5819
128.7744,102.6033
128.8571,102.6255
128.9429,102.6255
143.4564,102.6255
143.5006,102.6438
143.5773,102.7205
143.6972,102.7897
143.6972,102.7897
143.7790,102.8116
143.8308,102.8255
143.8308,102.8255
143.9692,102.8255
143.9692,102.8255
144.1028,102.7897
144.2227,102.7205
144.3205,102.6227
144.3897,102.5028
144.4255,102.3692
144.4255,102.2308
144.3897,102.0972
144.3205,101.9773
144.3205,101.9773
144.3205,101.9773
144.2227,101.8795
144.2227,101.8795
144.2227,101.8795
144.1627,101.8449
144.1028,101.8103
144.1028,101.8103
143.9692,101.7745
143.9692,101.7745
143.9692,101.7745
143.8308,101.7745
143.8308,101.7745
143.8308,101.7745
143.6972,101.8103
143.6972,101.8103
143.5773,101.8795
143.5773,101.8795
143.5006,101.9562
143.4564,101.9745
129.0607,101.9745
129.0165,101.9562
127.7528,100.6925
135.8930,100.6925
135.9004,100.7296
135.9004,100.7296
135.9284,100.7716
135.9704,100.7996
136.0075,100.8070
137.9365,100.8070
138.0635,100.8070
139.9925,100.8070
140.0296,100.7996
140.0296,100.7996
140.0716,100.7716
140.0996,100.7296
140.0996,100.7296
140.1070,100.6925
140.1070,98.7635
138.0635,98.7635
138.0635,100.8070
137.9365,100.8070
137.9365,98.7635
135.8930,98.7635
135.8930,100.6925
135.8930,100.6925
127.7528,100.6925
126.6124,99.5521
126.5941,99.5079
126.6009,99.4795
126.6063,99.4690
126.7022,99.2808
126.7757,99.0543
126.8130,98.8191
126.8130,98.5809
126.7757,98.3457
126.7022,98.1192
126.5940,97.9070
126.4541,97.7143
126.4540,97.7143
126.2857,97.5460
126.2857,97.5459
126.0930,97.4060
126.0930,97.4060
125.9543,97.3353
125.8808,97.2978
125.8808,97.2978
125.6543,97.2243
125.6543,97.2243
125.4191,97.1870
125.4191,97.1870
125.4191,97.1870
125.1809,97.1870
125.1809,97.1870
125.1809,97.1870
124.9457,97.2243
124.9457,97.2243
124.7192,97.2978
124.7192,97.2978
124.5722,97.3727
124.5070,97.4060
124.5070,97.4060
124.5070,97.4060
124.3143,97.5459
124.3143,97.5460
124.1460,97.7143
124.1459,97.7143
124.0060,97.9070
123.8978,98.1192
123.8978,98.1192
123.8243,98.3457
123.8243,98.3457
123.7870,98.5809
123.7870,98.5809
122.1255,98.5809
122.1255,96.7075
135.8930,96.7075
135.8930,98.6365
137.9365,98.6365
138.0635,98.6365
140.1070,98.6365
140.1070,98.5809
149.1870,98.5809
149.1870,98.8191
149.1870,98.8191
149.2243,99.0543
149.2243,99.0543
149.2978,99.2808
149.2978,99.2808
149.2979,99.2808
149.4060,99.4930
149.4060,99.4930
149.5459,99.6857
149.5460,99.6857
149.7143,99.8540
149.7143,99.8541
149.9070,99.9940
150.1192,100.1022
150.3457,100.1757
150.5809,100.2130
150.5809,100.2130
150.8191,100.2130
150.8191,100.2130
151.0543,100.1757
151.2808,100.1022
151.4930,99.9940
151.6857,99.8541
151.8541,99.6857
151.9940,99.4930
152.1022,99.2808
152.1757,99.0543
152.2130,98.8191
152.2130,98.5809
152.1757,98.3457
152.1022,98.1192
151.9940,97.9070
151.8541,97.7143
151.8540,97.7143
151.6857,97.5460
151.6857,97.5459
151.4930,97.4060
151.4930,97.4060
151.3543,97.3353
151.2808,97.2978
151.2808,97.2978
151.0543,97.2243
151.0543,97.2243
150.8191,97.1870
150.8191,97.1870
150.8191,97.1870
150.5809,97.1870
150.5809,97.1870
150.5809,97.1870
150.3457,97.2243
150.3457,97.2243
150.1192,97.2978
150.1192,97.2978
149.9722,97.3727
149.9070,97.4060
149.9070,97.4060
149.9070,97.4060
149.7143,97.5459
149.7143,97.5460
149.5460,97.7143
149.5459,97.7143
149.4060,97.9070
149.2978,98.1192
149.2978,98.1192
149.2243,98.3457
149.2243,98.3457
149.1870,98.5809
149.1870,98.5809
140.1070,98.5809
140.1070,96.7075
140.0996,96.6704
140.0996,96.6704
140.0716,96.6284
140.0296,96.6004
139.9925,96.5930
138.0635,96.5930
138.0635,98.6365
137.9365,98.6365
137.9365,96.5930
136.0075,96.5930
135.9704,96.6004
135.9704,96.6004
135.9284,96.6284
135.9004,96.6704
135.9004,96.6704
135.8930,96.7075
122.1255,96.7075
122.1255,90.5539
125.5495,90.5539
125.5495,90.6461
125.5495,90.6461
125.5734,90.7353
125.5734,90.7353
125.6195,90.8152
125.6195,90.8152
125.6848,90.8805
125.6848,90.8805
125.7647,90.9266
125.7647,90.9266
125.8539,90.9505
125.8539,90.9505
125.9461,90.9505
125.9461,90.9505
126.0353,90.9266
126.1152,90.8805
126.1519,90.8438
126.1961,90.8255
126.6807,90.8255
126.7249,90.8438
126.7553,90.8742
126.7553,90.8742
126.8077,90.9266
126.8223,90.9412
126.8448,90.9505
126.9051,90.9755
127.0021,90.9755
127.0021,90.9755
127.6539,90.9755
127.6981,90.9938
127.7348,91.0305
127.7348,91.0305
127.7348,91.0305
127.8147,91.0766
127.8147,91.0766
127.9039,91.1005
127.9039,91.1005
127.9961,91.1005
127.9961,91.1005
128.0853,91.0766
128.1652,91.0305
128.2305,90.9652
128.2766,90.8853
128.3005,90.7961
128.3005,90.7039
128.2766,90.6147
128.2766,90.6147
128.2305,90.5348
128.2305,90.5348
128.1652,90.4695
128.1652,90.4695
128.0853,90.4234
128.0853,90.4234
127.9962,90.3995
127.9961,90.3995
127.9961,90.3995
127.9039,90.3995
127.9039,90.3995
127.9038,90.3995
127.8147,90.4234
127.8147,90.4234
127.7348,90.4695
127.7348,90.4695
127.7233,90.4811
127.6981,90.5062
127.6539,90.5245
127.0693,90.5245
127.0251,90.5062
127.0000,90.4811
127.0000,90.4811
126.9277,90.4088
126.9277,90.4088
126.9035,90.3988
126.9035,90.3988
126.8449,90.3745
126.8449,90.3745
126.7551,90.3745
126.7479,90.3745
126.7479,90.3745
126.1961,90.3745
126.1519,90.3562
126.1152,90.3195
126.1152,90.3195
126.0353,90.2734
126.0353,90.2734
125.9461,90.2495
125.9461,90.2495
125.9461,90.2495
125.8539,90.2495
125.8539,90.2495
125.8538,90.2495
125.7647,90.2734
125.7647,90.2734
125.6848,90.3195
125.6848,90.3195
125.6195,90.3848
125.6195,90.3848
125.5734,90.4647
125.5734,90.4647
125.5495,90.5538
125.5495,90.5539
122.1255,90.5539
122.1255,85.2551
122.4745,85.2551
122.4745,87.0449
122.5088,87.1277
122.5723,87.1912
122.6551,87.2255
122.6551,87.2255
124.4449,87.2255
124.4449,87.2255
124.5277,87.1912
124.5912,87.1277
124.6255,87.0449
124.6255,86.1442
128.7495,86.1442
128.7495,86.2365
128.7495,86.2365
128.7734,86.3257
128.7734,86.3257
128.8195,86.4056
128.8195,86.4056
128.8562,86.4423
128.8745,86.4864
128.8745,91.2039
128.8562,91.2481
128.8195,91.2848
128.8195,91.2848
128.7734,91.3647
128.7734,91.3647
128.7495,91.4538
128.7495,91.4539
128.7495,91.5461
128.7495,91.5461
128.7734,91.6353
128.7734,91.6353
128.8195,91.7152
128.8195,91.7152
128.8848,91.7805
128.8848,91.7805
128.9647,91.8266
128.9647,91.8266
129.0539,91.8505
129.0539,91.8505
129.1461,91.8505
129.1461,91.8505
129.2353,91.8266
129.3152,91.7805
129.3805,91.7152
129.4266,91.6353
129.4505,91.5461
129.4505,91.4539
129.4266,91.3647
129.4266,91.3647
129.3805,91.2848
129.3805,91.2848
129.3438,91.2481
129.3255,91.2039
129.3255,86.4864
129.3438,86.4423
129.3805,86.4056
129.4266,86.3257
129.4505,86.2365
129.4505,86.2039
145.3495,86.2039
145.3495,86.2961
145.3495,86.2961
145.3734,86.3853
145.3734,86.3853
145.4195,86.4652
145.4195,86.4652
145.4848,86.5305
145.4848,86.5305
145.5647,86.5766
145.5647,86.5766
145.6539,86.6005
145.6539,86.6005
145.7461,86.6005
145.7461,86.6005
145.8353,86.5766
145.9152,86.5305
145.9805,86.4652
146.0266,86.3853
146.0505,86.2961
146.0505,86.2039
146.0505,86.2039
146.0266,86.1147
146.0266,86.1147
145.9805,86.0348
145.9805,86.0348
145.9438,85.9981
145.9255,85.9539
145.9255,84.5847
145.9438,84.5405
147.1655,83.3188
147.2097,83.3005
148.2297,83.3005
148.2739,83.3188
148.2922,83.3630
148.2739,83.4072
147.6723,84.0088
147.6088,84.0723
147.6041,84.0837
147.6041,84.0838
147.5745,84.1551
147.5745,84.2521
147.5745,84.2521
147.5745,85.2039
147.5562,85.2481
147.5195,85.2848
147.5195,85.2848
147.4734,85.3647
147.4734,85.3647
147.4495,85.4538
147.4495,85.4539
147.4495,85.5461
147.4495,85.5461
147.4734,85.6353
147.4734,85.6353
147.5195,85.7152
147.5195,85.7152
147.5848,85.7805
147.5848,85.7805
147.6647,85.8266
147.6647,85.8266
147.7539,85.8505
147.7539,85.8505
147.8461,85.8505
147.8461,85.8505
147.9353,85.8266
148.0152,85.7805
148.0805,85.7152
148.1266,85.6353
148.1505,85.5461
148.1505,85.4539
148.1266,85.3647
148.1266,85.3647
148.0805,85.2848
148.0805,85.2848
148.0438,85.2481
148.0255,85.2039
148.0255,84.3193
148.0438,84.2751
148.6751,83.6438
148.7193,83.6255
151.4978,83.6255
151.5420,83.6438
151.6996,83.8014
151.7179,83.8456
151.6996,83.8898
151.6793,83.9034
151.6737,83.9057
151.6737,83.9057
151.5713,83.9741
151.4841,84.0613
151.4400,84.1274
151.4002,84.1540
151.3533,84.1446
151.3267,84.1048
151.3255,84.0927
151.3255,83.9476
151.3255,83.9476
151.3182,83.9110
151.2905,83.8695
151.2547,83.8456
151.2490,83.8418
151.2490,83.8418
151.2215,83.8363
151.2124,83.8345
151.2124,83.8345
150.1876,83.8345
150.1876,83.8345
150.1876,83.8345
150.1772,83.8366
150.1510,83.8418
150.1095,83.8695
150.0818,83.9110
150.0818,83.9110
150.0745,83.9476
150.0745,84.9724
150.0745,84.9724
150.0776,84.9880
150.0818,85.0090
150.0818,85.0090
150.1095,85.0505
150.1510,85.0782
150.1876,85.0855
150.3300,85.0855
150.3742,85.1038
150.3925,85.1480
150.3742,85.1922
150.3647,85.2000
150.3018,85.2420
150.5190,85.4592
150.5004,85.4699
150.4399,85.5304
150.4292,85.5490
150.2120,85.3318
150.1444,85.4330
150.1444,85.4330
150.0971,85.5471
150.0730,85.6682
150.0730,85.7918
150.0971,85.9129
150.0971,85.9129
150.1444,86.0270
150.1444,86.0270
150.2120,86.1282
150.4292,85.9110
150.4399,85.9296
150.5004,85.9901
150.5190,86.0008
150.3018,86.2180
150.4030,86.2856
150.4030,86.2856
150.4552,86.3073
150.4890,86.3411
150.4890,86.3889
150.4552,86.4227
150.4030,86.4444
150.4030,86.4444
150.3018,86.5120
150.5190,86.7292
150.5004,86.7399
150.4399,86.8004
150.4292,86.8190
150.2120,86.6018
150.1444,86.7030
150.1444,86.7030
150.0971,86.8171
150.0730,86.9382
150.0730,87.0618
150.0971,87.1829
150.0971,87.1829
150.1444,87.2970
150.1444,87.2970
150.2120,87.3982
150.4292,87.1810
150.4399,87.1996
150.5004,87.2601
150.5190,87.2708
150.3018,87.4880
150.4030,87.5556
150.4030,87.5556
150.4572,87.5781
150.4910,87.6119
150.4910,87.6597
150.4572,87.6936
150.4037,87.7157
150.4037,87.7157
150.3013,87.7841
150.2141,87.8713
150.1457,87.9737
150.1457,87.9737
150.0985,88.0875
150.0985,88.0875
150.0745,88.2084
150.0745,88.3316
150.0985,88.4524
150.0985,88.4525
150.1457,88.5663
150.1457,88.5663
150.1457,88.5663
150.2141,88.6687
150.3013,88.7559
150.4037,88.8243
150.4037,88.8243
150.4037,88.8243
150.4591,88.8473
150.4929,88.8811
150.4929,88.9289
150.4591,88.9627
150.4037,88.9857
150.4037,88.9857
150.3013,89.0541
150.2141,89.1413
150.1457,89.2437
150.1457,89.2437
150.0985,89.3575
150.0985,89.3575
150.0745,89.4784
150.0745,89.6016
150.0985,89.7224
150.0985,89.7225
150.1457,89.8363
150.1457,89.8363
150.2141,89.9387
150.3013,90.0259
150.3524,90.0600
150.3790,90.0998
150.3697,90.1467
150.3299,90.1733
150.3177,90.1745
148.6286,90.1745
148.5844,90.1562
148.5477,90.1195
148.5477,90.1195
148.4678,90.0734
148.4678,90.0734
148.3786,90.0495
148.3786,90.0495
148.3786,90.0495
148.2864,90.0495
148.2864,90.0495
148.2863,90.0495
148.1972,90.0734
148.1972,90.0734
148.1173,90.1195
148.1173,90.1195
148.0520,90.1848
148.0520,90.1848
148.0059,90.2647
148.0059,90.2647
147.9820,90.3538
147.9820,90.3539
147.9820,90.4461
147.9820,90.4462
148.0059,90.5353
148.0059,90.5353
148.0520,90.6152
148.0520,90.6152
148.1173,90.6805
148.1173,90.6805
148.1972,90.7266
148.1972,90.7266
148.2864,90.7505
148.2864,90.7505
148.3786,90.7505
148.3786,90.7505
148.4678,90.7266
148.5477,90.6805
148.5844,90.6438
148.6286,90.6255
151.0579,90.6255
151.0579,90.6255
151.0651,90.6255
151.1549,90.6255
151.1842,90.6134
151.2135,90.6012
151.2135,90.6012
151.2135,90.6012
151.2377,90.5912
151.3012,90.5277
151.3012,90.5277
151.3100,90.5189
151.3100,90.5189
151.6872,90.1417
151.7314,90.1234
151.7553,90.1281
151.7875,90.1415
151.9084,90.1655
151.9084,90.1655
152.0316,90.1655
152.0316,90.1655
152.1525,90.1415
152.2663,90.0943
152.3687,90.0259
152.4559,89.9387
152.5243,89.8363
152.5715,89.7225
152.5955,89.6016
152.5955,89.4784
152.5715,89.3575
152.5243,89.2437
152.4559,89.1413
152.3687,89.0541
152.2663,88.9857
152.2109,88.9627
152.1771,88.9289
152.1771,88.8811
152.2109,88.8473
152.2663,88.8243
152.3687,88.7559
152.4559,88.6687
152.5243,88.5663
152.5715,88.4525
152.5955,88.3316
152.5955,88.2084
152.5715,88.0875
152.5243,87.9737
152.4559,87.8713
152.3687,87.7841
152.2663,87.7157
152.2109,87.6927
152.1771,87.6589
152.1771,87.6111
152.2109,87.5773
152.2663,87.5543
152.3687,87.4859
152.4559,87.3987
152.5243,87.2963
152.5715,87.1825
152.5955,87.0616
152.5955,86.9384
152.5715,86.8175
152.5243,86.7037
152.4559,86.6013
152.3687,86.5141
152.2885,86.4606
152.2663,86.4457
152.2663,86.4457
152.2663,86.4457
152.2109,86.4227
152.1771,86.3889
152.1771,86.3411
152.2109,86.3073
152.2663,86.2843
152.3687,86.2159
152.4559,86.1287
152.5243,86.0263
152.5715,85.9125
152.5955,85.7916
152.5955,85.6684
152.5715,85.5475
152.5581,85.5153
152.5581,85.4675
152.5717,85.4472
152.8139,85.2050
152.8139,85.2050
152.8227,85.1962
152.8227,85.1962
152.8862,85.1327
152.9057,85.0855
152.9205,85.0499
152.9205,84.9601
152.9205,84.9551
152.9205,84.9551
152.9205,83.9501
152.9205,83.9501
152.8862,83.8673
152.8227,83.8038
152.8227,83.8038
151.9750,82.9561
151.9027,82.8838
151.9027,82.8838
151.8785,82.8738
151.8785,82.8738
151.8199,82.8495
151.8199,82.8495
151.7301,82.8495
151.7229,82.8495
151.7229,82.8495
147.0455,82.8495
146.9626,82.8838
146.9626,82.8838
145.5088,84.3376
145.5041,84.3491
145.5041,84.3491
145.4745,84.4205
145.4745,84.5175
145.4745,84.5175
145.4745,85.9539
145.4562,85.9981
145.4195,86.0348
145.4195,86.0348
145.3734,86.1147
145.3734,86.1147
145.3495,86.2038
145.3495,86.2039
129.4505,86.2039
129.4505,86.1442
129.4266,86.0551
129.4266,86.0551
129.3805,85.9752
129.3805,85.9752
129.3152,85.9099
129.3152,85.9099
129.2353,85.8638
129.2353,85.8638
129.1462,85.8399
129.1461,85.8399
129.1461,85.8399
129.0539,85.8399
129.0539,85.8399
129.0538,85.8399
128.9647,85.8638
128.9647,85.8638
128.8848,85.9099
128.8848,85.9099
128.8195,85.9752
128.8195,85.9752
128.7734,86.0551
128.7734,86.0551
128.7495,86.1442
128.7495,86.1442
124.6255,86.1442
124.6255,85.2551
124.5912,85.1723
124.5277,85.1088
124.5173,85.1045
124.5035,85.0988
124.4449,85.0745
122.7449,85.0745
122.6551,85.0745
122.5723,85.1088
122.5723,85.1088
122.5088,85.1723
122.5088,85.1723
122.4774,85.2481
122.4745,85.2551
122.1255,85.2551
122.1255,84.8625
122.1438,84.8183
122.1880,84.8000
141.5000,84.8000
141.5000,82.1880
141.5183,82.1438
141.5625,82.1255
152.9714,82.1255
152.9969,82.1255
Z" /> 
</g>
<g style="fill:#FFFFFF; fill-opacity:1.0000; stroke:none;">
<circle cx="143.9000" cy="102.3000" r="0.1750" /> 
</g>
<g style="fill:#FFFFFF; fill-opacity:1.0000; stroke:none;">
<circle cx="129.0000" cy="97.3000" r="0.1250" /> 
</g>
<g style="fill:#FFFFFF; fill-opacity:1.0000; stroke:none;">
<circle cx="132.8000" cy="85.5000" r="0.1250" /> 
</g>
<g style="fill:#FFFFFF; fill-opacity:1.0000; stroke:none;">
<circle cx="143.3000" cy="82.5000" r="0.1250" /> 
</g>
<g style="fill:#FFFFFF; fill-opacity:1.0000; stroke:none;">
<circle cx="132.5325" cy="96.3325" r="0.1250" /> 
</g>
<g style="fill:#FFFFFF; fill-opacity:1.0000; stroke:none;">
<circle cx="126.8125" cy="89.1875" r="0.1250" /> 
</g>
<g style="fill:#FFFFFF; fill-opacity:1.0000; stroke:none;">
<circle cx="137.8000" cy="109.2500" r="0.1250" /> 
</g>
<g style="fill:#FFFFFF; fill-opacity:1.0000; stroke:none;">
<circle cx="142.6000" cy="94.9625" r="0.1250" /> 
</g>
<g style="fill:#FFFFFF; fill-opacity:1.0000; stroke:none;">
<circle cx="123.1500" cy="89.1579" r="0.1250" /> 
</g>
<g style="fill:#FFFFFF; fill-opacity:1.0000; stroke:none;">
<circle cx="131.9000" cy="93.2000" r="0.1250" /> 
</g>
<g style="fill:#FFFFFF; fill-opacity:1.0000; stroke:none;">
<circle cx="145.6000" cy="88.3000" r="0.1250" /> 
</g>
<g style="fill:#FFFFFF; fill-opacity:1.0000; stroke:none;">
<circle cx="143.2000" cy="93.7500" r="0.1250" /> 
</g>
<g style="fill:#FFFFFF; fill-opacity:1.0000; stroke:none;">
<circle cx="133.7650" cy="95.7000" r="0.1250" /> 
</g>
<g style="fill:#FFFFFF; fill-opacity:1.0000; stroke:none;">
<circle cx="148.3325" cy="90.4000" r="0.1250" /> 
</g>
<g style="fill:#FFFFFF; fill-opacity:1.0000; stroke:none;">
<circle cx="125.9000" cy="90.6000" r="0.1250" /> 
</g>
<g style="fill:#FFFFFF; fill-opacity:1.0000; stroke:none;">
<circle cx="127.9500" cy="90.7500" r="0.1250" /> 
</g>
<g style="fill:#FFFFFF; fill-opacity:1.0000; stroke:none;">
<circle cx="129.1000" cy="91.5000" r="0.1250" /> 
</g>
<g style="fill:#FFFFFF; fill-opacity:1.0000; stroke:none;">
<circle cx="129.1000" cy="86.1904" r="0.1250" /> 
</g>
<g style="fill:#FFFFFF; fill-opacity:1.0000; stroke:none;">
<circle cx="147.8000" cy="85.5000" r="0.1250" /> 
</g>
<g style="fill:#FFFFFF; fill-opacity:1.0000; stroke:none;">
<circle cx="145.7000" cy="86.2500" r="0.1250" /> 
</g>
<g style="fill:#FFFFFF; fill-opacity:1.0000; stroke:none;">
<circle cx="151.0000" cy="108.0000" r="0.1750" /> 
</g>
<g style="fill:#FFFFFF; fill-opacity:1.0000; stroke:none;">
<circle cx="125.0000" cy="108.0000" r="0.1750" /> 
</g>
<g style="fill:#FFFFFF; fill-opacity:1.0000; stroke:none;">
<circle cx="150.7000" cy="84.4600" r="0.1750" /> 
</g>
<g style="fill:#FFFFFF; fill-opacity:1.0000; stroke:none;">
<circle cx="151.9700" cy="84.4600" r="0.1750" /> 
</g>
<g style="fill:#FFFFFF; fill-opacity:1.0000; stroke:none;">
<circle cx="150.7000" cy="85.7300" r="0.1750" /> 
</g>
<g style="fill:#FFFFFF; fill-opacity:1.0000; stroke:none;">
<circle cx="151.9700" cy="85.7300" r="0.1750" /> 
</g>
<g style="fill:#FFFFFF; fill-opacity:1.0000; stroke:none;">
<circle cx="150.7000" cy="87.0000" r="0.1750" /> 
</g>
<g style="fill:#FFFFFF; fill-opacity:1.0000; stroke:none;">
<circle cx="151.9700" cy="87.0000" r="0.1750" /> 
</g>
<g style="fill:#FFFFFF; fill-opacity:1.0000; stroke:none;">
<circle cx="150.7000" cy="88.2700" r="0.1750" /> 
</g>
<g style="fill:#FFFFFF; fill-opacity:1.0000; stroke:none;">
<circle cx="151.9700" cy="88.2700" r="0.1750" /> 
</g>
<g style="fill:#FFFFFF; fill-opacity:1.0000; stroke:none;">
<circle cx="150.7000" cy="89.5400" r="0.1750" /> 
</g>
<g style="fill:#FFFFFF; fill-opacity:1.0000; stroke:none;">
<circle cx="151.9700" cy="89.5400" r="0.1750" /> 
</g>
<g style="fill:#FFFFFF; fill-opacity:1.0000; stroke:none;">
<circle cx="150.7000" cy="98.7000" r="0.1750" /> 
</g>
<g style="fill:#FFFFFF; fill-opacity:1.0000; stroke:none;">
<circle cx="125.3000" cy="98.7000" r="0.1750" /> 
</g> 
</svg>
