<?xml version="1.0" standalone="no"?>
 <!DOCTYPE svg PUBLIC "-//W3C//DTD SVG 1.1//EN" 
 "http://www.w3.org/Graphics/SVG/1.1/DTD/svg11.dtd"> 
<svg
  xmlns:svg="http://www.w3.org/2000/svg"
  xmlns="http://www.w3.org/2000/svg"
  xmlns:xlink="http://www.w3.org/1999/xlink"
  version="1.1"
  width="297.0022mm" height="210.0072mm" viewBox="0.0000 0.0000 297.0022 210.0072">
<title>SVG Image created as BeeLight-F_Mask.svg date 2026/03/17 20:28:59 </title>
  <desc>Image generated by PCBNEW </desc>
<g style="fill:#000000; fill-opacity:1.0000;stroke:#000000; stroke-opacity:1.0000;
stroke-linecap:round; stroke-linejoin:round;"
 transform="translate(0 0) scale(1 1)">
</g>
<g style="fill:none; 
stroke:#000000; stroke-width:0.1500; stroke-opacity:1; 
stroke-linecap:round; stroke-linejoin:round;">
<path d="M177.0022 166.0072
L285.0022 166.0072
L285.0022 198.0072
L177.0022 198.0072
L177.0022 166.0072
" />
</g>
<g style="fill:none; 
stroke:#000000; stroke-width:0.1500; stroke-opacity:1; 
stroke-linecap:round; stroke-linejoin:round;">
<path d="M10.0000 10.0000
L287.0022 10.0000
L287.0022 200.0072
L10.0000 200.0072
L10.0000 10.0000
" />
</g>
<g style="fill:none; 
stroke:#000000; stroke-width:0.1500; stroke-opacity:1; 
stroke-linecap:round; stroke-linejoin:round;">
<path d="M12.0000 12.0000
L285.0022 12.0000
L285.0022 198.0072
L12.0000 198.0072
L12.0000 12.0000
" />
</g>
<g style="fill:none; 
stroke:#000000; stroke-width:0.1500; stroke-opacity:1; 
stroke-linecap:round; stroke-linejoin:round;">
<path d="M60.0000 12.0000
L60.0000 10.0000
" />
</g>
<g style="fill:none; 
stroke:#000000; stroke-width:0.1500; stroke-opacity:1; 
stroke-linecap:round; stroke-linejoin:round;">
<path d="M110.0000 12.0000
L110.0000 10.0000
" />
</g>
<g style="fill:none; 
stroke:#000000; stroke-width:0.1500; stroke-opacity:1; 
stroke-linecap:round; stroke-linejoin:round;">
<path d="M160.0000 12.0000
L160.0000 10.0000
" />
</g>
<g style="fill:none; 
stroke:#000000; stroke-width:0.1500; stroke-opacity:1; 
stroke-linecap:round; stroke-linejoin:round;">
<path d="M210.0000 12.0000
L210.0000 10.0000
" />
</g>
<g style="fill:none; 
stroke:#000000; stroke-width:0.1500; stroke-opacity:1; 
stroke-linecap:round; stroke-linejoin:round;">
<path d="M260.0000 12.0000
L260.0000 10.0000
" />
</g>
<g style="fill:none; 
stroke:#000000; stroke-width:0.1500; stroke-opacity:1; 
stroke-linecap:round; stroke-linejoin:round;">
<text x="35.0000" y="11.6500"
textLength="1.4281" font-size="1.7333" lengthAdjust="spacingAndGlyphs"
text-anchor="start" opacity="0" stroke-opacity="0">1</text>
<g class="stroked-text"><desc>1</desc>
<path d="M36.0892 11.5936
L35.3463 11.5936
" />
<path d="M35.7177 11.5936
L35.7177 10.2936
" />
<path d="M35.7177 10.2936
L35.5939 10.4793
" />
<path d="M35.5939 10.4793
L35.4701 10.6031
" />
<path d="M35.4701 10.6031
L35.3463 10.6650
" />
</g></g>
<g style="fill:none; 
stroke:#000000; stroke-width:0.1500; stroke-opacity:1; 
stroke-linecap:round; stroke-linejoin:round;">
<text x="85.0000" y="11.6500"
textLength="1.4281" font-size="1.7333" lengthAdjust="spacingAndGlyphs"
text-anchor="start" opacity="0" stroke-opacity="0">2</text>
<g class="stroked-text"><desc>2</desc>
<path d="M85.3463 10.4174
L85.4082 10.3555
" />
<path d="M85.4082 10.3555
L85.5320 10.2936
" />
<path d="M85.5320 10.2936
L85.8415 10.2936
" />
<path d="M85.8415 10.2936
L85.9654 10.3555
" />
<path d="M85.9654 10.3555
L86.0273 10.4174
" />
<path d="M86.0273 10.4174
L86.0892 10.5412
" />
<path d="M86.0892 10.5412
L86.0892 10.6650
" />
<path d="M86.0892 10.6650
L86.0273 10.8507
" />
<path d="M86.0273 10.8507
L85.2844 11.5936
" />
<path d="M85.2844 11.5936
L86.0892 11.5936
" />
</g></g>
<g style="fill:none; 
stroke:#000000; stroke-width:0.1500; stroke-opacity:1; 
stroke-linecap:round; stroke-linejoin:round;">
<text x="135.0000" y="11.6500"
textLength="1.4281" font-size="1.7333" lengthAdjust="spacingAndGlyphs"
text-anchor="start" opacity="0" stroke-opacity="0">3</text>
<g class="stroked-text"><desc>3</desc>
<path d="M135.2844 10.2936
L136.0892 10.2936
" />
<path d="M136.0892 10.2936
L135.6558 10.7888
" />
<path d="M135.6558 10.7888
L135.8415 10.7888
" />
<path d="M135.8415 10.7888
L135.9654 10.8507
" />
<path d="M135.9654 10.8507
L136.0273 10.9127
" />
<path d="M136.0273 10.9127
L136.0892 11.0365
" />
<path d="M136.0892 11.0365
L136.0892 11.3460
" />
<path d="M136.0892 11.3460
L136.0273 11.4698
" />
<path d="M136.0273 11.4698
L135.9654 11.5317
" />
<path d="M135.9654 11.5317
L135.8415 11.5936
" />
<path d="M135.8415 11.5936
L135.4701 11.5936
" />
<path d="M135.4701 11.5936
L135.3463 11.5317
" />
<path d="M135.3463 11.5317
L135.2844 11.4698
" />
</g></g>
<g style="fill:none; 
stroke:#000000; stroke-width:0.1500; stroke-opacity:1; 
stroke-linecap:round; stroke-linejoin:round;">
<text x="185.0000" y="11.6500"
textLength="1.4281" font-size="1.7333" lengthAdjust="spacingAndGlyphs"
text-anchor="start" opacity="0" stroke-opacity="0">4</text>
<g class="stroked-text"><desc>4</desc>
<path d="M185.9654 10.7269
L185.9654 11.5936
" />
<path d="M185.6558 10.2317
L185.3463 11.1603
" />
<path d="M185.3463 11.1603
L186.1511 11.1603
" />
</g></g>
<g style="fill:none; 
stroke:#000000; stroke-width:0.1500; stroke-opacity:1; 
stroke-linecap:round; stroke-linejoin:round;">
<text x="235.0000" y="11.6500"
textLength="1.4281" font-size="1.7333" lengthAdjust="spacingAndGlyphs"
text-anchor="start" opacity="0" stroke-opacity="0">5</text>
<g class="stroked-text"><desc>5</desc>
<path d="M236.0273 10.2936
L235.4082 10.2936
" />
<path d="M235.4082 10.2936
L235.3463 10.9127
" />
<path d="M235.3463 10.9127
L235.4082 10.8507
" />
<path d="M235.4082 10.8507
L235.5320 10.7888
" />
<path d="M235.5320 10.7888
L235.8415 10.7888
" />
<path d="M235.8415 10.7888
L235.9654 10.8507
" />
<path d="M235.9654 10.8507
L236.0273 10.9127
" />
<path d="M236.0273 10.9127
L236.0892 11.0365
" />
<path d="M236.0892 11.0365
L236.0892 11.3460
" />
<path d="M236.0892 11.3460
L236.0273 11.4698
" />
<path d="M236.0273 11.4698
L235.9654 11.5317
" />
<path d="M235.9654 11.5317
L235.8415 11.5936
" />
<path d="M235.8415 11.5936
L235.5320 11.5936
" />
<path d="M235.5320 11.5936
L235.4082 11.5317
" />
<path d="M235.4082 11.5317
L235.3463 11.4698
" />
</g></g>
<g style="fill:none; 
stroke:#000000; stroke-width:0.1500; stroke-opacity:1; 
stroke-linecap:round; stroke-linejoin:round;">
<text x="285.0000" y="11.6500"
textLength="1.4281" font-size="1.7333" lengthAdjust="spacingAndGlyphs"
text-anchor="start" opacity="0" stroke-opacity="0">6</text>
<g class="stroked-text"><desc>6</desc>
<path d="M285.9654 10.2936
L285.7177 10.2936
" />
<path d="M285.7177 10.2936
L285.5939 10.3555
" />
<path d="M285.5939 10.3555
L285.5320 10.4174
" />
<path d="M285.5320 10.4174
L285.4082 10.6031
" />
<path d="M285.4082 10.6031
L285.3463 10.8507
" />
<path d="M285.3463 10.8507
L285.3463 11.3460
" />
<path d="M285.3463 11.3460
L285.4082 11.4698
" />
<path d="M285.4082 11.4698
L285.4701 11.5317
" />
<path d="M285.4701 11.5317
L285.5939 11.5936
" />
<path d="M285.5939 11.5936
L285.8415 11.5936
" />
<path d="M285.8415 11.5936
L285.9654 11.5317
" />
<path d="M285.9654 11.5317
L286.0273 11.4698
" />
<path d="M286.0273 11.4698
L286.0892 11.3460
" />
<path d="M286.0892 11.3460
L286.0892 11.0365
" />
<path d="M286.0892 11.0365
L286.0273 10.9127
" />
<path d="M286.0273 10.9127
L285.9654 10.8507
" />
<path d="M285.9654 10.8507
L285.8415 10.7888
" />
<path d="M285.8415 10.7888
L285.5939 10.7888
" />
<path d="M285.5939 10.7888
L285.4701 10.8507
" />
<path d="M285.4701 10.8507
L285.4082 10.9127
" />
<path d="M285.4082 10.9127
L285.3463 11.0365
" />
</g></g>
<g style="fill:none; 
stroke:#000000; stroke-width:0.1500; stroke-opacity:1; 
stroke-linecap:round; stroke-linejoin:round;">
<path d="M60.0000 198.0072
L60.0000 200.0072
" />
</g>
<g style="fill:none; 
stroke:#000000; stroke-width:0.1500; stroke-opacity:1; 
stroke-linecap:round; stroke-linejoin:round;">
<path d="M110.0000 198.0072
L110.0000 200.0072
" />
</g>
<g style="fill:none; 
stroke:#000000; stroke-width:0.1500; stroke-opacity:1; 
stroke-linecap:round; stroke-linejoin:round;">
<path d="M160.0000 198.0072
L160.0000 200.0072
" />
</g>
<g style="fill:none; 
stroke:#000000; stroke-width:0.1500; stroke-opacity:1; 
stroke-linecap:round; stroke-linejoin:round;">
<path d="M210.0000 198.0072
L210.0000 200.0072
" />
</g>
<g style="fill:none; 
stroke:#000000; stroke-width:0.1500; stroke-opacity:1; 
stroke-linecap:round; stroke-linejoin:round;">
<path d="M260.0000 198.0072
L260.0000 200.0072
" />
</g>
<g style="fill:none; 
stroke:#000000; stroke-width:0.1500; stroke-opacity:1; 
stroke-linecap:round; stroke-linejoin:round;">
<text x="35.0000" y="199.6572"
textLength="1.4281" font-size="1.7333" lengthAdjust="spacingAndGlyphs"
text-anchor="start" opacity="0" stroke-opacity="0">1</text>
<g class="stroked-text"><desc>1</desc>
<path d="M36.0892 199.6008
L35.3463 199.6008
" />
<path d="M35.7177 199.6008
L35.7177 198.3008
" />
<path d="M35.7177 198.3008
L35.5939 198.4865
" />
<path d="M35.5939 198.4865
L35.4701 198.6103
" />
<path d="M35.4701 198.6103
L35.3463 198.6722
" />
</g></g>
<g style="fill:none; 
stroke:#000000; stroke-width:0.1500; stroke-opacity:1; 
stroke-linecap:round; stroke-linejoin:round;">
<text x="85.0000" y="199.6572"
textLength="1.4281" font-size="1.7333" lengthAdjust="spacingAndGlyphs"
text-anchor="start" opacity="0" stroke-opacity="0">2</text>
<g class="stroked-text"><desc>2</desc>
<path d="M85.3463 198.4246
L85.4082 198.3627
" />
<path d="M85.4082 198.3627
L85.5320 198.3008
" />
<path d="M85.5320 198.3008
L85.8415 198.3008
" />
<path d="M85.8415 198.3008
L85.9654 198.3627
" />
<path d="M85.9654 198.3627
L86.0273 198.4246
" />
<path d="M86.0273 198.4246
L86.0892 198.5484
" />
<path d="M86.0892 198.5484
L86.0892 198.6722
" />
<path d="M86.0892 198.6722
L86.0273 198.8579
" />
<path d="M86.0273 198.8579
L85.2844 199.6008
" />
<path d="M85.2844 199.6008
L86.0892 199.6008
" />
</g></g>
<g style="fill:none; 
stroke:#000000; stroke-width:0.1500; stroke-opacity:1; 
stroke-linecap:round; stroke-linejoin:round;">
<text x="135.0000" y="199.6572"
textLength="1.4281" font-size="1.7333" lengthAdjust="spacingAndGlyphs"
text-anchor="start" opacity="0" stroke-opacity="0">3</text>
<g class="stroked-text"><desc>3</desc>
<path d="M135.2844 198.3008
L136.0892 198.3008
" />
<path d="M136.0892 198.3008
L135.6558 198.7960
" />
<path d="M135.6558 198.7960
L135.8415 198.7960
" />
<path d="M135.8415 198.7960
L135.9654 198.8579
" />
<path d="M135.9654 198.8579
L136.0273 198.9199
" />
<path d="M136.0273 198.9199
L136.0892 199.0437
" />
<path d="M136.0892 199.0437
L136.0892 199.3532
" />
<path d="M136.0892 199.3532
L136.0273 199.4770
" />
<path d="M136.0273 199.4770
L135.9654 199.5389
" />
<path d="M135.9654 199.5389
L135.8415 199.6008
" />
<path d="M135.8415 199.6008
L135.4701 199.6008
" />
<path d="M135.4701 199.6008
L135.3463 199.5389
" />
<path d="M135.3463 199.5389
L135.2844 199.4770
" />
</g></g>
<g style="fill:none; 
stroke:#000000; stroke-width:0.1500; stroke-opacity:1; 
stroke-linecap:round; stroke-linejoin:round;">
<text x="185.0000" y="199.6572"
textLength="1.4281" font-size="1.7333" lengthAdjust="spacingAndGlyphs"
text-anchor="start" opacity="0" stroke-opacity="0">4</text>
<g class="stroked-text"><desc>4</desc>
<path d="M185.9654 198.7341
L185.9654 199.6008
" />
<path d="M185.6558 198.2389
L185.3463 199.1675
" />
<path d="M185.3463 199.1675
L186.1511 199.1675
" />
</g></g>
<g style="fill:none; 
stroke:#000000; stroke-width:0.1500; stroke-opacity:1; 
stroke-linecap:round; stroke-linejoin:round;">
<text x="235.0000" y="199.6572"
textLength="1.4281" font-size="1.7333" lengthAdjust="spacingAndGlyphs"
text-anchor="start" opacity="0" stroke-opacity="0">5</text>
<g class="stroked-text"><desc>5</desc>
<path d="M236.0273 198.3008
L235.4082 198.3008
" />
<path d="M235.4082 198.3008
L235.3463 198.9199
" />
<path d="M235.3463 198.9199
L235.4082 198.8579
" />
<path d="M235.4082 198.8579
L235.5320 198.7960
" />
<path d="M235.5320 198.7960
L235.8415 198.7960
" />
<path d="M235.8415 198.7960
L235.9654 198.8579
" />
<path d="M235.9654 198.8579
L236.0273 198.9199
" />
<path d="M236.0273 198.9199
L236.0892 199.0437
" />
<path d="M236.0892 199.0437
L236.0892 199.3532
" />
<path d="M236.0892 199.3532
L236.0273 199.4770
" />
<path d="M236.0273 199.4770
L235.9654 199.5389
" />
<path d="M235.9654 199.5389
L235.8415 199.6008
" />
<path d="M235.8415 199.6008
L235.5320 199.6008
" />
<path d="M235.5320 199.6008
L235.4082 199.5389
" />
<path d="M235.4082 199.5389
L235.3463 199.4770
" />
</g></g>
<g style="fill:none; 
stroke:#000000; stroke-width:0.1500; stroke-opacity:1; 
stroke-linecap:round; stroke-linejoin:round;">
<text x="285.0000" y="199.6572"
textLength="1.4281" font-size="1.7333" lengthAdjust="spacingAndGlyphs"
text-anchor="start" opacity="0" stroke-opacity="0">6</text>
<g class="stroked-text"><desc>6</desc>
<path d="M285.9654 198.3008
L285.7177 198.3008
" />
<path d="M285.7177 198.3008
L285.5939 198.3627
" />
<path d="M285.5939 198.3627
L285.5320 198.4246
" />
<path d="M285.5320 198.4246
L285.4082 198.6103
" />
<path d="M285.4082 198.6103
L285.3463 198.8579
" />
<path d="M285.3463 198.8579
L285.3463 199.3532
" />
<path d="M285.3463 199.3532
L285.4082 199.4770
" />
<path d="M285.4082 199.4770
L285.4701 199.5389
" />
<path d="M285.4701 199.5389
L285.5939 199.6008
" />
<path d="M285.5939 199.6008
L285.8415 199.6008
" />
<path d="M285.8415 199.6008
L285.9654 199.5389
" />
<path d="M285.9654 199.5389
L286.0273 199.4770
" />
<path d="M286.0273 199.4770
L286.0892 199.3532
" />
<path d="M286.0892 199.3532
L286.0892 199.0437
" />
<path d="M286.0892 199.0437
L286.0273 198.9199
" />
<path d="M286.0273 198.9199
L285.9654 198.8579
" />
<path d="M285.9654 198.8579
L285.8415 198.7960
" />
<path d="M285.8415 198.7960
L285.5939 198.7960
" />
<path d="M285.5939 198.7960
L285.4701 198.8579
" />
<path d="M285.4701 198.8579
L285.4082 198.9199
" />
<path d="M285.4082 198.9199
L285.3463 199.0437
" />
</g></g>
<g style="fill:none; 
stroke:#000000; stroke-width:0.1500; stroke-opacity:1; 
stroke-linecap:round; stroke-linejoin:round;">
<path d="M10.0000 60.0000
L12.0000 60.0000
" />
</g>
<g style="fill:none; 
stroke:#000000; stroke-width:0.1500; stroke-opacity:1; 
stroke-linecap:round; stroke-linejoin:round;">
<path d="M10.0000 110.0000
L12.0000 110.0000
" />
</g>
<g style="fill:none; 
stroke:#000000; stroke-width:0.1500; stroke-opacity:1; 
stroke-linecap:round; stroke-linejoin:round;">
<path d="M10.0000 160.0000
L12.0000 160.0000
" />
</g>
<g style="fill:none; 
stroke:#000000; stroke-width:0.1500; stroke-opacity:1; 
stroke-linecap:round; stroke-linejoin:round;">
<text x="11.0000" y="35.6500"
textLength="1.3043" font-size="1.7333" lengthAdjust="spacingAndGlyphs"
text-anchor="middle" opacity="0" stroke-opacity="0">A</text>
<g class="stroked-text"><desc>A</desc>
<path d="M10.6905 35.2222
L11.3095 35.2222
" />
<path d="M10.5667 35.5936
L11.0000 34.2936
" />
<path d="M11.0000 34.2936
L11.4333 35.5936
" />
</g></g>
<g style="fill:none; 
stroke:#000000; stroke-width:0.1500; stroke-opacity:1; 
stroke-linecap:round; stroke-linejoin:round;">
<text x="11.0000" y="85.6500"
textLength="1.4900" font-size="1.7333" lengthAdjust="spacingAndGlyphs"
text-anchor="middle" opacity="0" stroke-opacity="0">B</text>
<g class="stroked-text"><desc>B</desc>
<path d="M11.0929 84.9127
L11.2786 84.9746
" />
<path d="M11.2786 84.9746
L11.3405 85.0365
" />
<path d="M11.3405 85.0365
L11.4024 85.1603
" />
<path d="M11.4024 85.1603
L11.4024 85.3460
" />
<path d="M11.4024 85.3460
L11.3405 85.4698
" />
<path d="M11.3405 85.4698
L11.2786 85.5317
" />
<path d="M11.2786 85.5317
L11.1548 85.5936
" />
<path d="M11.1548 85.5936
L10.6595 85.5936
" />
<path d="M10.6595 85.5936
L10.6595 84.2936
" />
<path d="M10.6595 84.2936
L11.0929 84.2936
" />
<path d="M11.0929 84.2936
L11.2167 84.3555
" />
<path d="M11.2167 84.3555
L11.2786 84.4174
" />
<path d="M11.2786 84.4174
L11.3405 84.5412
" />
<path d="M11.3405 84.5412
L11.3405 84.6650
" />
<path d="M11.3405 84.6650
L11.2786 84.7888
" />
<path d="M11.2786 84.7888
L11.2167 84.8507
" />
<path d="M11.2167 84.8507
L11.0929 84.9127
" />
<path d="M11.0929 84.9127
L10.6595 84.9127
" />
</g></g>
<g style="fill:none; 
stroke:#000000; stroke-width:0.1500; stroke-opacity:1; 
stroke-linecap:round; stroke-linejoin:round;">
<text x="11.0000" y="135.6500"
textLength="1.4900" font-size="1.7333" lengthAdjust="spacingAndGlyphs"
text-anchor="middle" opacity="0" stroke-opacity="0">C</text>
<g class="stroked-text"><desc>C</desc>
<path d="M11.4024 135.4698
L11.3405 135.5317
" />
<path d="M11.3405 135.5317
L11.1548 135.5936
" />
<path d="M11.1548 135.5936
L11.0310 135.5936
" />
<path d="M11.0310 135.5936
L10.8452 135.5317
" />
<path d="M10.8452 135.5317
L10.7214 135.4079
" />
<path d="M10.7214 135.4079
L10.6595 135.2841
" />
<path d="M10.6595 135.2841
L10.5976 135.0365
" />
<path d="M10.5976 135.0365
L10.5976 134.8507
" />
<path d="M10.5976 134.8507
L10.6595 134.6031
" />
<path d="M10.6595 134.6031
L10.7214 134.4793
" />
<path d="M10.7214 134.4793
L10.8452 134.3555
" />
<path d="M10.8452 134.3555
L11.0310 134.2936
" />
<path d="M11.0310 134.2936
L11.1548 134.2936
" />
<path d="M11.1548 134.2936
L11.3405 134.3555
" />
<path d="M11.3405 134.3555
L11.4024 134.4174
" />
</g></g>
<g style="fill:none; 
stroke:#000000; stroke-width:0.1500; stroke-opacity:1; 
stroke-linecap:round; stroke-linejoin:round;">
<text x="11.0000" y="185.6500"
textLength="1.4900" font-size="1.7333" lengthAdjust="spacingAndGlyphs"
text-anchor="middle" opacity="0" stroke-opacity="0">D</text>
<g class="stroked-text"><desc>D</desc>
<path d="M10.6595 185.5936
L10.6595 184.2936
" />
<path d="M10.6595 184.2936
L10.9690 184.2936
" />
<path d="M10.9690 184.2936
L11.1548 184.3555
" />
<path d="M11.1548 184.3555
L11.2786 184.4793
" />
<path d="M11.2786 184.4793
L11.3405 184.6031
" />
<path d="M11.3405 184.6031
L11.4024 184.8507
" />
<path d="M11.4024 184.8507
L11.4024 185.0365
" />
<path d="M11.4024 185.0365
L11.3405 185.2841
" />
<path d="M11.3405 185.2841
L11.2786 185.4079
" />
<path d="M11.2786 185.4079
L11.1548 185.5317
" />
<path d="M11.1548 185.5317
L10.9690 185.5936
" />
<path d="M10.9690 185.5936
L10.6595 185.5936
" />
</g></g>
<g style="fill:none; 
stroke:#000000; stroke-width:0.1500; stroke-opacity:1; 
stroke-linecap:round; stroke-linejoin:round;">
<path d="M287.0022 60.0000
L285.0022 60.0000
" />
</g>
<g style="fill:none; 
stroke:#000000; stroke-width:0.1500; stroke-opacity:1; 
stroke-linecap:round; stroke-linejoin:round;">
<path d="M287.0022 110.0000
L285.0022 110.0000
" />
</g>
<g style="fill:none; 
stroke:#000000; stroke-width:0.1500; stroke-opacity:1; 
stroke-linecap:round; stroke-linejoin:round;">
<path d="M287.0022 160.0000
L285.0022 160.0000
" />
</g>
<g style="fill:none; 
stroke:#000000; stroke-width:0.1500; stroke-opacity:1; 
stroke-linecap:round; stroke-linejoin:round;">
<text x="286.0022" y="35.6500"
textLength="1.3043" font-size="1.7333" lengthAdjust="spacingAndGlyphs"
text-anchor="middle" opacity="0" stroke-opacity="0">A</text>
<g class="stroked-text"><desc>A</desc>
<path d="M285.6927 35.2222
L286.3117 35.2222
" />
<path d="M285.5689 35.5936
L286.0022 34.2936
" />
<path d="M286.0022 34.2936
L286.4355 35.5936
" />
</g></g>
<g style="fill:none; 
stroke:#000000; stroke-width:0.1500; stroke-opacity:1; 
stroke-linecap:round; stroke-linejoin:round;">
<text x="286.0022" y="85.6500"
textLength="1.4900" font-size="1.7333" lengthAdjust="spacingAndGlyphs"
text-anchor="middle" opacity="0" stroke-opacity="0">B</text>
<g class="stroked-text"><desc>B</desc>
<path d="M286.0951 84.9127
L286.2808 84.9746
" />
<path d="M286.2808 84.9746
L286.3427 85.0365
" />
<path d="M286.3427 85.0365
L286.4046 85.1603
" />
<path d="M286.4046 85.1603
L286.4046 85.3460
" />
<path d="M286.4046 85.3460
L286.3427 85.4698
" />
<path d="M286.3427 85.4698
L286.2808 85.5317
" />
<path d="M286.2808 85.5317
L286.1570 85.5936
" />
<path d="M286.1570 85.5936
L285.6617 85.5936
" />
<path d="M285.6617 85.5936
L285.6617 84.2936
" />
<path d="M285.6617 84.2936
L286.0951 84.2936
" />
<path d="M286.0951 84.2936
L286.2189 84.3555
" />
<path d="M286.2189 84.3555
L286.2808 84.4174
" />
<path d="M286.2808 84.4174
L286.3427 84.5412
" />
<path d="M286.3427 84.5412
L286.3427 84.6650
" />
<path d="M286.3427 84.6650
L286.2808 84.7888
" />
<path d="M286.2808 84.7888
L286.2189 84.8507
" />
<path d="M286.2189 84.8507
L286.0951 84.9127
" />
<path d="M286.0951 84.9127
L285.6617 84.9127
" />
</g></g>
<g style="fill:none; 
stroke:#000000; stroke-width:0.1500; stroke-opacity:1; 
stroke-linecap:round; stroke-linejoin:round;">
<text x="286.0022" y="135.6500"
textLength="1.4900" font-size="1.7333" lengthAdjust="spacingAndGlyphs"
text-anchor="middle" opacity="0" stroke-opacity="0">C</text>
<g class="stroked-text"><desc>C</desc>
<path d="M286.4046 135.4698
L286.3427 135.5317
" />
<path d="M286.3427 135.5317
L286.1570 135.5936
" />
<path d="M286.1570 135.5936
L286.0332 135.5936
" />
<path d="M286.0332 135.5936
L285.8474 135.5317
" />
<path d="M285.8474 135.5317
L285.7236 135.4079
" />
<path d="M285.7236 135.4079
L285.6617 135.2841
" />
<path d="M285.6617 135.2841
L285.5998 135.0365
" />
<path d="M285.5998 135.0365
L285.5998 134.8507
" />
<path d="M285.5998 134.8507
L285.6617 134.6031
" />
<path d="M285.6617 134.6031
L285.7236 134.4793
" />
<path d="M285.7236 134.4793
L285.8474 134.3555
" />
<path d="M285.8474 134.3555
L286.0332 134.2936
" />
<path d="M286.0332 134.2936
L286.1570 134.2936
" />
<path d="M286.1570 134.2936
L286.3427 134.3555
" />
<path d="M286.3427 134.3555
L286.4046 134.4174
" />
</g></g>
<g style="fill:none; 
stroke:#000000; stroke-width:0.1500; stroke-opacity:1; 
stroke-linecap:round; stroke-linejoin:round;">
<text x="286.0022" y="185.6500"
textLength="1.4900" font-size="1.7333" lengthAdjust="spacingAndGlyphs"
text-anchor="middle" opacity="0" stroke-opacity="0">D</text>
<g class="stroked-text"><desc>D</desc>
<path d="M285.6617 185.5936
L285.6617 184.2936
" />
<path d="M285.6617 184.2936
L285.9712 184.2936
" />
<path d="M285.9712 184.2936
L286.1570 184.3555
" />
<path d="M286.1570 184.3555
L286.2808 184.4793
" />
<path d="M286.2808 184.4793
L286.3427 184.6031
" />
<path d="M286.3427 184.6031
L286.4046 184.8507
" />
<path d="M286.4046 184.8507
L286.4046 185.0365
" />
<path d="M286.4046 185.0365
L286.3427 185.2841
" />
<path d="M286.3427 185.2841
L286.2808 185.4079
" />
<path d="M286.2808 185.4079
L286.1570 185.5317
" />
<path d="M286.1570 185.5317
L285.9712 185.5936
" />
<path d="M285.9712 185.5936
L285.6617 185.5936
" />
</g></g>
<g style="fill:none; 
stroke:#000000; stroke-width:0.1500; stroke-opacity:1; 
stroke-linecap:round; stroke-linejoin:round;">
<text x="200.0022" y="193.8572"
textLength="22.1500" font-size="2.0000" lengthAdjust="spacingAndGlyphs"
text-anchor="start" opacity="0" stroke-opacity="0">Date: 2025-05-12</text>
<g class="stroked-text"><desc>Date: 2025-05-12</desc>
<path d="M200.4580 193.7933
L200.4580 192.2933
" />
<path d="M200.4580 192.2933
L200.8152 192.2933
" />
<path d="M200.8152 192.2933
L201.0295 192.3648
" />
<path d="M201.0295 192.3648
L201.1723 192.5076
" />
<path d="M201.1723 192.5076
L201.2437 192.6505
" />
<path d="M201.2437 192.6505
L201.3152 192.9362
" />
<path d="M201.3152 192.9362
L201.3152 193.1505
" />
<path d="M201.3152 193.1505
L201.2437 193.4362
" />
<path d="M201.2437 193.4362
L201.1723 193.5790
" />
<path d="M201.1723 193.5790
L201.0295 193.7219
" />
<path d="M201.0295 193.7219
L200.8152 193.7933
" />
<path d="M200.8152 193.7933
L200.4580 193.7933
" />
<path d="M202.6009 193.7933
L202.6009 193.0076
" />
<path d="M202.6009 193.0076
L202.5295 192.8648
" />
<path d="M202.5295 192.8648
L202.3866 192.7933
" />
<path d="M202.3866 192.7933
L202.1009 192.7933
" />
<path d="M202.1009 192.7933
L201.9580 192.8648
" />
<path d="M202.6009 193.7219
L202.4580 193.7933
" />
<path d="M202.4580 193.7933
L202.1009 193.7933
" />
<path d="M202.1009 193.7933
L201.9580 193.7219
" />
<path d="M201.9580 193.7219
L201.8866 193.5790
" />
<path d="M201.8866 193.5790
L201.8866 193.4362
" />
<path d="M201.8866 193.4362
L201.9580 193.2933
" />
<path d="M201.9580 193.2933
L202.1009 193.2219
" />
<path d="M202.1009 193.2219
L202.4580 193.2219
" />
<path d="M202.4580 193.2219
L202.6009 193.1505
" />
<path d="M203.1009 192.7933
L203.6723 192.7933
" />
<path d="M203.3152 192.2933
L203.3152 193.5790
" />
<path d="M203.3152 193.5790
L203.3866 193.7219
" />
<path d="M203.3866 193.7219
L203.5295 193.7933
" />
<path d="M203.5295 193.7933
L203.6723 193.7933
" />
<path d="M204.7437 193.7219
L204.6009 193.7933
" />
<path d="M204.6009 193.7933
L204.3152 193.7933
" />
<path d="M204.3152 193.7933
L204.1723 193.7219
" />
<path d="M204.1723 193.7219
L204.1009 193.5790
" />
<path d="M204.1009 193.5790
L204.1009 193.0076
" />
<path d="M204.1009 193.0076
L204.1723 192.8648
" />
<path d="M204.1723 192.8648
L204.3152 192.7933
" />
<path d="M204.3152 192.7933
L204.6009 192.7933
" />
<path d="M204.6009 192.7933
L204.7437 192.8648
" />
<path d="M204.7437 192.8648
L204.8152 193.0076
" />
<path d="M204.8152 193.0076
L204.8152 193.1505
" />
<path d="M204.8152 193.1505
L204.1009 193.2933
" />
<path d="M205.4580 193.6505
L205.5295 193.7219
" />
<path d="M205.5295 193.7219
L205.4580 193.7933
" />
<path d="M205.4580 193.7933
L205.3866 193.7219
" />
<path d="M205.3866 193.7219
L205.4580 193.6505
" />
<path d="M205.4580 193.6505
L205.4580 193.7933
" />
<path d="M205.4580 192.8648
L205.5295 192.9362
" />
<path d="M205.5295 192.9362
L205.4580 193.0076
" />
<path d="M205.4580 193.0076
L205.3866 192.9362
" />
<path d="M205.3866 192.9362
L205.4580 192.8648
" />
<path d="M205.4580 192.8648
L205.4580 193.0076
" />
<path d="M207.2437 192.4362
L207.3152 192.3648
" />
<path d="M207.3152 192.3648
L207.4580 192.2933
" />
<path d="M207.4580 192.2933
L207.8152 192.2933
" />
<path d="M207.8152 192.2933
L207.9580 192.3648
" />
<path d="M207.9580 192.3648
L208.0295 192.4362
" />
<path d="M208.0295 192.4362
L208.1009 192.5790
" />
<path d="M208.1009 192.5790
L208.1009 192.7219
" />
<path d="M208.1009 192.7219
L208.0295 192.9362
" />
<path d="M208.0295 192.9362
L207.1723 193.7933
" />
<path d="M207.1723 193.7933
L208.1009 193.7933
" />
<path d="M209.0295 192.2933
L209.1723 192.2933
" />
<path d="M209.1723 192.2933
L209.3152 192.3648
" />
<path d="M209.3152 192.3648
L209.3866 192.4362
" />
<path d="M209.3866 192.4362
L209.4580 192.5790
" />
<path d="M209.4580 192.5790
L209.5295 192.8648
" />
<path d="M209.5295 192.8648
L209.5295 193.2219
" />
<path d="M209.5295 193.2219
L209.4580 193.5076
" />
<path d="M209.4580 193.5076
L209.3866 193.6505
" />
<path d="M209.3866 193.6505
L209.3152 193.7219
" />
<path d="M209.3152 193.7219
L209.1723 193.7933
" />
<path d="M209.1723 193.7933
L209.0295 193.7933
" />
<path d="M209.0295 193.7933
L208.8866 193.7219
" />
<path d="M208.8866 193.7219
L208.8152 193.6505
" />
<path d="M208.8152 193.6505
L208.7437 193.5076
" />
<path d="M208.7437 193.5076
L208.6723 193.2219
" />
<path d="M208.6723 193.2219
L208.6723 192.8648
" />
<path d="M208.6723 192.8648
L208.7437 192.5790
" />
<path d="M208.7437 192.5790
L208.8152 192.4362
" />
<path d="M208.8152 192.4362
L208.8866 192.3648
" />
<path d="M208.8866 192.3648
L209.0295 192.2933
" />
<path d="M210.1009 192.4362
L210.1723 192.3648
" />
<path d="M210.1723 192.3648
L210.3152 192.2933
" />
<path d="M210.3152 192.2933
L210.6723 192.2933
" />
<path d="M210.6723 192.2933
L210.8152 192.3648
" />
<path d="M210.8152 192.3648
L210.8866 192.4362
" />
<path d="M210.8866 192.4362
L210.9580 192.5790
" />
<path d="M210.9580 192.5790
L210.9580 192.7219
" />
<path d="M210.9580 192.7219
L210.8866 192.9362
" />
<path d="M210.8866 192.9362
L210.0295 193.7933
" />
<path d="M210.0295 193.7933
L210.9580 193.7933
" />
<path d="M212.3152 192.2933
L211.6009 192.2933
" />
<path d="M211.6009 192.2933
L211.5295 193.0076
" />
<path d="M211.5295 193.0076
L211.6009 192.9362
" />
<path d="M211.6009 192.9362
L211.7437 192.8648
" />
<path d="M211.7437 192.8648
L212.1009 192.8648
" />
<path d="M212.1009 192.8648
L212.2437 192.9362
" />
<path d="M212.2437 192.9362
L212.3152 193.0076
" />
<path d="M212.3152 193.0076
L212.3866 193.1505
" />
<path d="M212.3866 193.1505
L212.3866 193.5076
" />
<path d="M212.3866 193.5076
L212.3152 193.6505
" />
<path d="M212.3152 193.6505
L212.2437 193.7219
" />
<path d="M212.2437 193.7219
L212.1009 193.7933
" />
<path d="M212.1009 193.7933
L211.7437 193.7933
" />
<path d="M211.7437 193.7933
L211.6009 193.7219
" />
<path d="M211.6009 193.7219
L211.5295 193.6505
" />
<path d="M213.0295 193.2219
L214.1723 193.2219
" />
<path d="M215.1723 192.2933
L215.3152 192.2933
" />
<path d="M215.3152 192.2933
L215.4580 192.3648
" />
<path d="M215.4580 192.3648
L215.5295 192.4362
" />
<path d="M215.5295 192.4362
L215.6009 192.5790
" />
<path d="M215.6009 192.5790
L215.6723 192.8648
" />
<path d="M215.6723 192.8648
L215.6723 193.2219
" />
<path d="M215.6723 193.2219
L215.6009 193.5076
" />
<path d="M215.6009 193.5076
L215.5295 193.6505
" />
<path d="M215.5295 193.6505
L215.4580 193.7219
" />
<path d="M215.4580 193.7219
L215.3152 193.7933
" />
<path d="M215.3152 193.7933
L215.1723 193.7933
" />
<path d="M215.1723 193.7933
L215.0295 193.7219
" />
<path d="M215.0295 193.7219
L214.9580 193.6505
" />
<path d="M214.9580 193.6505
L214.8866 193.5076
" />
<path d="M214.8866 193.5076
L214.8152 193.2219
" />
<path d="M214.8152 193.2219
L214.8152 192.8648
" />
<path d="M214.8152 192.8648
L214.8866 192.5790
" />
<path d="M214.8866 192.5790
L214.9580 192.4362
" />
<path d="M214.9580 192.4362
L215.0295 192.3648
" />
<path d="M215.0295 192.3648
L215.1723 192.2933
" />
<path d="M217.0295 192.2933
L216.3152 192.2933
" />
<path d="M216.3152 192.2933
L216.2437 193.0076
" />
<path d="M216.2437 193.0076
L216.3152 192.9362
" />
<path d="M216.3152 192.9362
L216.4580 192.8648
" />
<path d="M216.4580 192.8648
L216.8152 192.8648
" />
<path d="M216.8152 192.8648
L216.9580 192.9362
" />
<path d="M216.9580 192.9362
L217.0295 193.0076
" />
<path d="M217.0295 193.0076
L217.1009 193.1505
" />
<path d="M217.1009 193.1505
L217.1009 193.5076
" />
<path d="M217.1009 193.5076
L217.0295 193.6505
" />
<path d="M217.0295 193.6505
L216.9580 193.7219
" />
<path d="M216.9580 193.7219
L216.8152 193.7933
" />
<path d="M216.8152 193.7933
L216.4580 193.7933
" />
<path d="M216.4580 193.7933
L216.3152 193.7219
" />
<path d="M216.3152 193.7219
L216.2437 193.6505
" />
<path d="M217.7437 193.2219
L218.8866 193.2219
" />
<path d="M220.3866 193.7933
L219.5295 193.7933
" />
<path d="M219.9580 193.7933
L219.9580 192.2933
" />
<path d="M219.9580 192.2933
L219.8152 192.5076
" />
<path d="M219.8152 192.5076
L219.6723 192.6505
" />
<path d="M219.6723 192.6505
L219.5295 192.7219
" />
<path d="M220.9580 192.4362
L221.0295 192.3648
" />
<path d="M221.0295 192.3648
L221.1723 192.2933
" />
<path d="M221.1723 192.2933
L221.5295 192.2933
" />
<path d="M221.5295 192.2933
L221.6723 192.3648
" />
<path d="M221.6723 192.3648
L221.7437 192.4362
" />
<path d="M221.7437 192.4362
L221.8152 192.5790
" />
<path d="M221.8152 192.5790
L221.8152 192.7219
" />
<path d="M221.8152 192.7219
L221.7437 192.9362
" />
<path d="M221.7437 192.9362
L220.8866 193.7933
" />
<path d="M220.8866 193.7933
L221.8152 193.7933
" />
</g></g>
<g style="fill:none; 
stroke:#000000; stroke-width:0.1500; stroke-opacity:1; 
stroke-linecap:round; stroke-linejoin:round;">
<path d="M177.0022 194.5072
L285.0022 194.5072
" />
</g>
<g style="fill:none; 
stroke:#000000; stroke-width:0.1500; stroke-opacity:1; 
stroke-linecap:round; stroke-linejoin:round;">
<text x="178.0022" y="196.6572"
textLength="20.6500" font-size="2.0000" lengthAdjust="spacingAndGlyphs"
text-anchor="start" opacity="0" stroke-opacity="0">${KICAD_VERSION}</text>
<g class="stroked-text"><desc>${KICAD_VERSION}</desc>
<path d="M178.3866 196.5219
L178.6009 196.5933
" />
<path d="M178.6009 196.5933
L178.9580 196.5933
" />
<path d="M178.9580 196.5933
L179.1009 196.5219
" />
<path d="M179.1009 196.5219
L179.1723 196.4505
" />
<path d="M179.1723 196.4505
L179.2437 196.3076
" />
<path d="M179.2437 196.3076
L179.2437 196.1648
" />
<path d="M179.2437 196.1648
L179.1723 196.0219
" />
<path d="M179.1723 196.0219
L179.1009 195.9505
" />
<path d="M179.1009 195.9505
L178.9580 195.8790
" />
<path d="M178.9580 195.8790
L178.6723 195.8076
" />
<path d="M178.6723 195.8076
L178.5295 195.7362
" />
<path d="M178.5295 195.7362
L178.4580 195.6648
" />
<path d="M178.4580 195.6648
L178.3866 195.5219
" />
<path d="M178.3866 195.5219
L178.3866 195.3790
" />
<path d="M178.3866 195.3790
L178.4580 195.2362
" />
<path d="M178.4580 195.2362
L178.5295 195.1648
" />
<path d="M178.5295 195.1648
L178.6723 195.0933
" />
<path d="M178.6723 195.0933
L179.0295 195.0933
" />
<path d="M179.0295 195.0933
L179.2437 195.1648
" />
<path d="M178.8152 194.8790
L178.8152 196.8076
" />
<path d="M180.3152 197.1648
L180.2437 197.1648
" />
<path d="M180.2437 197.1648
L180.1009 197.0933
" />
<path d="M180.1009 197.0933
L180.0295 196.9505
" />
<path d="M180.0295 196.9505
L180.0295 196.2362
" />
<path d="M180.0295 196.2362
L179.9580 196.0933
" />
<path d="M179.9580 196.0933
L179.8152 196.0219
" />
<path d="M179.8152 196.0219
L179.9580 195.9505
" />
<path d="M179.9580 195.9505
L180.0295 195.8076
" />
<path d="M180.0295 195.8076
L180.0295 195.0933
" />
<path d="M180.0295 195.0933
L180.1009 194.9505
" />
<path d="M180.1009 194.9505
L180.2437 194.8790
" />
<path d="M180.2437 194.8790
L180.3152 194.8790
" />
<path d="M180.8866 196.5933
L180.8866 195.0933
" />
<path d="M181.7437 196.5933
L181.1009 195.7362
" />
<path d="M181.7437 195.0933
L180.8866 195.9505
" />
<path d="M182.3866 196.5933
L182.3866 195.0933
" />
<path d="M183.9580 196.4505
L183.8866 196.5219
" />
<path d="M183.8866 196.5219
L183.6723 196.5933
" />
<path d="M183.6723 196.5933
L183.5295 196.5933
" />
<path d="M183.5295 196.5933
L183.3152 196.5219
" />
<path d="M183.3152 196.5219
L183.1723 196.3790
" />
<path d="M183.1723 196.3790
L183.1009 196.2362
" />
<path d="M183.1009 196.2362
L183.0295 195.9505
" />
<path d="M183.0295 195.9505
L183.0295 195.7362
" />
<path d="M183.0295 195.7362
L183.1009 195.4505
" />
<path d="M183.1009 195.4505
L183.1723 195.3076
" />
<path d="M183.1723 195.3076
L183.3152 195.1648
" />
<path d="M183.3152 195.1648
L183.5295 195.0933
" />
<path d="M183.5295 195.0933
L183.6723 195.0933
" />
<path d="M183.6723 195.0933
L183.8866 195.1648
" />
<path d="M183.8866 195.1648
L183.9580 195.2362
" />
<path d="M184.5295 196.1648
L185.2437 196.1648
" />
<path d="M184.3866 196.5933
L184.8866 195.0933
" />
<path d="M184.8866 195.0933
L185.3866 196.5933
" />
<path d="M185.8866 196.5933
L185.8866 195.0933
" />
<path d="M185.8866 195.0933
L186.2437 195.0933
" />
<path d="M186.2437 195.0933
L186.4580 195.1648
" />
<path d="M186.4580 195.1648
L186.6009 195.3076
" />
<path d="M186.6009 195.3076
L186.6723 195.4505
" />
<path d="M186.6723 195.4505
L186.7437 195.7362
" />
<path d="M186.7437 195.7362
L186.7437 195.9505
" />
<path d="M186.7437 195.9505
L186.6723 196.2362
" />
<path d="M186.6723 196.2362
L186.6009 196.3790
" />
<path d="M186.6009 196.3790
L186.4580 196.5219
" />
<path d="M186.4580 196.5219
L186.2437 196.5933
" />
<path d="M186.2437 196.5933
L185.8866 196.5933
" />
<path d="M187.0295 196.7362
L188.1723 196.7362
" />
<path d="M188.3152 195.0933
L188.8152 196.5933
" />
<path d="M188.8152 196.5933
L189.3152 195.0933
" />
<path d="M189.8152 195.8076
L190.3152 195.8076
" />
<path d="M190.5295 196.5933
L189.8152 196.5933
" />
<path d="M189.8152 196.5933
L189.8152 195.0933
" />
<path d="M189.8152 195.0933
L190.5295 195.0933
" />
<path d="M192.0295 196.5933
L191.5295 195.8790
" />
<path d="M191.1723 196.5933
L191.1723 195.0933
" />
<path d="M191.1723 195.0933
L191.7437 195.0933
" />
<path d="M191.7437 195.0933
L191.8866 195.1648
" />
<path d="M191.8866 195.1648
L191.9580 195.2362
" />
<path d="M191.9580 195.2362
L192.0295 195.3790
" />
<path d="M192.0295 195.3790
L192.0295 195.5933
" />
<path d="M192.0295 195.5933
L191.9580 195.7362
" />
<path d="M191.9580 195.7362
L191.8866 195.8076
" />
<path d="M191.8866 195.8076
L191.7437 195.8790
" />
<path d="M191.7437 195.8790
L191.1723 195.8790
" />
<path d="M192.6009 196.5219
L192.8152 196.5933
" />
<path d="M192.8152 196.5933
L193.1723 196.5933
" />
<path d="M193.1723 196.5933
L193.3152 196.5219
" />
<path d="M193.3152 196.5219
L193.3866 196.4505
" />
<path d="M193.3866 196.4505
L193.4580 196.3076
" />
<path d="M193.4580 196.3076
L193.4580 196.1648
" />
<path d="M193.4580 196.1648
L193.3866 196.0219
" />
<path d="M193.3866 196.0219
L193.3152 195.9505
" />
<path d="M193.3152 195.9505
L193.1723 195.8790
" />
<path d="M193.1723 195.8790
L192.8866 195.8076
" />
<path d="M192.8866 195.8076
L192.7437 195.7362
" />
<path d="M192.7437 195.7362
L192.6723 195.6648
" />
<path d="M192.6723 195.6648
L192.6009 195.5219
" />
<path d="M192.6009 195.5219
L192.6009 195.3790
" />
<path d="M192.6009 195.3790
L192.6723 195.2362
" />
<path d="M192.6723 195.2362
L192.7437 195.1648
" />
<path d="M192.7437 195.1648
L192.8866 195.0933
" />
<path d="M192.8866 195.0933
L193.2437 195.0933
" />
<path d="M193.2437 195.0933
L193.4580 195.1648
" />
<path d="M194.1009 196.5933
L194.1009 195.0933
" />
<path d="M195.1009 195.0933
L195.3866 195.0933
" />
<path d="M195.3866 195.0933
L195.5295 195.1648
" />
<path d="M195.5295 195.1648
L195.6723 195.3076
" />
<path d="M195.6723 195.3076
L195.7437 195.5933
" />
<path d="M195.7437 195.5933
L195.7437 196.0933
" />
<path d="M195.7437 196.0933
L195.6723 196.3790
" />
<path d="M195.6723 196.3790
L195.5295 196.5219
" />
<path d="M195.5295 196.5219
L195.3866 196.5933
" />
<path d="M195.3866 196.5933
L195.1009 196.5933
" />
<path d="M195.1009 196.5933
L194.9580 196.5219
" />
<path d="M194.9580 196.5219
L194.8152 196.3790
" />
<path d="M194.8152 196.3790
L194.7437 196.0933
" />
<path d="M194.7437 196.0933
L194.7437 195.5933
" />
<path d="M194.7437 195.5933
L194.8152 195.3076
" />
<path d="M194.8152 195.3076
L194.9580 195.1648
" />
<path d="M194.9580 195.1648
L195.1009 195.0933
" />
<path d="M196.3866 196.5933
L196.3866 195.0933
" />
<path d="M196.3866 195.0933
L197.2437 196.5933
" />
<path d="M197.2437 196.5933
L197.2437 195.0933
" />
<path d="M197.8152 197.1648
L197.8866 197.1648
" />
<path d="M197.8866 197.1648
L198.0295 197.0933
" />
<path d="M198.0295 197.0933
L198.1009 196.9505
" />
<path d="M198.1009 196.9505
L198.1009 196.2362
" />
<path d="M198.1009 196.2362
L198.1723 196.0933
" />
<path d="M198.1723 196.0933
L198.3152 196.0219
" />
<path d="M198.3152 196.0219
L198.1723 195.9505
" />
<path d="M198.1723 195.9505
L198.1009 195.8076
" />
<path d="M198.1009 195.8076
L198.1009 195.0933
" />
<path d="M198.1009 195.0933
L198.0295 194.9505
" />
<path d="M198.0295 194.9505
L197.8866 194.8790
" />
<path d="M197.8866 194.8790
L197.8152 194.8790
" />
</g></g>
<g style="fill:none; 
stroke:#000000; stroke-width:0.1500; stroke-opacity:1; 
stroke-linecap:round; stroke-linejoin:round;">
<path d="M177.0022 191.5072
L285.0022 191.5072
" />
</g>
<g style="fill:none; 
stroke:#000000; stroke-width:0.3000; stroke-opacity:1; 
stroke-linecap:round; stroke-linejoin:round;">
<text x="263.0022" y="193.8572"
textLength="6.3857" font-size="2.0000" lengthAdjust="spacingAndGlyphs"
text-anchor="start" opacity="0" stroke-opacity="0">Rev: </text>
<g class="stroked-text"><desc>Rev: </desc>
<path d="M264.4139 193.7855
L263.9139 193.0712
" />
<path d="M263.5567 193.7855
L263.5567 192.2855
" />
<path d="M263.5567 192.2855
L264.1281 192.2855
" />
<path d="M264.1281 192.2855
L264.2710 192.3570
" />
<path d="M264.2710 192.3570
L264.3424 192.4284
" />
<path d="M264.3424 192.4284
L264.4139 192.5712
" />
<path d="M264.4139 192.5712
L264.4139 192.7855
" />
<path d="M264.4139 192.7855
L264.3424 192.9284
" />
<path d="M264.3424 192.9284
L264.2710 192.9998
" />
<path d="M264.2710 192.9998
L264.1281 193.0712
" />
<path d="M264.1281 193.0712
L263.5567 193.0712
" />
<path d="M265.6281 193.7141
L265.4853 193.7855
" />
<path d="M265.4853 193.7855
L265.1996 193.7855
" />
<path d="M265.1996 193.7855
L265.0567 193.7141
" />
<path d="M265.0567 193.7141
L264.9853 193.5712
" />
<path d="M264.9853 193.5712
L264.9853 192.9998
" />
<path d="M264.9853 192.9998
L265.0567 192.8570
" />
<path d="M265.0567 192.8570
L265.1996 192.7855
" />
<path d="M265.1996 192.7855
L265.4853 192.7855
" />
<path d="M265.4853 192.7855
L265.6281 192.8570
" />
<path d="M265.6281 192.8570
L265.6996 192.9998
" />
<path d="M265.6996 192.9998
L265.6996 193.1427
" />
<path d="M265.6996 193.1427
L264.9853 193.2855
" />
<path d="M266.1996 192.7855
L266.5567 193.7855
" />
<path d="M266.5567 193.7855
L266.9139 192.7855
" />
<path d="M267.4853 193.6427
L267.5567 193.7141
" />
<path d="M267.5567 193.7141
L267.4853 193.7855
" />
<path d="M267.4853 193.7855
L267.4139 193.7141
" />
<path d="M267.4139 193.7141
L267.4853 193.6427
" />
<path d="M267.4853 193.6427
L267.4853 193.7855
" />
<path d="M267.4853 192.8570
L267.5567 192.9284
" />
<path d="M267.5567 192.9284
L267.4853 192.9998
" />
<path d="M267.4853 192.9998
L267.4139 192.9284
" />
<path d="M267.4139 192.9284
L267.4853 192.8570
" />
<path d="M267.4853 192.8570
L267.4853 192.9998
" />
</g></g>
<g style="fill:none; 
stroke:#000000; stroke-width:0.1500; stroke-opacity:1; 
stroke-linecap:round; stroke-linejoin:round;">
<text x="178.0022" y="193.8572"
textLength="9.3643" font-size="2.0000" lengthAdjust="spacingAndGlyphs"
text-anchor="start" opacity="0" stroke-opacity="0">Size: A4</text>
<g class="stroked-text"><desc>Size: A4</desc>
<path d="M178.3866 193.7219
L178.6009 193.7933
" />
<path d="M178.6009 193.7933
L178.9580 193.7933
" />
<path d="M178.9580 193.7933
L179.1009 193.7219
" />
<path d="M179.1009 193.7219
L179.1723 193.6505
" />
<path d="M179.1723 193.6505
L179.2437 193.5076
" />
<path d="M179.2437 193.5076
L179.2437 193.3648
" />
<path d="M179.2437 193.3648
L179.1723 193.2219
" />
<path d="M179.1723 193.2219
L179.1009 193.1505
" />
<path d="M179.1009 193.1505
L178.9580 193.0790
" />
<path d="M178.9580 193.0790
L178.6723 193.0076
" />
<path d="M178.6723 193.0076
L178.5295 192.9362
" />
<path d="M178.5295 192.9362
L178.4580 192.8648
" />
<path d="M178.4580 192.8648
L178.3866 192.7219
" />
<path d="M178.3866 192.7219
L178.3866 192.5790
" />
<path d="M178.3866 192.5790
L178.4580 192.4362
" />
<path d="M178.4580 192.4362
L178.5295 192.3648
" />
<path d="M178.5295 192.3648
L178.6723 192.2933
" />
<path d="M178.6723 192.2933
L179.0295 192.2933
" />
<path d="M179.0295 192.2933
L179.2437 192.3648
" />
<path d="M179.8866 193.7933
L179.8866 192.7933
" />
<path d="M179.8866 192.2933
L179.8152 192.3648
" />
<path d="M179.8152 192.3648
L179.8866 192.4362
" />
<path d="M179.8866 192.4362
L179.9580 192.3648
" />
<path d="M179.9580 192.3648
L179.8866 192.2933
" />
<path d="M179.8866 192.2933
L179.8866 192.4362
" />
<path d="M180.4580 192.7933
L181.2437 192.7933
" />
<path d="M181.2437 192.7933
L180.4580 193.7933
" />
<path d="M180.4580 193.7933
L181.2437 193.7933
" />
<path d="M182.3866 193.7219
L182.2437 193.7933
" />
<path d="M182.2437 193.7933
L181.9580 193.7933
" />
<path d="M181.9580 193.7933
L181.8152 193.7219
" />
<path d="M181.8152 193.7219
L181.7437 193.5790
" />
<path d="M181.7437 193.5790
L181.7437 193.0076
" />
<path d="M181.7437 193.0076
L181.8152 192.8648
" />
<path d="M181.8152 192.8648
L181.9580 192.7933
" />
<path d="M181.9580 192.7933
L182.2437 192.7933
" />
<path d="M182.2437 192.7933
L182.3866 192.8648
" />
<path d="M182.3866 192.8648
L182.4580 193.0076
" />
<path d="M182.4580 193.0076
L182.4580 193.1505
" />
<path d="M182.4580 193.1505
L181.7437 193.2933
" />
<path d="M183.1009 193.6505
L183.1723 193.7219
" />
<path d="M183.1723 193.7219
L183.1009 193.7933
" />
<path d="M183.1009 193.7933
L183.0295 193.7219
" />
<path d="M183.0295 193.7219
L183.1009 193.6505
" />
<path d="M183.1009 193.6505
L183.1009 193.7933
" />
<path d="M183.1009 192.8648
L183.1723 192.9362
" />
<path d="M183.1723 192.9362
L183.1009 193.0076
" />
<path d="M183.1009 193.0076
L183.0295 192.9362
" />
<path d="M183.0295 192.9362
L183.1009 192.8648
" />
<path d="M183.1009 192.8648
L183.1009 193.0076
" />
<path d="M184.8866 193.3648
L185.6009 193.3648
" />
<path d="M184.7437 193.7933
L185.2437 192.2933
" />
<path d="M185.2437 192.2933
L185.7437 193.7933
" />
<path d="M186.8866 192.7933
L186.8866 193.7933
" />
<path d="M186.5295 192.2219
L186.1723 193.2933
" />
<path d="M186.1723 193.2933
L187.1009 193.2933
" />
</g></g>
<g style="fill:none; 
stroke:#000000; stroke-width:0.1500; stroke-opacity:1; 
stroke-linecap:round; stroke-linejoin:round;">
<text x="263.0022" y="196.6572"
textLength="7.0786" font-size="2.0000" lengthAdjust="spacingAndGlyphs"
text-anchor="start" opacity="0" stroke-opacity="0">Id: /1</text>
<g class="stroked-text"><desc>Id: /1</desc>
<path d="M263.4580 196.5933
L263.4580 195.0933
" />
<path d="M264.8152 196.5933
L264.8152 195.0933
" />
<path d="M264.8152 196.5219
L264.6723 196.5933
" />
<path d="M264.6723 196.5933
L264.3866 196.5933
" />
<path d="M264.3866 196.5933
L264.2437 196.5219
" />
<path d="M264.2437 196.5219
L264.1723 196.4505
" />
<path d="M264.1723 196.4505
L264.1009 196.3076
" />
<path d="M264.1009 196.3076
L264.1009 195.8790
" />
<path d="M264.1009 195.8790
L264.1723 195.7362
" />
<path d="M264.1723 195.7362
L264.2437 195.6648
" />
<path d="M264.2437 195.6648
L264.3866 195.5933
" />
<path d="M264.3866 195.5933
L264.6723 195.5933
" />
<path d="M264.6723 195.5933
L264.8152 195.6648
" />
<path d="M265.5295 196.4505
L265.6009 196.5219
" />
<path d="M265.6009 196.5219
L265.5295 196.5933
" />
<path d="M265.5295 196.5933
L265.4580 196.5219
" />
<path d="M265.4580 196.5219
L265.5295 196.4505
" />
<path d="M265.5295 196.4505
L265.5295 196.5933
" />
<path d="M265.5295 195.6648
L265.6009 195.7362
" />
<path d="M265.6009 195.7362
L265.5295 195.8076
" />
<path d="M265.5295 195.8076
L265.4580 195.7362
" />
<path d="M265.4580 195.7362
L265.5295 195.6648
" />
<path d="M265.5295 195.6648
L265.5295 195.8076
" />
<path d="M268.4580 195.0219
L267.1723 196.9505
" />
<path d="M269.7437 196.5933
L268.8866 196.5933
" />
<path d="M269.3152 196.5933
L269.3152 195.0933
" />
<path d="M269.3152 195.0933
L269.1723 195.3076
" />
<path d="M269.1723 195.3076
L269.0295 195.4505
" />
<path d="M269.0295 195.4505
L268.8866 195.5219
" />
</g></g>
<g style="fill:none; 
stroke:#000000; stroke-width:0.1500; stroke-opacity:1; 
stroke-linecap:round; stroke-linejoin:round;">
<path d="M177.0022 187.5072
L285.0022 187.5072
" />
</g>
<g style="fill:none; 
stroke:#000000; stroke-width:0.4000; stroke-opacity:1; 
stroke-linecap:round; stroke-linejoin:round;">
<text x="178.0022" y="190.3072"
textLength="9.6571" font-size="2.6667" lengthAdjust="spacingAndGlyphs"
text-anchor="start" opacity="0" stroke-opacity="0">Title: </text>
<g class="stroked-text"><desc>Title: </desc>
<path d="M178.6939 188.2116
L179.8368 188.2116
" />
<path d="M179.0154 190.2116
L179.2654 188.2116
" />
<path d="M180.2535 190.2116
L180.4201 188.8783
" />
<path d="M180.5035 188.2116
L180.3963 188.3069
" />
<path d="M180.3963 188.3069
L180.4796 188.4021
" />
<path d="M180.4796 188.4021
L180.5868 188.3069
" />
<path d="M180.5868 188.3069
L180.5035 188.2116
" />
<path d="M180.5035 188.2116
L180.4796 188.4021
" />
<path d="M181.0868 188.8783
L181.8487 188.8783
" />
<path d="M181.4558 188.2116
L181.2415 189.9259
" />
<path d="M181.2415 189.9259
L181.3130 190.1164
" />
<path d="M181.3130 190.1164
L181.4915 190.2116
" />
<path d="M181.4915 190.2116
L181.6820 190.2116
" />
<path d="M182.6344 190.2116
L182.4558 190.1164
" />
<path d="M182.4558 190.1164
L182.3844 189.9259
" />
<path d="M182.3844 189.9259
L182.5987 188.2116
" />
<path d="M184.1701 190.1164
L183.9677 190.2116
" />
<path d="M183.9677 190.2116
L183.5868 190.2116
" />
<path d="M183.5868 190.2116
L183.4082 190.1164
" />
<path d="M183.4082 190.1164
L183.3368 189.9259
" />
<path d="M183.3368 189.9259
L183.4320 189.1640
" />
<path d="M183.4320 189.1640
L183.5511 188.9735
" />
<path d="M183.5511 188.9735
L183.7535 188.8783
" />
<path d="M183.7535 188.8783
L184.1344 188.8783
" />
<path d="M184.1344 188.8783
L184.3130 188.9735
" />
<path d="M184.3130 188.9735
L184.3844 189.1640
" />
<path d="M184.3844 189.1640
L184.3606 189.3545
" />
<path d="M184.3606 189.3545
L183.3844 189.5450
" />
<path d="M185.1344 190.0212
L185.2177 190.1164
" />
<path d="M185.2177 190.1164
L185.1106 190.2116
" />
<path d="M185.1106 190.2116
L185.0273 190.1164
" />
<path d="M185.0273 190.1164
L185.1344 190.0212
" />
<path d="M185.1344 190.0212
L185.1106 190.2116
" />
<path d="M185.2654 188.9735
L185.3487 189.0688
" />
<path d="M185.3487 189.0688
L185.2415 189.1640
" />
<path d="M185.2415 189.1640
L185.1582 189.0688
" />
<path d="M185.1582 189.0688
L185.2654 188.9735
" />
<path d="M185.2654 188.9735
L185.2415 189.1640
" />
</g></g>
<g style="fill:none; 
stroke:#000000; stroke-width:0.1500; stroke-opacity:1; 
stroke-linecap:round; stroke-linejoin:round;">
<text x="178.0022" y="186.4572"
textLength="27.4357" font-size="2.0000" lengthAdjust="spacingAndGlyphs"
text-anchor="start" opacity="0" stroke-opacity="0">File: BeeLight.kicad_pcb</text>
<g class="stroked-text"><desc>File: BeeLight.kicad_pcb</desc>
<path d="M178.9580 185.6076
L178.4580 185.6076
" />
<path d="M178.4580 186.3933
L178.4580 184.8933
" />
<path d="M178.4580 184.8933
L179.1723 184.8933
" />
<path d="M179.7437 186.3933
L179.7437 185.3933
" />
<path d="M179.7437 184.8933
L179.6723 184.9648
" />
<path d="M179.6723 184.9648
L179.7437 185.0362
" />
<path d="M179.7437 185.0362
L179.8152 184.9648
" />
<path d="M179.8152 184.9648
L179.7437 184.8933
" />
<path d="M179.7437 184.8933
L179.7437 185.0362
" />
<path d="M180.6723 186.3933
L180.5295 186.3219
" />
<path d="M180.5295 186.3219
L180.4580 186.1790
" />
<path d="M180.4580 186.1790
L180.4580 184.8933
" />
<path d="M181.8152 186.3219
L181.6723 186.3933
" />
<path d="M181.6723 186.3933
L181.3866 186.3933
" />
<path d="M181.3866 186.3933
L181.2437 186.3219
" />
<path d="M181.2437 186.3219
L181.1723 186.1790
" />
<path d="M181.1723 186.1790
L181.1723 185.6076
" />
<path d="M181.1723 185.6076
L181.2437 185.4648
" />
<path d="M181.2437 185.4648
L181.3866 185.3933
" />
<path d="M181.3866 185.3933
L181.6723 185.3933
" />
<path d="M181.6723 185.3933
L181.8152 185.4648
" />
<path d="M181.8152 185.4648
L181.8866 185.6076
" />
<path d="M181.8866 185.6076
L181.8866 185.7505
" />
<path d="M181.8866 185.7505
L181.1723 185.8933
" />
<path d="M182.5295 186.2505
L182.6009 186.3219
" />
<path d="M182.6009 186.3219
L182.5295 186.3933
" />
<path d="M182.5295 186.3933
L182.4580 186.3219
" />
<path d="M182.4580 186.3219
L182.5295 186.2505
" />
<path d="M182.5295 186.2505
L182.5295 186.3933
" />
<path d="M182.5295 185.4648
L182.6009 185.5362
" />
<path d="M182.6009 185.5362
L182.5295 185.6076
" />
<path d="M182.5295 185.6076
L182.4580 185.5362
" />
<path d="M182.4580 185.5362
L182.5295 185.4648
" />
<path d="M182.5295 185.4648
L182.5295 185.6076
" />
<path d="M184.8866 185.6076
L185.1009 185.6790
" />
<path d="M185.1009 185.6790
L185.1723 185.7505
" />
<path d="M185.1723 185.7505
L185.2437 185.8933
" />
<path d="M185.2437 185.8933
L185.2437 186.1076
" />
<path d="M185.2437 186.1076
L185.1723 186.2505
" />
<path d="M185.1723 186.2505
L185.1009 186.3219
" />
<path d="M185.1009 186.3219
L184.9580 186.3933
" />
<path d="M184.9580 186.3933
L184.3866 186.3933
" />
<path d="M184.3866 186.3933
L184.3866 184.8933
" />
<path d="M184.3866 184.8933
L184.8866 184.8933
" />
<path d="M184.8866 184.8933
L185.0295 184.9648
" />
<path d="M185.0295 184.9648
L185.1009 185.0362
" />
<path d="M185.1009 185.0362
L185.1723 185.1790
" />
<path d="M185.1723 185.1790
L185.1723 185.3219
" />
<path d="M185.1723 185.3219
L185.1009 185.4648
" />
<path d="M185.1009 185.4648
L185.0295 185.5362
" />
<path d="M185.0295 185.5362
L184.8866 185.6076
" />
<path d="M184.8866 185.6076
L184.3866 185.6076
" />
<path d="M186.4580 186.3219
L186.3152 186.3933
" />
<path d="M186.3152 186.3933
L186.0295 186.3933
" />
<path d="M186.0295 186.3933
L185.8866 186.3219
" />
<path d="M185.8866 186.3219
L185.8152 186.1790
" />
<path d="M185.8152 186.1790
L185.8152 185.6076
" />
<path d="M185.8152 185.6076
L185.8866 185.4648
" />
<path d="M185.8866 185.4648
L186.0295 185.3933
" />
<path d="M186.0295 185.3933
L186.3152 185.3933
" />
<path d="M186.3152 185.3933
L186.4580 185.4648
" />
<path d="M186.4580 185.4648
L186.5295 185.6076
" />
<path d="M186.5295 185.6076
L186.5295 185.7505
" />
<path d="M186.5295 185.7505
L185.8152 185.8933
" />
<path d="M187.7437 186.3219
L187.6009 186.3933
" />
<path d="M187.6009 186.3933
L187.3152 186.3933
" />
<path d="M187.3152 186.3933
L187.1723 186.3219
" />
<path d="M187.1723 186.3219
L187.1009 186.1790
" />
<path d="M187.1009 186.1790
L187.1009 185.6076
" />
<path d="M187.1009 185.6076
L187.1723 185.4648
" />
<path d="M187.1723 185.4648
L187.3152 185.3933
" />
<path d="M187.3152 185.3933
L187.6009 185.3933
" />
<path d="M187.6009 185.3933
L187.7437 185.4648
" />
<path d="M187.7437 185.4648
L187.8152 185.6076
" />
<path d="M187.8152 185.6076
L187.8152 185.7505
" />
<path d="M187.8152 185.7505
L187.1009 185.8933
" />
<path d="M189.1723 186.3933
L188.4580 186.3933
" />
<path d="M188.4580 186.3933
L188.4580 184.8933
" />
<path d="M189.6723 186.3933
L189.6723 185.3933
" />
<path d="M189.6723 184.8933
L189.6009 184.9648
" />
<path d="M189.6009 184.9648
L189.6723 185.0362
" />
<path d="M189.6723 185.0362
L189.7437 184.9648
" />
<path d="M189.7437 184.9648
L189.6723 184.8933
" />
<path d="M189.6723 184.8933
L189.6723 185.0362
" />
<path d="M191.0295 185.3933
L191.0295 186.6076
" />
<path d="M191.0295 186.6076
L190.9580 186.7505
" />
<path d="M190.9580 186.7505
L190.8866 186.8219
" />
<path d="M190.8866 186.8219
L190.7437 186.8933
" />
<path d="M190.7437 186.8933
L190.5295 186.8933
" />
<path d="M190.5295 186.8933
L190.3866 186.8219
" />
<path d="M191.0295 186.3219
L190.8866 186.3933
" />
<path d="M190.8866 186.3933
L190.6009 186.3933
" />
<path d="M190.6009 186.3933
L190.4580 186.3219
" />
<path d="M190.4580 186.3219
L190.3866 186.2505
" />
<path d="M190.3866 186.2505
L190.3152 186.1076
" />
<path d="M190.3152 186.1076
L190.3152 185.6790
" />
<path d="M190.3152 185.6790
L190.3866 185.5362
" />
<path d="M190.3866 185.5362
L190.4580 185.4648
" />
<path d="M190.4580 185.4648
L190.6009 185.3933
" />
<path d="M190.6009 185.3933
L190.8866 185.3933
" />
<path d="M190.8866 185.3933
L191.0295 185.4648
" />
<path d="M191.7437 186.3933
L191.7437 184.8933
" />
<path d="M192.3866 186.3933
L192.3866 185.6076
" />
<path d="M192.3866 185.6076
L192.3152 185.4648
" />
<path d="M192.3152 185.4648
L192.1723 185.3933
" />
<path d="M192.1723 185.3933
L191.9580 185.3933
" />
<path d="M191.9580 185.3933
L191.8152 185.4648
" />
<path d="M191.8152 185.4648
L191.7437 185.5362
" />
<path d="M192.8866 185.3933
L193.4580 185.3933
" />
<path d="M193.1009 184.8933
L193.1009 186.1790
" />
<path d="M193.1009 186.1790
L193.1723 186.3219
" />
<path d="M193.1723 186.3219
L193.3152 186.3933
" />
<path d="M193.3152 186.3933
L193.4580 186.3933
" />
<path d="M193.9580 186.2505
L194.0295 186.3219
" />
<path d="M194.0295 186.3219
L193.9580 186.3933
" />
<path d="M193.9580 186.3933
L193.8866 186.3219
" />
<path d="M193.8866 186.3219
L193.9580 186.2505
" />
<path d="M193.9580 186.2505
L193.9580 186.3933
" />
<path d="M194.6723 186.3933
L194.6723 184.8933
" />
<path d="M194.8152 185.8219
L195.2437 186.3933
" />
<path d="M195.2437 185.3933
L194.6723 185.9648
" />
<path d="M195.8866 186.3933
L195.8866 185.3933
" />
<path d="M195.8866 184.8933
L195.8152 184.9648
" />
<path d="M195.8152 184.9648
L195.8866 185.0362
" />
<path d="M195.8866 185.0362
L195.9580 184.9648
" />
<path d="M195.9580 184.9648
L195.8866 184.8933
" />
<path d="M195.8866 184.8933
L195.8866 185.0362
" />
<path d="M197.2437 186.3219
L197.1009 186.3933
" />
<path d="M197.1009 186.3933
L196.8152 186.3933
" />
<path d="M196.8152 186.3933
L196.6723 186.3219
" />
<path d="M196.6723 186.3219
L196.6009 186.2505
" />
<path d="M196.6009 186.2505
L196.5295 186.1076
" />
<path d="M196.5295 186.1076
L196.5295 185.6790
" />
<path d="M196.5295 185.6790
L196.6009 185.5362
" />
<path d="M196.6009 185.5362
L196.6723 185.4648
" />
<path d="M196.6723 185.4648
L196.8152 185.3933
" />
<path d="M196.8152 185.3933
L197.1009 185.3933
" />
<path d="M197.1009 185.3933
L197.2437 185.4648
" />
<path d="M198.5295 186.3933
L198.5295 185.6076
" />
<path d="M198.5295 185.6076
L198.4580 185.4648
" />
<path d="M198.4580 185.4648
L198.3152 185.3933
" />
<path d="M198.3152 185.3933
L198.0295 185.3933
" />
<path d="M198.0295 185.3933
L197.8866 185.4648
" />
<path d="M198.5295 186.3219
L198.3866 186.3933
" />
<path d="M198.3866 186.3933
L198.0295 186.3933
" />
<path d="M198.0295 186.3933
L197.8866 186.3219
" />
<path d="M197.8866 186.3219
L197.8152 186.1790
" />
<path d="M197.8152 186.1790
L197.8152 186.0362
" />
<path d="M197.8152 186.0362
L197.8866 185.8933
" />
<path d="M197.8866 185.8933
L198.0295 185.8219
" />
<path d="M198.0295 185.8219
L198.3866 185.8219
" />
<path d="M198.3866 185.8219
L198.5295 185.7505
" />
<path d="M199.8866 186.3933
L199.8866 184.8933
" />
<path d="M199.8866 186.3219
L199.7437 186.3933
" />
<path d="M199.7437 186.3933
L199.4580 186.3933
" />
<path d="M199.4580 186.3933
L199.3152 186.3219
" />
<path d="M199.3152 186.3219
L199.2437 186.2505
" />
<path d="M199.2437 186.2505
L199.1723 186.1076
" />
<path d="M199.1723 186.1076
L199.1723 185.6790
" />
<path d="M199.1723 185.6790
L199.2437 185.5362
" />
<path d="M199.2437 185.5362
L199.3152 185.4648
" />
<path d="M199.3152 185.4648
L199.4580 185.3933
" />
<path d="M199.4580 185.3933
L199.7437 185.3933
" />
<path d="M199.7437 185.3933
L199.8866 185.4648
" />
<path d="M200.2437 186.5362
L201.3866 186.5362
" />
<path d="M201.7437 185.3933
L201.7437 186.8933
" />
<path d="M201.7437 185.4648
L201.8866 185.3933
" />
<path d="M201.8866 185.3933
L202.1723 185.3933
" />
<path d="M202.1723 185.3933
L202.3152 185.4648
" />
<path d="M202.3152 185.4648
L202.3866 185.5362
" />
<path d="M202.3866 185.5362
L202.4580 185.6790
" />
<path d="M202.4580 185.6790
L202.4580 186.1076
" />
<path d="M202.4580 186.1076
L202.3866 186.2505
" />
<path d="M202.3866 186.2505
L202.3152 186.3219
" />
<path d="M202.3152 186.3219
L202.1723 186.3933
" />
<path d="M202.1723 186.3933
L201.8866 186.3933
" />
<path d="M201.8866 186.3933
L201.7437 186.3219
" />
<path d="M203.7437 186.3219
L203.6009 186.3933
" />
<path d="M203.6009 186.3933
L203.3152 186.3933
" />
<path d="M203.3152 186.3933
L203.1723 186.3219
" />
<path d="M203.1723 186.3219
L203.1009 186.2505
" />
<path d="M203.1009 186.2505
L203.0295 186.1076
" />
<path d="M203.0295 186.1076
L203.0295 185.6790
" />
<path d="M203.0295 185.6790
L203.1009 185.5362
" />
<path d="M203.1009 185.5362
L203.1723 185.4648
" />
<path d="M203.1723 185.4648
L203.3152 185.3933
" />
<path d="M203.3152 185.3933
L203.6009 185.3933
" />
<path d="M203.6009 185.3933
L203.7437 185.4648
" />
<path d="M204.3866 186.3933
L204.3866 184.8933
" />
<path d="M204.3866 185.4648
L204.5295 185.3933
" />
<path d="M204.5295 185.3933
L204.8152 185.3933
" />
<path d="M204.8152 185.3933
L204.9580 185.4648
" />
<path d="M204.9580 185.4648
L205.0295 185.5362
" />
<path d="M205.0295 185.5362
L205.1009 185.6790
" />
<path d="M205.1009 185.6790
L205.1009 186.1076
" />
<path d="M205.1009 186.1076
L205.0295 186.2505
" />
<path d="M205.0295 186.2505
L204.9580 186.3219
" />
<path d="M204.9580 186.3219
L204.8152 186.3933
" />
<path d="M204.8152 186.3933
L204.5295 186.3933
" />
<path d="M204.5295 186.3933
L204.3866 186.3219
" />
</g></g>
<g style="fill:none; 
stroke:#000000; stroke-width:0.1500; stroke-opacity:1; 
stroke-linecap:round; stroke-linejoin:round;">
<path d="M177.0022 181.5072
L285.0022 181.5072
" />
</g>
<g style="fill:none; 
stroke:#000000; stroke-width:0.1500; stroke-opacity:1; 
stroke-linecap:round; stroke-linejoin:round;">
<text x="178.0022" y="183.7572"
textLength="8.2214" font-size="2.0000" lengthAdjust="spacingAndGlyphs"
text-anchor="start" opacity="0" stroke-opacity="0">Sheet: </text>
<g class="stroked-text"><desc>Sheet: </desc>
<path d="M178.3866 183.6219
L178.6009 183.6933
" />
<path d="M178.6009 183.6933
L178.9580 183.6933
" />
<path d="M178.9580 183.6933
L179.1009 183.6219
" />
<path d="M179.1009 183.6219
L179.1723 183.5505
" />
<path d="M179.1723 183.5505
L179.2437 183.4076
" />
<path d="M179.2437 183.4076
L179.2437 183.2648
" />
<path d="M179.2437 183.2648
L179.1723 183.1219
" />
<path d="M179.1723 183.1219
L179.1009 183.0505
" />
<path d="M179.1009 183.0505
L178.9580 182.9790
" />
<path d="M178.9580 182.9790
L178.6723 182.9076
" />
<path d="M178.6723 182.9076
L178.5295 182.8362
" />
<path d="M178.5295 182.8362
L178.4580 182.7648
" />
<path d="M178.4580 182.7648
L178.3866 182.6219
" />
<path d="M178.3866 182.6219
L178.3866 182.4790
" />
<path d="M178.3866 182.4790
L178.4580 182.3362
" />
<path d="M178.4580 182.3362
L178.5295 182.2648
" />
<path d="M178.5295 182.2648
L178.6723 182.1933
" />
<path d="M178.6723 182.1933
L179.0295 182.1933
" />
<path d="M179.0295 182.1933
L179.2437 182.2648
" />
<path d="M179.8866 183.6933
L179.8866 182.1933
" />
<path d="M180.5295 183.6933
L180.5295 182.9076
" />
<path d="M180.5295 182.9076
L180.4580 182.7648
" />
<path d="M180.4580 182.7648
L180.3152 182.6933
" />
<path d="M180.3152 182.6933
L180.1009 182.6933
" />
<path d="M180.1009 182.6933
L179.9580 182.7648
" />
<path d="M179.9580 182.7648
L179.8866 182.8362
" />
<path d="M181.8152 183.6219
L181.6723 183.6933
" />
<path d="M181.6723 183.6933
L181.3866 183.6933
" />
<path d="M181.3866 183.6933
L181.2437 183.6219
" />
<path d="M181.2437 183.6219
L181.1723 183.4790
" />
<path d="M181.1723 183.4790
L181.1723 182.9076
" />
<path d="M181.1723 182.9076
L181.2437 182.7648
" />
<path d="M181.2437 182.7648
L181.3866 182.6933
" />
<path d="M181.3866 182.6933
L181.6723 182.6933
" />
<path d="M181.6723 182.6933
L181.8152 182.7648
" />
<path d="M181.8152 182.7648
L181.8866 182.9076
" />
<path d="M181.8866 182.9076
L181.8866 183.0505
" />
<path d="M181.8866 183.0505
L181.1723 183.1933
" />
<path d="M183.1009 183.6219
L182.9580 183.6933
" />
<path d="M182.9580 183.6933
L182.6723 183.6933
" />
<path d="M182.6723 183.6933
L182.5295 183.6219
" />
<path d="M182.5295 183.6219
L182.4580 183.4790
" />
<path d="M182.4580 183.4790
L182.4580 182.9076
" />
<path d="M182.4580 182.9076
L182.5295 182.7648
" />
<path d="M182.5295 182.7648
L182.6723 182.6933
" />
<path d="M182.6723 182.6933
L182.9580 182.6933
" />
<path d="M182.9580 182.6933
L183.1009 182.7648
" />
<path d="M183.1009 182.7648
L183.1723 182.9076
" />
<path d="M183.1723 182.9076
L183.1723 183.0505
" />
<path d="M183.1723 183.0505
L182.4580 183.1933
" />
<path d="M183.6009 182.6933
L184.1723 182.6933
" />
<path d="M183.8152 182.1933
L183.8152 183.4790
" />
<path d="M183.8152 183.4790
L183.8866 183.6219
" />
<path d="M183.8866 183.6219
L184.0295 183.6933
" />
<path d="M184.0295 183.6933
L184.1723 183.6933
" />
<path d="M184.6723 183.5505
L184.7437 183.6219
" />
<path d="M184.7437 183.6219
L184.6723 183.6933
" />
<path d="M184.6723 183.6933
L184.6009 183.6219
" />
<path d="M184.6009 183.6219
L184.6723 183.5505
" />
<path d="M184.6723 183.5505
L184.6723 183.6933
" />
<path d="M184.6723 182.7648
L184.7437 182.8362
" />
<path d="M184.7437 182.8362
L184.6723 182.9076
" />
<path d="M184.6723 182.9076
L184.6009 182.8362
" />
<path d="M184.6009 182.8362
L184.6723 182.7648
" />
<path d="M184.6723 182.7648
L184.6723 182.9076
" />
</g></g>
<g style="fill:none; 
stroke:#000000; stroke-width:0.3000; stroke-opacity:1; 
stroke-linecap:round; stroke-linejoin:round;">
<text x="178.0022" y="180.7572"
textLength="0.9000" font-size="2.0000" lengthAdjust="spacingAndGlyphs"
text-anchor="start" opacity="0" stroke-opacity="0"></text>
<g class="stroked-text"><desc></desc>
</g></g>
<g style="fill:none; 
stroke:#000000; stroke-width:0.1500; stroke-opacity:1; 
stroke-linecap:round; stroke-linejoin:round;">
<text x="178.0022" y="177.7572"
textLength="0.4500" font-size="2.0000" lengthAdjust="spacingAndGlyphs"
text-anchor="start" opacity="0" stroke-opacity="0"></text>
<g class="stroked-text"><desc></desc>
</g></g>
<g style="fill:none; 
stroke:#000000; stroke-width:0.1500; stroke-opacity:1; 
stroke-linecap:round; stroke-linejoin:round;">
<text x="178.0022" y="174.7572"
textLength="0.4500" font-size="2.0000" lengthAdjust="spacingAndGlyphs"
text-anchor="start" opacity="0" stroke-opacity="0"></text>
<g class="stroked-text"><desc></desc>
</g></g>
<g style="fill:none; 
stroke:#000000; stroke-width:0.1500; stroke-opacity:1; 
stroke-linecap:round; stroke-linejoin:round;">
<text x="178.0022" y="171.7572"
textLength="0.4500" font-size="2.0000" lengthAdjust="spacingAndGlyphs"
text-anchor="start" opacity="0" stroke-opacity="0"></text>
<g class="stroked-text"><desc></desc>
</g></g>
<g style="fill:none; 
stroke:#000000; stroke-width:0.1500; stroke-opacity:1; 
stroke-linecap:round; stroke-linejoin:round;">
<text x="178.0022" y="168.7572"
textLength="0.4500" font-size="2.0000" lengthAdjust="spacingAndGlyphs"
text-anchor="start" opacity="0" stroke-opacity="0"></text>
<g class="stroked-text"><desc></desc>
</g></g>
<g style="fill:none; 
stroke:#000000; stroke-width:0.1500; stroke-opacity:1; 
stroke-linecap:round; stroke-linejoin:round;">
<path d="M197.0022 191.5072
L197.0022 194.5072
" />
</g>
<g style="fill:none; 
stroke:#000000; stroke-width:0.1500; stroke-opacity:1; 
stroke-linecap:round; stroke-linejoin:round;">
<path d="M261.0022 191.5072
L261.0022 198.0072
" />
</g>
<g style="fill:none; 
stroke:#000000; stroke-width:0.0500; stroke-opacity:1; 
stroke-linecap:round; stroke-linejoin:round;">
<path d="M153.0000 111.0000
L123.0000 111.0000
" />
<path d="M123.0000 82.0000 A1.0000 1.0000 0.0 0 0 122.0000 83.0000" />
<path d="M122.0000 110.0000 A1.0000 1.0000 0.0 0 0 123.0000 111.0000" />
<path d="M122.0000 105.0000
L122.0000 110.0000
" />
<path d="M123.0000 82.0000
L153.0000 82.0000
" />
<path d="M153.0000 111.0000 A1.0000 1.0000 0.0 0 0 154.0000 110.0000" />
<path d="M122.0000 105.0000
L122.0000 83.0000
" />
<path d="M154.0000 105.0000
L154.0000 110.0000
" />
<path d="M154.0000 83.0000
L154.0000 105.0000
" />
<path d="M154.0000 83.0000 A1.0000 1.0000 0.0 0 0 153.0000 82.0000" />
<path style="fill:#000000; fill-opacity:1.0000; stroke:none;fill-rule:evenodd;"
d="M 139.7250,108.6000
139.7250,109.9000
138.2250,109.9000
138.2250,108.6000
Z" /> 
<path style="fill:#000000; fill-opacity:1.0000; stroke:none;fill-rule:evenodd;"
d="M 139.7250,104.1000
139.7250,105.4000
138.2250,105.4000
138.2250,104.1000
Z" /> 
<path style="fill:#000000; fill-opacity:1.0000; stroke:none;fill-rule:evenodd;"
d="M 131.7750,108.6000
131.7750,109.9000
130.2750,109.9000
130.2750,108.6000
Z" /> 
<path style="fill:#000000; fill-opacity:1.0000; stroke:none;fill-rule:evenodd;"
d="M 131.7750,104.1000
131.7750,105.4000
130.2750,105.4000
130.2750,104.1000
Z" /> 
<path style="fill:#000000; fill-opacity:1.0000; stroke:none;fill-rule:evenodd;"
d="M 142.2000,82.7000
142.2000,82.3000
142.8000,82.3000
142.8000,82.7000
Z" /> 
<path style="fill:#000000; fill-opacity:1.0000; stroke:none;fill-rule:evenodd;"
d="M 142.2000,83.4500
142.2000,83.0500
142.8000,83.0500
142.8000,83.4500
Z" /> 
<path style="fill:#000000; fill-opacity:1.0000; stroke:none;fill-rule:evenodd;"
d="M 142.2000,84.2000
142.2000,83.8000
142.8000,83.8000
142.8000,84.2000
Z" /> 
<path style="fill:#000000; fill-opacity:1.0000; stroke:none;fill-rule:evenodd;"
d="M 142.2000,84.9500
142.2000,84.5500
142.8000,84.5500
142.8000,84.9500
Z" /> 
<path style="fill:#000000; fill-opacity:1.0000; stroke:none;fill-rule:evenodd;"
d="M 142.2000,85.7000
142.2000,85.3000
142.8000,85.3000
142.8000,85.7000
Z" /> 
<path style="fill:#000000; fill-opacity:1.0000; stroke:none;fill-rule:evenodd;"
d="M 142.2000,86.4500
142.2000,86.0500
142.8000,86.0500
142.8000,86.4500
Z" /> 
<path style="fill:#000000; fill-opacity:1.0000; stroke:none;fill-rule:evenodd;"
d="M 142.2000,87.2000
142.2000,86.8000
142.8000,86.8000
142.8000,87.2000
Z" /> 
<path style="fill:#000000; fill-opacity:1.0000; stroke:none;fill-rule:evenodd;"
d="M 142.2000,87.9500
142.2000,87.5500
142.8000,87.5500
142.8000,87.9500
Z" /> 
<path style="fill:#000000; fill-opacity:1.0000; stroke:none;fill-rule:evenodd;"
d="M 142.2000,88.7000
142.2000,88.3000
142.8000,88.3000
142.8000,88.7000
Z" /> 
<path style="fill:#000000; fill-opacity:1.0000; stroke:none;fill-rule:evenodd;"
d="M 142.2000,89.4500
142.2000,89.0500
142.8000,89.0500
142.8000,89.4500
Z" /> 
<path style="fill:#000000; fill-opacity:1.0000; stroke:none;fill-rule:evenodd;"
d="M 142.2000,90.2000
142.2000,89.8000
142.8000,89.8000
142.8000,90.2000
Z" /> 
<path style="fill:#000000; fill-opacity:1.0000; stroke:none;fill-rule:evenodd;"
d="M 142.2000,90.9500
142.2000,90.5500
142.8000,90.5500
142.8000,90.9500
Z" /> 
<path style="fill:#000000; fill-opacity:1.0000; stroke:none;fill-rule:evenodd;"
d="M 142.2000,91.7000
142.2000,91.3000
142.8000,91.3000
142.8000,91.7000
Z" /> 
<path style="fill:#000000; fill-opacity:1.0000; stroke:none;fill-rule:evenodd;"
d="M 142.2000,92.4500
142.2000,92.0500
142.8000,92.0500
142.8000,92.4500
Z" /> 
<path style="fill:#000000; fill-opacity:1.0000; stroke:none;fill-rule:evenodd;"
d="M 142.2000,93.2000
142.2000,92.8000
142.8000,92.8000
142.8000,93.2000
Z" /> 
<path style="fill:#000000; fill-opacity:1.0000; stroke:none;fill-rule:evenodd;"
d="M 142.2000,93.9500
142.2000,93.5500
142.8000,93.5500
142.8000,93.9500
Z" /> 
<path style="fill:#000000; fill-opacity:1.0000; stroke:none;fill-rule:evenodd;"
d="M 141.9500,94.1000
141.5500,94.1000
141.5500,93.5000
141.9500,93.5000
Z" /> 
<path style="fill:#000000; fill-opacity:1.0000; stroke:none;fill-rule:evenodd;"
d="M 141.2000,94.1000
140.8000,94.1000
140.8000,93.5000
141.2000,93.5000
Z" /> 
<path style="fill:#000000; fill-opacity:1.0000; stroke:none;fill-rule:evenodd;"
d="M 140.4500,94.1000
140.0500,94.1000
140.0500,93.5000
140.4500,93.5000
Z" /> 
<path style="fill:#000000; fill-opacity:1.0000; stroke:none;fill-rule:evenodd;"
d="M 139.7000,94.1000
139.3000,94.1000
139.3000,93.5000
139.7000,93.5000
Z" /> 
<path style="fill:#000000; fill-opacity:1.0000; stroke:none;fill-rule:evenodd;"
d="M 138.9500,94.1000
138.5500,94.1000
138.5500,93.5000
138.9500,93.5000
Z" /> 
<path style="fill:#000000; fill-opacity:1.0000; stroke:none;fill-rule:evenodd;"
d="M 138.2000,94.1000
137.8000,94.1000
137.8000,93.5000
138.2000,93.5000
Z" /> 
<path style="fill:#000000; fill-opacity:1.0000; stroke:none;fill-rule:evenodd;"
d="M 137.4500,94.1000
137.0500,94.1000
137.0500,93.5000
137.4500,93.5000
Z" /> 
<path style="fill:#000000; fill-opacity:1.0000; stroke:none;fill-rule:evenodd;"
d="M 136.7000,94.1000
136.3000,94.1000
136.3000,93.5000
136.7000,93.5000
Z" /> 
<path style="fill:#000000; fill-opacity:1.0000; stroke:none;fill-rule:evenodd;"
d="M 135.9500,94.1000
135.5500,94.1000
135.5500,93.5000
135.9500,93.5000
Z" /> 
<path style="fill:#000000; fill-opacity:1.0000; stroke:none;fill-rule:evenodd;"
d="M 135.2000,94.1000
134.8000,94.1000
134.8000,93.5000
135.2000,93.5000
Z" /> 
<path style="fill:#000000; fill-opacity:1.0000; stroke:none;fill-rule:evenodd;"
d="M 134.4500,94.1000
134.0500,94.1000
134.0500,93.5000
134.4500,93.5000
Z" /> 
<path style="fill:#000000; fill-opacity:1.0000; stroke:none;fill-rule:evenodd;"
d="M 133.2000,93.9500
133.2000,93.5500
133.8000,93.5500
133.8000,93.9500
Z" /> 
<path style="fill:#000000; fill-opacity:1.0000; stroke:none;fill-rule:evenodd;"
d="M 133.2000,93.2000
133.2000,92.8000
133.8000,92.8000
133.8000,93.2000
Z" /> 
<path style="fill:#000000; fill-opacity:1.0000; stroke:none;fill-rule:evenodd;"
d="M 133.2000,92.4500
133.2000,92.0500
133.8000,92.0500
133.8000,92.4500
Z" /> 
<path style="fill:#000000; fill-opacity:1.0000; stroke:none;fill-rule:evenodd;"
d="M 133.2000,91.7000
133.2000,91.3000
133.8000,91.3000
133.8000,91.7000
Z" /> 
<path style="fill:#000000; fill-opacity:1.0000; stroke:none;fill-rule:evenodd;"
d="M 133.2000,90.9500
133.2000,90.5500
133.8000,90.5500
133.8000,90.9500
Z" /> 
<path style="fill:#000000; fill-opacity:1.0000; stroke:none;fill-rule:evenodd;"
d="M 133.2000,90.2000
133.2000,89.8000
133.8000,89.8000
133.8000,90.2000
Z" /> 
<path style="fill:#000000; fill-opacity:1.0000; stroke:none;fill-rule:evenodd;"
d="M 133.2000,89.4500
133.2000,89.0500
133.8000,89.0500
133.8000,89.4500
Z" /> 
<path style="fill:#000000; fill-opacity:1.0000; stroke:none;fill-rule:evenodd;"
d="M 133.2000,88.7000
133.2000,88.3000
133.8000,88.3000
133.8000,88.7000
Z" /> 
<path style="fill:#000000; fill-opacity:1.0000; stroke:none;fill-rule:evenodd;"
d="M 133.2000,87.9500
133.2000,87.5500
133.8000,87.5500
133.8000,87.9500
Z" /> 
<path style="fill:#000000; fill-opacity:1.0000; stroke:none;fill-rule:evenodd;"
d="M 133.2000,87.2000
133.2000,86.8000
133.8000,86.8000
133.8000,87.2000
Z" /> 
<path style="fill:#000000; fill-opacity:1.0000; stroke:none;fill-rule:evenodd;"
d="M 133.2000,86.4500
133.2000,86.0500
133.8000,86.0500
133.8000,86.4500
Z" /> 
<path style="fill:#000000; fill-opacity:1.0000; stroke:none;fill-rule:evenodd;"
d="M 133.2000,85.7000
133.2000,85.3000
133.8000,85.3000
133.8000,85.7000
Z" /> 
<path style="fill:#000000; fill-opacity:1.0000; stroke:none;fill-rule:evenodd;"
d="M 144.3450,93.5025
144.3572,93.4413
144.3919,93.3894
144.4438,93.3547
144.5050,93.3425
144.9000,93.3425
144.9612,93.3547
145.0131,93.3894
145.0478,93.4413
145.0600,93.5025
145.0600,93.8225
145.0478,93.8837
145.0131,93.9356
144.9612,93.9703
144.9000,93.9825
144.5050,93.9825
144.4438,93.9703
144.3919,93.9356
144.3572,93.8837
144.3450,93.8225
Z" /> 
<path style="fill:#000000; fill-opacity:1.0000; stroke:none;fill-rule:evenodd;"
d="M 145.5400,93.5025
145.5522,93.4413
145.5869,93.3894
145.6388,93.3547
145.7000,93.3425
146.0950,93.3425
146.1562,93.3547
146.2081,93.3894
146.2428,93.4413
146.2550,93.5025
146.2550,93.8225
146.2428,93.8837
146.2081,93.9356
146.1562,93.9703
146.0950,93.9825
145.7000,93.9825
145.6388,93.9703
145.5869,93.9356
145.5522,93.8837
145.5400,93.8225
Z" /> 
</g>
<g style="fill:#000000; fill-opacity:1.0000; stroke:none;">
<circle cx="151.0000" cy="108.0000" r="1.0500" /> 
<path style="fill:#000000; fill-opacity:1.0000; stroke:none;fill-rule:evenodd;"
d="M 146.0000,94.4625
146.0574,94.4739
146.1061,94.5064
146.1386,94.5551
146.1500,94.6125
146.1500,95.6375
146.1386,95.6949
146.1061,95.7436
146.0574,95.7761
146.0000,95.7875
145.7000,95.7875
145.6426,95.7761
145.5939,95.7436
145.5614,95.6949
145.5500,95.6375
145.5500,94.6125
145.5614,94.5551
145.5939,94.5064
145.6426,94.4739
145.7000,94.4625
Z" /> 
<path style="fill:#000000; fill-opacity:1.0000; stroke:none;fill-rule:evenodd;"
d="M 144.1000,94.4625
144.1574,94.4739
144.2061,94.5064
144.2386,94.5551
144.2500,94.6125
144.2500,95.6375
144.2386,95.6949
144.2061,95.7436
144.1574,95.7761
144.1000,95.7875
143.8000,95.7875
143.7426,95.7761
143.6939,95.7436
143.6614,95.6949
143.6500,95.6375
143.6500,94.6125
143.6614,94.5551
143.6939,94.5064
143.7426,94.4739
143.8000,94.4625
Z" /> 
<path style="fill:#000000; fill-opacity:1.0000; stroke:none;fill-rule:evenodd;"
d="M 145.0500,96.7375
145.1074,96.7489
145.1561,96.7814
145.1886,96.8301
145.2000,96.8875
145.2000,97.9125
145.1886,97.9699
145.1561,98.0186
145.1074,98.0511
145.0500,98.0625
144.7500,98.0625
144.6926,98.0511
144.6439,98.0186
144.6114,97.9699
144.6000,97.9125
144.6000,96.8875
144.6114,96.8301
144.6439,96.7814
144.6926,96.7489
144.7500,96.7375
Z" /> 
<path style="fill:#000000; fill-opacity:1.0000; stroke:none;fill-rule:evenodd;"
d="M 141.9000,104.4700
141.9957,104.4890
142.0768,104.5432
142.1310,104.6243
142.1500,104.7200
142.1500,105.3700
142.1310,105.4657
142.0768,105.5468
141.9957,105.6010
141.9000,105.6200
141.0000,105.6200
140.9043,105.6010
140.8232,105.5468
140.7690,105.4657
140.7500,105.3700
140.7500,104.7200
140.7690,104.6243
140.8232,104.5432
140.9043,104.4890
141.0000,104.4700
Z" /> 
<path style="fill:#000000; fill-opacity:1.0000; stroke:none;fill-rule:evenodd;"
d="M 141.9000,106.5200
141.9957,106.5390
142.0768,106.5932
142.1310,106.6743
142.1500,106.7700
142.1500,107.4200
142.1310,107.5157
142.0768,107.5968
141.9957,107.6510
141.9000,107.6700
141.0000,107.6700
140.9043,107.6510
140.8232,107.5968
140.7690,107.5157
140.7500,107.4200
140.7500,106.7700
140.7690,106.6743
140.8232,106.5932
140.9043,106.5390
141.0000,106.5200
Z" /> 
<path style="fill:#000000; fill-opacity:1.0000; stroke:none;fill-rule:evenodd;"
d="M 135.2675,95.0550
135.2557,95.1143
135.2221,95.1646
135.1718,95.1982
135.1125,95.2100
134.6875,95.2100
134.6282,95.1982
134.5779,95.1646
134.5443,95.1143
134.5325,95.0550
134.5325,94.7450
134.5443,94.6857
134.5779,94.6354
134.6282,94.6018
134.6875,94.5900
135.1125,94.5900
135.1718,94.6018
135.2221,94.6354
135.2557,94.6857
135.2675,94.7450
Z" /> 
<path style="fill:#000000; fill-opacity:1.0000; stroke:none;fill-rule:evenodd;"
d="M 134.1325,95.0550
134.1207,95.1143
134.0871,95.1646
134.0368,95.1982
133.9775,95.2100
133.5525,95.2100
133.4932,95.1982
133.4429,95.1646
133.4093,95.1143
133.3975,95.0550
133.3975,94.7450
133.4093,94.6857
133.4429,94.6354
133.4932,94.6018
133.5525,94.5900
133.9775,94.5900
134.0368,94.6018
134.0871,94.6354
134.1207,94.6857
134.1325,94.7450
Z" /> 
<path style="fill:#000000; fill-opacity:1.0000; stroke:none;fill-rule:evenodd;"
d="M 142.9550,97.8225
142.9428,97.8837
142.9081,97.9356
142.8562,97.9703
142.7950,97.9825
142.4000,97.9825
142.3388,97.9703
142.2869,97.9356
142.2522,97.8837
142.2400,97.8225
142.2400,97.5025
142.2522,97.4413
142.2869,97.3894
142.3388,97.3547
142.4000,97.3425
142.7950,97.3425
142.8562,97.3547
142.9081,97.3894
142.9428,97.4413
142.9550,97.5025
Z" /> 
<path style="fill:#000000; fill-opacity:1.0000; stroke:none;fill-rule:evenodd;"
d="M 141.7600,97.8225
141.7478,97.8837
141.7131,97.9356
141.6612,97.9703
141.6000,97.9825
141.2050,97.9825
141.1438,97.9703
141.0919,97.9356
141.0572,97.8837
141.0450,97.8225
141.0450,97.5025
141.0572,97.4413
141.0919,97.3894
141.1438,97.3547
141.2050,97.3425
141.6000,97.3425
141.6612,97.3547
141.7131,97.3894
141.7478,97.4413
141.7600,97.5025
Z" /> 
<path style="fill:#000000; fill-opacity:1.0000; stroke:none;fill-rule:evenodd;"
d="M 126.3250,87.0250
126.3537,87.0307
126.3780,87.0470
126.3943,87.0713
126.4000,87.1000
126.4000,88.1250
126.3943,88.1537
126.3780,88.1780
126.3537,88.1943
126.3250,88.2000
126.1750,88.2000
126.1463,88.1943
126.1220,88.1780
126.1057,88.1537
126.1000,88.1250
126.1000,87.1000
126.1057,87.0713
126.1220,87.0470
126.1463,87.0307
126.1750,87.0250
Z" /> 
<path style="fill:#000000; fill-opacity:1.0000; stroke:none;fill-rule:evenodd;"
d="M 125.6750,87.0250
125.7037,87.0307
125.7280,87.0470
125.7443,87.0713
125.7500,87.1000
125.7500,88.1250
125.7443,88.1537
125.7280,88.1780
125.7037,88.1943
125.6750,88.2000
125.5250,88.2000
125.4963,88.1943
125.4720,88.1780
125.4557,88.1537
125.4500,88.1250
125.4500,87.1000
125.4557,87.0713
125.4720,87.0470
125.4963,87.0307
125.5250,87.0250
Z" /> 
<path style="fill:#000000; fill-opacity:1.0000; stroke:none;fill-rule:evenodd;"
d="M 125.0250,87.0250
125.0537,87.0307
125.0780,87.0470
125.0943,87.0713
125.1000,87.1000
125.1000,88.1250
125.0943,88.1537
125.0780,88.1780
125.0537,88.1943
125.0250,88.2000
124.8750,88.2000
124.8463,88.1943
124.8220,88.1780
124.8057,88.1537
124.8000,88.1250
124.8000,87.1000
124.8057,87.0713
124.8220,87.0470
124.8463,87.0307
124.8750,87.0250
Z" /> 
<path style="fill:#000000; fill-opacity:1.0000; stroke:none;fill-rule:evenodd;"
d="M 125.0250,88.6000
125.0537,88.6057
125.0780,88.6220
125.0943,88.6463
125.1000,88.6750
125.1000,89.7000
125.0943,89.7287
125.0780,89.7530
125.0537,89.7693
125.0250,89.7750
124.8750,89.7750
124.8463,89.7693
124.8220,89.7530
124.8057,89.7287
124.8000,89.7000
124.8000,88.6750
124.8057,88.6463
124.8220,88.6220
124.8463,88.6057
124.8750,88.6000
Z" /> 
<path style="fill:#000000; fill-opacity:1.0000; stroke:none;fill-rule:evenodd;"
d="M 125.6750,88.6000
125.7037,88.6057
125.7280,88.6220
125.7443,88.6463
125.7500,88.6750
125.7500,89.7000
125.7443,89.7287
125.7280,89.7530
125.7037,89.7693
125.6750,89.7750
125.5250,89.7750
125.4963,89.7693
125.4720,89.7530
125.4557,89.7287
125.4500,89.7000
125.4500,88.6750
125.4557,88.6463
125.4720,88.6220
125.4963,88.6057
125.5250,88.6000
Z" /> 
<path style="fill:#000000; fill-opacity:1.0000; stroke:none;fill-rule:evenodd;"
d="M 126.3250,88.6000
126.3537,88.6057
126.3780,88.6220
126.3943,88.6463
126.4000,88.6750
126.4000,89.7000
126.3943,89.7287
126.3780,89.7530
126.3537,89.7693
126.3250,89.7750
126.1750,89.7750
126.1463,89.7693
126.1220,89.7530
126.1057,89.7287
126.1000,89.7000
126.1000,88.6750
126.1057,88.6463
126.1220,88.6220
126.1463,88.6057
126.1750,88.6000
Z" /> 
<path style="fill:#000000; fill-opacity:1.0000; stroke:none;fill-rule:evenodd;"
d="M 141.0975,95.5075
141.1093,95.4482
141.1429,95.3979
141.1932,95.3643
141.2525,95.3525
141.6775,95.3525
141.7368,95.3643
141.7871,95.3979
141.8207,95.4482
141.8325,95.5075
141.8325,95.8175
141.8207,95.8768
141.7871,95.9271
141.7368,95.9607
141.6775,95.9725
141.2525,95.9725
141.1932,95.9607
141.1429,95.9271
141.1093,95.8768
141.0975,95.8175
Z" /> 
<path style="fill:#000000; fill-opacity:1.0000; stroke:none;fill-rule:evenodd;"
d="M 142.2325,95.5075
142.2443,95.4482
142.2779,95.3979
142.3282,95.3643
142.3875,95.3525
142.8125,95.3525
142.8718,95.3643
142.9221,95.3979
142.9557,95.4482
142.9675,95.5075
142.9675,95.8175
142.9557,95.8768
142.9221,95.9271
142.8718,95.9607
142.8125,95.9725
142.3875,95.9725
142.3282,95.9607
142.2779,95.9271
142.2443,95.8768
142.2325,95.8175
Z" /> 
<path style="fill:#000000; fill-opacity:1.0000; stroke:none;fill-rule:evenodd;"
d="M 123.9050,87.6554
123.9643,87.6672
124.0146,87.7008
124.0482,87.7511
124.0600,87.8104
124.0600,88.2354
124.0482,88.2947
124.0146,88.3450
123.9643,88.3786
123.9050,88.3904
123.5950,88.3904
123.5357,88.3786
123.4854,88.3450
123.4518,88.2947
123.4400,88.2354
123.4400,87.8104
123.4518,87.7511
123.4854,87.7008
123.5357,87.6672
123.5950,87.6554
Z" /> 
<path style="fill:#000000; fill-opacity:1.0000; stroke:none;fill-rule:evenodd;"
d="M 123.9050,88.7904
123.9643,88.8022
124.0146,88.8358
124.0482,88.8861
124.0600,88.9454
124.0600,89.3704
124.0482,89.4297
124.0146,89.4800
123.9643,89.5136
123.9050,89.5254
123.5950,89.5254
123.5357,89.5136
123.4854,89.4800
123.4518,89.4297
123.4400,89.3704
123.4400,88.9454
123.4518,88.8861
123.4854,88.8358
123.5357,88.8022
123.5950,88.7904
Z" /> 
<path style="fill:#000000; fill-opacity:1.0000; stroke:none;fill-rule:evenodd;"
d="M 131.7450,97.8350
131.6857,97.8232
131.6354,97.7896
131.6018,97.7393
131.5900,97.6800
131.5900,97.2550
131.6018,97.1957
131.6354,97.1454
131.6857,97.1118
131.7450,97.1000
132.0550,97.1000
132.1143,97.1118
132.1646,97.1454
132.1982,97.1957
132.2100,97.2550
132.2100,97.6800
132.1982,97.7393
132.1646,97.7896
132.1143,97.8232
132.0550,97.8350
Z" /> 
<path style="fill:#000000; fill-opacity:1.0000; stroke:none;fill-rule:evenodd;"
d="M 131.7450,96.7000
131.6857,96.6882
131.6354,96.6546
131.6018,96.6043
131.5900,96.5450
131.5900,96.1200
131.6018,96.0607
131.6354,96.0104
131.6857,95.9768
131.7450,95.9650
132.0550,95.9650
132.1143,95.9768
132.1646,96.0104
132.1982,96.0607
132.2100,96.1200
132.2100,96.5450
132.1982,96.6043
132.1646,96.6546
132.1143,96.6882
132.0550,96.7000
Z" /> 
<path style="fill:#000000; fill-opacity:1.0000; stroke:none;fill-rule:evenodd;"
d="M 128.6750,97.5500
128.1500,97.5500
128.1500,97.0500
128.6750,97.0500
Z" /> 
<path style="fill:#000000; fill-opacity:1.0000; stroke:none;fill-rule:evenodd;"
d="M 128.6750,96.7500
128.1500,96.7500
128.1500,96.2500
128.6750,96.2500
Z" /> 
<path style="fill:#000000; fill-opacity:1.0000; stroke:none;fill-rule:evenodd;"
d="M 128.6750,95.9500
128.1500,95.9500
128.1500,95.4500
128.6750,95.4500
Z" /> 
<path style="fill:#000000; fill-opacity:1.0000; stroke:none;fill-rule:evenodd;"
d="M 128.6750,95.1500
128.1500,95.1500
128.1500,94.6500
128.6750,94.6500
Z" /> 
<path style="fill:#000000; fill-opacity:1.0000; stroke:none;fill-rule:evenodd;"
d="M 131.0500,95.1500
130.5250,95.1500
130.5250,94.6500
131.0500,94.6500
Z" /> 
<path style="fill:#000000; fill-opacity:1.0000; stroke:none;fill-rule:evenodd;"
d="M 131.0500,95.9500
130.5250,95.9500
130.5250,95.4500
131.0500,95.4500
Z" /> 
<path style="fill:#000000; fill-opacity:1.0000; stroke:none;fill-rule:evenodd;"
d="M 131.0500,96.7500
130.5250,96.7500
130.5250,96.2500
131.0500,96.2500
Z" /> 
<path style="fill:#000000; fill-opacity:1.0000; stroke:none;fill-rule:evenodd;"
d="M 131.0500,97.5500
130.5250,97.5500
130.5250,97.0500
131.0500,97.0500
Z" /> 
<path style="fill:#000000; fill-opacity:1.0000; stroke:none;fill-rule:evenodd;"
d="M 124.6950,86.0304
124.7072,85.9692
124.7419,85.9172
124.7938,85.8826
124.8550,85.8704
125.2500,85.8704
125.3112,85.8826
125.3631,85.9172
125.3978,85.9692
125.4100,86.0304
125.4100,86.3504
125.3978,86.4116
125.3631,86.4635
125.3112,86.4982
125.2500,86.5104
124.8550,86.5104
124.7938,86.4982
124.7419,86.4635
124.7072,86.4116
124.6950,86.3504
Z" /> 
<path style="fill:#000000; fill-opacity:1.0000; stroke:none;fill-rule:evenodd;"
d="M 125.8900,86.0304
125.9022,85.9692
125.9369,85.9172
125.9888,85.8826
126.0500,85.8704
126.4450,85.8704
126.5062,85.8826
126.5581,85.9172
126.5928,85.9692
126.6050,86.0304
126.6050,86.3504
126.5928,86.4116
126.5581,86.4635
126.5062,86.4982
126.4450,86.5104
126.0500,86.5104
125.9888,86.4982
125.9369,86.4635
125.9022,86.4116
125.8900,86.3504
Z" /> 
<path style="fill:#000000; fill-opacity:1.0000; stroke:none;fill-rule:evenodd;"
d="M 144.8000,101.8500
144.8190,101.7543
144.8732,101.6732
144.9543,101.6190
145.0500,101.6000
145.7500,101.6000
145.8457,101.6190
145.9268,101.6732
145.9810,101.7543
146.0000,101.8500
146.0000,102.7500
145.9810,102.8457
145.9268,102.9268
145.8457,102.9810
145.7500,103.0000
145.0500,103.0000
144.9543,102.9810
144.8732,102.9268
144.8190,102.8457
144.8000,102.7500
Z" /> 
<path style="fill:#000000; fill-opacity:1.0000; stroke:none;fill-rule:evenodd;"
d="M 146.8000,101.8500
146.8190,101.7543
146.8732,101.6732
146.9543,101.6190
147.0500,101.6000
147.7500,101.6000
147.8457,101.6190
147.9268,101.6732
147.9810,101.7543
148.0000,101.8500
148.0000,102.7500
147.9810,102.8457
147.9268,102.9268
147.8457,102.9810
147.7500,103.0000
147.0500,103.0000
146.9543,102.9810
146.8732,102.9268
146.8190,102.8457
146.8000,102.7500
Z" /> 
<path style="fill:#000000; fill-opacity:1.0000; stroke:none;fill-rule:evenodd;"
d="M 128.9550,87.3600
128.9428,87.4212
128.9081,87.4731
128.8562,87.5078
128.7950,87.5200
128.4000,87.5200
128.3388,87.5078
128.2869,87.4731
128.2522,87.4212
128.2400,87.3600
128.2400,87.0400
128.2522,86.9788
128.2869,86.9269
128.3388,86.8922
128.4000,86.8800
128.7950,86.8800
128.8562,86.8922
128.9081,86.9269
128.9428,86.9788
128.9550,87.0400
Z" /> 
<path style="fill:#000000; fill-opacity:1.0000; stroke:none;fill-rule:evenodd;"
d="M 127.7600,87.3600
127.7478,87.4212
127.7131,87.4731
127.6612,87.5078
127.6000,87.5200
127.2050,87.5200
127.1438,87.5078
127.0919,87.4731
127.0572,87.4212
127.0450,87.3600
127.0450,87.0400
127.0572,86.9788
127.0919,86.9269
127.1438,86.8922
127.2050,86.8800
127.6000,86.8800
127.6612,86.8922
127.7131,86.9269
127.7478,86.9788
127.7600,87.0400
Z" /> 
<path style="fill:#000000; fill-opacity:1.0000; stroke:none;fill-rule:evenodd;"
d="M 141.2900,110.2050
141.2288,110.1928
141.1769,110.1581
141.1422,110.1062
141.1300,110.0450
141.1300,109.6500
141.1422,109.5888
141.1769,109.5369
141.2288,109.5022
141.2900,109.4900
141.6100,109.4900
141.6712,109.5022
141.7231,109.5369
141.7578,109.5888
141.7700,109.6500
141.7700,110.0450
141.7578,110.1062
141.7231,110.1581
141.6712,110.1928
141.6100,110.2050
Z" /> 
<path style="fill:#000000; fill-opacity:1.0000; stroke:none;fill-rule:evenodd;"
d="M 141.2900,109.0100
141.2288,108.9978
141.1769,108.9631
141.1422,108.9112
141.1300,108.8500
141.1300,108.4550
141.1422,108.3938
141.1769,108.3419
141.2288,108.3072
141.2900,108.2950
141.6100,108.2950
141.6712,108.3072
141.7231,108.3419
141.7578,108.3938
141.7700,108.4550
141.7700,108.8500
141.7578,108.9112
141.7231,108.9631
141.6712,108.9978
141.6100,109.0100
Z" /> 
<path style="fill:#000000; fill-opacity:1.0000; stroke:none;fill-rule:evenodd;"
d="M 141.0475,96.5025
141.0597,96.4413
141.0944,96.3894
141.1463,96.3547
141.2075,96.3425
141.6025,96.3425
141.6637,96.3547
141.7156,96.3894
141.7503,96.4413
141.7625,96.5025
141.7625,96.8225
141.7503,96.8837
141.7156,96.9356
141.6637,96.9703
141.6025,96.9825
141.2075,96.9825
141.1463,96.9703
141.0944,96.9356
141.0597,96.8837
141.0475,96.8225
Z" /> 
<path style="fill:#000000; fill-opacity:1.0000; stroke:none;fill-rule:evenodd;"
d="M 142.2425,96.5025
142.2547,96.4413
142.2894,96.3894
142.3413,96.3547
142.4025,96.3425
142.7975,96.3425
142.8587,96.3547
142.9106,96.3894
142.9453,96.4413
142.9575,96.5025
142.9575,96.8225
142.9453,96.8837
142.9106,96.9356
142.8587,96.9703
142.7975,96.9825
142.4025,96.9825
142.3413,96.9703
142.2894,96.9356
142.2547,96.8837
142.2425,96.8225
Z" /> 
<path style="fill:#000000; fill-opacity:1.0000; stroke:none;fill-rule:evenodd;"
d="M 131.7450,95.4525
131.6857,95.4407
131.6354,95.4071
131.6018,95.3568
131.5900,95.2975
131.5900,94.8725
131.6018,94.8132
131.6354,94.7629
131.6857,94.7293
131.7450,94.7175
132.0550,94.7175
132.1143,94.7293
132.1646,94.7629
132.1982,94.8132
132.2100,94.8725
132.2100,95.2975
132.1982,95.3568
132.1646,95.4071
132.1143,95.4407
132.0550,95.4525
Z" /> 
<path style="fill:#000000; fill-opacity:1.0000; stroke:none;fill-rule:evenodd;"
d="M 131.7450,94.3175
131.6857,94.3057
131.6354,94.2721
131.6018,94.2218
131.5900,94.1625
131.5900,93.7375
131.6018,93.6782
131.6354,93.6279
131.6857,93.5943
131.7450,93.5825
132.0550,93.5825
132.1143,93.5943
132.1646,93.6279
132.1982,93.6782
132.2100,93.7375
132.2100,94.1625
132.1982,94.2218
132.1646,94.2721
132.1143,94.3057
132.0550,94.3175
Z" /> 
<path style="fill:#000000; fill-opacity:1.0000; stroke:none;fill-rule:evenodd;"
d="M 143.3650,88.1450
143.3768,88.0857
143.4104,88.0354
143.4607,88.0018
143.5200,87.9900
143.9450,87.9900
144.0043,88.0018
144.0546,88.0354
144.0882,88.0857
144.1000,88.1450
144.1000,88.4550
144.0882,88.5143
144.0546,88.5646
144.0043,88.5982
143.9450,88.6100
143.5200,88.6100
143.4607,88.5982
143.4104,88.5646
143.3768,88.5143
143.3650,88.4550
Z" /> 
<path style="fill:#000000; fill-opacity:1.0000; stroke:none;fill-rule:evenodd;"
d="M 144.5000,88.1450
144.5118,88.0857
144.5454,88.0354
144.5957,88.0018
144.6550,87.9900
145.0800,87.9900
145.1393,88.0018
145.1896,88.0354
145.2232,88.0857
145.2350,88.1450
145.2350,88.4550
145.2232,88.5143
145.1896,88.5646
145.1393,88.5982
145.0800,88.6100
144.6550,88.6100
144.5957,88.5982
144.5454,88.5646
144.5118,88.5143
144.5000,88.4550
Z" /> 
</g>
<g style="fill:#000000; fill-opacity:1.0000; stroke:none;">
<circle cx="125.0000" cy="108.0000" r="1.0500" /> 
<path style="fill:#000000; fill-opacity:1.0000; stroke:none;fill-rule:evenodd;"
d="M 150.2000,84.9600
150.2000,83.9600
151.2000,83.9600
151.2000,84.9600
Z" /> 
</g>
<g style="fill:#000000; fill-opacity:1.0000; stroke:none;">
<circle cx="151.9700" cy="84.4600" r="0.5000" /> 
</g>
<g style="fill:#000000; fill-opacity:1.0000; stroke:none;">
<circle cx="150.7000" cy="85.7300" r="0.5000" /> 
</g>
<g style="fill:#000000; fill-opacity:1.0000; stroke:none;">
<circle cx="151.9700" cy="85.7300" r="0.5000" /> 
</g>
<g style="fill:#000000; fill-opacity:1.0000; stroke:none;">
<circle cx="150.7000" cy="87.0000" r="0.5000" /> 
</g>
<g style="fill:#000000; fill-opacity:1.0000; stroke:none;">
<circle cx="151.9700" cy="87.0000" r="0.5000" /> 
</g>
<g style="fill:#000000; fill-opacity:1.0000; stroke:none;">
<circle cx="150.7000" cy="88.2700" r="0.5000" /> 
</g>
<g style="fill:#000000; fill-opacity:1.0000; stroke:none;">
<circle cx="151.9700" cy="88.2700" r="0.5000" /> 
</g>
<g style="fill:#000000; fill-opacity:1.0000; stroke:none;">
<circle cx="150.7000" cy="89.5400" r="0.5000" /> 
</g>
<g style="fill:#000000; fill-opacity:1.0000; stroke:none;">
<circle cx="151.9700" cy="89.5400" r="0.5000" /> 
<path style="fill:#000000; fill-opacity:1.0000; stroke:none;fill-rule:evenodd;"
d="M 145.2550,87.4600
145.2428,87.5212
145.2081,87.5731
145.1562,87.6078
145.0950,87.6200
144.7000,87.6200
144.6388,87.6078
144.5869,87.5731
144.5522,87.5212
144.5400,87.4600
144.5400,87.1400
144.5522,87.0788
144.5869,87.0269
144.6388,86.9922
144.7000,86.9800
145.0950,86.9800
145.1562,86.9922
145.2081,87.0269
145.2428,87.0788
145.2550,87.1400
Z" /> 
<path style="fill:#000000; fill-opacity:1.0000; stroke:none;fill-rule:evenodd;"
d="M 144.0600,87.4600
144.0478,87.5212
144.0131,87.5731
143.9612,87.6078
143.9000,87.6200
143.5050,87.6200
143.4438,87.6078
143.3919,87.5731
143.3572,87.5212
143.3450,87.4600
143.3450,87.1400
143.3572,87.0788
143.3919,87.0269
143.4438,86.9922
143.5050,86.9800
143.9000,86.9800
143.9612,86.9922
144.0131,87.0269
144.0478,87.0788
144.0600,87.1400
Z" /> 
<path style="fill:#000000; fill-opacity:1.0000; stroke:none;fill-rule:evenodd;"
d="M 123.3950,90.4400
123.4072,90.3788
123.4419,90.3269
123.4938,90.2922
123.5550,90.2800
123.9500,90.2800
124.0112,90.2922
124.0631,90.3269
124.0978,90.3788
124.1100,90.4400
124.1100,90.7600
124.0978,90.8212
124.0631,90.8731
124.0112,90.9078
123.9500,90.9200
123.5550,90.9200
123.4938,90.9078
123.4419,90.8731
123.4072,90.8212
123.3950,90.7600
Z" /> 
<path style="fill:#000000; fill-opacity:1.0000; stroke:none;fill-rule:evenodd;"
d="M 124.5900,90.4400
124.6022,90.3788
124.6369,90.3269
124.6888,90.2922
124.7500,90.2800
125.1450,90.2800
125.2062,90.2922
125.2581,90.3269
125.2928,90.3788
125.3050,90.4400
125.3050,90.7600
125.2928,90.8212
125.2581,90.8731
125.2062,90.9078
125.1450,90.9200
124.7500,90.9200
124.6888,90.9078
124.6369,90.8731
124.6022,90.8212
124.5900,90.7600
Z" /> 
</g>
<g style="fill:#000000; fill-opacity:1.0000; stroke:none;">
<circle cx="150.7000" cy="98.7000" r="1.3875" /> 
</g>
<g style="fill:#000000; fill-opacity:1.0000; stroke:none;">
<circle cx="125.3000" cy="98.7000" r="1.3875" /> 
</g> 
</svg>
