<?xml version="1.0" standalone="no"?>
 <!DOCTYPE svg PUBLIC "-//W3C//DTD SVG 1.1//EN" 
 "http://www.w3.org/Graphics/SVG/1.1/DTD/svg11.dtd"> 
<svg
  xmlns:svg="http://www.w3.org/2000/svg"
  xmlns="http://www.w3.org/2000/svg"
  xmlns:xlink="http://www.w3.org/1999/xlink"
  version="1.1"
  width="297.0022mm" height="210.0072mm" viewBox="0.0000 0.0000 297.0022 210.0072">
<title>SVG Image created as BeeLight-User_Drawings.svg date 2026/03/17 20:29:02 </title>
  <desc>Image generated by PCBNEW </desc>
<g style="fill:#000000; fill-opacity:1.0000;stroke:#000000; stroke-opacity:1.0000;
stroke-linecap:round; stroke-linejoin:round;"
 transform="translate(0 0) scale(1 1)">
</g>
<g style="fill:none; 
stroke:#000000; stroke-width:0.1500; stroke-opacity:1; 
stroke-linecap:round; stroke-linejoin:round;">
<path d="M177.0022 166.0072
L285.0022 166.0072
L285.0022 198.0072
L177.0022 198.0072
L177.0022 166.0072
" />
</g>
<g style="fill:none; 
stroke:#000000; stroke-width:0.1500; stroke-opacity:1; 
stroke-linecap:round; stroke-linejoin:round;">
<path d="M10.0000 10.0000
L287.0022 10.0000
L287.0022 200.0072
L10.0000 200.0072
L10.0000 10.0000
" />
</g>
<g style="fill:none; 
stroke:#000000; stroke-width:0.1500; stroke-opacity:1; 
stroke-linecap:round; stroke-linejoin:round;">
<path d="M12.0000 12.0000
L285.0022 12.0000
L285.0022 198.0072
L12.0000 198.0072
L12.0000 12.0000
" />
</g>
<g style="fill:none; 
stroke:#000000; stroke-width:0.1500; stroke-opacity:1; 
stroke-linecap:round; stroke-linejoin:round;">
<path d="M60.0000 12.0000
L60.0000 10.0000
" />
</g>
<g style="fill:none; 
stroke:#000000; stroke-width:0.1500; stroke-opacity:1; 
stroke-linecap:round; stroke-linejoin:round;">
<path d="M110.0000 12.0000
L110.0000 10.0000
" />
</g>
<g style="fill:none; 
stroke:#000000; stroke-width:0.1500; stroke-opacity:1; 
stroke-linecap:round; stroke-linejoin:round;">
<path d="M160.0000 12.0000
L160.0000 10.0000
" />
</g>
<g style="fill:none; 
stroke:#000000; stroke-width:0.1500; stroke-opacity:1; 
stroke-linecap:round; stroke-linejoin:round;">
<path d="M210.0000 12.0000
L210.0000 10.0000
" />
</g>
<g style="fill:none; 
stroke:#000000; stroke-width:0.1500; stroke-opacity:1; 
stroke-linecap:round; stroke-linejoin:round;">
<path d="M260.0000 12.0000
L260.0000 10.0000
" />
</g>
<g style="fill:none; 
stroke:#000000; stroke-width:0.1500; stroke-opacity:1; 
stroke-linecap:round; stroke-linejoin:round;">
<text x="35.0000" y="11.6500"
textLength="1.4281" font-size="1.7333" lengthAdjust="spacingAndGlyphs"
text-anchor="start" opacity="0" stroke-opacity="0">1</text>
<g class="stroked-text"><desc>1</desc>
<path d="M36.0892 11.5936
L35.3463 11.5936
" />
<path d="M35.7177 11.5936
L35.7177 10.2936
" />
<path d="M35.7177 10.2936
L35.5939 10.4793
" />
<path d="M35.5939 10.4793
L35.4701 10.6031
" />
<path d="M35.4701 10.6031
L35.3463 10.6650
" />
</g></g>
<g style="fill:none; 
stroke:#000000; stroke-width:0.1500; stroke-opacity:1; 
stroke-linecap:round; stroke-linejoin:round;">
<text x="85.0000" y="11.6500"
textLength="1.4281" font-size="1.7333" lengthAdjust="spacingAndGlyphs"
text-anchor="start" opacity="0" stroke-opacity="0">2</text>
<g class="stroked-text"><desc>2</desc>
<path d="M85.3463 10.4174
L85.4082 10.3555
" />
<path d="M85.4082 10.3555
L85.5320 10.2936
" />
<path d="M85.5320 10.2936
L85.8415 10.2936
" />
<path d="M85.8415 10.2936
L85.9654 10.3555
" />
<path d="M85.9654 10.3555
L86.0273 10.4174
" />
<path d="M86.0273 10.4174
L86.0892 10.5412
" />
<path d="M86.0892 10.5412
L86.0892 10.6650
" />
<path d="M86.0892 10.6650
L86.0273 10.8507
" />
<path d="M86.0273 10.8507
L85.2844 11.5936
" />
<path d="M85.2844 11.5936
L86.0892 11.5936
" />
</g></g>
<g style="fill:none; 
stroke:#000000; stroke-width:0.1500; stroke-opacity:1; 
stroke-linecap:round; stroke-linejoin:round;">
<text x="135.0000" y="11.6500"
textLength="1.4281" font-size="1.7333" lengthAdjust="spacingAndGlyphs"
text-anchor="start" opacity="0" stroke-opacity="0">3</text>
<g class="stroked-text"><desc>3</desc>
<path d="M135.2844 10.2936
L136.0892 10.2936
" />
<path d="M136.0892 10.2936
L135.6558 10.7888
" />
<path d="M135.6558 10.7888
L135.8415 10.7888
" />
<path d="M135.8415 10.7888
L135.9654 10.8507
" />
<path d="M135.9654 10.8507
L136.0273 10.9127
" />
<path d="M136.0273 10.9127
L136.0892 11.0365
" />
<path d="M136.0892 11.0365
L136.0892 11.3460
" />
<path d="M136.0892 11.3460
L136.0273 11.4698
" />
<path d="M136.0273 11.4698
L135.9654 11.5317
" />
<path d="M135.9654 11.5317
L135.8415 11.5936
" />
<path d="M135.8415 11.5936
L135.4701 11.5936
" />
<path d="M135.4701 11.5936
L135.3463 11.5317
" />
<path d="M135.3463 11.5317
L135.2844 11.4698
" />
</g></g>
<g style="fill:none; 
stroke:#000000; stroke-width:0.1500; stroke-opacity:1; 
stroke-linecap:round; stroke-linejoin:round;">
<text x="185.0000" y="11.6500"
textLength="1.4281" font-size="1.7333" lengthAdjust="spacingAndGlyphs"
text-anchor="start" opacity="0" stroke-opacity="0">4</text>
<g class="stroked-text"><desc>4</desc>
<path d="M185.9654 10.7269
L185.9654 11.5936
" />
<path d="M185.6558 10.2317
L185.3463 11.1603
" />
<path d="M185.3463 11.1603
L186.1511 11.1603
" />
</g></g>
<g style="fill:none; 
stroke:#000000; stroke-width:0.1500; stroke-opacity:1; 
stroke-linecap:round; stroke-linejoin:round;">
<text x="235.0000" y="11.6500"
textLength="1.4281" font-size="1.7333" lengthAdjust="spacingAndGlyphs"
text-anchor="start" opacity="0" stroke-opacity="0">5</text>
<g class="stroked-text"><desc>5</desc>
<path d="M236.0273 10.2936
L235.4082 10.2936
" />
<path d="M235.4082 10.2936
L235.3463 10.9127
" />
<path d="M235.3463 10.9127
L235.4082 10.8507
" />
<path d="M235.4082 10.8507
L235.5320 10.7888
" />
<path d="M235.5320 10.7888
L235.8415 10.7888
" />
<path d="M235.8415 10.7888
L235.9654 10.8507
" />
<path d="M235.9654 10.8507
L236.0273 10.9127
" />
<path d="M236.0273 10.9127
L236.0892 11.0365
" />
<path d="M236.0892 11.0365
L236.0892 11.3460
" />
<path d="M236.0892 11.3460
L236.0273 11.4698
" />
<path d="M236.0273 11.4698
L235.9654 11.5317
" />
<path d="M235.9654 11.5317
L235.8415 11.5936
" />
<path d="M235.8415 11.5936
L235.5320 11.5936
" />
<path d="M235.5320 11.5936
L235.4082 11.5317
" />
<path d="M235.4082 11.5317
L235.3463 11.4698
" />
</g></g>
<g style="fill:none; 
stroke:#000000; stroke-width:0.1500; stroke-opacity:1; 
stroke-linecap:round; stroke-linejoin:round;">
<text x="285.0000" y="11.6500"
textLength="1.4281" font-size="1.7333" lengthAdjust="spacingAndGlyphs"
text-anchor="start" opacity="0" stroke-opacity="0">6</text>
<g class="stroked-text"><desc>6</desc>
<path d="M285.9654 10.2936
L285.7177 10.2936
" />
<path d="M285.7177 10.2936
L285.5939 10.3555
" />
<path d="M285.5939 10.3555
L285.5320 10.4174
" />
<path d="M285.5320 10.4174
L285.4082 10.6031
" />
<path d="M285.4082 10.6031
L285.3463 10.8507
" />
<path d="M285.3463 10.8507
L285.3463 11.3460
" />
<path d="M285.3463 11.3460
L285.4082 11.4698
" />
<path d="M285.4082 11.4698
L285.4701 11.5317
" />
<path d="M285.4701 11.5317
L285.5939 11.5936
" />
<path d="M285.5939 11.5936
L285.8415 11.5936
" />
<path d="M285.8415 11.5936
L285.9654 11.5317
" />
<path d="M285.9654 11.5317
L286.0273 11.4698
" />
<path d="M286.0273 11.4698
L286.0892 11.3460
" />
<path d="M286.0892 11.3460
L286.0892 11.0365
" />
<path d="M286.0892 11.0365
L286.0273 10.9127
" />
<path d="M286.0273 10.9127
L285.9654 10.8507
" />
<path d="M285.9654 10.8507
L285.8415 10.7888
" />
<path d="M285.8415 10.7888
L285.5939 10.7888
" />
<path d="M285.5939 10.7888
L285.4701 10.8507
" />
<path d="M285.4701 10.8507
L285.4082 10.9127
" />
<path d="M285.4082 10.9127
L285.3463 11.0365
" />
</g></g>
<g style="fill:none; 
stroke:#000000; stroke-width:0.1500; stroke-opacity:1; 
stroke-linecap:round; stroke-linejoin:round;">
<path d="M60.0000 198.0072
L60.0000 200.0072
" />
</g>
<g style="fill:none; 
stroke:#000000; stroke-width:0.1500; stroke-opacity:1; 
stroke-linecap:round; stroke-linejoin:round;">
<path d="M110.0000 198.0072
L110.0000 200.0072
" />
</g>
<g style="fill:none; 
stroke:#000000; stroke-width:0.1500; stroke-opacity:1; 
stroke-linecap:round; stroke-linejoin:round;">
<path d="M160.0000 198.0072
L160.0000 200.0072
" />
</g>
<g style="fill:none; 
stroke:#000000; stroke-width:0.1500; stroke-opacity:1; 
stroke-linecap:round; stroke-linejoin:round;">
<path d="M210.0000 198.0072
L210.0000 200.0072
" />
</g>
<g style="fill:none; 
stroke:#000000; stroke-width:0.1500; stroke-opacity:1; 
stroke-linecap:round; stroke-linejoin:round;">
<path d="M260.0000 198.0072
L260.0000 200.0072
" />
</g>
<g style="fill:none; 
stroke:#000000; stroke-width:0.1500; stroke-opacity:1; 
stroke-linecap:round; stroke-linejoin:round;">
<text x="35.0000" y="199.6572"
textLength="1.4281" font-size="1.7333" lengthAdjust="spacingAndGlyphs"
text-anchor="start" opacity="0" stroke-opacity="0">1</text>
<g class="stroked-text"><desc>1</desc>
<path d="M36.0892 199.6008
L35.3463 199.6008
" />
<path d="M35.7177 199.6008
L35.7177 198.3008
" />
<path d="M35.7177 198.3008
L35.5939 198.4865
" />
<path d="M35.5939 198.4865
L35.4701 198.6103
" />
<path d="M35.4701 198.6103
L35.3463 198.6722
" />
</g></g>
<g style="fill:none; 
stroke:#000000; stroke-width:0.1500; stroke-opacity:1; 
stroke-linecap:round; stroke-linejoin:round;">
<text x="85.0000" y="199.6572"
textLength="1.4281" font-size="1.7333" lengthAdjust="spacingAndGlyphs"
text-anchor="start" opacity="0" stroke-opacity="0">2</text>
<g class="stroked-text"><desc>2</desc>
<path d="M85.3463 198.4246
L85.4082 198.3627
" />
<path d="M85.4082 198.3627
L85.5320 198.3008
" />
<path d="M85.5320 198.3008
L85.8415 198.3008
" />
<path d="M85.8415 198.3008
L85.9654 198.3627
" />
<path d="M85.9654 198.3627
L86.0273 198.4246
" />
<path d="M86.0273 198.4246
L86.0892 198.5484
" />
<path d="M86.0892 198.5484
L86.0892 198.6722
" />
<path d="M86.0892 198.6722
L86.0273 198.8579
" />
<path d="M86.0273 198.8579
L85.2844 199.6008
" />
<path d="M85.2844 199.6008
L86.0892 199.6008
" />
</g></g>
<g style="fill:none; 
stroke:#000000; stroke-width:0.1500; stroke-opacity:1; 
stroke-linecap:round; stroke-linejoin:round;">
<text x="135.0000" y="199.6572"
textLength="1.4281" font-size="1.7333" lengthAdjust="spacingAndGlyphs"
text-anchor="start" opacity="0" stroke-opacity="0">3</text>
<g class="stroked-text"><desc>3</desc>
<path d="M135.2844 198.3008
L136.0892 198.3008
" />
<path d="M136.0892 198.3008
L135.6558 198.7960
" />
<path d="M135.6558 198.7960
L135.8415 198.7960
" />
<path d="M135.8415 198.7960
L135.9654 198.8579
" />
<path d="M135.9654 198.8579
L136.0273 198.9199
" />
<path d="M136.0273 198.9199
L136.0892 199.0437
" />
<path d="M136.0892 199.0437
L136.0892 199.3532
" />
<path d="M136.0892 199.3532
L136.0273 199.4770
" />
<path d="M136.0273 199.4770
L135.9654 199.5389
" />
<path d="M135.9654 199.5389
L135.8415 199.6008
" />
<path d="M135.8415 199.6008
L135.4701 199.6008
" />
<path d="M135.4701 199.6008
L135.3463 199.5389
" />
<path d="M135.3463 199.5389
L135.2844 199.4770
" />
</g></g>
<g style="fill:none; 
stroke:#000000; stroke-width:0.1500; stroke-opacity:1; 
stroke-linecap:round; stroke-linejoin:round;">
<text x="185.0000" y="199.6572"
textLength="1.4281" font-size="1.7333" lengthAdjust="spacingAndGlyphs"
text-anchor="start" opacity="0" stroke-opacity="0">4</text>
<g class="stroked-text"><desc>4</desc>
<path d="M185.9654 198.7341
L185.9654 199.6008
" />
<path d="M185.6558 198.2389
L185.3463 199.1675
" />
<path d="M185.3463 199.1675
L186.1511 199.1675
" />
</g></g>
<g style="fill:none; 
stroke:#000000; stroke-width:0.1500; stroke-opacity:1; 
stroke-linecap:round; stroke-linejoin:round;">
<text x="235.0000" y="199.6572"
textLength="1.4281" font-size="1.7333" lengthAdjust="spacingAndGlyphs"
text-anchor="start" opacity="0" stroke-opacity="0">5</text>
<g class="stroked-text"><desc>5</desc>
<path d="M236.0273 198.3008
L235.4082 198.3008
" />
<path d="M235.4082 198.3008
L235.3463 198.9199
" />
<path d="M235.3463 198.9199
L235.4082 198.8579
" />
<path d="M235.4082 198.8579
L235.5320 198.7960
" />
<path d="M235.5320 198.7960
L235.8415 198.7960
" />
<path d="M235.8415 198.7960
L235.9654 198.8579
" />
<path d="M235.9654 198.8579
L236.0273 198.9199
" />
<path d="M236.0273 198.9199
L236.0892 199.0437
" />
<path d="M236.0892 199.0437
L236.0892 199.3532
" />
<path d="M236.0892 199.3532
L236.0273 199.4770
" />
<path d="M236.0273 199.4770
L235.9654 199.5389
" />
<path d="M235.9654 199.5389
L235.8415 199.6008
" />
<path d="M235.8415 199.6008
L235.5320 199.6008
" />
<path d="M235.5320 199.6008
L235.4082 199.5389
" />
<path d="M235.4082 199.5389
L235.3463 199.4770
" />
</g></g>
<g style="fill:none; 
stroke:#000000; stroke-width:0.1500; stroke-opacity:1; 
stroke-linecap:round; stroke-linejoin:round;">
<text x="285.0000" y="199.6572"
textLength="1.4281" font-size="1.7333" lengthAdjust="spacingAndGlyphs"
text-anchor="start" opacity="0" stroke-opacity="0">6</text>
<g class="stroked-text"><desc>6</desc>
<path d="M285.9654 198.3008
L285.7177 198.3008
" />
<path d="M285.7177 198.3008
L285.5939 198.3627
" />
<path d="M285.5939 198.3627
L285.5320 198.4246
" />
<path d="M285.5320 198.4246
L285.4082 198.6103
" />
<path d="M285.4082 198.6103
L285.3463 198.8579
" />
<path d="M285.3463 198.8579
L285.3463 199.3532
" />
<path d="M285.3463 199.3532
L285.4082 199.4770
" />
<path d="M285.4082 199.4770
L285.4701 199.5389
" />
<path d="M285.4701 199.5389
L285.5939 199.6008
" />
<path d="M285.5939 199.6008
L285.8415 199.6008
" />
<path d="M285.8415 199.6008
L285.9654 199.5389
" />
<path d="M285.9654 199.5389
L286.0273 199.4770
" />
<path d="M286.0273 199.4770
L286.0892 199.3532
" />
<path d="M286.0892 199.3532
L286.0892 199.0437
" />
<path d="M286.0892 199.0437
L286.0273 198.9199
" />
<path d="M286.0273 198.9199
L285.9654 198.8579
" />
<path d="M285.9654 198.8579
L285.8415 198.7960
" />
<path d="M285.8415 198.7960
L285.5939 198.7960
" />
<path d="M285.5939 198.7960
L285.4701 198.8579
" />
<path d="M285.4701 198.8579
L285.4082 198.9199
" />
<path d="M285.4082 198.9199
L285.3463 199.0437
" />
</g></g>
<g style="fill:none; 
stroke:#000000; stroke-width:0.1500; stroke-opacity:1; 
stroke-linecap:round; stroke-linejoin:round;">
<path d="M10.0000 60.0000
L12.0000 60.0000
" />
</g>
<g style="fill:none; 
stroke:#000000; stroke-width:0.1500; stroke-opacity:1; 
stroke-linecap:round; stroke-linejoin:round;">
<path d="M10.0000 110.0000
L12.0000 110.0000
" />
</g>
<g style="fill:none; 
stroke:#000000; stroke-width:0.1500; stroke-opacity:1; 
stroke-linecap:round; stroke-linejoin:round;">
<path d="M10.0000 160.0000
L12.0000 160.0000
" />
</g>
<g style="fill:none; 
stroke:#000000; stroke-width:0.1500; stroke-opacity:1; 
stroke-linecap:round; stroke-linejoin:round;">
<text x="11.0000" y="35.6500"
textLength="1.3043" font-size="1.7333" lengthAdjust="spacingAndGlyphs"
text-anchor="middle" opacity="0" stroke-opacity="0">A</text>
<g class="stroked-text"><desc>A</desc>
<path d="M10.6905 35.2222
L11.3095 35.2222
" />
<path d="M10.5667 35.5936
L11.0000 34.2936
" />
<path d="M11.0000 34.2936
L11.4333 35.5936
" />
</g></g>
<g style="fill:none; 
stroke:#000000; stroke-width:0.1500; stroke-opacity:1; 
stroke-linecap:round; stroke-linejoin:round;">
<text x="11.0000" y="85.6500"
textLength="1.4900" font-size="1.7333" lengthAdjust="spacingAndGlyphs"
text-anchor="middle" opacity="0" stroke-opacity="0">B</text>
<g class="stroked-text"><desc>B</desc>
<path d="M11.0929 84.9127
L11.2786 84.9746
" />
<path d="M11.2786 84.9746
L11.3405 85.0365
" />
<path d="M11.3405 85.0365
L11.4024 85.1603
" />
<path d="M11.4024 85.1603
L11.4024 85.3460
" />
<path d="M11.4024 85.3460
L11.3405 85.4698
" />
<path d="M11.3405 85.4698
L11.2786 85.5317
" />
<path d="M11.2786 85.5317
L11.1548 85.5936
" />
<path d="M11.1548 85.5936
L10.6595 85.5936
" />
<path d="M10.6595 85.5936
L10.6595 84.2936
" />
<path d="M10.6595 84.2936
L11.0929 84.2936
" />
<path d="M11.0929 84.2936
L11.2167 84.3555
" />
<path d="M11.2167 84.3555
L11.2786 84.4174
" />
<path d="M11.2786 84.4174
L11.3405 84.5412
" />
<path d="M11.3405 84.5412
L11.3405 84.6650
" />
<path d="M11.3405 84.6650
L11.2786 84.7888
" />
<path d="M11.2786 84.7888
L11.2167 84.8507
" />
<path d="M11.2167 84.8507
L11.0929 84.9127
" />
<path d="M11.0929 84.9127
L10.6595 84.9127
" />
</g></g>
<g style="fill:none; 
stroke:#000000; stroke-width:0.1500; stroke-opacity:1; 
stroke-linecap:round; stroke-linejoin:round;">
<text x="11.0000" y="135.6500"
textLength="1.4900" font-size="1.7333" lengthAdjust="spacingAndGlyphs"
text-anchor="middle" opacity="0" stroke-opacity="0">C</text>
<g class="stroked-text"><desc>C</desc>
<path d="M11.4024 135.4698
L11.3405 135.5317
" />
<path d="M11.3405 135.5317
L11.1548 135.5936
" />
<path d="M11.1548 135.5936
L11.0310 135.5936
" />
<path d="M11.0310 135.5936
L10.8452 135.5317
" />
<path d="M10.8452 135.5317
L10.7214 135.4079
" />
<path d="M10.7214 135.4079
L10.6595 135.2841
" />
<path d="M10.6595 135.2841
L10.5976 135.0365
" />
<path d="M10.5976 135.0365
L10.5976 134.8507
" />
<path d="M10.5976 134.8507
L10.6595 134.6031
" />
<path d="M10.6595 134.6031
L10.7214 134.4793
" />
<path d="M10.7214 134.4793
L10.8452 134.3555
" />
<path d="M10.8452 134.3555
L11.0310 134.2936
" />
<path d="M11.0310 134.2936
L11.1548 134.2936
" />
<path d="M11.1548 134.2936
L11.3405 134.3555
" />
<path d="M11.3405 134.3555
L11.4024 134.4174
" />
</g></g>
<g style="fill:none; 
stroke:#000000; stroke-width:0.1500; stroke-opacity:1; 
stroke-linecap:round; stroke-linejoin:round;">
<text x="11.0000" y="185.6500"
textLength="1.4900" font-size="1.7333" lengthAdjust="spacingAndGlyphs"
text-anchor="middle" opacity="0" stroke-opacity="0">D</text>
<g class="stroked-text"><desc>D</desc>
<path d="M10.6595 185.5936
L10.6595 184.2936
" />
<path d="M10.6595 184.2936
L10.9690 184.2936
" />
<path d="M10.9690 184.2936
L11.1548 184.3555
" />
<path d="M11.1548 184.3555
L11.2786 184.4793
" />
<path d="M11.2786 184.4793
L11.3405 184.6031
" />
<path d="M11.3405 184.6031
L11.4024 184.8507
" />
<path d="M11.4024 184.8507
L11.4024 185.0365
" />
<path d="M11.4024 185.0365
L11.3405 185.2841
" />
<path d="M11.3405 185.2841
L11.2786 185.4079
" />
<path d="M11.2786 185.4079
L11.1548 185.5317
" />
<path d="M11.1548 185.5317
L10.9690 185.5936
" />
<path d="M10.9690 185.5936
L10.6595 185.5936
" />
</g></g>
<g style="fill:none; 
stroke:#000000; stroke-width:0.1500; stroke-opacity:1; 
stroke-linecap:round; stroke-linejoin:round;">
<path d="M287.0022 60.0000
L285.0022 60.0000
" />
</g>
<g style="fill:none; 
stroke:#000000; stroke-width:0.1500; stroke-opacity:1; 
stroke-linecap:round; stroke-linejoin:round;">
<path d="M287.0022 110.0000
L285.0022 110.0000
" />
</g>
<g style="fill:none; 
stroke:#000000; stroke-width:0.1500; stroke-opacity:1; 
stroke-linecap:round; stroke-linejoin:round;">
<path d="M287.0022 160.0000
L285.0022 160.0000
" />
</g>
<g style="fill:none; 
stroke:#000000; stroke-width:0.1500; stroke-opacity:1; 
stroke-linecap:round; stroke-linejoin:round;">
<text x="286.0022" y="35.6500"
textLength="1.3043" font-size="1.7333" lengthAdjust="spacingAndGlyphs"
text-anchor="middle" opacity="0" stroke-opacity="0">A</text>
<g class="stroked-text"><desc>A</desc>
<path d="M285.6927 35.2222
L286.3117 35.2222
" />
<path d="M285.5689 35.5936
L286.0022 34.2936
" />
<path d="M286.0022 34.2936
L286.4355 35.5936
" />
</g></g>
<g style="fill:none; 
stroke:#000000; stroke-width:0.1500; stroke-opacity:1; 
stroke-linecap:round; stroke-linejoin:round;">
<text x="286.0022" y="85.6500"
textLength="1.4900" font-size="1.7333" lengthAdjust="spacingAndGlyphs"
text-anchor="middle" opacity="0" stroke-opacity="0">B</text>
<g class="stroked-text"><desc>B</desc>
<path d="M286.0951 84.9127
L286.2808 84.9746
" />
<path d="M286.2808 84.9746
L286.3427 85.0365
" />
<path d="M286.3427 85.0365
L286.4046 85.1603
" />
<path d="M286.4046 85.1603
L286.4046 85.3460
" />
<path d="M286.4046 85.3460
L286.3427 85.4698
" />
<path d="M286.3427 85.4698
L286.2808 85.5317
" />
<path d="M286.2808 85.5317
L286.1570 85.5936
" />
<path d="M286.1570 85.5936
L285.6617 85.5936
" />
<path d="M285.6617 85.5936
L285.6617 84.2936
" />
<path d="M285.6617 84.2936
L286.0951 84.2936
" />
<path d="M286.0951 84.2936
L286.2189 84.3555
" />
<path d="M286.2189 84.3555
L286.2808 84.4174
" />
<path d="M286.2808 84.4174
L286.3427 84.5412
" />
<path d="M286.3427 84.5412
L286.3427 84.6650
" />
<path d="M286.3427 84.6650
L286.2808 84.7888
" />
<path d="M286.2808 84.7888
L286.2189 84.8507
" />
<path d="M286.2189 84.8507
L286.0951 84.9127
" />
<path d="M286.0951 84.9127
L285.6617 84.9127
" />
</g></g>
<g style="fill:none; 
stroke:#000000; stroke-width:0.1500; stroke-opacity:1; 
stroke-linecap:round; stroke-linejoin:round;">
<text x="286.0022" y="135.6500"
textLength="1.4900" font-size="1.7333" lengthAdjust="spacingAndGlyphs"
text-anchor="middle" opacity="0" stroke-opacity="0">C</text>
<g class="stroked-text"><desc>C</desc>
<path d="M286.4046 135.4698
L286.3427 135.5317
" />
<path d="M286.3427 135.5317
L286.1570 135.5936
" />
<path d="M286.1570 135.5936
L286.0332 135.5936
" />
<path d="M286.0332 135.5936
L285.8474 135.5317
" />
<path d="M285.8474 135.5317
L285.7236 135.4079
" />
<path d="M285.7236 135.4079
L285.6617 135.2841
" />
<path d="M285.6617 135.2841
L285.5998 135.0365
" />
<path d="M285.5998 135.0365
L285.5998 134.8507
" />
<path d="M285.5998 134.8507
L285.6617 134.6031
" />
<path d="M285.6617 134.6031
L285.7236 134.4793
" />
<path d="M285.7236 134.4793
L285.8474 134.3555
" />
<path d="M285.8474 134.3555
L286.0332 134.2936
" />
<path d="M286.0332 134.2936
L286.1570 134.2936
" />
<path d="M286.1570 134.2936
L286.3427 134.3555
" />
<path d="M286.3427 134.3555
L286.4046 134.4174
" />
</g></g>
<g style="fill:none; 
stroke:#000000; stroke-width:0.1500; stroke-opacity:1; 
stroke-linecap:round; stroke-linejoin:round;">
<text x="286.0022" y="185.6500"
textLength="1.4900" font-size="1.7333" lengthAdjust="spacingAndGlyphs"
text-anchor="middle" opacity="0" stroke-opacity="0">D</text>
<g class="stroked-text"><desc>D</desc>
<path d="M285.6617 185.5936
L285.6617 184.2936
" />
<path d="M285.6617 184.2936
L285.9712 184.2936
" />
<path d="M285.9712 184.2936
L286.1570 184.3555
" />
<path d="M286.1570 184.3555
L286.2808 184.4793
" />
<path d="M286.2808 184.4793
L286.3427 184.6031
" />
<path d="M286.3427 184.6031
L286.4046 184.8507
" />
<path d="M286.4046 184.8507
L286.4046 185.0365
" />
<path d="M286.4046 185.0365
L286.3427 185.2841
" />
<path d="M286.3427 185.2841
L286.2808 185.4079
" />
<path d="M286.2808 185.4079
L286.1570 185.5317
" />
<path d="M286.1570 185.5317
L285.9712 185.5936
" />
<path d="M285.9712 185.5936
L285.6617 185.5936
" />
</g></g>
<g style="fill:none; 
stroke:#000000; stroke-width:0.1500; stroke-opacity:1; 
stroke-linecap:round; stroke-linejoin:round;">
<text x="200.0022" y="193.8572"
textLength="22.1500" font-size="2.0000" lengthAdjust="spacingAndGlyphs"
text-anchor="start" opacity="0" stroke-opacity="0">Date: 2025-05-12</text>
<g class="stroked-text"><desc>Date: 2025-05-12</desc>
<path d="M200.4580 193.7933
L200.4580 192.2933
" />
<path d="M200.4580 192.2933
L200.8152 192.2933
" />
<path d="M200.8152 192.2933
L201.0295 192.3648
" />
<path d="M201.0295 192.3648
L201.1723 192.5076
" />
<path d="M201.1723 192.5076
L201.2437 192.6505
" />
<path d="M201.2437 192.6505
L201.3152 192.9362
" />
<path d="M201.3152 192.9362
L201.3152 193.1505
" />
<path d="M201.3152 193.1505
L201.2437 193.4362
" />
<path d="M201.2437 193.4362
L201.1723 193.5790
" />
<path d="M201.1723 193.5790
L201.0295 193.7219
" />
<path d="M201.0295 193.7219
L200.8152 193.7933
" />
<path d="M200.8152 193.7933
L200.4580 193.7933
" />
<path d="M202.6009 193.7933
L202.6009 193.0076
" />
<path d="M202.6009 193.0076
L202.5295 192.8648
" />
<path d="M202.5295 192.8648
L202.3866 192.7933
" />
<path d="M202.3866 192.7933
L202.1009 192.7933
" />
<path d="M202.1009 192.7933
L201.9580 192.8648
" />
<path d="M202.6009 193.7219
L202.4580 193.7933
" />
<path d="M202.4580 193.7933
L202.1009 193.7933
" />
<path d="M202.1009 193.7933
L201.9580 193.7219
" />
<path d="M201.9580 193.7219
L201.8866 193.5790
" />
<path d="M201.8866 193.5790
L201.8866 193.4362
" />
<path d="M201.8866 193.4362
L201.9580 193.2933
" />
<path d="M201.9580 193.2933
L202.1009 193.2219
" />
<path d="M202.1009 193.2219
L202.4580 193.2219
" />
<path d="M202.4580 193.2219
L202.6009 193.1505
" />
<path d="M203.1009 192.7933
L203.6723 192.7933
" />
<path d="M203.3152 192.2933
L203.3152 193.5790
" />
<path d="M203.3152 193.5790
L203.3866 193.7219
" />
<path d="M203.3866 193.7219
L203.5295 193.7933
" />
<path d="M203.5295 193.7933
L203.6723 193.7933
" />
<path d="M204.7437 193.7219
L204.6009 193.7933
" />
<path d="M204.6009 193.7933
L204.3152 193.7933
" />
<path d="M204.3152 193.7933
L204.1723 193.7219
" />
<path d="M204.1723 193.7219
L204.1009 193.5790
" />
<path d="M204.1009 193.5790
L204.1009 193.0076
" />
<path d="M204.1009 193.0076
L204.1723 192.8648
" />
<path d="M204.1723 192.8648
L204.3152 192.7933
" />
<path d="M204.3152 192.7933
L204.6009 192.7933
" />
<path d="M204.6009 192.7933
L204.7437 192.8648
" />
<path d="M204.7437 192.8648
L204.8152 193.0076
" />
<path d="M204.8152 193.0076
L204.8152 193.1505
" />
<path d="M204.8152 193.1505
L204.1009 193.2933
" />
<path d="M205.4580 193.6505
L205.5295 193.7219
" />
<path d="M205.5295 193.7219
L205.4580 193.7933
" />
<path d="M205.4580 193.7933
L205.3866 193.7219
" />
<path d="M205.3866 193.7219
L205.4580 193.6505
" />
<path d="M205.4580 193.6505
L205.4580 193.7933
" />
<path d="M205.4580 192.8648
L205.5295 192.9362
" />
<path d="M205.5295 192.9362
L205.4580 193.0076
" />
<path d="M205.4580 193.0076
L205.3866 192.9362
" />
<path d="M205.3866 192.9362
L205.4580 192.8648
" />
<path d="M205.4580 192.8648
L205.4580 193.0076
" />
<path d="M207.2437 192.4362
L207.3152 192.3648
" />
<path d="M207.3152 192.3648
L207.4580 192.2933
" />
<path d="M207.4580 192.2933
L207.8152 192.2933
" />
<path d="M207.8152 192.2933
L207.9580 192.3648
" />
<path d="M207.9580 192.3648
L208.0295 192.4362
" />
<path d="M208.0295 192.4362
L208.1009 192.5790
" />
<path d="M208.1009 192.5790
L208.1009 192.7219
" />
<path d="M208.1009 192.7219
L208.0295 192.9362
" />
<path d="M208.0295 192.9362
L207.1723 193.7933
" />
<path d="M207.1723 193.7933
L208.1009 193.7933
" />
<path d="M209.0295 192.2933
L209.1723 192.2933
" />
<path d="M209.1723 192.2933
L209.3152 192.3648
" />
<path d="M209.3152 192.3648
L209.3866 192.4362
" />
<path d="M209.3866 192.4362
L209.4580 192.5790
" />
<path d="M209.4580 192.5790
L209.5295 192.8648
" />
<path d="M209.5295 192.8648
L209.5295 193.2219
" />
<path d="M209.5295 193.2219
L209.4580 193.5076
" />
<path d="M209.4580 193.5076
L209.3866 193.6505
" />
<path d="M209.3866 193.6505
L209.3152 193.7219
" />
<path d="M209.3152 193.7219
L209.1723 193.7933
" />
<path d="M209.1723 193.7933
L209.0295 193.7933
" />
<path d="M209.0295 193.7933
L208.8866 193.7219
" />
<path d="M208.8866 193.7219
L208.8152 193.6505
" />
<path d="M208.8152 193.6505
L208.7437 193.5076
" />
<path d="M208.7437 193.5076
L208.6723 193.2219
" />
<path d="M208.6723 193.2219
L208.6723 192.8648
" />
<path d="M208.6723 192.8648
L208.7437 192.5790
" />
<path d="M208.7437 192.5790
L208.8152 192.4362
" />
<path d="M208.8152 192.4362
L208.8866 192.3648
" />
<path d="M208.8866 192.3648
L209.0295 192.2933
" />
<path d="M210.1009 192.4362
L210.1723 192.3648
" />
<path d="M210.1723 192.3648
L210.3152 192.2933
" />
<path d="M210.3152 192.2933
L210.6723 192.2933
" />
<path d="M210.6723 192.2933
L210.8152 192.3648
" />
<path d="M210.8152 192.3648
L210.8866 192.4362
" />
<path d="M210.8866 192.4362
L210.9580 192.5790
" />
<path d="M210.9580 192.5790
L210.9580 192.7219
" />
<path d="M210.9580 192.7219
L210.8866 192.9362
" />
<path d="M210.8866 192.9362
L210.0295 193.7933
" />
<path d="M210.0295 193.7933
L210.9580 193.7933
" />
<path d="M212.3152 192.2933
L211.6009 192.2933
" />
<path d="M211.6009 192.2933
L211.5295 193.0076
" />
<path d="M211.5295 193.0076
L211.6009 192.9362
" />
<path d="M211.6009 192.9362
L211.7437 192.8648
" />
<path d="M211.7437 192.8648
L212.1009 192.8648
" />
<path d="M212.1009 192.8648
L212.2437 192.9362
" />
<path d="M212.2437 192.9362
L212.3152 193.0076
" />
<path d="M212.3152 193.0076
L212.3866 193.1505
" />
<path d="M212.3866 193.1505
L212.3866 193.5076
" />
<path d="M212.3866 193.5076
L212.3152 193.6505
" />
<path d="M212.3152 193.6505
L212.2437 193.7219
" />
<path d="M212.2437 193.7219
L212.1009 193.7933
" />
<path d="M212.1009 193.7933
L211.7437 193.7933
" />
<path d="M211.7437 193.7933
L211.6009 193.7219
" />
<path d="M211.6009 193.7219
L211.5295 193.6505
" />
<path d="M213.0295 193.2219
L214.1723 193.2219
" />
<path d="M215.1723 192.2933
L215.3152 192.2933
" />
<path d="M215.3152 192.2933
L215.4580 192.3648
" />
<path d="M215.4580 192.3648
L215.5295 192.4362
" />
<path d="M215.5295 192.4362
L215.6009 192.5790
" />
<path d="M215.6009 192.5790
L215.6723 192.8648
" />
<path d="M215.6723 192.8648
L215.6723 193.2219
" />
<path d="M215.6723 193.2219
L215.6009 193.5076
" />
<path d="M215.6009 193.5076
L215.5295 193.6505
" />
<path d="M215.5295 193.6505
L215.4580 193.7219
" />
<path d="M215.4580 193.7219
L215.3152 193.7933
" />
<path d="M215.3152 193.7933
L215.1723 193.7933
" />
<path d="M215.1723 193.7933
L215.0295 193.7219
" />
<path d="M215.0295 193.7219
L214.9580 193.6505
" />
<path d="M214.9580 193.6505
L214.8866 193.5076
" />
<path d="M214.8866 193.5076
L214.8152 193.2219
" />
<path d="M214.8152 193.2219
L214.8152 192.8648
" />
<path d="M214.8152 192.8648
L214.8866 192.5790
" />
<path d="M214.8866 192.5790
L214.9580 192.4362
" />
<path d="M214.9580 192.4362
L215.0295 192.3648
" />
<path d="M215.0295 192.3648
L215.1723 192.2933
" />
<path d="M217.0295 192.2933
L216.3152 192.2933
" />
<path d="M216.3152 192.2933
L216.2437 193.0076
" />
<path d="M216.2437 193.0076
L216.3152 192.9362
" />
<path d="M216.3152 192.9362
L216.4580 192.8648
" />
<path d="M216.4580 192.8648
L216.8152 192.8648
" />
<path d="M216.8152 192.8648
L216.9580 192.9362
" />
<path d="M216.9580 192.9362
L217.0295 193.0076
" />
<path d="M217.0295 193.0076
L217.1009 193.1505
" />
<path d="M217.1009 193.1505
L217.1009 193.5076
" />
<path d="M217.1009 193.5076
L217.0295 193.6505
" />
<path d="M217.0295 193.6505
L216.9580 193.7219
" />
<path d="M216.9580 193.7219
L216.8152 193.7933
" />
<path d="M216.8152 193.7933
L216.4580 193.7933
" />
<path d="M216.4580 193.7933
L216.3152 193.7219
" />
<path d="M216.3152 193.7219
L216.2437 193.6505
" />
<path d="M217.7437 193.2219
L218.8866 193.2219
" />
<path d="M220.3866 193.7933
L219.5295 193.7933
" />
<path d="M219.9580 193.7933
L219.9580 192.2933
" />
<path d="M219.9580 192.2933
L219.8152 192.5076
" />
<path d="M219.8152 192.5076
L219.6723 192.6505
" />
<path d="M219.6723 192.6505
L219.5295 192.7219
" />
<path d="M220.9580 192.4362
L221.0295 192.3648
" />
<path d="M221.0295 192.3648
L221.1723 192.2933
" />
<path d="M221.1723 192.2933
L221.5295 192.2933
" />
<path d="M221.5295 192.2933
L221.6723 192.3648
" />
<path d="M221.6723 192.3648
L221.7437 192.4362
" />
<path d="M221.7437 192.4362
L221.8152 192.5790
" />
<path d="M221.8152 192.5790
L221.8152 192.7219
" />
<path d="M221.8152 192.7219
L221.7437 192.9362
" />
<path d="M221.7437 192.9362
L220.8866 193.7933
" />
<path d="M220.8866 193.7933
L221.8152 193.7933
" />
</g></g>
<g style="fill:none; 
stroke:#000000; stroke-width:0.1500; stroke-opacity:1; 
stroke-linecap:round; stroke-linejoin:round;">
<path d="M177.0022 194.5072
L285.0022 194.5072
" />
</g>
<g style="fill:none; 
stroke:#000000; stroke-width:0.1500; stroke-opacity:1; 
stroke-linecap:round; stroke-linejoin:round;">
<text x="178.0022" y="196.6572"
textLength="20.6500" font-size="2.0000" lengthAdjust="spacingAndGlyphs"
text-anchor="start" opacity="0" stroke-opacity="0">${KICAD_VERSION}</text>
<g class="stroked-text"><desc>${KICAD_VERSION}</desc>
<path d="M178.3866 196.5219
L178.6009 196.5933
" />
<path d="M178.6009 196.5933
L178.9580 196.5933
" />
<path d="M178.9580 196.5933
L179.1009 196.5219
" />
<path d="M179.1009 196.5219
L179.1723 196.4505
" />
<path d="M179.1723 196.4505
L179.2437 196.3076
" />
<path d="M179.2437 196.3076
L179.2437 196.1648
" />
<path d="M179.2437 196.1648
L179.1723 196.0219
" />
<path d="M179.1723 196.0219
L179.1009 195.9505
" />
<path d="M179.1009 195.9505
L178.9580 195.8790
" />
<path d="M178.9580 195.8790
L178.6723 195.8076
" />
<path d="M178.6723 195.8076
L178.5295 195.7362
" />
<path d="M178.5295 195.7362
L178.4580 195.6648
" />
<path d="M178.4580 195.6648
L178.3866 195.5219
" />
<path d="M178.3866 195.5219
L178.3866 195.3790
" />
<path d="M178.3866 195.3790
L178.4580 195.2362
" />
<path d="M178.4580 195.2362
L178.5295 195.1648
" />
<path d="M178.5295 195.1648
L178.6723 195.0933
" />
<path d="M178.6723 195.0933
L179.0295 195.0933
" />
<path d="M179.0295 195.0933
L179.2437 195.1648
" />
<path d="M178.8152 194.8790
L178.8152 196.8076
" />
<path d="M180.3152 197.1648
L180.2437 197.1648
" />
<path d="M180.2437 197.1648
L180.1009 197.0933
" />
<path d="M180.1009 197.0933
L180.0295 196.9505
" />
<path d="M180.0295 196.9505
L180.0295 196.2362
" />
<path d="M180.0295 196.2362
L179.9580 196.0933
" />
<path d="M179.9580 196.0933
L179.8152 196.0219
" />
<path d="M179.8152 196.0219
L179.9580 195.9505
" />
<path d="M179.9580 195.9505
L180.0295 195.8076
" />
<path d="M180.0295 195.8076
L180.0295 195.0933
" />
<path d="M180.0295 195.0933
L180.1009 194.9505
" />
<path d="M180.1009 194.9505
L180.2437 194.8790
" />
<path d="M180.2437 194.8790
L180.3152 194.8790
" />
<path d="M180.8866 196.5933
L180.8866 195.0933
" />
<path d="M181.7437 196.5933
L181.1009 195.7362
" />
<path d="M181.7437 195.0933
L180.8866 195.9505
" />
<path d="M182.3866 196.5933
L182.3866 195.0933
" />
<path d="M183.9580 196.4505
L183.8866 196.5219
" />
<path d="M183.8866 196.5219
L183.6723 196.5933
" />
<path d="M183.6723 196.5933
L183.5295 196.5933
" />
<path d="M183.5295 196.5933
L183.3152 196.5219
" />
<path d="M183.3152 196.5219
L183.1723 196.3790
" />
<path d="M183.1723 196.3790
L183.1009 196.2362
" />
<path d="M183.1009 196.2362
L183.0295 195.9505
" />
<path d="M183.0295 195.9505
L183.0295 195.7362
" />
<path d="M183.0295 195.7362
L183.1009 195.4505
" />
<path d="M183.1009 195.4505
L183.1723 195.3076
" />
<path d="M183.1723 195.3076
L183.3152 195.1648
" />
<path d="M183.3152 195.1648
L183.5295 195.0933
" />
<path d="M183.5295 195.0933
L183.6723 195.0933
" />
<path d="M183.6723 195.0933
L183.8866 195.1648
" />
<path d="M183.8866 195.1648
L183.9580 195.2362
" />
<path d="M184.5295 196.1648
L185.2437 196.1648
" />
<path d="M184.3866 196.5933
L184.8866 195.0933
" />
<path d="M184.8866 195.0933
L185.3866 196.5933
" />
<path d="M185.8866 196.5933
L185.8866 195.0933
" />
<path d="M185.8866 195.0933
L186.2437 195.0933
" />
<path d="M186.2437 195.0933
L186.4580 195.1648
" />
<path d="M186.4580 195.1648
L186.6009 195.3076
" />
<path d="M186.6009 195.3076
L186.6723 195.4505
" />
<path d="M186.6723 195.4505
L186.7437 195.7362
" />
<path d="M186.7437 195.7362
L186.7437 195.9505
" />
<path d="M186.7437 195.9505
L186.6723 196.2362
" />
<path d="M186.6723 196.2362
L186.6009 196.3790
" />
<path d="M186.6009 196.3790
L186.4580 196.5219
" />
<path d="M186.4580 196.5219
L186.2437 196.5933
" />
<path d="M186.2437 196.5933
L185.8866 196.5933
" />
<path d="M187.0295 196.7362
L188.1723 196.7362
" />
<path d="M188.3152 195.0933
L188.8152 196.5933
" />
<path d="M188.8152 196.5933
L189.3152 195.0933
" />
<path d="M189.8152 195.8076
L190.3152 195.8076
" />
<path d="M190.5295 196.5933
L189.8152 196.5933
" />
<path d="M189.8152 196.5933
L189.8152 195.0933
" />
<path d="M189.8152 195.0933
L190.5295 195.0933
" />
<path d="M192.0295 196.5933
L191.5295 195.8790
" />
<path d="M191.1723 196.5933
L191.1723 195.0933
" />
<path d="M191.1723 195.0933
L191.7437 195.0933
" />
<path d="M191.7437 195.0933
L191.8866 195.1648
" />
<path d="M191.8866 195.1648
L191.9580 195.2362
" />
<path d="M191.9580 195.2362
L192.0295 195.3790
" />
<path d="M192.0295 195.3790
L192.0295 195.5933
" />
<path d="M192.0295 195.5933
L191.9580 195.7362
" />
<path d="M191.9580 195.7362
L191.8866 195.8076
" />
<path d="M191.8866 195.8076
L191.7437 195.8790
" />
<path d="M191.7437 195.8790
L191.1723 195.8790
" />
<path d="M192.6009 196.5219
L192.8152 196.5933
" />
<path d="M192.8152 196.5933
L193.1723 196.5933
" />
<path d="M193.1723 196.5933
L193.3152 196.5219
" />
<path d="M193.3152 196.5219
L193.3866 196.4505
" />
<path d="M193.3866 196.4505
L193.4580 196.3076
" />
<path d="M193.4580 196.3076
L193.4580 196.1648
" />
<path d="M193.4580 196.1648
L193.3866 196.0219
" />
<path d="M193.3866 196.0219
L193.3152 195.9505
" />
<path d="M193.3152 195.9505
L193.1723 195.8790
" />
<path d="M193.1723 195.8790
L192.8866 195.8076
" />
<path d="M192.8866 195.8076
L192.7437 195.7362
" />
<path d="M192.7437 195.7362
L192.6723 195.6648
" />
<path d="M192.6723 195.6648
L192.6009 195.5219
" />
<path d="M192.6009 195.5219
L192.6009 195.3790
" />
<path d="M192.6009 195.3790
L192.6723 195.2362
" />
<path d="M192.6723 195.2362
L192.7437 195.1648
" />
<path d="M192.7437 195.1648
L192.8866 195.0933
" />
<path d="M192.8866 195.0933
L193.2437 195.0933
" />
<path d="M193.2437 195.0933
L193.4580 195.1648
" />
<path d="M194.1009 196.5933
L194.1009 195.0933
" />
<path d="M195.1009 195.0933
L195.3866 195.0933
" />
<path d="M195.3866 195.0933
L195.5295 195.1648
" />
<path d="M195.5295 195.1648
L195.6723 195.3076
" />
<path d="M195.6723 195.3076
L195.7437 195.5933
" />
<path d="M195.7437 195.5933
L195.7437 196.0933
" />
<path d="M195.7437 196.0933
L195.6723 196.3790
" />
<path d="M195.6723 196.3790
L195.5295 196.5219
" />
<path d="M195.5295 196.5219
L195.3866 196.5933
" />
<path d="M195.3866 196.5933
L195.1009 196.5933
" />
<path d="M195.1009 196.5933
L194.9580 196.5219
" />
<path d="M194.9580 196.5219
L194.8152 196.3790
" />
<path d="M194.8152 196.3790
L194.7437 196.0933
" />
<path d="M194.7437 196.0933
L194.7437 195.5933
" />
<path d="M194.7437 195.5933
L194.8152 195.3076
" />
<path d="M194.8152 195.3076
L194.9580 195.1648
" />
<path d="M194.9580 195.1648
L195.1009 195.0933
" />
<path d="M196.3866 196.5933
L196.3866 195.0933
" />
<path d="M196.3866 195.0933
L197.2437 196.5933
" />
<path d="M197.2437 196.5933
L197.2437 195.0933
" />
<path d="M197.8152 197.1648
L197.8866 197.1648
" />
<path d="M197.8866 197.1648
L198.0295 197.0933
" />
<path d="M198.0295 197.0933
L198.1009 196.9505
" />
<path d="M198.1009 196.9505
L198.1009 196.2362
" />
<path d="M198.1009 196.2362
L198.1723 196.0933
" />
<path d="M198.1723 196.0933
L198.3152 196.0219
" />
<path d="M198.3152 196.0219
L198.1723 195.9505
" />
<path d="M198.1723 195.9505
L198.1009 195.8076
" />
<path d="M198.1009 195.8076
L198.1009 195.0933
" />
<path d="M198.1009 195.0933
L198.0295 194.9505
" />
<path d="M198.0295 194.9505
L197.8866 194.8790
" />
<path d="M197.8866 194.8790
L197.8152 194.8790
" />
</g></g>
<g style="fill:none; 
stroke:#000000; stroke-width:0.1500; stroke-opacity:1; 
stroke-linecap:round; stroke-linejoin:round;">
<path d="M177.0022 191.5072
L285.0022 191.5072
" />
</g>
<g style="fill:none; 
stroke:#000000; stroke-width:0.3000; stroke-opacity:1; 
stroke-linecap:round; stroke-linejoin:round;">
<text x="263.0022" y="193.8572"
textLength="6.3857" font-size="2.0000" lengthAdjust="spacingAndGlyphs"
text-anchor="start" opacity="0" stroke-opacity="0">Rev: </text>
<g class="stroked-text"><desc>Rev: </desc>
<path d="M264.4139 193.7855
L263.9139 193.0712
" />
<path d="M263.5567 193.7855
L263.5567 192.2855
" />
<path d="M263.5567 192.2855
L264.1281 192.2855
" />
<path d="M264.1281 192.2855
L264.2710 192.3570
" />
<path d="M264.2710 192.3570
L264.3424 192.4284
" />
<path d="M264.3424 192.4284
L264.4139 192.5712
" />
<path d="M264.4139 192.5712
L264.4139 192.7855
" />
<path d="M264.4139 192.7855
L264.3424 192.9284
" />
<path d="M264.3424 192.9284
L264.2710 192.9998
" />
<path d="M264.2710 192.9998
L264.1281 193.0712
" />
<path d="M264.1281 193.0712
L263.5567 193.0712
" />
<path d="M265.6281 193.7141
L265.4853 193.7855
" />
<path d="M265.4853 193.7855
L265.1996 193.7855
" />
<path d="M265.1996 193.7855
L265.0567 193.7141
" />
<path d="M265.0567 193.7141
L264.9853 193.5712
" />
<path d="M264.9853 193.5712
L264.9853 192.9998
" />
<path d="M264.9853 192.9998
L265.0567 192.8570
" />
<path d="M265.0567 192.8570
L265.1996 192.7855
" />
<path d="M265.1996 192.7855
L265.4853 192.7855
" />
<path d="M265.4853 192.7855
L265.6281 192.8570
" />
<path d="M265.6281 192.8570
L265.6996 192.9998
" />
<path d="M265.6996 192.9998
L265.6996 193.1427
" />
<path d="M265.6996 193.1427
L264.9853 193.2855
" />
<path d="M266.1996 192.7855
L266.5567 193.7855
" />
<path d="M266.5567 193.7855
L266.9139 192.7855
" />
<path d="M267.4853 193.6427
L267.5567 193.7141
" />
<path d="M267.5567 193.7141
L267.4853 193.7855
" />
<path d="M267.4853 193.7855
L267.4139 193.7141
" />
<path d="M267.4139 193.7141
L267.4853 193.6427
" />
<path d="M267.4853 193.6427
L267.4853 193.7855
" />
<path d="M267.4853 192.8570
L267.5567 192.9284
" />
<path d="M267.5567 192.9284
L267.4853 192.9998
" />
<path d="M267.4853 192.9998
L267.4139 192.9284
" />
<path d="M267.4139 192.9284
L267.4853 192.8570
" />
<path d="M267.4853 192.8570
L267.4853 192.9998
" />
</g></g>
<g style="fill:none; 
stroke:#000000; stroke-width:0.1500; stroke-opacity:1; 
stroke-linecap:round; stroke-linejoin:round;">
<text x="178.0022" y="193.8572"
textLength="9.3643" font-size="2.0000" lengthAdjust="spacingAndGlyphs"
text-anchor="start" opacity="0" stroke-opacity="0">Size: A4</text>
<g class="stroked-text"><desc>Size: A4</desc>
<path d="M178.3866 193.7219
L178.6009 193.7933
" />
<path d="M178.6009 193.7933
L178.9580 193.7933
" />
<path d="M178.9580 193.7933
L179.1009 193.7219
" />
<path d="M179.1009 193.7219
L179.1723 193.6505
" />
<path d="M179.1723 193.6505
L179.2437 193.5076
" />
<path d="M179.2437 193.5076
L179.2437 193.3648
" />
<path d="M179.2437 193.3648
L179.1723 193.2219
" />
<path d="M179.1723 193.2219
L179.1009 193.1505
" />
<path d="M179.1009 193.1505
L178.9580 193.0790
" />
<path d="M178.9580 193.0790
L178.6723 193.0076
" />
<path d="M178.6723 193.0076
L178.5295 192.9362
" />
<path d="M178.5295 192.9362
L178.4580 192.8648
" />
<path d="M178.4580 192.8648
L178.3866 192.7219
" />
<path d="M178.3866 192.7219
L178.3866 192.5790
" />
<path d="M178.3866 192.5790
L178.4580 192.4362
" />
<path d="M178.4580 192.4362
L178.5295 192.3648
" />
<path d="M178.5295 192.3648
L178.6723 192.2933
" />
<path d="M178.6723 192.2933
L179.0295 192.2933
" />
<path d="M179.0295 192.2933
L179.2437 192.3648
" />
<path d="M179.8866 193.7933
L179.8866 192.7933
" />
<path d="M179.8866 192.2933
L179.8152 192.3648
" />
<path d="M179.8152 192.3648
L179.8866 192.4362
" />
<path d="M179.8866 192.4362
L179.9580 192.3648
" />
<path d="M179.9580 192.3648
L179.8866 192.2933
" />
<path d="M179.8866 192.2933
L179.8866 192.4362
" />
<path d="M180.4580 192.7933
L181.2437 192.7933
" />
<path d="M181.2437 192.7933
L180.4580 193.7933
" />
<path d="M180.4580 193.7933
L181.2437 193.7933
" />
<path d="M182.3866 193.7219
L182.2437 193.7933
" />
<path d="M182.2437 193.7933
L181.9580 193.7933
" />
<path d="M181.9580 193.7933
L181.8152 193.7219
" />
<path d="M181.8152 193.7219
L181.7437 193.5790
" />
<path d="M181.7437 193.5790
L181.7437 193.0076
" />
<path d="M181.7437 193.0076
L181.8152 192.8648
" />
<path d="M181.8152 192.8648
L181.9580 192.7933
" />
<path d="M181.9580 192.7933
L182.2437 192.7933
" />
<path d="M182.2437 192.7933
L182.3866 192.8648
" />
<path d="M182.3866 192.8648
L182.4580 193.0076
" />
<path d="M182.4580 193.0076
L182.4580 193.1505
" />
<path d="M182.4580 193.1505
L181.7437 193.2933
" />
<path d="M183.1009 193.6505
L183.1723 193.7219
" />
<path d="M183.1723 193.7219
L183.1009 193.7933
" />
<path d="M183.1009 193.7933
L183.0295 193.7219
" />
<path d="M183.0295 193.7219
L183.1009 193.6505
" />
<path d="M183.1009 193.6505
L183.1009 193.7933
" />
<path d="M183.1009 192.8648
L183.1723 192.9362
" />
<path d="M183.1723 192.9362
L183.1009 193.0076
" />
<path d="M183.1009 193.0076
L183.0295 192.9362
" />
<path d="M183.0295 192.9362
L183.1009 192.8648
" />
<path d="M183.1009 192.8648
L183.1009 193.0076
" />
<path d="M184.8866 193.3648
L185.6009 193.3648
" />
<path d="M184.7437 193.7933
L185.2437 192.2933
" />
<path d="M185.2437 192.2933
L185.7437 193.7933
" />
<path d="M186.8866 192.7933
L186.8866 193.7933
" />
<path d="M186.5295 192.2219
L186.1723 193.2933
" />
<path d="M186.1723 193.2933
L187.1009 193.2933
" />
</g></g>
<g style="fill:none; 
stroke:#000000; stroke-width:0.1500; stroke-opacity:1; 
stroke-linecap:round; stroke-linejoin:round;">
<text x="263.0022" y="196.6572"
textLength="7.0786" font-size="2.0000" lengthAdjust="spacingAndGlyphs"
text-anchor="start" opacity="0" stroke-opacity="0">Id: /1</text>
<g class="stroked-text"><desc>Id: /1</desc>
<path d="M263.4580 196.5933
L263.4580 195.0933
" />
<path d="M264.8152 196.5933
L264.8152 195.0933
" />
<path d="M264.8152 196.5219
L264.6723 196.5933
" />
<path d="M264.6723 196.5933
L264.3866 196.5933
" />
<path d="M264.3866 196.5933
L264.2437 196.5219
" />
<path d="M264.2437 196.5219
L264.1723 196.4505
" />
<path d="M264.1723 196.4505
L264.1009 196.3076
" />
<path d="M264.1009 196.3076
L264.1009 195.8790
" />
<path d="M264.1009 195.8790
L264.1723 195.7362
" />
<path d="M264.1723 195.7362
L264.2437 195.6648
" />
<path d="M264.2437 195.6648
L264.3866 195.5933
" />
<path d="M264.3866 195.5933
L264.6723 195.5933
" />
<path d="M264.6723 195.5933
L264.8152 195.6648
" />
<path d="M265.5295 196.4505
L265.6009 196.5219
" />
<path d="M265.6009 196.5219
L265.5295 196.5933
" />
<path d="M265.5295 196.5933
L265.4580 196.5219
" />
<path d="M265.4580 196.5219
L265.5295 196.4505
" />
<path d="M265.5295 196.4505
L265.5295 196.5933
" />
<path d="M265.5295 195.6648
L265.6009 195.7362
" />
<path d="M265.6009 195.7362
L265.5295 195.8076
" />
<path d="M265.5295 195.8076
L265.4580 195.7362
" />
<path d="M265.4580 195.7362
L265.5295 195.6648
" />
<path d="M265.5295 195.6648
L265.5295 195.8076
" />
<path d="M268.4580 195.0219
L267.1723 196.9505
" />
<path d="M269.7437 196.5933
L268.8866 196.5933
" />
<path d="M269.3152 196.5933
L269.3152 195.0933
" />
<path d="M269.3152 195.0933
L269.1723 195.3076
" />
<path d="M269.1723 195.3076
L269.0295 195.4505
" />
<path d="M269.0295 195.4505
L268.8866 195.5219
" />
</g></g>
<g style="fill:none; 
stroke:#000000; stroke-width:0.1500; stroke-opacity:1; 
stroke-linecap:round; stroke-linejoin:round;">
<path d="M177.0022 187.5072
L285.0022 187.5072
" />
</g>
<g style="fill:none; 
stroke:#000000; stroke-width:0.4000; stroke-opacity:1; 
stroke-linecap:round; stroke-linejoin:round;">
<text x="178.0022" y="190.3072"
textLength="9.6571" font-size="2.6667" lengthAdjust="spacingAndGlyphs"
text-anchor="start" opacity="0" stroke-opacity="0">Title: </text>
<g class="stroked-text"><desc>Title: </desc>
<path d="M178.6939 188.2116
L179.8368 188.2116
" />
<path d="M179.0154 190.2116
L179.2654 188.2116
" />
<path d="M180.2535 190.2116
L180.4201 188.8783
" />
<path d="M180.5035 188.2116
L180.3963 188.3069
" />
<path d="M180.3963 188.3069
L180.4796 188.4021
" />
<path d="M180.4796 188.4021
L180.5868 188.3069
" />
<path d="M180.5868 188.3069
L180.5035 188.2116
" />
<path d="M180.5035 188.2116
L180.4796 188.4021
" />
<path d="M181.0868 188.8783
L181.8487 188.8783
" />
<path d="M181.4558 188.2116
L181.2415 189.9259
" />
<path d="M181.2415 189.9259
L181.3130 190.1164
" />
<path d="M181.3130 190.1164
L181.4915 190.2116
" />
<path d="M181.4915 190.2116
L181.6820 190.2116
" />
<path d="M182.6344 190.2116
L182.4558 190.1164
" />
<path d="M182.4558 190.1164
L182.3844 189.9259
" />
<path d="M182.3844 189.9259
L182.5987 188.2116
" />
<path d="M184.1701 190.1164
L183.9677 190.2116
" />
<path d="M183.9677 190.2116
L183.5868 190.2116
" />
<path d="M183.5868 190.2116
L183.4082 190.1164
" />
<path d="M183.4082 190.1164
L183.3368 189.9259
" />
<path d="M183.3368 189.9259
L183.4320 189.1640
" />
<path d="M183.4320 189.1640
L183.5511 188.9735
" />
<path d="M183.5511 188.9735
L183.7535 188.8783
" />
<path d="M183.7535 188.8783
L184.1344 188.8783
" />
<path d="M184.1344 188.8783
L184.3130 188.9735
" />
<path d="M184.3130 188.9735
L184.3844 189.1640
" />
<path d="M184.3844 189.1640
L184.3606 189.3545
" />
<path d="M184.3606 189.3545
L183.3844 189.5450
" />
<path d="M185.1344 190.0212
L185.2177 190.1164
" />
<path d="M185.2177 190.1164
L185.1106 190.2116
" />
<path d="M185.1106 190.2116
L185.0273 190.1164
" />
<path d="M185.0273 190.1164
L185.1344 190.0212
" />
<path d="M185.1344 190.0212
L185.1106 190.2116
" />
<path d="M185.2654 188.9735
L185.3487 189.0688
" />
<path d="M185.3487 189.0688
L185.2415 189.1640
" />
<path d="M185.2415 189.1640
L185.1582 189.0688
" />
<path d="M185.1582 189.0688
L185.2654 188.9735
" />
<path d="M185.2654 188.9735
L185.2415 189.1640
" />
</g></g>
<g style="fill:none; 
stroke:#000000; stroke-width:0.1500; stroke-opacity:1; 
stroke-linecap:round; stroke-linejoin:round;">
<text x="178.0022" y="186.4572"
textLength="27.4357" font-size="2.0000" lengthAdjust="spacingAndGlyphs"
text-anchor="start" opacity="0" stroke-opacity="0">File: BeeLight.kicad_pcb</text>
<g class="stroked-text"><desc>File: BeeLight.kicad_pcb</desc>
<path d="M178.9580 185.6076
L178.4580 185.6076
" />
<path d="M178.4580 186.3933
L178.4580 184.8933
" />
<path d="M178.4580 184.8933
L179.1723 184.8933
" />
<path d="M179.7437 186.3933
L179.7437 185.3933
" />
<path d="M179.7437 184.8933
L179.6723 184.9648
" />
<path d="M179.6723 184.9648
L179.7437 185.0362
" />
<path d="M179.7437 185.0362
L179.8152 184.9648
" />
<path d="M179.8152 184.9648
L179.7437 184.8933
" />
<path d="M179.7437 184.8933
L179.7437 185.0362
" />
<path d="M180.6723 186.3933
L180.5295 186.3219
" />
<path d="M180.5295 186.3219
L180.4580 186.1790
" />
<path d="M180.4580 186.1790
L180.4580 184.8933
" />
<path d="M181.8152 186.3219
L181.6723 186.3933
" />
<path d="M181.6723 186.3933
L181.3866 186.3933
" />
<path d="M181.3866 186.3933
L181.2437 186.3219
" />
<path d="M181.2437 186.3219
L181.1723 186.1790
" />
<path d="M181.1723 186.1790
L181.1723 185.6076
" />
<path d="M181.1723 185.6076
L181.2437 185.4648
" />
<path d="M181.2437 185.4648
L181.3866 185.3933
" />
<path d="M181.3866 185.3933
L181.6723 185.3933
" />
<path d="M181.6723 185.3933
L181.8152 185.4648
" />
<path d="M181.8152 185.4648
L181.8866 185.6076
" />
<path d="M181.8866 185.6076
L181.8866 185.7505
" />
<path d="M181.8866 185.7505
L181.1723 185.8933
" />
<path d="M182.5295 186.2505
L182.6009 186.3219
" />
<path d="M182.6009 186.3219
L182.5295 186.3933
" />
<path d="M182.5295 186.3933
L182.4580 186.3219
" />
<path d="M182.4580 186.3219
L182.5295 186.2505
" />
<path d="M182.5295 186.2505
L182.5295 186.3933
" />
<path d="M182.5295 185.4648
L182.6009 185.5362
" />
<path d="M182.6009 185.5362
L182.5295 185.6076
" />
<path d="M182.5295 185.6076
L182.4580 185.5362
" />
<path d="M182.4580 185.5362
L182.5295 185.4648
" />
<path d="M182.5295 185.4648
L182.5295 185.6076
" />
<path d="M184.8866 185.6076
L185.1009 185.6790
" />
<path d="M185.1009 185.6790
L185.1723 185.7505
" />
<path d="M185.1723 185.7505
L185.2437 185.8933
" />
<path d="M185.2437 185.8933
L185.2437 186.1076
" />
<path d="M185.2437 186.1076
L185.1723 186.2505
" />
<path d="M185.1723 186.2505
L185.1009 186.3219
" />
<path d="M185.1009 186.3219
L184.9580 186.3933
" />
<path d="M184.9580 186.3933
L184.3866 186.3933
" />
<path d="M184.3866 186.3933
L184.3866 184.8933
" />
<path d="M184.3866 184.8933
L184.8866 184.8933
" />
<path d="M184.8866 184.8933
L185.0295 184.9648
" />
<path d="M185.0295 184.9648
L185.1009 185.0362
" />
<path d="M185.1009 185.0362
L185.1723 185.1790
" />
<path d="M185.1723 185.1790
L185.1723 185.3219
" />
<path d="M185.1723 185.3219
L185.1009 185.4648
" />
<path d="M185.1009 185.4648
L185.0295 185.5362
" />
<path d="M185.0295 185.5362
L184.8866 185.6076
" />
<path d="M184.8866 185.6076
L184.3866 185.6076
" />
<path d="M186.4580 186.3219
L186.3152 186.3933
" />
<path d="M186.3152 186.3933
L186.0295 186.3933
" />
<path d="M186.0295 186.3933
L185.8866 186.3219
" />
<path d="M185.8866 186.3219
L185.8152 186.1790
" />
<path d="M185.8152 186.1790
L185.8152 185.6076
" />
<path d="M185.8152 185.6076
L185.8866 185.4648
" />
<path d="M185.8866 185.4648
L186.0295 185.3933
" />
<path d="M186.0295 185.3933
L186.3152 185.3933
" />
<path d="M186.3152 185.3933
L186.4580 185.4648
" />
<path d="M186.4580 185.4648
L186.5295 185.6076
" />
<path d="M186.5295 185.6076
L186.5295 185.7505
" />
<path d="M186.5295 185.7505
L185.8152 185.8933
" />
<path d="M187.7437 186.3219
L187.6009 186.3933
" />
<path d="M187.6009 186.3933
L187.3152 186.3933
" />
<path d="M187.3152 186.3933
L187.1723 186.3219
" />
<path d="M187.1723 186.3219
L187.1009 186.1790
" />
<path d="M187.1009 186.1790
L187.1009 185.6076
" />
<path d="M187.1009 185.6076
L187.1723 185.4648
" />
<path d="M187.1723 185.4648
L187.3152 185.3933
" />
<path d="M187.3152 185.3933
L187.6009 185.3933
" />
<path d="M187.6009 185.3933
L187.7437 185.4648
" />
<path d="M187.7437 185.4648
L187.8152 185.6076
" />
<path d="M187.8152 185.6076
L187.8152 185.7505
" />
<path d="M187.8152 185.7505
L187.1009 185.8933
" />
<path d="M189.1723 186.3933
L188.4580 186.3933
" />
<path d="M188.4580 186.3933
L188.4580 184.8933
" />
<path d="M189.6723 186.3933
L189.6723 185.3933
" />
<path d="M189.6723 184.8933
L189.6009 184.9648
" />
<path d="M189.6009 184.9648
L189.6723 185.0362
" />
<path d="M189.6723 185.0362
L189.7437 184.9648
" />
<path d="M189.7437 184.9648
L189.6723 184.8933
" />
<path d="M189.6723 184.8933
L189.6723 185.0362
" />
<path d="M191.0295 185.3933
L191.0295 186.6076
" />
<path d="M191.0295 186.6076
L190.9580 186.7505
" />
<path d="M190.9580 186.7505
L190.8866 186.8219
" />
<path d="M190.8866 186.8219
L190.7437 186.8933
" />
<path d="M190.7437 186.8933
L190.5295 186.8933
" />
<path d="M190.5295 186.8933
L190.3866 186.8219
" />
<path d="M191.0295 186.3219
L190.8866 186.3933
" />
<path d="M190.8866 186.3933
L190.6009 186.3933
" />
<path d="M190.6009 186.3933
L190.4580 186.3219
" />
<path d="M190.4580 186.3219
L190.3866 186.2505
" />
<path d="M190.3866 186.2505
L190.3152 186.1076
" />
<path d="M190.3152 186.1076
L190.3152 185.6790
" />
<path d="M190.3152 185.6790
L190.3866 185.5362
" />
<path d="M190.3866 185.5362
L190.4580 185.4648
" />
<path d="M190.4580 185.4648
L190.6009 185.3933
" />
<path d="M190.6009 185.3933
L190.8866 185.3933
" />
<path d="M190.8866 185.3933
L191.0295 185.4648
" />
<path d="M191.7437 186.3933
L191.7437 184.8933
" />
<path d="M192.3866 186.3933
L192.3866 185.6076
" />
<path d="M192.3866 185.6076
L192.3152 185.4648
" />
<path d="M192.3152 185.4648
L192.1723 185.3933
" />
<path d="M192.1723 185.3933
L191.9580 185.3933
" />
<path d="M191.9580 185.3933
L191.8152 185.4648
" />
<path d="M191.8152 185.4648
L191.7437 185.5362
" />
<path d="M192.8866 185.3933
L193.4580 185.3933
" />
<path d="M193.1009 184.8933
L193.1009 186.1790
" />
<path d="M193.1009 186.1790
L193.1723 186.3219
" />
<path d="M193.1723 186.3219
L193.3152 186.3933
" />
<path d="M193.3152 186.3933
L193.4580 186.3933
" />
<path d="M193.9580 186.2505
L194.0295 186.3219
" />
<path d="M194.0295 186.3219
L193.9580 186.3933
" />
<path d="M193.9580 186.3933
L193.8866 186.3219
" />
<path d="M193.8866 186.3219
L193.9580 186.2505
" />
<path d="M193.9580 186.2505
L193.9580 186.3933
" />
<path d="M194.6723 186.3933
L194.6723 184.8933
" />
<path d="M194.8152 185.8219
L195.2437 186.3933
" />
<path d="M195.2437 185.3933
L194.6723 185.9648
" />
<path d="M195.8866 186.3933
L195.8866 185.3933
" />
<path d="M195.8866 184.8933
L195.8152 184.9648
" />
<path d="M195.8152 184.9648
L195.8866 185.0362
" />
<path d="M195.8866 185.0362
L195.9580 184.9648
" />
<path d="M195.9580 184.9648
L195.8866 184.8933
" />
<path d="M195.8866 184.8933
L195.8866 185.0362
" />
<path d="M197.2437 186.3219
L197.1009 186.3933
" />
<path d="M197.1009 186.3933
L196.8152 186.3933
" />
<path d="M196.8152 186.3933
L196.6723 186.3219
" />
<path d="M196.6723 186.3219
L196.6009 186.2505
" />
<path d="M196.6009 186.2505
L196.5295 186.1076
" />
<path d="M196.5295 186.1076
L196.5295 185.6790
" />
<path d="M196.5295 185.6790
L196.6009 185.5362
" />
<path d="M196.6009 185.5362
L196.6723 185.4648
" />
<path d="M196.6723 185.4648
L196.8152 185.3933
" />
<path d="M196.8152 185.3933
L197.1009 185.3933
" />
<path d="M197.1009 185.3933
L197.2437 185.4648
" />
<path d="M198.5295 186.3933
L198.5295 185.6076
" />
<path d="M198.5295 185.6076
L198.4580 185.4648
" />
<path d="M198.4580 185.4648
L198.3152 185.3933
" />
<path d="M198.3152 185.3933
L198.0295 185.3933
" />
<path d="M198.0295 185.3933
L197.8866 185.4648
" />
<path d="M198.5295 186.3219
L198.3866 186.3933
" />
<path d="M198.3866 186.3933
L198.0295 186.3933
" />
<path d="M198.0295 186.3933
L197.8866 186.3219
" />
<path d="M197.8866 186.3219
L197.8152 186.1790
" />
<path d="M197.8152 186.1790
L197.8152 186.0362
" />
<path d="M197.8152 186.0362
L197.8866 185.8933
" />
<path d="M197.8866 185.8933
L198.0295 185.8219
" />
<path d="M198.0295 185.8219
L198.3866 185.8219
" />
<path d="M198.3866 185.8219
L198.5295 185.7505
" />
<path d="M199.8866 186.3933
L199.8866 184.8933
" />
<path d="M199.8866 186.3219
L199.7437 186.3933
" />
<path d="M199.7437 186.3933
L199.4580 186.3933
" />
<path d="M199.4580 186.3933
L199.3152 186.3219
" />
<path d="M199.3152 186.3219
L199.2437 186.2505
" />
<path d="M199.2437 186.2505
L199.1723 186.1076
" />
<path d="M199.1723 186.1076
L199.1723 185.6790
" />
<path d="M199.1723 185.6790
L199.2437 185.5362
" />
<path d="M199.2437 185.5362
L199.3152 185.4648
" />
<path d="M199.3152 185.4648
L199.4580 185.3933
" />
<path d="M199.4580 185.3933
L199.7437 185.3933
" />
<path d="M199.7437 185.3933
L199.8866 185.4648
" />
<path d="M200.2437 186.5362
L201.3866 186.5362
" />
<path d="M201.7437 185.3933
L201.7437 186.8933
" />
<path d="M201.7437 185.4648
L201.8866 185.3933
" />
<path d="M201.8866 185.3933
L202.1723 185.3933
" />
<path d="M202.1723 185.3933
L202.3152 185.4648
" />
<path d="M202.3152 185.4648
L202.3866 185.5362
" />
<path d="M202.3866 185.5362
L202.4580 185.6790
" />
<path d="M202.4580 185.6790
L202.4580 186.1076
" />
<path d="M202.4580 186.1076
L202.3866 186.2505
" />
<path d="M202.3866 186.2505
L202.3152 186.3219
" />
<path d="M202.3152 186.3219
L202.1723 186.3933
" />
<path d="M202.1723 186.3933
L201.8866 186.3933
" />
<path d="M201.8866 186.3933
L201.7437 186.3219
" />
<path d="M203.7437 186.3219
L203.6009 186.3933
" />
<path d="M203.6009 186.3933
L203.3152 186.3933
" />
<path d="M203.3152 186.3933
L203.1723 186.3219
" />
<path d="M203.1723 186.3219
L203.1009 186.2505
" />
<path d="M203.1009 186.2505
L203.0295 186.1076
" />
<path d="M203.0295 186.1076
L203.0295 185.6790
" />
<path d="M203.0295 185.6790
L203.1009 185.5362
" />
<path d="M203.1009 185.5362
L203.1723 185.4648
" />
<path d="M203.1723 185.4648
L203.3152 185.3933
" />
<path d="M203.3152 185.3933
L203.6009 185.3933
" />
<path d="M203.6009 185.3933
L203.7437 185.4648
" />
<path d="M204.3866 186.3933
L204.3866 184.8933
" />
<path d="M204.3866 185.4648
L204.5295 185.3933
" />
<path d="M204.5295 185.3933
L204.8152 185.3933
" />
<path d="M204.8152 185.3933
L204.9580 185.4648
" />
<path d="M204.9580 185.4648
L205.0295 185.5362
" />
<path d="M205.0295 185.5362
L205.1009 185.6790
" />
<path d="M205.1009 185.6790
L205.1009 186.1076
" />
<path d="M205.1009 186.1076
L205.0295 186.2505
" />
<path d="M205.0295 186.2505
L204.9580 186.3219
" />
<path d="M204.9580 186.3219
L204.8152 186.3933
" />
<path d="M204.8152 186.3933
L204.5295 186.3933
" />
<path d="M204.5295 186.3933
L204.3866 186.3219
" />
</g></g>
<g style="fill:none; 
stroke:#000000; stroke-width:0.1500; stroke-opacity:1; 
stroke-linecap:round; stroke-linejoin:round;">
<path d="M177.0022 181.5072
L285.0022 181.5072
" />
</g>
<g style="fill:none; 
stroke:#000000; stroke-width:0.1500; stroke-opacity:1; 
stroke-linecap:round; stroke-linejoin:round;">
<text x="178.0022" y="183.7572"
textLength="8.2214" font-size="2.0000" lengthAdjust="spacingAndGlyphs"
text-anchor="start" opacity="0" stroke-opacity="0">Sheet: </text>
<g class="stroked-text"><desc>Sheet: </desc>
<path d="M178.3866 183.6219
L178.6009 183.6933
" />
<path d="M178.6009 183.6933
L178.9580 183.6933
" />
<path d="M178.9580 183.6933
L179.1009 183.6219
" />
<path d="M179.1009 183.6219
L179.1723 183.5505
" />
<path d="M179.1723 183.5505
L179.2437 183.4076
" />
<path d="M179.2437 183.4076
L179.2437 183.2648
" />
<path d="M179.2437 183.2648
L179.1723 183.1219
" />
<path d="M179.1723 183.1219
L179.1009 183.0505
" />
<path d="M179.1009 183.0505
L178.9580 182.9790
" />
<path d="M178.9580 182.9790
L178.6723 182.9076
" />
<path d="M178.6723 182.9076
L178.5295 182.8362
" />
<path d="M178.5295 182.8362
L178.4580 182.7648
" />
<path d="M178.4580 182.7648
L178.3866 182.6219
" />
<path d="M178.3866 182.6219
L178.3866 182.4790
" />
<path d="M178.3866 182.4790
L178.4580 182.3362
" />
<path d="M178.4580 182.3362
L178.5295 182.2648
" />
<path d="M178.5295 182.2648
L178.6723 182.1933
" />
<path d="M178.6723 182.1933
L179.0295 182.1933
" />
<path d="M179.0295 182.1933
L179.2437 182.2648
" />
<path d="M179.8866 183.6933
L179.8866 182.1933
" />
<path d="M180.5295 183.6933
L180.5295 182.9076
" />
<path d="M180.5295 182.9076
L180.4580 182.7648
" />
<path d="M180.4580 182.7648
L180.3152 182.6933
" />
<path d="M180.3152 182.6933
L180.1009 182.6933
" />
<path d="M180.1009 182.6933
L179.9580 182.7648
" />
<path d="M179.9580 182.7648
L179.8866 182.8362
" />
<path d="M181.8152 183.6219
L181.6723 183.6933
" />
<path d="M181.6723 183.6933
L181.3866 183.6933
" />
<path d="M181.3866 183.6933
L181.2437 183.6219
" />
<path d="M181.2437 183.6219
L181.1723 183.4790
" />
<path d="M181.1723 183.4790
L181.1723 182.9076
" />
<path d="M181.1723 182.9076
L181.2437 182.7648
" />
<path d="M181.2437 182.7648
L181.3866 182.6933
" />
<path d="M181.3866 182.6933
L181.6723 182.6933
" />
<path d="M181.6723 182.6933
L181.8152 182.7648
" />
<path d="M181.8152 182.7648
L181.8866 182.9076
" />
<path d="M181.8866 182.9076
L181.8866 183.0505
" />
<path d="M181.8866 183.0505
L181.1723 183.1933
" />
<path d="M183.1009 183.6219
L182.9580 183.6933
" />
<path d="M182.9580 183.6933
L182.6723 183.6933
" />
<path d="M182.6723 183.6933
L182.5295 183.6219
" />
<path d="M182.5295 183.6219
L182.4580 183.4790
" />
<path d="M182.4580 183.4790
L182.4580 182.9076
" />
<path d="M182.4580 182.9076
L182.5295 182.7648
" />
<path d="M182.5295 182.7648
L182.6723 182.6933
" />
<path d="M182.6723 182.6933
L182.9580 182.6933
" />
<path d="M182.9580 182.6933
L183.1009 182.7648
" />
<path d="M183.1009 182.7648
L183.1723 182.9076
" />
<path d="M183.1723 182.9076
L183.1723 183.0505
" />
<path d="M183.1723 183.0505
L182.4580 183.1933
" />
<path d="M183.6009 182.6933
L184.1723 182.6933
" />
<path d="M183.8152 182.1933
L183.8152 183.4790
" />
<path d="M183.8152 183.4790
L183.8866 183.6219
" />
<path d="M183.8866 183.6219
L184.0295 183.6933
" />
<path d="M184.0295 183.6933
L184.1723 183.6933
" />
<path d="M184.6723 183.5505
L184.7437 183.6219
" />
<path d="M184.7437 183.6219
L184.6723 183.6933
" />
<path d="M184.6723 183.6933
L184.6009 183.6219
" />
<path d="M184.6009 183.6219
L184.6723 183.5505
" />
<path d="M184.6723 183.5505
L184.6723 183.6933
" />
<path d="M184.6723 182.7648
L184.7437 182.8362
" />
<path d="M184.7437 182.8362
L184.6723 182.9076
" />
<path d="M184.6723 182.9076
L184.6009 182.8362
" />
<path d="M184.6009 182.8362
L184.6723 182.7648
" />
<path d="M184.6723 182.7648
L184.6723 182.9076
" />
</g></g>
<g style="fill:none; 
stroke:#000000; stroke-width:0.3000; stroke-opacity:1; 
stroke-linecap:round; stroke-linejoin:round;">
<text x="178.0022" y="180.7572"
textLength="0.9000" font-size="2.0000" lengthAdjust="spacingAndGlyphs"
text-anchor="start" opacity="0" stroke-opacity="0"></text>
<g class="stroked-text"><desc></desc>
</g></g>
<g style="fill:none; 
stroke:#000000; stroke-width:0.1500; stroke-opacity:1; 
stroke-linecap:round; stroke-linejoin:round;">
<text x="178.0022" y="177.7572"
textLength="0.4500" font-size="2.0000" lengthAdjust="spacingAndGlyphs"
text-anchor="start" opacity="0" stroke-opacity="0"></text>
<g class="stroked-text"><desc></desc>
</g></g>
<g style="fill:none; 
stroke:#000000; stroke-width:0.1500; stroke-opacity:1; 
stroke-linecap:round; stroke-linejoin:round;">
<text x="178.0022" y="174.7572"
textLength="0.4500" font-size="2.0000" lengthAdjust="spacingAndGlyphs"
text-anchor="start" opacity="0" stroke-opacity="0"></text>
<g class="stroked-text"><desc></desc>
</g></g>
<g style="fill:none; 
stroke:#000000; stroke-width:0.1500; stroke-opacity:1; 
stroke-linecap:round; stroke-linejoin:round;">
<text x="178.0022" y="171.7572"
textLength="0.4500" font-size="2.0000" lengthAdjust="spacingAndGlyphs"
text-anchor="start" opacity="0" stroke-opacity="0"></text>
<g class="stroked-text"><desc></desc>
</g></g>
<g style="fill:none; 
stroke:#000000; stroke-width:0.1500; stroke-opacity:1; 
stroke-linecap:round; stroke-linejoin:round;">
<text x="178.0022" y="168.7572"
textLength="0.4500" font-size="2.0000" lengthAdjust="spacingAndGlyphs"
text-anchor="start" opacity="0" stroke-opacity="0"></text>
<g class="stroked-text"><desc></desc>
</g></g>
<g style="fill:none; 
stroke:#000000; stroke-width:0.1500; stroke-opacity:1; 
stroke-linecap:round; stroke-linejoin:round;">
<path d="M197.0022 191.5072
L197.0022 194.5072
" />
</g>
<g style="fill:none; 
stroke:#000000; stroke-width:0.1500; stroke-opacity:1; 
stroke-linecap:round; stroke-linejoin:round;">
<path d="M261.0022 191.5072
L261.0022 198.0072
" />
</g>
<g style="fill:none; 
stroke:#000000; stroke-width:0.0500; stroke-opacity:1; 
stroke-linecap:round; stroke-linejoin:round;">
<path d="M153.0000 106.0000
L123.0000 106.0000
" />
<path d="M123.0000 82.0000 A1.0000 1.0000 0.0 0 0 122.0000 83.0000" />
<path d="M122.0000 105.0000 A1.0000 1.0000 0.0 0 0 123.0000 106.0000" />
<path d="M123.0000 82.0000
L153.0000 82.0000
" />
<path d="M153.0000 106.0000 A1.0000 1.0000 0.0 0 0 154.0000 105.0000" />
<path d="M122.0000 105.0000
L122.0000 83.0000
" />
<path d="M154.0000 83.0000
L154.0000 105.0000
" />
<path d="M154.0000 83.0000 A1.0000 1.0000 0.0 0 0 153.0000 82.0000" />
<path style="fill:none; 
stroke:#000000; stroke-width:0.1500; stroke-opacity:1; 
stroke-linecap:round; stroke-linejoin:round;fill:none"
d="M 35.2000,28.2000
117.7000,28.2000
117.7000,110.7000
35.2000,110.7000
Z" /> 
<path style="fill:none; 
stroke:#000000; stroke-width:0.1500; stroke-opacity:1; 
stroke-linecap:round; stroke-linejoin:round;fill:none"
d="M 165.7000,28.2000
248.2000,28.2000
248.2000,110.7000
165.7000,110.7000
Z" /> 
<path style="fill:#000000; fill-opacity:1.0000; stroke:none;fill-rule:evenodd;"
d="M 197.3436,18.1788
197.5599,18.2097
197.6974,18.2517
197.8220,18.3187
197.9257,18.4032
198.0109,18.5061
198.0754,18.6231
198.1132,18.7424
198.1257,18.8662
198.1097,18.9948
198.0620,19.1130
197.9801,19.2244
197.8726,19.3129
197.7079,19.3969
197.4679,19.4737
197.7307,19.5480
197.9088,19.6231
198.0233,19.6968
198.1247,19.7980
198.1954,19.9104
198.2381,20.0364
198.2528,20.1797
198.2369,20.3302
198.1904,20.4644
198.1129,20.5860
198.0008,20.6973
197.8419,20.7990
197.6446,20.8764
197.4008,20.9267
197.1010,20.9450
195.6890,20.9450
195.6890,20.8747
195.8658,20.8635
195.9502,20.8389
196.0099,20.7967
196.0466,20.7461
196.0650,20.6683
196.0695,20.5697
196.7198,20.5697
196.7351,20.6702
196.7760,20.7364
196.8424,20.7773
196.9433,20.7926
197.1017,20.7742
197.2455,20.7199
197.3677,20.6308
197.4576,20.5090
197.5126,20.3643
197.5315,20.2007
197.5211,20.0735
197.4909,19.9578
197.4412,19.8516
197.3726,19.7577
197.2904,19.6859
197.1931,19.6341
197.0854,19.6025
196.9325,19.5807
196.7220,19.5733
196.7220,20.4674
196.7198,20.5697
196.0695,20.5697
196.0742,20.4643
196.0742,19.4209
196.7220,19.4209
196.9173,19.4118
197.0560,19.3883
197.1514,19.3550
197.2746,19.2745
197.3633,19.1692
197.4173,19.0384
197.4371,18.8637
197.4176,18.6891
197.3644,18.5594
197.2769,18.4557
197.1563,18.3788
197.0631,18.3480
196.9233,18.3264
196.7220,18.3189
196.7220,19.4209
196.0742,19.4209
196.0742,18.6472
196.0650,18.4431
196.0466,18.3645
196.0096,18.3133
195.9491,18.2716
195.8641,18.2477
195.6890,18.2368
195.6890,18.1665
197.0211,18.1665
Z" /> 
<path style="fill:#000000; fill-opacity:1.0000; stroke:none;fill-rule:evenodd;"
d="M 199.6082,18.9898
199.7624,19.0326
199.9103,19.1044
200.0417,19.2019
200.1501,19.3231
200.2371,19.4707
200.2986,19.6323
200.3360,19.8049
200.3488,19.9906
200.3348,20.1932
200.2948,20.3719
200.2304,20.5306
200.1418,20.6721
200.0046,20.8174
199.8469,20.9194
199.6646,20.9818
199.4512,21.0036
199.2403,20.9832
199.0631,20.9254
198.9129,20.8321
198.7852,20.7008
198.6831,20.5435
198.6106,20.3757
198.5666,20.1950
198.5636,20.1548
199.1521,20.1548
199.1595,20.3706
199.1808,20.5653
199.2182,20.6984
199.2770,20.7871
199.3572,20.8445
199.4452,20.8629
199.5310,20.8497
199.5989,20.8116
199.6641,20.7303
199.7053,20.6166
199.7332,20.3724
199.7463,19.8283
199.7341,19.5065
199.7073,19.3491
199.6566,19.2322
199.5926,19.1592
199.5332,19.1275
199.4532,19.1161
199.3567,19.1357
199.2739,19.1952
199.2350,19.2537
199.2009,19.3522
199.1755,19.5072
199.1588,19.7632
199.1521,20.1548
198.5636,20.1548
198.5516,19.9987
198.5671,19.7962
198.6122,19.6111
198.6862,19.4404
198.7903,19.2815
198.9207,19.1477
199.0704,19.0534
199.2433,18.9956
199.4452,18.9754
Z" /> 
<path style="fill:#000000; fill-opacity:1.0000; stroke:none;fill-rule:evenodd;"
d="M 201.4003,18.3306
201.4003,19.0340
201.8551,19.0340
201.8551,19.2333
201.4003,19.2333
201.4003,20.4130
201.4053,20.5642
201.4157,20.6266
201.4370,20.6702
201.4699,20.7043
201.5092,20.7273
201.5417,20.7340
201.6216,20.7165
201.7043,20.6591
201.7937,20.5464
201.8551,20.5898
201.7762,20.7323
201.6843,20.8366
201.5790,20.9091
201.4579,20.9531
201.3162,20.9684
201.1981,20.9566
201.0964,20.9228
201.0077,20.8673
200.9022,20.7570
200.8469,20.6415
200.8334,20.5434
200.8264,20.2654
200.8264,19.2333
200.5763,19.2333
200.5763,19.1617
200.8197,18.9711
201.0160,18.7789
201.1850,18.5677
201.3327,18.3306
Z" /> 
<path style="fill:#000000; fill-opacity:1.0000; stroke:none;fill-rule:evenodd;"
d="M 202.7983,18.3306
202.7983,19.0340
203.2532,19.0340
203.2532,19.2333
202.7983,19.2333
202.7983,20.4130
202.8034,20.5642
202.8137,20.6266
202.8351,20.6702
202.8679,20.7043
202.9073,20.7273
202.9397,20.7340
203.0197,20.7165
203.1023,20.6591
203.1918,20.5464
203.2532,20.5898
203.1742,20.7323
203.0823,20.8366
202.9771,20.9091
202.8559,20.9531
202.7142,20.9684
202.5962,20.9566
202.4945,20.9228
202.4058,20.8673
202.3003,20.7570
202.2449,20.6415
202.2315,20.5434
202.2244,20.2654
202.2244,19.2333
201.9744,19.2333
201.9744,19.1617
202.2178,18.9711
202.4140,18.7789
202.5830,18.5677
202.7307,18.3306
Z" /> 
<path style="fill:#000000; fill-opacity:1.0000; stroke:none;fill-rule:evenodd;"
d="M 204.5028,18.9898
204.6571,19.0326
204.8049,19.1044
204.9364,19.2019
205.0448,19.3231
205.1317,19.4707
205.1933,19.6323
205.2307,19.8049
205.2434,19.9906
205.2295,20.1932
205.1894,20.3719
205.1250,20.5306
205.0364,20.6721
204.8992,20.8174
204.7415,20.9194
204.5592,20.9818
204.3458,21.0036
204.1349,20.9832
203.9578,20.9254
203.8075,20.8321
203.6798,20.7008
203.5777,20.5435
203.5052,20.3757
203.4613,20.1950
203.4582,20.1548
204.0467,20.1548
204.0541,20.3706
204.0755,20.5653
204.1129,20.6984
204.1716,20.7871
204.2518,20.8445
204.3398,20.8629
204.4257,20.8497
204.4935,20.8116
204.5587,20.7303
204.5999,20.6166
204.6278,20.3724
204.6409,19.8283
204.6288,19.5065
204.6019,19.3491
204.5512,19.2322
204.4873,19.1592
204.4278,19.1275
204.3479,19.1161
204.2513,19.1357
204.1685,19.1952
204.1296,19.2537
204.0955,19.3522
204.0701,19.5072
204.0534,19.7632
204.0467,20.1548
203.4582,20.1548
203.4462,19.9987
203.4617,19.7962
203.5068,19.6111
203.5809,19.4404
203.6849,19.2815
203.8154,19.1477
203.9651,19.0534
204.1379,18.9956
204.3398,18.9754
Z" /> 
<path style="fill:#000000; fill-opacity:1.0000; stroke:none;fill-rule:evenodd;"
d="M 206.3297,19.0340
206.3297,19.2975
206.4903,19.1378
206.6217,19.0469
206.7614,18.9935
206.9157,18.9754
207.0359,18.9860
207.1378,19.0161
207.2251,19.0645
207.2995,19.1312
207.3638,19.2203
207.4178,19.3359
207.5862,19.1648
207.7323,19.0602
207.8874,18.9963
208.0470,18.9754
208.1767,18.9867
208.2804,19.0179
208.3636,19.0668
208.4636,19.1707
208.5275,19.2991
208.5599,19.4608
208.5737,19.7479
208.5737,20.5347
208.5870,20.7319
208.6136,20.8060
208.6680,20.8463
208.7807,20.8747
208.7807,20.9450
207.7908,20.9450
207.7908,20.8747
207.8945,20.8462
207.9630,20.7856
207.9879,20.7128
208.0000,20.5347
208.0000,19.7166
207.9931,19.4850
207.9794,19.3933
207.9519,19.3312
207.9148,19.2905
207.8674,19.2654
207.8113,19.2568
207.7252,19.2719
207.6330,19.3207
207.5467,19.3962
207.4506,19.5125
207.4506,20.5347
207.4621,20.7198
207.4854,20.7917
207.5232,20.8319
207.5809,20.8601
207.6658,20.8747
207.6658,20.9450
206.6739,20.9450
206.6739,20.8747
206.7479,20.8620
206.7999,20.8353
206.8389,20.7956
206.8615,20.7503
206.8718,20.6863
206.8769,20.5347
206.8769,19.7180
206.8700,19.4834
206.8564,19.3949
206.8284,19.3363
206.7877,19.2934
206.7371,19.2657
206.6842,19.2568
206.6056,19.2674
206.5347,19.2991
206.4418,19.3770
206.3297,19.5125
206.3297,20.5347
206.3424,20.7173
206.3696,20.7988
206.4254,20.8468
206.5367,20.8747
206.5367,20.9450
205.5488,20.9450
205.5488,20.8747
205.6567,20.8474
205.7210,20.7977
205.7438,20.7313
205.7558,20.5347
205.7558,19.4444
205.7425,19.2484
205.7159,19.1740
205.6614,19.1331
205.5488,19.1044
205.5488,19.0340
Z" /> 
<path style="fill:#000000; fill-opacity:1.0000; stroke:none;fill-rule:evenodd;"
d="M 212.8506,18.1665
212.8506,18.2368
212.7554,18.2647
212.6658,18.3175
212.5801,18.3986
212.4904,18.5380
212.3240,18.8798
211.3670,21.0036
211.2993,21.0036
210.3463,18.7961
210.1821,18.4370
210.1157,18.3253
210.0400,18.2718
209.8955,18.2368
209.8955,18.1665
211.2276,18.1665
211.2276,18.2368
211.1826,18.2368
211.0178,18.2509
210.9365,18.2826
210.9015,18.3208
210.8895,18.3744
210.9058,18.4631
211.0166,18.7338
211.6088,20.1139
212.1580,18.8849
212.2789,18.5849
212.3014,18.4543
212.2931,18.3953
212.2686,18.3445
212.2292,18.3034
212.1723,18.2720
212.0764,18.2467
211.9387,18.2368
211.9387,18.1665
Z" /> 
<path style="fill:#000000; fill-opacity:1.0000; stroke:none;fill-rule:evenodd;"
d="M 213.3404,18.1079
213.4254,18.1184
213.4996,18.1492
213.5658,18.2011
213.6173,18.2679
213.6477,18.3418
213.6581,18.4255
213.6476,18.5090
213.6169,18.5825
213.5648,18.6488
213.4981,18.7002
213.4241,18.7306
213.3404,18.7410
213.2568,18.7306
213.1832,18.7002
213.1170,18.6488
213.0656,18.5826
213.0352,18.5090
213.0248,18.4255
213.0352,18.3418
213.0656,18.2679
213.1170,18.2011
213.1832,18.1491
213.2569,18.1184
Z" /> 
<path style="fill:#000000; fill-opacity:1.0000; stroke:none;fill-rule:evenodd;"
d="M 213.6273,19.0340
213.6273,20.5464
213.6425,20.7322
213.6744,20.8093
213.7366,20.8513
213.8590,20.8747
213.8590,20.9450
212.8241,20.9450
212.8241,20.8747
212.9386,20.8523
213.0126,20.7999
213.0399,20.7314
213.0536,20.5464
213.0536,19.4326
213.0383,19.2469
213.0063,19.1698
212.9446,19.1276
212.8241,19.1044
212.8241,19.0340
Z" /> 
<path style="fill:#000000; fill-opacity:1.0000; stroke:none;fill-rule:evenodd;"
d="M 215.0728,18.9901
215.2016,19.0337
215.3228,19.1074
215.4382,19.2148
215.5274,19.3391
215.5971,19.4944
215.6455,19.6870
215.6689,19.9250
214.6176,19.9250
214.6391,20.1132
214.6812,20.2721
214.7420,20.4062
214.8206,20.5193
214.9238,20.6143
215.0358,20.6688
215.1607,20.6871
215.2781,20.6698
215.3840,20.6182
215.4801,20.5309
215.5993,20.3705
215.6689,20.4174
215.5527,20.6233
215.4379,20.7704
215.3245,20.8704
215.1934,20.9439
215.0491,20.9884
214.8882,21.0036
214.7203,20.9895
214.5754,20.9493
214.4493,20.8845
214.3389,20.7943
214.2426,20.6761
214.1472,20.4925
214.0875,20.2766
214.0664,20.0212
214.0843,19.7830
214.1017,19.7135
214.6073,19.7135
214.6073,19.7844
215.1648,19.7844
215.1535,19.4837
215.1289,19.3368
215.0812,19.2271
215.0173,19.1526
214.9688,19.1258
214.9024,19.1161
214.8368,19.1272
214.7796,19.1604
214.7282,19.2194
214.6644,19.3454
214.6226,19.5070
214.6073,19.7135
214.1017,19.7135
214.1350,19.5804
214.2155,19.4073
214.3256,19.2590
214.4650,19.1318
214.6110,19.0445
214.7659,18.9929
214.9332,18.9754
Z" /> 
<path style="fill:#000000; fill-opacity:1.0000; stroke:none;fill-rule:evenodd;"
d="M 217.8097,21.0036
217.2851,19.5970
216.7707,21.0036
216.6641,21.0036
216.1538,19.6206
216.0357,19.3287
215.9590,19.2002
215.8971,19.1445
215.8033,19.1044
215.8033,19.0340
216.7707,19.0340
216.7707,19.1044
216.6811,19.1132
216.6353,19.1335
216.6072,19.1657
216.5985,19.2002
216.6091,19.2513
216.6641,19.4125
216.9449,20.1590
217.2153,19.4138
217.1950,19.3608
217.1305,19.2219
217.0873,19.1634
217.0328,19.1291
216.9449,19.1044
216.9449,19.0340
217.9264,19.0340
217.9264,19.1044
217.8230,19.1179
217.7810,19.1366
217.7582,19.1673
217.7502,19.2106
217.7607,19.2686
217.8097,19.4125
218.0803,20.1590
218.3261,19.4717
218.3695,19.3328
218.3794,19.2683
218.3686,19.1951
218.3404,19.1500
218.2905,19.1223
218.1887,19.1044
218.1887,19.0340
218.7564,19.0340
218.7564,19.1044
218.6701,19.1284
218.6069,19.1722
218.5545,19.2549
218.4635,19.4860
217.9264,21.0036
Z" /> 
<path style="fill:#000000; fill-opacity:1.0000; stroke:none;fill-rule:evenodd;"
d="M 71.4697,18.1665
71.4697,18.9285
71.3961,18.9285
71.3205,18.6867
71.2504,18.5510
71.1571,18.4490
71.0312,18.3678
70.9383,18.3420
70.7586,18.3306
70.5516,18.3306
70.5516,20.4643
70.5595,20.6632
70.5750,20.7380
70.6082,20.7874
70.6674,20.8336
70.7438,20.8633
70.8549,20.8747
70.9471,20.8747
70.9471,20.9450
69.4921,20.9450
69.4921,20.8747
69.5842,20.8747
69.6978,20.8626
69.7789,20.8305
69.8253,20.7921
69.8630,20.7294
69.8779,20.6590
69.8855,20.4643
69.8855,18.3306
69.6848,18.3306
69.5010,18.3465
69.3695,18.3882
69.2770,18.4506
69.1761,18.5727
69.1004,18.7293
69.0515,18.9285
68.9737,18.9285
68.9737,18.1665
Z" /> 
<path style="fill:#000000; fill-opacity:1.0000; stroke:none;fill-rule:evenodd;"
d="M 72.4453,18.9898
72.5995,19.0326
72.7474,19.1044
72.8789,19.2019
72.9873,19.3231
73.0742,19.4707
73.1358,19.6323
73.1732,19.8049
73.1859,19.9906
73.1720,20.1932
73.1319,20.3719
73.0675,20.5306
72.9789,20.6721
72.8417,20.8174
72.6840,20.9194
72.5017,20.9818
72.2883,21.0036
72.0774,20.9832
71.9003,20.9254
71.7500,20.8321
71.6223,20.7008
71.5202,20.5435
71.4477,20.3757
71.4038,20.1950
71.4007,20.1548
71.9892,20.1548
71.9966,20.3706
72.0180,20.5653
72.0554,20.6984
72.1141,20.7871
72.1943,20.8445
72.2823,20.8629
72.3682,20.8497
72.4360,20.8116
72.5012,20.7303
72.5424,20.6166
72.5703,20.3724
72.5834,19.8283
72.5713,19.5065
72.5444,19.3491
72.4937,19.2322
72.4298,19.1592
72.3703,19.1275
72.2904,19.1161
72.1938,19.1357
72.1110,19.1952
72.0721,19.2537
72.0380,19.3522
72.0126,19.5072
71.9959,19.7632
71.9892,20.1548
71.4007,20.1548
71.3887,19.9987
71.4042,19.7962
71.4493,19.6111
71.5234,19.4404
71.6274,19.2815
71.7579,19.1477
71.9076,19.0534
72.0804,18.9956
72.2823,18.9754
Z" /> 
<path style="fill:#000000; fill-opacity:1.0000; stroke:none;fill-rule:evenodd;"
d="M 74.8860,18.9901
75.0131,19.0340
75.1339,19.1084
75.2382,19.2061
75.3259,19.3274
75.3973,19.4759
75.4469,19.6343
75.4772,19.8020
75.4874,19.9804
75.4766,20.1723
75.4452,20.3486
75.3942,20.5114
75.3201,20.6633
75.2300,20.7839
75.1236,20.8778
75.0006,20.9479
74.8701,20.9895
74.7292,21.0036
74.5760,20.9861
74.4341,20.9340
74.3346,20.8664
74.2189,20.7516
74.2189,21.4726
74.2262,21.6090
74.2423,21.6744
74.2726,21.7210
74.3151,21.7526
74.3763,21.7696
74.5078,21.7774
74.5078,21.8477
73.4155,21.8477
73.4155,21.7774
73.5302,21.7558
73.6040,21.7054
73.6314,21.6383
73.6450,21.4608
73.6450,19.5206
74.2189,19.5206
74.2189,20.5427
74.3177,20.6613
74.4122,20.7371
74.5040,20.7791
74.5961,20.7926
74.6636,20.7804
74.7235,20.7432
74.7783,20.6759
74.8302,20.5534
74.8691,20.3467
74.8849,20.0205
74.8678,19.6866
74.8253,19.4721
74.7681,19.3425
74.7086,19.2740
74.6401,19.2349
74.5591,19.2216
74.4672,19.2376
74.3818,19.2869
74.2992,19.3767
74.2189,19.5206
73.6450,19.5206
73.6450,19.4326
73.6297,19.2469
73.5977,19.1698
73.5360,19.1276
73.4155,19.1044
73.4155,19.0340
74.2189,19.0340
74.2189,19.2861
74.3253,19.1539
74.4239,19.0729
74.5270,19.0185
74.6350,18.9863
74.7498,18.9754
Z" /> 
<path style="fill:#000000; fill-opacity:1.0000; stroke:none;fill-rule:evenodd;"
d="M 79.6295,18.1665
79.6295,18.2368
79.5343,18.2647
79.4447,18.3175
79.3590,18.3986
79.2694,18.5380
79.1029,18.8798
78.1460,21.0036
78.0782,21.0036
77.1253,18.7961
76.9611,18.4370
76.8946,18.3253
76.8190,18.2718
76.6744,18.2368
76.6744,18.1665
78.0066,18.1665
78.0066,18.2368
77.9615,18.2368
77.7967,18.2509
77.7155,18.2826
77.6804,18.3208
77.6684,18.3744
77.6847,18.4631
77.7955,18.7338
78.3878,20.1139
78.9369,18.8849
79.0578,18.5849
79.0804,18.4543
79.0720,18.3953
79.0476,18.3445
79.0081,18.3034
78.9512,18.2720
78.8553,18.2467
78.7177,18.2368
78.7177,18.1665
Z" /> 
<path style="fill:#000000; fill-opacity:1.0000; stroke:none;fill-rule:evenodd;"
d="M 80.1194,18.1079
80.2043,18.1184
80.2785,18.1492
80.3447,18.2011
80.3962,18.2679
80.4266,18.3418
80.4370,18.4255
80.4265,18.5090
80.3958,18.5825
80.3438,18.6488
80.2770,18.7002
80.2031,18.7306
80.1194,18.7410
80.0357,18.7306
79.9621,18.7002
79.8959,18.6488
79.8445,18.5826
79.8141,18.5090
79.8038,18.4255
79.8141,18.3418
79.8445,18.2679
79.8959,18.2011
79.9622,18.1491
80.0358,18.1184
Z" /> 
<path style="fill:#000000; fill-opacity:1.0000; stroke:none;fill-rule:evenodd;"
d="M 80.4062,19.0340
80.4062,20.5464
80.4214,20.7322
80.4533,20.8093
80.5155,20.8513
80.6380,20.8747
80.6380,20.9450
79.6030,20.9450
79.6030,20.8747
79.7175,20.8523
79.7915,20.7999
79.8188,20.7314
79.8325,20.5464
79.8325,19.4326
79.8173,19.2469
79.7852,19.1698
79.7235,19.1276
79.6030,19.1044
79.6030,19.0340
Z" /> 
<path style="fill:#000000; fill-opacity:1.0000; stroke:none;fill-rule:evenodd;"
d="M 81.8517,18.9901
81.9806,19.0337
82.1017,19.1074
82.2172,19.2148
82.3064,19.3391
82.3761,19.4944
82.4245,19.6870
82.4478,19.9250
81.3965,19.9250
81.4180,20.1132
81.4602,20.2721
81.5209,20.4062
81.5995,20.5193
81.7028,20.6143
81.8147,20.6688
81.9397,20.6871
82.0571,20.6698
82.1630,20.6182
82.2590,20.5309
82.3782,20.3705
82.4478,20.4174
82.3316,20.6233
82.2168,20.7704
82.1034,20.8704
81.9723,20.9439
81.8280,20.9884
81.6671,21.0036
81.4992,20.9895
81.3543,20.9493
81.2282,20.8845
81.1179,20.7943
81.0215,20.6761
80.9262,20.4925
80.8664,20.2766
80.8453,20.0212
80.8632,19.7830
80.8806,19.7135
81.3863,19.7135
81.3863,19.7844
81.9437,19.7844
81.9325,19.4837
81.9078,19.3368
81.8601,19.2271
81.7962,19.1526
81.7478,19.1258
81.6814,19.1161
81.6157,19.1272
81.5585,19.1604
81.5072,19.2194
81.4433,19.3454
81.4016,19.5070
81.3863,19.7135
80.8806,19.7135
80.9139,19.5804
80.9944,19.4073
81.1045,19.2590
81.2439,19.1318
81.3899,19.0445
81.5448,18.9929
81.7121,18.9754
Z" /> 
<path style="fill:#000000; fill-opacity:1.0000; stroke:none;fill-rule:evenodd;"
d="M 84.5887,21.0036
84.0640,19.5970
83.5496,21.0036
83.4430,21.0036
82.9327,19.6206
82.8146,19.3287
82.7380,19.2002
82.6760,19.1445
82.5823,19.1044
82.5823,19.0340
83.5496,19.0340
83.5496,19.1044
83.4601,19.1132
83.4143,19.1335
83.3861,19.1657
83.3775,19.2002
83.3880,19.2513
83.4430,19.4125
83.7238,20.1590
83.9942,19.4138
83.9739,19.3608
83.9094,19.2219
83.8662,19.1634
83.8118,19.1291
83.7238,19.1044
83.7238,19.0340
84.7053,19.0340
84.7053,19.1044
84.6020,19.1179
84.5599,19.1366
84.5372,19.1673
84.5291,19.2106
84.5396,19.2686
84.5887,19.4125
84.8592,20.1590
85.1050,19.4717
85.1484,19.3328
85.1583,19.2683
85.1475,19.1951
85.1193,19.1500
85.0694,19.1223
84.9677,19.1044
84.9677,19.0340
85.5353,19.0340
85.5353,19.1044
85.4490,19.1284
85.3859,19.1722
85.3334,19.2549
85.2424,19.4860
84.7053,21.0036
Z" /> 
</g> 
</svg>
